<svg width="490" height="55" viewBox="0 0 490 55" fill="none" xmlns="http://www.w3.org/2000/svg">
<path d="M41.0512 30.6709C41.8101 29.8513 42.9032 28.5146 43.8153 26.613C46.3253 21.3695 44.5707 17.8925 46.9728 13.5322C47.1782 13.1583 48.7552 11.6306 51.9058 8.57127C57.4306 3.20848 58.5063 2.60378 59.8013 2.25766C61.4967 1.80413 61.7856 2.27756 65.3261 1.58135C66.4645 1.35856 67.1886 1.15965 69.4723 0.678268C70.8927 0.379894 72.0554 0.149151 72.8282 0.00195312C71.937 0.749878 69.8065 2.75893 68.6821 6.31556C67.8291 9.02082 67.9475 11.3879 68.0902 12.6292C67.1294 13.5243 65.5176 15.2668 64.3409 18.0437C62.9658 21.29 62.9031 24.2498 62.9588 25.7139C61.9353 26.3623 59.6203 28.0372 58.0259 31.3512C56.0624 35.4329 56.4697 39.3555 56.6438 40.5968C56.3618 40.8554 55.5437 41.6709 55.2617 43.0793C54.851 45.1162 55.9023 46.6995 56.052 46.9144C55.7039 47.2605 54.8161 48.2312 54.4715 49.8464C54.005 52.0305 54.8718 53.769 55.0633 54.131C54.0363 52.9853 52.0068 51.028 48.9467 49.8464C46.2035 48.7882 43.8223 48.812 42.4332 48.9433C38.3462 44.5632 33.0617 43.0514 29.0408 45.1639C27.1261 46.1704 25.8589 47.8055 25.0652 49.1701C24.6579 48.5415 22.026 44.6348 17.3681 44.2091C13.9564 43.8948 11.4499 45.6333 10.6562 46.238C10.0017 45.7567 8.12181 44.5115 5.52478 44.6587C2.47867 44.8337 0.515229 46.8069 0 47.3639C0.386421 43.6124 1.55613 41.102 2.36727 39.6937C3.16796 38.3053 3.95473 37.4141 5.32635 35.8586C6.4508 34.5855 8.12181 32.7157 10.6562 30.8976C12.9643 29.2426 14.1166 28.4152 15.7876 28.1924C17.6013 27.9497 19.0356 28.5584 21.9042 29.7718C23.4707 30.4322 23.9442 30.7942 27.6274 32.7038C29.1452 33.4915 30.388 34.1121 31.1783 34.5099C29.3889 33.0419 28.6056 31.5381 28.2192 30.4521C27.5961 28.6976 27.8049 27.4484 27.0356 24.588C26.6909 23.303 26.308 22.2885 26.0504 21.656C27.4881 21.4213 28.5917 21.6798 29.2079 21.8827C31.5055 22.6346 32.8319 24.4885 33.549 25.4911C34.3637 26.6289 34.851 27.711 35.1295 28.4231C35.1052 27.7826 35.0007 23.0723 38.0886 20.3033C39.14 19.3605 40.24 18.9308 41.0477 18.724C41.3366 20.1442 41.5873 21.8987 41.6395 23.9117C41.7161 26.6249 41.4063 28.9363 41.0512 30.6709Z" fill="#3A3939"/>
<path d="M437.151 30.6729C436.192 29.8534 434.811 28.5166 433.658 26.615C430.487 21.3716 432.704 17.8945 429.669 13.5343C429.409 13.1603 427.417 11.6326 423.436 8.57329C416.455 3.21051 415.096 2.60183 413.46 2.25571C411.318 1.80218 410.952 2.2756 406.479 1.5794C405.036 1.35661 404.121 1.15769 401.24 0.676315C399.446 0.377941 397.972 0.147198 397 0C398.126 0.747925 400.818 2.75698 402.239 6.3136C403.316 9.01886 403.167 11.386 402.987 12.6272C404.201 13.5263 406.237 15.2688 407.724 18.0417C409.461 21.288 409.541 24.2479 409.47 25.7119C410.763 26.3604 413.688 28.0353 415.703 31.3492C418.184 35.431 417.669 39.3536 417.449 40.5948C417.806 40.8534 418.839 41.669 419.196 43.0773C419.715 45.1142 418.386 46.6976 418.197 46.9124C418.637 47.2585 419.759 48.2292 420.194 49.8444C420.783 52.0285 419.688 53.7671 419.446 54.1291C420.744 52.9833 423.308 51.026 427.175 49.8444C430.641 48.7862 433.649 48.8101 435.404 48.9414C440.568 44.5612 447.246 43.0495 452.326 45.162C454.745 46.1685 456.346 47.8036 457.349 49.1681C457.864 48.5396 461.189 44.6328 467.075 44.2072C471.385 43.8929 474.552 45.6314 475.555 46.2361C476.382 45.7547 478.757 44.5095 482.039 44.6567C485.888 44.8318 488.368 46.805 489.019 47.362C488.531 43.6104 487.053 41.1001 486.028 39.6918C485.017 38.3033 484.023 37.4122 482.29 35.8566C480.869 34.5836 478.757 32.7138 475.555 30.8957C472.639 29.2407 471.183 28.4132 469.072 28.1904C466.78 27.9477 464.968 28.5564 461.343 29.7698C459.364 30.4302 458.766 30.7922 454.112 32.7018C452.194 33.4895 450.624 34.1102 449.625 34.508C451.886 33.04 452.876 31.5362 453.364 30.4501C454.151 28.6957 453.888 27.4465 454.86 24.5861C455.295 23.3011 455.779 22.2866 456.104 21.654C454.288 21.4193 452.893 21.6779 452.115 21.8808C449.212 22.6327 447.536 24.4866 446.63 25.4891C445.601 26.6269 444.985 27.709 444.633 28.4212C444.664 27.7806 444.796 23.0703 440.894 20.3014C439.566 19.3585 438.176 18.9289 437.155 18.722C436.79 20.1423 436.473 21.8967 436.407 23.9097C436.311 26.6269 436.702 28.9383 437.151 30.6729Z" fill="#3A3939"/>
</svg>
