<svg width="1143" height="106" viewBox="0 0 1143 106" fill="none" xmlns="http://www.w3.org/2000/svg">
<path d="M79.9616 59.7385C81.4399 58.1421 83.5691 55.5384 85.3457 51.8343C90.2348 41.6209 86.8172 34.8481 91.4961 26.355C91.8962 25.6266 94.968 22.6509 101.105 16.6917C111.866 6.24584 113.962 5.06797 116.484 4.39379C119.786 3.51038 120.349 4.43253 127.246 3.07643C129.463 2.64247 130.873 2.25501 135.322 1.31736C138.088 0.736173 140.353 0.28672 141.859 0C140.123 1.45685 135.973 5.37019 133.782 12.298C132.121 17.5674 132.352 22.1782 132.63 24.5959C130.758 26.3395 127.619 29.7336 125.327 35.1426C122.648 41.4659 122.526 47.2313 122.634 50.083C120.641 51.3461 116.131 54.6085 113.026 61.0636C109.201 69.0143 109.995 76.655 110.334 79.0727C109.784 79.5764 108.191 81.165 107.642 83.9082C106.842 87.8758 108.889 90.96 109.181 91.3784C108.503 92.0526 106.774 93.9434 106.102 97.0896C105.194 101.344 106.882 104.73 107.255 105.435C105.255 103.204 101.301 99.3911 95.3409 97.0896C89.9975 95.0283 85.3593 95.0748 82.6537 95.3305C74.6928 86.7986 64.3992 83.8539 56.5671 87.9688C52.8376 89.9293 50.3693 93.1142 48.8232 95.7722C48.0299 94.5478 42.9034 86.9381 33.8304 86.109C27.185 85.4968 22.3027 88.8832 20.7567 90.0611C19.4818 89.1234 15.8201 86.6979 10.7615 86.9846C4.82808 87.3256 1.00359 91.1692 0 92.2541C0.752692 84.9466 3.03111 80.0568 4.61108 77.3136C6.17071 74.6092 7.70322 72.8734 10.3749 69.8434C12.5652 67.3637 15.8201 63.7216 20.7567 60.1802C25.2525 56.9565 27.497 55.3447 30.7519 54.9107C34.2848 54.438 37.0785 55.6237 42.6661 57.9872C45.7175 59.2735 46.6397 59.9787 53.8141 63.6983C56.7706 65.2327 59.1914 66.4415 60.7307 67.2165C57.2452 64.357 55.7195 61.4278 54.9668 59.3123C53.753 55.8949 54.1599 53.4616 52.6613 47.89C51.99 45.387 51.2441 43.4109 50.7423 42.1788C53.5428 41.7216 55.6924 42.2253 56.8926 42.6205C61.3681 44.0851 63.9517 47.6962 65.3485 49.649C66.9353 51.8653 67.8846 53.9731 68.4271 55.3602C68.3797 54.1126 68.1762 44.9375 74.191 39.5441C76.2388 37.7075 78.3816 36.8706 79.9548 36.4677C80.5177 39.2341 81.0059 42.6515 81.1076 46.5726C81.2568 51.8576 80.6533 56.3598 79.9616 59.7385Z" fill="#3A3939"/>
<path d="M1041.18 59.7462C1039.32 58.1499 1036.63 55.5462 1034.38 51.8421C1028.2 41.6286 1032.52 34.8558 1026.61 26.3627C1026.11 25.6343 1022.22 22.6586 1014.47 16.6995C1000.87 6.25359 998.226 5.06797 995.038 4.39379C990.866 3.51038 990.155 4.43254 981.441 3.07643C978.631 2.64247 976.849 2.25501 971.237 1.31736C967.741 0.736173 964.871 0.28672 962.977 0C965.171 1.45685 970.414 5.37019 973.182 12.298C975.281 17.5674 974.989 22.1782 974.638 24.5959C977.003 26.3472 980.97 29.7414 983.866 35.1426C987.25 41.4659 987.404 47.2313 987.267 50.083C989.786 51.3461 995.484 54.6085 999.408 61.0636C1004.24 69.0143 1003.24 76.655 1002.81 79.0727C1003.5 79.5764 1005.52 81.165 1006.21 83.9082C1007.22 87.8758 1004.63 90.96 1004.27 91.3784C1005.12 92.0526 1007.31 93.9434 1008.16 97.0896C1009.3 101.344 1007.17 104.73 1006.7 105.435C1009.23 103.204 1014.22 99.3911 1021.75 97.0896C1028.5 95.0283 1034.36 95.0748 1037.78 95.3305C1047.84 86.7987 1060.85 83.854 1070.74 87.9688C1075.46 89.9293 1078.58 93.1142 1080.53 95.7722C1081.53 94.5478 1088.01 86.9381 1099.47 86.109C1107.87 85.4968 1114.04 88.8832 1115.99 90.0611C1117.6 89.1234 1122.23 86.6979 1128.62 86.9846C1136.12 87.3256 1140.95 91.1692 1142.22 92.2541C1141.27 84.9466 1138.39 80.0569 1136.39 77.3136C1134.42 74.6092 1132.48 72.8734 1129.11 69.8434C1126.34 67.3637 1122.23 63.7216 1115.99 60.1802C1110.31 56.9565 1107.47 55.3447 1103.36 54.9107C1098.9 54.438 1095.37 55.6237 1088.31 57.9872C1084.45 59.2735 1083.29 59.9787 1074.22 63.6983C1070.49 65.2327 1067.43 66.4415 1065.48 67.2165C1069.89 64.357 1071.82 61.4278 1072.77 59.3123C1074.3 55.8949 1073.79 53.4616 1075.68 47.89C1076.53 45.387 1077.47 43.411 1078.1 42.1788C1074.57 41.7216 1071.85 42.2253 1070.33 42.6205C1064.68 44.0851 1061.41 47.6963 1059.65 49.649C1057.64 51.8653 1056.44 53.9731 1055.76 55.3602C1055.82 54.1126 1056.08 44.9375 1048.48 39.5441C1045.89 37.7075 1043.18 36.8706 1041.19 36.4677C1040.48 39.2341 1039.87 42.6515 1039.74 46.5726C1039.55 51.8653 1040.31 56.3676 1041.18 59.7462Z" fill="#3A3939"/>
</svg>
