<svg width="320" height="107" viewBox="0 0 320 107" fill="none" xmlns="http://www.w3.org/2000/svg">
<rect width="319.821" height="106.607" rx="36.1471" fill="#EDEBDF"/>
<path d="M93.9591 59.9308V37.7022C93.5703 37.6222 93.1187 37.5821 92.6041 37.5821H85.0917V59.9308C85.0917 60.6854 85.1203 61.2286 85.1775 61.5602C85.2918 62.2119 85.5148 62.8351 85.8464 63.4297H80.4436C80.7981 62.9151 81.0325 62.3148 81.1468 61.6288C81.2154 61.1943 81.2497 60.6283 81.2497 59.9308V37.222C81.2497 36.5016 81.2154 35.947 81.1468 35.5583C81.021 34.8493 80.7866 34.249 80.4436 33.7573H98.5729C98.287 34.2376 98.0698 34.7864 97.9211 35.4039C97.8297 36.1357 97.7839 36.7417 97.7839 37.222V59.9308C97.7839 60.6168 97.8182 61.16 97.8868 61.5602C98.0126 62.2234 98.2299 62.8465 98.5386 63.4297H93.1701C93.5017 62.9609 93.7247 62.3606 93.839 61.6288C93.9191 61.1256 93.9591 60.5596 93.9591 59.9308ZM121.527 45.5748C121.527 49.1424 120.538 52.0581 118.56 54.3222C116.685 56.4718 114.169 57.5467 111.013 57.5467C108.12 57.5467 105.759 56.5004 103.929 54.4079C101.94 52.1439 100.945 49.3596 100.945 46.0551C100.945 42.1216 101.883 39.0686 103.758 36.8961C105.542 34.8264 108.057 33.7859 111.305 33.7745C114.438 33.7745 116.902 34.7979 118.697 36.8446C120.572 38.9943 121.516 41.9044 121.527 45.5748ZM118.303 45.3175C118.303 43.0192 117.702 41.0925 116.502 39.5374C115.095 37.7079 113.294 36.7932 111.099 36.7932C108.881 36.7932 107.102 37.8051 105.765 39.829C104.713 41.4298 104.181 43.4423 104.17 45.8664C104.17 48.119 104.718 50.0114 105.816 51.5436C107.188 53.4646 108.949 54.4251 111.099 54.4251C113.363 54.4251 115.21 53.4017 116.639 51.3549C117.737 49.777 118.291 47.7645 118.303 45.3175ZM101.631 63.4297C101.585 62.8923 101.528 62.412 101.46 61.9889C101.311 60.9484 101.139 60.2566 100.945 59.9136H121.527C121.173 60.4281 120.898 61.6002 120.704 63.4297H101.631ZM128.958 43.0192V59.9308C128.958 60.6626 129.038 61.2686 129.198 61.7488C129.358 62.2176 129.632 62.7779 130.021 63.4297H124.31C124.664 62.9151 124.898 62.3148 125.013 61.6288C125.081 61.1943 125.116 60.6283 125.116 59.9308V37.222C125.116 36.5016 125.081 35.947 125.013 35.5583C124.887 34.8493 124.653 34.249 124.31 33.7573H139.952V38.6627C139.243 38.2396 138.728 37.9709 138.408 37.8566C137.917 37.6736 137.271 37.5821 136.47 37.5821H128.958V39.1601V43.0192ZM159.996 57.3237H154.61C154.965 56.8091 155.199 56.2088 155.314 55.5228C155.371 55.1912 155.399 54.6252 155.399 53.8248L155.416 51.2349H147.184C146.989 52.1153 146.869 52.9786 146.823 53.8248C146.812 54.0763 146.835 54.488 146.892 55.0597C146.995 55.9859 147.212 56.7405 147.544 57.3237H141.987C142.353 56.7977 142.633 56.2146 142.827 55.5742C143.01 55.0025 143.119 54.4194 143.153 53.8248C143.336 50.9547 144.028 48.1018 145.228 45.2661C146.658 41.8815 148.601 39.1372 151.06 37.0333C153.667 34.8036 156.234 33.683 158.761 33.6716H159.276C159.47 33.6716 159.71 33.7002 159.996 33.7573C159.676 34.3062 159.47 34.8436 159.378 35.3696C159.298 35.8384 159.258 36.4158 159.258 37.1019V53.8248C159.258 54.5794 159.287 55.1226 159.344 55.4542C159.447 56.0602 159.664 56.6834 159.996 57.3237ZM159.996 59.9136C159.641 60.4281 159.373 61.6002 159.19 63.4297H142.776C142.73 62.8923 142.667 62.412 142.587 61.9889C142.427 60.9484 142.227 60.2566 141.987 59.9136H159.996ZM155.399 47.5473V38.0452C152.758 39.486 150.534 42.2931 148.727 46.4667C148.636 46.7068 148.504 47.067 148.333 47.5473H155.399ZM182.01 43.671C182.01 46.8841 181.015 50.0285 179.026 53.1044C177.219 55.8944 174.863 58.2499 171.959 60.1709C169.066 62.0919 166.236 63.1781 163.469 63.4297C163.812 62.9037 164.046 62.2691 164.172 61.5259C164.241 61.1142 164.275 60.5596 164.275 59.8621V36.9647C164.275 36.2672 164.241 35.7012 164.172 35.2667C164.058 34.5806 163.823 33.9803 163.469 33.4657H173.674C176.167 33.4657 178.179 34.3691 179.712 36.1757C181.244 37.9824 182.01 40.4808 182.01 43.671ZM178.082 43.6367C178.082 41.567 177.596 39.9777 176.624 38.8685C175.744 37.8623 174.543 37.3592 173.022 37.3592H168.117V57.4781C170.747 56.5976 173.062 54.7681 175.064 51.9895C177.076 49.1995 178.082 46.4152 178.082 43.6367ZM201.038 57.3237H195.652C196.007 56.8091 196.241 56.2088 196.356 55.5228C196.413 55.1912 196.441 54.6252 196.441 53.8248L196.458 51.2349H188.226C188.031 52.1153 187.911 52.9786 187.865 53.8248C187.854 54.0763 187.877 54.488 187.934 55.0597C188.037 55.9859 188.254 56.7405 188.586 57.3237H183.029C183.395 56.7977 183.675 56.2146 183.869 55.5742C184.052 55.0025 184.161 54.4194 184.195 53.8248C184.378 50.9547 185.07 48.1018 186.27 45.2661C187.7 41.8815 189.644 39.1372 192.102 37.0333C194.709 34.8036 197.276 33.683 199.803 33.6716H200.318C200.512 33.6716 200.752 33.7002 201.038 33.7573C200.718 34.3062 200.512 34.8436 200.42 35.3696C200.34 35.8384 200.3 36.4158 200.3 37.1019V53.8248C200.3 54.5794 200.329 55.1226 200.386 55.4542C200.489 56.0602 200.706 56.6834 201.038 57.3237ZM201.038 59.9136C200.683 60.4281 200.415 61.6002 200.232 63.4297H183.818C183.772 62.8923 183.709 62.412 183.629 61.9889C183.469 60.9484 183.269 60.2566 183.029 59.9136H201.038ZM196.441 47.5473V38.0452C193.8 39.486 191.576 42.2931 189.769 46.4667C189.678 46.7068 189.546 47.067 189.375 47.5473H196.441ZM221.577 33.0713C221.577 34.3176 221.102 35.3639 220.153 36.21C219.216 37.0447 218.112 37.4621 216.843 37.4621H213.67V59.9308C213.67 60.6854 213.699 61.2286 213.756 61.5602C213.87 62.2119 214.093 62.8351 214.425 63.4297H209.022C209.376 62.9151 209.611 62.3148 209.725 61.6288C209.782 61.2629 209.811 60.6969 209.811 59.9308V37.3592H206.209C205.203 37.3592 204.048 37.7079 202.744 38.4054V33.7573H217.889C218.621 33.7573 219.347 33.6659 220.068 33.4829C220.17 33.4829 220.674 33.3457 221.577 33.0713ZM242.481 59.9136C242.127 60.4281 241.858 61.6002 241.675 63.4297H225.261C225.215 62.8923 225.152 62.412 225.072 61.9889C224.912 60.9484 224.712 60.2566 224.472 59.9136H242.481ZM225.072 36.6388C224.695 36.6388 224.335 36.7017 223.992 36.8275C223.66 36.9533 223.334 37.1476 223.014 37.4106V33.9803H232.001C231.864 34.3005 231.756 34.6492 231.675 35.0266C231.595 35.4039 231.555 35.867 231.555 36.4158L231.504 48.0618H238.004C239.136 48.0389 240.108 48.3991 240.92 49.1424C241.446 49.6226 241.852 50.1715 242.138 50.7889C242.424 51.4064 242.567 52.0924 242.567 52.8471C242.567 54.0935 242.212 55.1111 241.503 55.9001C240.657 56.8492 239.491 57.3237 238.004 57.3237H226.856C227.199 56.832 227.433 56.2317 227.559 55.5228C227.628 55.134 227.662 54.5794 227.662 53.8591L227.765 36.5702L225.072 36.6388ZM238.708 52.8471C238.708 52.2297 238.388 51.9209 237.747 51.9209H231.504V53.8248H237.747C238.388 53.8248 238.708 53.4989 238.708 52.8471Z" fill="#8D0000"/>
<circle cx="23.4301" cy="52.718" r="11.715" fill="#8D0000"/>
<circle cx="298.734" cy="52.718" r="11.715" fill="#8D0000"/>
</svg>
