<svg width="248" height="352" viewBox="0 0 248 352" fill="none" xmlns="http://www.w3.org/2000/svg">
<rect width="247.318" height="351.451" rx="25" fill="#144C80"/>
<path d="M224.559 284.5C221.398 287.511 221.951 291.21 222.654 295.317C224.735 294.954 226.658 294.501 228.616 294.302C235.175 293.658 239.012 298.509 237.036 305.073C236.351 307.358 235.351 309.561 234.271 311.683C233.261 313.678 231.97 315.509 231.039 317.023C233.111 321.675 235.544 325.872 236.843 330.406C238.529 336.263 235.579 340.234 229.678 339.672C224.717 339.201 219.686 337.605 215.085 335.565C210.844 333.688 207.112 333.108 202.511 334.25C196.189 335.828 189.587 336.934 183.106 336.97C143.621 337.215 104.135 337.224 64.6575 336.961C57.7297 336.916 50.714 335.674 43.9355 334.078C39.9052 333.126 36.7091 333.724 33.0301 335.193C28.0603 337.17 22.8623 339.083 17.6291 339.645C11.7198 340.28 8.8925 336.363 10.4291 330.397C11.3423 326.834 13.1423 323.415 15.0564 320.251C16.3647 318.084 16.3911 316.733 14.9247 314.702C13.2828 312.435 11.7462 309.869 11.0086 307.186C10.2974 304.62 10.6749 301.727 10.5784 298.98C11.8076 298.073 13.0457 297.176 14.275 296.269C17.4359 295.571 20.5881 294.873 24.5569 293.993C24.5569 292.035 24.5569 288.753 24.5569 285.471C20.3598 286.595 19.0428 285.86 18.4281 281.146C17.8662 276.821 17.5325 272.432 17.5237 268.071C17.4535 206.543 17.4623 144.997 17.5062 83.4425C17.5062 79.2354 17.8486 75.0012 18.3579 70.8214C18.595 68.8992 19.6223 67.0768 20.2896 65.209C20.9745 64.8372 21.6506 64.4655 22.3355 64.0938C22.8798 65.3268 23.4242 66.5599 23.9686 67.793C24.5833 68.4005 25.1979 69.008 25.8125 69.6064C28.2447 73.9222 24.7413 76.3431 23.0203 79.4258C21.7735 81.6472 20.2281 84.1678 20.2194 86.5615C20.0613 146.085 20.0876 205.6 20.1491 265.124C20.1491 266.838 20.3598 269.159 21.4047 270.157C27.6477 276.114 28.315 283.857 27.7706 291.681C27.4633 296.097 29.0789 298.255 32.196 300.784C36.3843 304.185 40.274 308.192 43.514 312.553C45.9199 315.79 44.0321 318.719 39.9843 318.855C38.1228 318.918 36.0945 318.719 34.3999 317.993C30.6769 316.398 27.1208 314.385 22.7218 312.154C22.2477 314.775 20.7374 317.73 21.554 319.644C23.6525 324.621 35.9452 329.69 41.3013 328.946C47.2194 328.121 53.1989 327.251 59.1521 327.233C102.159 327.087 145.175 327.133 188.182 327.187C192.115 327.196 196.216 327.024 199.948 328.058C208.605 330.46 215.928 328.438 222.733 322.753C227.545 318.737 227.747 317.567 223.971 313.179C218.624 315.174 213.671 317.277 208.552 318.755C207.112 319.172 204.443 318.202 203.653 316.969C202.915 315.817 203.319 312.998 204.259 311.746C206.735 308.446 209.325 304.828 212.688 302.734C218.413 299.18 220.468 294.71 219.502 288.018C219.203 285.933 220.564 283.594 221.161 281.363C222.303 282.415 223.427 283.458 224.559 284.5ZM202.187 332.546C202.143 331.793 202.099 331.041 202.055 330.279C149.758 329.844 97.4615 329.726 45.1648 330.342C45.1209 331.068 45.077 331.802 45.0243 332.528C49.8448 333.153 54.6653 334.305 59.4858 334.314C102.361 334.459 145.236 334.459 188.12 334.314C192.809 334.314 197.498 333.162 202.187 332.546ZM214.611 330.651C220.353 333.597 226.921 333.416 229.029 330.116C231.083 326.915 229.907 323.932 228.019 321.276C223.488 324.44 219.159 327.468 214.611 330.651ZM19.1042 321.167C17.392 324.286 16.075 327.341 18.5159 330.406C20.992 333.516 27.595 333.471 32.5823 330.578C28.2008 327.514 23.8194 324.449 19.1042 321.167ZM26.3394 300.939C27.9462 304.484 20.9394 308.355 26.9891 311.366C28.2623 312 31.4321 310.876 32.3277 309.552C34.2067 306.769 31.6955 302.979 26.3394 300.939ZM221.407 300.005C215.463 303.223 213.083 307.095 215.05 309.697C216.025 310.985 219.256 311.982 220.468 311.284C225.99 308.092 219.879 304.447 221.407 300.005ZM231.592 302.199C225.323 308.718 225.077 310.395 229.705 314.757C232.321 310.921 233.673 306.959 231.592 302.199ZM15.9872 302.117C13.8271 307.122 14.5032 310.776 18.1384 314.648C21.8086 309.724 21.8086 309.724 15.9872 302.117ZM22.0545 307.82C22.915 304.23 23.4857 301.836 24.2935 298.472C21.4486 299.297 19.6486 299.823 17.1813 300.54C18.8847 303.087 20.1403 304.964 22.0545 307.82ZM222.865 298.971C223.76 302.126 224.41 304.438 225.393 307.893C227.246 304.837 228.467 302.815 230.135 300.059C227.299 299.642 225.42 299.361 222.865 298.971Z" fill="#EDEBDF"/>
<path d="M25.8218 69.6155C25.2072 69.008 24.5925 68.4006 23.9779 67.8022C24.4345 64.0303 24.8823 60.2494 25.4003 55.9245C22.4676 56.4686 20.5184 57.0035 18.534 57.1667C12.4052 57.6835 8.27834 52.5607 10.2715 46.5675C11.4393 43.0496 13.1603 39.6495 15.1096 36.5214C16.3564 34.5177 16.2159 33.3299 15.1359 31.3533C13.2218 27.8535 11.2813 24.1814 10.3593 20.328C9.08614 14.9695 11.7466 11.3699 17.0325 11.8414C22.1428 12.2948 27.3672 13.7364 32.0735 15.849C36.4813 17.8255 40.3447 18.3061 45.0599 17.1455C51.2501 15.6223 57.7038 14.5343 64.0433 14.498C103.371 14.2713 142.708 14.2441 182.036 14.5071C189.104 14.5524 196.269 15.7492 203.179 17.3631C207.368 18.3424 210.704 17.753 214.497 16.1663C219.169 14.2169 224.086 12.3401 229.038 11.7961C235.614 11.0707 238.696 15.2687 236.721 21.7606C235.43 26.0039 233.05 29.9026 230.978 34.3363C234.903 41.3994 242.033 48.6166 233.569 57.7289L233.691 57.6291C230.127 57.1939 226.562 56.7678 222.163 56.2328C223.717 59.4244 219.142 63.5951 224.788 65.6896C224.463 66.2608 224.147 66.8229 223.822 67.3941C223.515 67.7478 223.208 68.1104 222.9 68.464C222.154 69.1803 221.408 69.8875 220.661 70.6038C220.292 70.4587 219.924 70.3228 219.546 70.1777C219.546 64.9552 221.118 58.9348 219.116 54.7368C217 50.3031 211.292 47.8097 207.49 44.1013C204.935 41.608 201.195 38.3983 203.566 34.6083C206.182 30.4466 210.748 32.6136 214.348 34.0734C217.667 35.4153 220.749 37.3647 224.762 39.4863C225.13 36.4761 226.491 33.4024 225.543 31.6344C222.505 25.9676 211.02 21.7062 204.839 22.7035C199.527 23.5649 194.109 24.2268 188.744 24.2358C145.316 24.3628 101.887 24.3446 58.4589 24.2721C53.7965 24.263 48.8794 24.4988 44.533 23.1115C36.9028 20.6635 31.1955 23.9457 25.4969 28.0439C19.693 32.2237 19.6667 32.795 23.6969 39.2415C24.2852 38.8516 24.8296 38.3711 25.4618 38.0991C29.8608 36.2313 34.2072 34.1278 38.7467 32.7315C40.1516 32.2963 42.8296 33.3208 43.6199 34.563C44.3574 35.7326 43.9623 38.5252 43.0316 39.8036C40.7838 42.9045 38.3691 46.3227 35.2257 48.2086C28.8774 52.0258 26.5242 57.0216 27.7447 64.4021C28.052 65.9706 26.5242 67.8656 25.8218 69.6155ZM202.213 18.8229C196.848 18.2336 191.484 17.1546 186.119 17.1365C144.604 16.9914 103.099 16.9914 61.5848 17.1183C56.8082 17.1365 52.0316 18.1429 47.2638 18.7866C46.4648 18.8954 45.7272 19.4667 44.296 20.1376C55.3155 22.3227 196.181 21.9782 202.213 18.8229ZM227.923 30.1474C230.566 26.1217 230.759 22.7307 228.397 20.5819C225.438 17.889 218.492 18.1973 214.98 21.0806C219.265 24.0817 223.594 27.11 227.923 30.1474ZM18.3145 30.8818C23.7847 27.0556 28.1837 23.982 33.5662 20.2192C30.0013 19.648 27.2881 18.6506 24.7067 18.9589C22.3184 19.24 18.9642 20.3189 18.0774 22.1232C17.0062 24.2812 18.1125 27.5724 18.3145 30.8818ZM26.2081 50.9287C31.5116 48.7345 33.8033 45.1622 32.5301 41.9434C31.3184 38.897 28.6491 38.8607 26.6911 40.1482C21.5193 43.5573 27.332 47.0571 26.2081 50.9287ZM219.95 50.7202C222.9 45.7969 223.532 41.7077 221.364 40.4927C219.063 39.2052 216.561 38.625 214.945 41.617C213.356 44.591 215.393 48.1724 219.95 50.7202ZM231.558 49.4055C233.621 44.2918 232.304 40.3295 229.503 36.5577C225.201 41.6261 225.245 41.9344 231.558 49.4055ZM17.7876 36.2041C15.2149 40.5018 13.4764 44.4368 15.7418 49.2604C21.8706 42.7867 21.9759 42.2426 17.7876 36.2041ZM24.5574 52.7149C23.495 49.2332 22.8101 46.9846 21.7828 43.6117C19.9476 46.7035 18.7798 48.6711 17.2345 51.2732C19.8335 51.781 21.6862 52.1527 24.5574 52.7149ZM230.346 51.2642C228.414 48.3628 227.168 46.495 225.341 43.7568C224.393 47.1115 223.743 49.4327 222.839 52.6333C225.517 52.1437 227.378 51.8082 230.346 51.2642Z" fill="#EDEBDF"/>
<path d="M222.918 68.4552C223.225 68.1016 223.532 67.739 223.84 67.3854C224.867 66.9139 225.894 66.4424 227.896 65.5176C228.555 69.8153 229.398 73.5418 229.652 77.3226C229.968 81.983 229.828 86.6797 229.837 91.3582C229.846 149.785 229.881 208.212 229.802 266.639C229.793 271.898 229.222 277.175 228.616 282.397C228.362 284.582 227.361 286.777 224.577 284.492C223.445 283.449 222.321 282.406 221.188 281.364C219.976 277.456 222.312 274.908 224.244 272.016C225.631 269.939 227.097 267.319 227.106 264.934C227.264 205.474 227.264 146.022 227.106 86.5618C227.097 84.1681 225.771 81.4118 224.261 79.4806C221.443 75.9263 219.52 72.6441 222.918 68.4552Z" fill="#EDEBDF"/>
<path d="M14.2666 296.296C13.0374 297.203 11.7993 298.101 10.57 299.007C13.7486 294.429 11.6325 289.65 11.1496 284.89C10.7896 281.3 10.772 277.655 10.772 274.037C10.7456 207.287 10.693 140.536 10.7983 73.7861C10.8071 68.2009 11.9135 62.6067 12.5105 57.0215C13.0725 57.0487 13.6344 57.0759 14.1876 57.1122C14.2491 58.1548 14.4247 59.2066 14.3369 60.2312C13.9242 65.4809 13.0549 70.7215 13.0461 75.9622C12.9583 142.259 12.9496 208.556 13.0549 274.853C13.0637 280.538 14.0559 286.223 14.4949 291.917C14.6179 293.359 14.3544 294.837 14.2666 296.296Z" fill="#EDEBDF"/>
<path d="M233.586 57.7286C234.42 60.2311 235.649 62.6701 235.992 65.2451C236.51 69.1166 236.545 73.0698 236.545 76.9958C236.571 142.858 236.598 208.71 236.51 274.572C236.501 279.976 235.711 285.371 235.184 290.765C235.096 291.699 234.49 292.588 233.402 293.431C233.305 292.506 233.094 291.581 233.147 290.666C233.507 284.355 234.253 278.045 234.262 271.725C234.35 206.924 234.332 142.123 234.271 77.3222C234.262 72.2084 233.621 67.1038 233.367 61.9901C233.296 60.5484 233.586 59.0887 233.709 57.6289C233.709 57.6289 233.586 57.7286 233.586 57.7286Z" fill="#EDEBDF"/>
<path d="M83.5015 274.919C82.0046 274.687 80.7732 274.998 79.6109 275.575C76.0977 277.317 73.9253 280.249 72.5199 283.8C71.6248 286.059 71.2989 288.424 71.588 290.853C71.734 292.086 71.811 292.111 72.9355 291.48C76.0451 289.735 78.371 287.191 80.3356 284.268C81.703 282.235 82.7151 280.044 83.2041 277.641C83.3808 276.763 83.403 275.855 83.5015 274.919Z" fill="#8D0000"/>
<path d="M69.4769 290.921C68.9061 290.094 68.5007 289.276 67.4585 288.787C65.4357 287.838 64.4137 285.968 63.9979 283.855C63.0574 279.066 65.6025 275.195 70.4727 273.833C71.4413 273.563 71.586 273.251 71.1751 272.318C70.7669 271.394 69.9991 270.938 69.0475 270.795C66.2041 270.369 63.8539 271.356 62.0462 273.513C58.8811 277.291 59.4489 281.581 61.9245 285.601C63.4817 288.131 65.7543 289.875 68.6036 290.81C68.8195 290.882 69.0405 290.94 69.2606 290.994C69.3042 291.003 69.3584 290.962 69.4769 290.921Z" fill="#8D0000"/>
<path d="M49.1048 299.617C48.8844 301.344 49.9364 302.902 51.6732 303.242C53.1957 303.542 54.7901 303.613 56.3462 303.571C60.7571 303.455 65.147 303.59 69.4831 304.454C74.0694 305.368 78.3828 307.039 82.1771 309.784C83.7008 310.887 85.0136 312.344 86.1969 313.822C86.8115 314.59 87.1324 315.732 87.2388 316.741C87.4604 318.829 86.1278 320.215 84.025 320.355C83.8605 320.366 83.6964 320.364 83.2905 320.375C83.7061 320.748 83.94 321.012 84.2236 321.202C85.6976 322.19 87.2786 322.367 88.8435 321.523C90.431 320.668 91.092 319.198 90.9799 317.437C90.8209 314.942 89.5656 312.966 87.6674 311.465C80.9693 306.169 73.3035 303.33 64.8003 302.847C61.7541 302.675 58.6897 302.833 55.6332 302.819C54.7503 302.814 53.862 302.779 52.9842 302.677C51.181 302.47 49.7754 301.681 49.1048 299.617Z" fill="#EDEBDF"/>
<path d="M74.291 293.815C78.7764 298.118 86.8698 298.414 91.1447 292.839C92.8717 290.588 93.3542 287.972 92.4386 285.211C92.1096 284.218 91.582 283.33 90.5814 282.853C89.2069 282.199 87.7739 283.084 87.7437 284.611C87.7303 285.324 87.7749 286.039 87.8023 286.753C88.0297 292.612 82.5676 296.171 76.9453 294.119C76.1211 293.818 75.2252 293.719 74.3618 293.525C74.3392 293.62 74.3156 293.717 74.291 293.815Z" fill="#8D0000"/>
<path d="M70.6002 303.062C72.7421 303.632 74.8988 304.153 77.024 304.783C82.9275 306.528 88.3832 309.222 93.5392 312.576C95.305 313.725 97.2035 314.675 99.0752 315.648C99.6435 315.944 100.319 316.071 100.962 316.17C103.324 316.535 105.062 315.041 105.097 312.657C105.133 310.255 103.226 307.512 100.77 306.584C100.974 306.907 101.136 307.117 101.251 307.354C101.535 307.941 101.904 308.513 102.052 309.136C102.424 310.71 101.6 311.887 100.015 311.719C98.4302 311.55 96.8398 311.075 95.3416 310.502C90.5234 308.657 85.8738 306.365 80.8636 305.025C77.6702 304.171 74.5031 303.181 71.1676 303.003C70.976 302.992 70.7866 302.966 70.5958 302.946C70.5977 302.985 70.5983 303.023 70.6002 303.062Z" fill="#EDEBDF"/>
<path d="M70.5582 290.964C70.571 282.931 72.9237 276.278 81.1477 273.004C80.1125 272.123 78.9536 271.803 77.7094 271.824C75.2946 271.866 73.3114 272.936 71.6113 274.571C68.0632 277.987 66.8386 283.745 68.7322 288.28C69.1375 289.25 69.7672 290.125 70.2941 291.045C70.3832 291.019 70.4719 290.991 70.5582 290.964Z" fill="#8D0000"/>
<path d="M44.1819 296.323C45.2897 295.695 45.4581 294.806 45.3975 293.833C45.3627 293.294 45.2111 292.762 45.1701 292.223C45.0935 291.18 45.4596 290.511 46.4831 290.321C47.5257 290.127 48.6599 290.006 49.686 290.201C54.2741 291.076 58.3122 293.191 61.8362 296.205C63.888 297.962 65.7027 299.995 67.6948 301.826C68.2183 302.308 69.0098 302.5 69.6768 302.824C69.7398 302.734 69.8014 302.643 69.8654 302.552C68.9811 301.547 68.1119 300.53 67.212 299.542C62.4517 294.309 56.8234 290.379 50.0266 288.254C48.8389 287.884 47.5806 287.685 46.3388 287.553C45.5919 287.474 44.7842 287.575 44.0565 287.779C42.8109 288.128 41.8128 288.875 41.6091 290.249C41.4058 291.625 41.9534 292.76 43.0238 293.64C43.178 293.766 43.3473 293.875 43.5138 293.987C44.4446 294.62 44.6003 295.077 44.1819 296.323Z" fill="#EDEBDF"/>
<path d="M72.7396 292.843C75.4456 293.259 77.8959 292.707 80.1244 291.232C83.7168 288.857 86.3035 285.794 86.5084 281.268C86.5555 280.208 86.3521 279.11 86.096 278.07C85.9509 277.485 85.4644 276.983 85.0059 276.241C82.8977 283.442 79.6972 289.494 72.7396 292.843Z" fill="#8D0000"/>
<path d="M56.7622 290.553C56.0243 290.036 55.3051 289.493 54.5484 289.009C51.1282 286.828 47.6756 284.693 44.2747 282.482C41.8044 280.873 40.1339 278.589 39.0452 275.867C38.8961 275.496 38.7375 275.127 38.5475 274.777C37.8208 273.436 36.6028 272.872 35.0986 273.187C34.5117 273.31 33.9365 273.485 33.354 273.626C32.5695 273.816 31.8156 273.831 31.2029 273.151C31.1323 273.218 31.0641 273.286 30.9935 273.354C31.3783 273.803 31.6989 274.336 32.1597 274.686C33.4764 275.683 35.0065 276.444 36.1689 277.587C38.5906 279.968 41.1671 282.136 44.095 283.824C47.6782 285.889 51.3655 287.776 55.0102 289.735C55.5777 290.04 56.1582 290.321 56.7332 290.612C56.7446 290.593 56.7536 290.574 56.7622 290.553Z" fill="#EDEBDF"/>
<path d="M70.199 305.311C70.7618 306.553 71.3879 307.771 71.8734 309.043C72.5184 310.731 72.1769 311.113 70.3973 310.816C67.8381 310.388 65.2893 309.9 62.7293 309.488C60.4026 309.113 58.0708 309.045 55.7576 309.62C54.3224 309.977 53.231 310.578 52.6124 311.339C57.7156 309.63 62.6516 311.052 67.6056 312.081C69.2808 312.429 70.9449 312.825 72.6263 313.131C73.9664 313.374 74.494 312.824 74.3138 311.46C74.033 309.336 72.9869 307.519 71.8573 305.773C71.5934 305.366 70.8149 305.29 70.2732 305.061C70.2495 305.143 70.2237 305.228 70.199 305.311Z" fill="#EDEBDF"/>
<path d="M61.1387 315.496C60.4928 314.166 59.2723 313.561 57.8465 313.943C57.0419 314.158 56.2699 314.594 55.5635 315.052C54.3565 315.837 53.686 315.954 53.0304 315.317C52.4236 314.726 52.3904 313.329 53.0018 312.444C53.2381 312.1 53.5644 311.82 53.8367 311.527C52.6509 311.635 51.3598 312.725 50.9035 314.07C50.4497 315.41 50.5267 316.664 51.6216 317.703C52.681 318.708 53.9427 318.821 55.1994 318.277C56.0999 317.885 56.9647 317.326 57.7105 316.686C58.6864 315.848 59.6863 315.252 61.1387 315.496Z" fill="#EDEBDF"/>
<path d="M68.7581 297.763C69.8035 297.634 70.678 297.528 71.553 297.418C72.9259 297.247 73.6043 296.056 73.0283 294.788C72.4169 293.444 71.3401 292.655 69.9181 292.353C68.8007 292.115 67.7284 293.063 67.5326 294.383C67.3207 295.802 68.1957 296.796 68.7581 297.763Z" fill="#EDEBDF"/>
<path d="M86.6679 285.27C84.5298 288.99 82.1955 292.366 77.7213 293.395C79.2968 294.337 82.5229 293.804 84.307 292.324C86.5602 290.458 87.5264 287.651 86.6679 285.27Z" fill="#8D0000"/>
<path d="M69.9985 275.046C67.4324 275.669 65.1501 278.495 64.7642 281.28C64.4178 283.773 65.5277 286.505 67.3493 287.529C66.0954 282.975 66.7063 278.824 69.9985 275.046Z" fill="#8D0000"/>
<path d="M68.0867 292.054C66.8058 291.246 65.5744 290.431 64.2989 289.695C64.0875 289.573 63.574 289.672 63.3851 289.858C62.6318 290.596 62.4121 292.354 62.8731 293.326C62.9189 293.425 62.9783 293.574 63.0569 293.593C63.7147 293.76 64.3795 293.891 65.0383 294.057C65.8197 294.254 66.2434 293.73 66.7193 293.277C67.1679 292.852 67.6417 292.451 68.0867 292.054Z" fill="#EDEBDF"/>
<path d="M64.7578 299.801C63.78 298.615 63.7796 298.613 62.6262 299.198C60.5501 300.252 58.3593 300.969 56.0593 301.32C55.4475 301.413 54.8002 301.431 54.1896 301.343C53.1567 301.193 52.888 300.599 53.3529 299.588C52.7276 299.353 52.1824 299.378 51.8246 299.997C51.4385 300.665 51.8072 301.197 52.3397 301.513C52.8155 301.794 53.3981 302.003 53.9457 302.035C57.7061 302.246 61.1722 301.062 64.7578 299.801Z" fill="#EDEBDF"/>
<path d="M63.5109 288.637C62.2683 287.48 61.0512 286.292 59.7627 285.189C59.4592 284.928 58.9084 284.851 58.4791 284.868C57.468 284.912 57.0254 285.721 57.5068 286.607C58.3254 288.112 59.6891 288.698 61.3363 288.748C62.0127 288.769 62.6898 288.78 63.3654 288.797C63.4137 288.743 63.4611 288.69 63.5109 288.637Z" fill="#EDEBDF"/>
<path d="M74.4619 295.377C74.1056 296.158 73.7859 296.818 73.502 297.493C73.1159 298.412 73.3446 299.171 74.1553 299.731C74.4135 299.909 74.6904 300.061 74.9555 300.23C75.7756 300.752 76.0757 300.637 76.4902 299.725C76.824 298.991 77.2167 298.284 77.5835 297.563C76.6433 296.904 75.561 296.147 74.4619 295.377Z" fill="#EDEBDF"/>
<path d="M85.0396 300.435C84.8463 299.605 84.1943 299.288 83.4836 299.038C83.3495 298.99 83.2149 298.946 83.0761 298.914C81.5366 298.546 79.9961 298.179 78.4721 297.816C79.1902 300.24 81.6314 301.976 85.0396 300.435Z" fill="#EDEBDF"/>
<path d="M70.0452 269.996C70.8622 270.822 71.6411 271.606 72.4939 272.467C73.4356 272.022 74.6035 271.47 75.7714 270.918C74.892 269.117 71.5253 268.615 70.0452 269.996Z" fill="#8D0000"/>
<path d="M55.3223 298.399C54.6381 297.055 53.5828 296.429 52.2847 296.557C51.1345 296.671 49.7921 297.715 49.5243 298.705C49.2918 299.566 49.6111 300.468 50.3781 301.045C50.3626 300.72 50.3219 300.419 50.3373 300.122C50.4103 298.741 51.3849 298.105 52.6782 298.586C53.7826 298.995 54.1263 298.974 55.3223 298.399Z" fill="#EDEBDF"/>
<path d="M87.4289 278.004C87.4787 279.614 87.5291 281.22 87.5821 282.96C88.3722 281.879 89.26 281.15 90.6135 281.846C90.4811 279.789 88.8105 277.825 87.4289 278.004Z" fill="#8D0000"/>
<path d="M81.8209 273.995C82.3409 274.009 82.6778 274.034 83.015 274.025C83.7042 274.007 84.0746 274.235 84.2116 275.005C84.3934 276.029 85.2036 275.321 85.7655 275.475C85.9263 274.522 85.4847 273.869 84.9037 273.32C84.5618 272.994 84.1282 272.701 83.6829 272.565C83.1374 272.399 82.5364 272.414 81.9595 272.349C81.9171 272.871 81.8729 273.388 81.8209 273.995Z" fill="#8D0000"/>
<path d="M59.7408 284.637C59.346 283.25 58.445 282.661 57.171 282.507C56.4822 282.422 55.8004 282.286 55.0872 282.168C55.8268 284.379 58.0396 283.946 59.7408 284.637Z" fill="#EDEBDF"/>
<path d="M89.1924 300.573C87.6884 299.61 86.5111 298.034 84.3318 298.46C86.8605 300.784 87.6079 301.11 89.1924 300.573Z" fill="#EDEBDF"/>
<path d="M67.2225 296.286C66.7761 296.681 66.3816 297.029 65.921 297.436C66.4078 297.8 66.4915 298.715 67.3614 298.226C68.1392 297.789 68.1212 297.701 67.2225 296.286Z" fill="#EDEBDF"/>
<path d="M76.3476 79.8907C77.1899 78.6318 77.4287 77.3844 77.3969 76.0872C77.3031 72.1671 75.5639 68.9591 72.9398 66.1847C71.2702 64.4185 69.2646 63.1237 66.941 62.3592C65.7615 61.9703 65.7067 62.0297 65.8031 63.3154C66.0711 66.8715 67.3937 70.0545 69.212 73.0701C70.4772 75.1689 72.0346 77.0118 74.0063 78.4708C74.7269 79.0018 75.5406 79.4057 76.3476 79.8907Z" fill="#8D0000"/>
<path d="M67.771 60.4173C68.7618 60.2495 69.6745 60.2278 70.5581 59.4898C72.2732 58.0578 74.3997 57.9217 76.4909 58.438C81.2288 59.6096 83.6616 63.5523 82.8372 68.5415C82.6731 69.5338 82.8941 69.7965 83.9132 69.8183C84.9238 69.8391 85.6615 69.3359 86.193 68.5338C87.781 66.137 87.8795 63.5897 86.6887 61.0399C84.6019 56.5744 80.4744 55.2763 75.7841 55.8207C72.8336 56.1631 70.2925 57.4856 68.2406 59.6727C68.0845 59.8381 67.9382 60.0137 67.7966 60.1906C67.7696 60.226 67.7843 60.2928 67.771 60.4173Z" fill="#8D0000"/>
<path d="M68.4994 38.2788C67.0277 37.3494 65.1713 37.6445 64.1287 39.0746C63.2138 40.328 62.4754 41.7429 61.8555 43.1707C60.0966 47.2174 58.1189 51.1389 55.5033 54.7036C52.737 58.4741 49.3993 61.677 45.3082 63.9558C43.6651 64.8708 41.7893 65.4447 39.9497 65.8925C38.9944 66.1251 37.8236 65.9333 36.8645 65.6034C34.878 64.9217 34.1853 63.1283 34.9468 61.1632C35.0067 61.0097 35.0778 60.8617 35.2392 60.4891C34.7258 60.7083 34.3874 60.8085 34.0951 60.9852C32.5767 61.9035 31.7481 63.2616 31.8515 65.0364C31.9557 66.8367 33.0091 68.0572 34.6519 68.6996C36.9804 69.6099 39.3022 69.3076 41.4647 68.2215C49.0947 64.3889 54.9079 58.6413 58.9391 51.1389C60.3828 48.4509 61.5343 45.6068 62.8389 42.8426C63.2161 42.0444 63.6238 41.2543 64.0867 40.5016C65.0362 38.9548 66.3458 38.0145 68.4994 38.2788Z" fill="#EDEBDF"/>
<path d="M63.1153 63.5568C57.3196 65.8034 53.6305 73.0132 56.8772 79.2439C58.1875 81.7604 60.354 83.3031 63.2431 83.6401C64.282 83.7615 65.3105 83.659 66.1652 82.9535C67.3393 81.9844 67.142 80.3113 65.771 79.6387C65.1303 79.3251 64.4643 79.0637 63.805 78.7866C58.3993 76.5167 57.4822 70.0623 61.7177 65.8338C62.3385 65.2139 62.8073 64.4439 63.3479 63.7435C63.2713 63.6827 63.1937 63.6205 63.1153 63.5568Z" fill="#8D0000"/>
<path d="M56.293 56.3036C54.8714 58.004 53.4873 59.7383 52.0188 61.3984C47.9417 66.011 43.1951 69.8173 37.9757 73.0724C36.1885 74.1875 34.525 75.5065 32.8518 76.7915C32.344 77.1818 31.9432 77.7401 31.5821 78.2814C30.2523 80.2676 30.8721 82.4735 33.0177 83.5131C35.18 84.561 38.4712 83.9922 40.3506 82.1582C39.9722 82.2063 39.7128 82.2649 39.4494 82.2685C38.7973 82.2784 38.1233 82.3703 37.496 82.2412C35.912 81.9135 35.1939 80.6698 36.0159 79.3036C36.8388 77.939 37.9412 76.6982 39.0942 75.5828C42.8024 71.9956 46.8447 68.7504 50.1768 64.776C52.3001 62.2425 54.5359 59.7906 56.107 56.8429C56.1976 56.6737 56.3009 56.513 56.4002 56.3487C56.364 56.334 56.3292 56.3184 56.293 56.3036Z" fill="#EDEBDF"/>
<path d="M67.2758 61.3791C74.55 64.7852 79.5859 69.7294 79.077 78.5662C80.3137 78.0008 81.0928 77.0854 81.5996 75.9488C82.5826 73.7428 82.4506 71.493 81.6871 69.2612C80.0906 64.6018 75.3903 61.0588 70.48 60.8585C69.4289 60.8155 68.3702 61.0166 67.3139 61.1054C67.2994 61.197 67.2873 61.2892 67.2758 61.3791Z" fill="#8D0000"/>
<path d="M73.5659 35.2094C73.6666 36.4787 74.4017 37.0072 75.3087 37.3633C75.8124 37.5598 76.3581 37.647 76.8646 37.838C77.8416 38.209 78.2936 38.8238 78.0335 39.8318C77.7685 40.8586 77.3989 41.9377 76.7887 42.7853C74.0566 46.5738 70.4329 49.3395 66.2118 51.2595C63.7521 52.3764 61.1426 53.1619 58.6417 54.1937C57.9838 54.4646 57.4754 55.1008 56.8993 55.5682C56.9542 55.6633 57.0106 55.7575 57.0663 55.8541C58.3505 55.4772 59.6397 55.1193 60.9157 54.7214C67.6702 52.6186 73.611 49.1788 78.4086 43.9165C79.2467 42.9968 79.9581 41.9402 80.6026 40.8706C80.9899 40.227 81.2401 39.4525 81.3621 38.7065C81.5723 37.4301 81.3176 36.2101 80.1586 35.4448C78.9972 34.679 77.7368 34.6954 76.4874 35.2939C76.3073 35.38 76.1378 35.4878 75.9656 35.5912C74.9986 36.1673 74.5189 36.1154 73.5659 35.2094Z" fill="#EDEBDF"/>
<path d="M64.6505 62.5614C63.1298 64.8381 62.5953 67.2924 62.9899 69.9354C63.6246 74.1951 65.3074 77.8339 69.3222 79.9321C70.2634 80.4229 71.344 80.7024 72.395 80.9099C72.987 81.0258 73.6474 80.7971 74.5138 80.6951C68.8777 75.7409 64.7458 70.2828 64.6505 62.5614Z" fill="#8D0000"/>
<path d="M73.4774 49.0499C74.2575 48.5995 75.0539 48.1773 75.8121 47.6959C79.2344 45.518 82.6283 43.291 86.0701 41.1435C88.5716 39.5843 91.3476 39.0356 94.2754 39.1996C94.6741 39.2211 95.0753 39.2331 95.4736 39.2092C96.9955 39.1171 98.0213 38.2514 98.372 36.7552C98.5083 36.1713 98.5925 35.5759 98.711 34.9884C98.8703 34.1971 99.1756 33.5076 100.051 33.2399C100.02 33.1472 99.9872 33.0569 99.9555 32.9643C99.3854 33.123 98.7675 33.1885 98.2556 33.4583C96.7952 34.2301 95.4586 35.2951 93.9316 35.8656C90.7505 37.0544 87.6962 38.473 84.9293 40.4133C81.5435 42.7881 78.2754 45.3326 74.9594 47.8078C74.4429 48.1932 73.9431 48.6006 73.4358 48.9985C73.4485 49.017 73.4617 49.0331 73.4774 49.0499Z" fill="#EDEBDF"/>
<path d="M54.4238 54.9891C53.06 54.9741 51.6918 55.027 50.3338 54.9294C48.5319 54.8008 48.3291 54.3294 49.3506 52.8422C50.8204 50.7038 52.34 48.6001 53.7955 46.4542C55.1182 44.5037 56.1653 42.4192 56.6214 40.0795C56.9048 38.6281 56.821 37.3848 56.3929 36.5026C55.7853 41.8501 52.4102 45.7225 49.3842 49.7776C48.3611 51.1489 47.2985 52.4895 46.3107 53.8841C45.5241 54.9959 45.7997 55.7066 47.1121 56.1198C49.1555 56.7628 51.2448 56.5828 53.3047 56.2969C53.7849 56.2297 54.1827 55.5563 54.6187 55.1619C54.5546 55.1058 54.4888 55.0467 54.4238 54.9891Z" fill="#EDEBDF"/>
<path d="M49.0231 42.4737C50.5015 42.4503 51.5659 41.6 51.8222 40.1464C51.9667 39.326 51.8983 38.4422 51.7813 37.6083C51.5805 36.1829 51.7578 35.5257 52.6123 35.2008C53.4037 34.9004 54.6842 35.4608 55.2281 36.389C55.4395 36.7484 55.5558 37.1626 55.7065 37.5333C56.1097 36.413 55.6674 34.7822 54.6406 33.7999C53.6188 32.8227 52.4496 32.3625 51.0454 32.9157C49.6861 33.4508 49.0508 34.5467 49.0131 35.9157C48.9875 36.8974 49.1286 37.9174 49.3938 38.8639C49.7402 40.1023 49.8582 41.2605 49.0231 42.4737Z" fill="#EDEBDF"/>
<path d="M61.8737 56.8745C61.5487 57.8764 61.2753 58.7138 61.0052 59.5533C60.5807 60.8702 61.3727 61.988 62.7657 62.002C64.2416 62.0157 65.4123 61.3735 66.2873 60.2125C66.9751 59.3003 66.5691 57.9279 65.4549 57.1922C64.259 56.4008 62.9884 56.7737 61.8737 56.8745Z" fill="#EDEBDF"/>
<path d="M65.6282 78.3858C63.1598 74.8757 61.0869 71.3333 62.045 66.8435C60.5256 67.8733 59.6454 71.0224 60.2327 73.2649C60.9715 76.0955 63.1069 78.1574 65.6282 78.3858Z" fill="#8D0000"/>
<path d="M81.9386 67.5987C82.4589 65.0099 80.8624 61.7473 78.5008 60.2202C76.3878 58.8526 73.4432 58.7042 71.7452 59.9223C76.4024 60.7105 79.9064 63.0185 81.9386 67.5987Z" fill="#8D0000"/>
<path d="M67.3318 58.6783C68.6063 57.8592 69.8645 57.0872 71.0706 56.2423C71.2713 56.1026 71.3984 55.5953 71.3096 55.3455C70.9594 54.351 69.4584 53.4087 68.3826 53.4157C68.2735 53.4153 68.1138 53.4064 68.063 53.4694C67.6333 53.9949 67.2342 54.5423 66.8054 55.0693C66.2963 55.694 66.5925 56.2997 66.8013 56.9221C66.9971 57.5084 67.1607 58.1074 67.3318 58.6783Z" fill="#EDEBDF"/>
<path d="M61.7182 52.3874C63.2056 52.0022 63.2079 52.0028 63.1649 50.7101C63.0875 48.3832 63.3629 46.0944 64.0176 43.862C64.1918 43.2681 64.449 42.6738 64.787 42.1577C65.3588 41.2847 66.0111 41.2924 66.7308 42.141C67.2078 41.6734 67.4158 41.1689 67.0063 40.5832C66.564 39.9509 65.9256 40.06 65.4139 40.4089C64.9583 40.7215 64.5227 41.1612 64.2627 41.6442C62.4817 44.9627 62.0899 48.6045 61.7182 52.3874Z" fill="#EDEBDF"/>
<path d="M72.363 55.9756C73.9368 55.3384 75.5273 54.7372 77.0718 54.0356C77.4362 53.8708 77.7396 53.4044 77.9048 53.0078C78.2923 52.0729 77.7465 51.33 76.7401 51.392C75.0299 51.4977 73.9224 52.4859 73.1813 53.9578C72.8762 54.5619 72.5799 55.1708 72.2796 55.7762C72.3082 55.8428 72.3359 55.9081 72.363 55.9756Z" fill="#EDEBDF"/>
<path d="M61.6269 63.0518C61.0696 62.3988 60.6065 61.83 60.1151 61.2876C59.445 60.5491 58.6603 60.4356 57.8108 60.934C57.5397 61.0924 57.2849 61.2792 57.0199 61.448C56.2003 61.9708 56.1772 62.2912 56.8287 63.0523C57.3528 63.665 57.828 64.3199 58.3267 64.9572C59.3208 64.3832 60.4649 63.7226 61.6269 63.0518Z" fill="#EDEBDF"/>
<path d="M52.5718 70.5009C53.4064 70.6768 53.9685 70.2195 54.4959 69.6813C54.5959 69.58 54.6927 69.4765 54.7805 69.3644C55.7646 68.1246 56.7478 66.8833 57.7211 65.6557C55.2211 65.2822 52.6156 66.7608 52.5718 70.5009Z" fill="#EDEBDF"/>
<path d="M86.4954 69.7755C85.402 70.1671 84.3621 70.5416 83.2213 70.9506C83.2262 71.9919 83.233 73.2837 83.2398 74.5755C85.244 74.5398 87.1214 71.7005 86.4954 69.7755Z" fill="#8D0000"/>
<path d="M66.9762 44.4286C68.4836 44.3766 69.4967 43.6846 69.9294 42.4541C70.3121 41.3634 69.9336 39.7057 69.1498 39.0448C68.4673 38.47 67.5147 38.3781 66.6678 38.8294C66.9688 38.9528 67.2587 39.043 67.5215 39.1825C68.7428 39.8326 68.9065 40.9842 67.9246 41.9533C67.0872 42.7815 66.9611 43.102 66.9762 44.4286Z" fill="#EDEBDF"/>
<path d="M71.892 82.1459C70.4118 81.5107 68.9348 80.8775 67.3353 80.1902C67.9807 81.3629 68.2666 82.4758 67.0634 83.4082C68.9841 84.1577 71.4697 83.4735 71.892 82.1459Z" fill="#8D0000"/>
<path d="M77.8944 78.7572C77.6617 79.2224 77.4972 79.5175 77.3628 79.8269C77.0879 80.4591 76.7248 80.6985 75.9686 80.4971C74.964 80.2292 75.2636 81.2628 74.8859 81.7067C75.6821 82.2554 76.4603 82.1311 77.2036 81.8366C77.643 81.6642 78.0919 81.3951 78.4032 81.049C78.7844 80.6248 79.025 80.0738 79.3273 79.5783C78.8729 79.3196 78.4222 79.0607 77.8944 78.7572Z" fill="#8D0000"/>
<path d="M77.5814 54.2482C79.0049 54.4764 79.9194 53.9088 80.5982 52.8195C80.9656 52.2309 81.3771 51.6705 81.7856 51.074C79.4698 50.8102 78.9262 52.9983 77.5814 54.2482Z" fill="#EDEBDF"/>
<path d="M50.6909 74.2058C52.1994 73.2497 54.1255 72.8489 54.6603 70.6936C51.4857 72.0034 50.8739 72.5428 50.6909 74.2058Z" fill="#EDEBDF"/>
<path d="M63.8622 56.1066C63.6926 55.5349 63.5439 55.0303 63.3702 54.4412C62.8347 54.7285 61.9697 54.4176 62.0448 55.4124C62.1128 56.3024 62.2002 56.3232 63.8622 56.1066Z" fill="#EDEBDF"/>
<path d="M165.095 276.293C166.488 276.078 167.634 276.368 168.716 276.906C171.986 278.529 174.009 281.26 175.319 284.566C176.153 286.67 176.457 288.872 176.19 291.133C176.054 292.281 175.983 292.304 174.936 291.716C172.042 290.089 169.876 287.72 168.046 284.998C166.773 283.104 165.83 281.065 165.373 278.827C165.208 278.01 165.187 277.164 165.095 276.293Z" fill="#8D0000"/>
<path d="M178.154 291.197C178.684 290.428 179.061 289.666 180.031 289.212C181.912 288.329 182.863 286.589 183.248 284.622C184.121 280.164 181.75 276.559 177.218 275.289C176.316 275.037 176.182 274.747 176.563 273.878C176.943 273.018 177.657 272.594 178.542 272.462C181.188 272.066 183.375 272.987 185.059 274.995C188.006 278.515 187.48 282.507 185.179 286.249C183.731 288.603 181.617 290.225 178.966 291.094C178.765 291.161 178.56 291.215 178.355 291.265C178.313 291.275 178.263 291.236 178.154 291.197Z" fill="#8D0000"/>
<path d="M197.116 299.303C197.322 300.91 196.343 302.36 194.727 302.676C193.311 302.954 191.827 303.019 190.379 302.98C186.275 302.869 182.19 302.993 178.156 303.795C173.888 304.643 169.876 306.196 166.346 308.749C164.929 309.775 163.708 311.131 162.608 312.506C162.037 313.22 161.739 314.283 161.64 315.222C161.435 317.167 162.676 318.457 164.633 318.589C164.786 318.599 164.938 318.597 165.316 318.608C164.93 318.955 164.712 319.201 164.448 319.377C163.077 320.296 161.606 320.46 160.15 319.674C158.672 318.877 158.056 317.508 158.159 315.869C158.306 313.546 159.473 311.707 161.238 310.311C167.468 305.385 174.6 302.746 182.512 302.301C185.347 302.142 188.198 302.291 191.042 302.28C191.864 302.276 192.691 302.243 193.507 302.149C195.185 301.958 196.493 301.224 197.116 299.303Z" fill="#EDEBDF"/>
<path d="M173.676 293.887C169.505 297.891 161.974 298.163 157.993 292.97C156.385 290.873 155.934 288.438 156.785 285.869C157.09 284.944 157.581 284.117 158.512 283.674C159.79 283.066 161.124 283.891 161.153 285.313C161.166 285.977 161.125 286.641 161.1 287.306C160.891 292.76 165.976 296.076 171.206 294.169C171.973 293.89 172.807 293.798 173.61 293.618C173.631 293.706 173.653 293.796 173.676 293.887Z" fill="#8D0000"/>
<path d="M177.115 302.499C175.122 303.028 173.116 303.513 171.139 304.097C165.646 305.719 160.571 308.223 155.775 311.344C154.132 312.412 152.366 313.295 150.625 314.2C150.097 314.475 149.468 314.593 148.87 314.684C146.672 315.024 145.055 313.632 145.02 311.413C144.986 309.176 146.758 306.624 149.043 305.761C148.854 306.062 148.703 306.257 148.596 306.478C148.332 307.024 147.99 307.557 147.852 308.137C147.506 309.602 148.274 310.697 149.749 310.542C151.223 310.386 152.703 309.944 154.097 309.411C158.579 307.697 162.904 305.565 167.566 304.32C170.537 303.527 173.483 302.607 176.587 302.443C176.765 302.434 176.942 302.41 177.119 302.391C177.117 302.427 177.116 302.464 177.115 302.499Z" fill="#EDEBDF"/>
<path d="M177.147 291.237C177.131 283.76 174.938 277.564 167.283 274.513C168.246 273.692 169.324 273.396 170.482 273.416C172.729 273.456 174.575 274.453 176.158 275.976C179.462 279.158 180.604 284.519 178.845 288.739C178.468 289.643 177.882 290.457 177.393 291.313C177.311 291.288 177.229 291.262 177.147 291.237Z" fill="#8D0000"/>
<path d="M201.694 296.239C200.663 295.654 200.506 294.826 200.562 293.921C200.594 293.419 200.735 292.924 200.773 292.422C200.843 291.451 200.502 290.828 199.55 290.65C198.58 290.469 197.524 290.356 196.569 290.537C192.3 291.349 188.544 293.316 185.267 296.12C183.358 297.755 181.671 299.646 179.818 301.349C179.331 301.797 178.595 301.976 177.974 302.277C177.916 302.194 177.858 302.109 177.799 302.024C178.621 301.089 179.429 300.143 180.266 299.223C184.693 294.354 189.928 290.698 196.251 288.725C197.356 288.38 198.527 288.196 199.683 288.074C200.378 288.001 201.129 288.095 201.806 288.286C202.966 288.611 203.895 289.307 204.085 290.586C204.275 291.867 203.766 292.924 202.771 293.742C202.627 293.86 202.47 293.96 202.315 294.065C201.448 294.654 201.304 295.079 201.694 296.239Z" fill="#EDEBDF"/>
<path d="M175.119 292.984C172.601 293.37 170.32 292.854 168.246 291.48C164.902 289.267 162.493 286.414 162.3 282.201C162.256 281.214 162.444 280.192 162.682 279.224C162.817 278.679 163.269 278.212 163.695 277.522C165.661 284.227 168.641 289.863 175.119 292.984Z" fill="#8D0000"/>
<path d="M189.984 290.862C190.67 290.382 191.339 289.876 192.043 289.426C195.224 287.398 198.436 285.412 201.599 283.355C203.897 281.859 205.45 279.734 206.462 277.2C206.6 276.855 206.748 276.512 206.924 276.186C207.6 274.938 208.733 274.414 210.133 274.708C210.679 274.823 211.214 274.986 211.756 275.118C212.487 275.295 213.188 275.309 213.758 274.676C213.824 274.739 213.887 274.802 213.953 274.865C213.595 275.284 213.297 275.779 212.868 276.104C211.644 277.032 210.22 277.74 209.139 278.803C206.887 281.018 204.491 283.036 201.767 284.605C198.434 286.525 195.004 288.28 191.614 290.101C191.086 290.385 190.546 290.646 190.011 290.918C190 290.9 189.993 290.881 189.984 290.862Z" fill="#EDEBDF"/>
<path d="M177.489 304.593C176.966 305.749 176.384 306.882 175.933 308.066C175.333 309.637 175.651 309.993 177.307 309.717C179.688 309.32 182.06 308.867 184.442 308.485C186.607 308.137 188.776 308.075 190.929 308.612C192.265 308.945 193.281 309.505 193.857 310.214C189.107 308.62 184.515 309.941 179.906 310.896C178.347 311.219 176.799 311.587 175.234 311.871C173.987 312.097 173.496 311.584 173.663 310.315C173.923 308.338 174.896 306.646 175.946 305.021C176.191 304.643 176.916 304.573 177.419 304.36C177.443 304.436 177.467 304.514 177.489 304.593Z" fill="#EDEBDF"/>
<path d="M185.925 314.079C186.525 312.841 187.661 312.278 188.988 312.635C189.737 312.836 190.455 313.242 191.113 313.669C192.236 314.4 192.86 314.509 193.47 313.917C194.034 313.367 194.064 312.067 193.495 311.242C193.275 310.922 192.971 310.661 192.718 310.388C193.821 310.489 195.023 311.505 195.448 312.758C195.871 314.004 195.8 315.172 194.782 316.138C193.797 317.074 192.623 317.178 191.453 316.671C190.615 316.306 189.81 315.785 189.116 315.188C188.208 314.407 187.278 313.852 185.925 314.079Z" fill="#EDEBDF"/>
<path d="M178.827 297.567C177.854 297.446 177.04 297.347 176.226 297.244C174.948 297.083 174.316 295.975 174.851 294.794C175.42 293.544 176.421 292.81 177.744 292.529C178.784 292.308 179.782 293.191 179.965 294.421C180.163 295.741 179.349 296.666 178.827 297.567Z" fill="#EDEBDF"/>
<path d="M162.153 285.927C164.144 289.392 166.318 292.535 170.482 293.496C169.016 294.372 166.014 293.874 164.353 292.495C162.257 290.756 161.356 288.143 162.153 285.927Z" fill="#8D0000"/>
<path d="M177.66 276.418C180.048 276.999 182.174 279.631 182.534 282.224C182.858 284.545 181.827 287.087 180.132 288.04C181.295 283.802 180.726 279.936 177.66 276.418Z" fill="#8D0000"/>
<path d="M179.448 292.253C180.639 291.501 181.785 290.743 182.971 290.059C183.168 289.945 183.646 290.037 183.822 290.211C184.523 290.898 184.728 292.535 184.3 293.44C184.257 293.532 184.202 293.67 184.129 293.688C183.517 293.843 182.899 293.964 182.286 294.119C181.559 294.302 181.164 293.813 180.721 293.392C180.303 292.996 179.862 292.622 179.448 292.253Z" fill="#EDEBDF"/>
<path d="M182.55 299.465C183.46 298.363 183.46 298.36 184.534 298.906C186.466 299.888 188.505 300.557 190.645 300.884C191.215 300.971 191.817 300.988 192.385 300.907C193.346 300.768 193.596 300.215 193.163 299.274C193.745 299.055 194.252 299.079 194.585 299.655C194.945 300.277 194.602 300.772 194.107 301.067C193.664 301.328 193.122 301.522 192.613 301.551C189.112 301.747 185.888 300.642 182.55 299.465Z" fill="#EDEBDF"/>
<path d="M183.704 289.074C184.859 287.998 185.991 286.893 187.19 285.867C187.472 285.624 187.985 285.552 188.384 285.569C189.325 285.61 189.737 286.363 189.29 287.188C188.529 288.589 187.26 289.134 185.727 289.179C185.098 289.198 184.468 289.208 183.839 289.223C183.794 289.173 183.749 289.125 183.704 289.074Z" fill="#EDEBDF"/>
<path d="M173.518 295.342C173.85 296.069 174.148 296.684 174.413 297.312C174.772 298.168 174.56 298.874 173.806 299.395C173.566 299.561 173.308 299.702 173.062 299.859C172.299 300.345 172.019 300.238 171.633 299.389C171.322 298.705 170.956 298.046 170.615 297.375C171.488 296.763 172.495 296.058 173.518 295.342Z" fill="#EDEBDF"/>
<path d="M163.677 300.046C163.856 299.273 164.463 298.979 165.124 298.746C165.249 298.702 165.374 298.661 165.503 298.631C166.935 298.289 168.369 297.949 169.786 297.612C169.121 299.867 166.85 301.482 163.677 300.046Z" fill="#EDEBDF"/>
<path d="M177.613 271.717C176.853 272.485 176.129 273.215 175.336 274.016C174.459 273.602 173.372 273.087 172.285 272.572C173.103 270.896 176.235 270.431 177.613 271.717Z" fill="#8D0000"/>
<path d="M191.329 298.165C191.965 296.914 192.947 296.332 194.155 296.452C195.225 296.559 196.475 297.531 196.724 298.453C196.941 299.255 196.645 300.094 195.931 300.631C195.945 300.328 195.983 300.048 195.969 299.772C195.9 298.486 194.993 297.894 193.79 298.34C192.761 298.721 192.442 298.701 191.329 298.165Z" fill="#EDEBDF"/>
<path d="M161.441 279.163C161.396 280.661 161.35 282.157 161.302 283.776C160.566 282.77 159.739 282.091 158.48 282.738C158.604 280.822 160.156 278.996 161.441 279.163Z" fill="#8D0000"/>
<path d="M166.658 275.434C166.174 275.447 165.861 275.469 165.547 275.461C164.906 275.443 164.561 275.655 164.434 276.373C164.265 277.325 163.511 276.666 162.988 276.809C162.838 275.922 163.249 275.314 163.789 274.803C164.107 274.501 164.51 274.228 164.925 274.102C165.432 273.947 165.992 273.961 166.528 273.902C166.568 274.387 166.609 274.869 166.658 275.434Z" fill="#8D0000"/>
<path d="M187.209 285.353C187.576 284.063 188.414 283.515 189.599 283.372C190.24 283.294 190.874 283.167 191.538 283.058C190.852 285.114 188.793 284.711 187.209 285.353Z" fill="#EDEBDF"/>
<path d="M159.813 300.173C161.212 299.278 162.306 297.811 164.335 298.209C161.984 300.369 161.289 300.673 159.813 300.173Z" fill="#EDEBDF"/>
<path d="M180.253 296.193C180.669 296.562 181.036 296.886 181.465 297.264C181.012 297.603 180.935 298.455 180.125 298C179.403 297.591 179.419 297.509 180.253 296.193Z" fill="#EDEBDF"/>
<path d="M170.444 75.1818C169.661 74.0101 169.44 72.8489 169.47 71.6412C169.559 67.9914 171.179 65.0039 173.622 62.4196C175.176 60.7744 177.043 59.568 179.205 58.855C180.303 58.4923 180.354 58.5476 180.264 59.7446C180.013 63.0555 178.78 66.0196 177.087 68.8281C175.909 70.7827 174.459 72.4992 172.624 73.8586C171.953 74.3533 171.196 74.7298 170.444 75.1818Z" fill="#8D0000"/>
<path d="M191.05 183.153C187.607 184.514 184.936 186.899 182.447 189.535C180.844 191.232 179.308 192.999 177.629 194.62C176.734 195.483 175.669 196.25 174.551 196.793C173.088 197.501 172.073 196.682 172.41 195.096C172.661 193.923 173.179 192.804 173.627 191.678C174.49 189.518 175.362 187.36 176.289 185.226C176.529 184.675 176.909 184.109 177.377 183.744C182.751 179.543 188.845 177.443 195.699 177.7C196.614 177.735 197.518 178.041 198.653 178.269C198.326 178.726 198.203 178.863 198.121 179.024C197.834 179.581 197.559 180.146 197.281 180.709C197.922 180.98 198.542 181.412 199.203 181.485C200.414 181.616 201.424 181.106 201.88 179.904C202.363 178.633 201.889 177.449 200.83 176.854C200.3 176.557 199.736 176.283 199.151 176.055C199.733 175.825 200.297 175.554 200.83 175.257C201.889 174.659 202.363 173.478 201.88 172.207C201.424 171.005 200.417 170.495 199.203 170.626C198.542 170.699 197.919 171.131 197.281 171.402C197.559 171.965 197.834 172.527 198.121 173.087C198.203 173.245 198.326 173.382 198.653 173.842C197.518 174.07 196.614 174.376 195.699 174.411C188.845 174.67 182.751 172.568 177.377 168.367C176.909 168.002 176.529 167.436 176.289 166.885C175.359 164.754 174.49 162.593 173.627 160.433C173.179 159.31 172.658 158.187 172.41 157.015C172.07 155.429 173.088 154.61 174.551 155.318C175.669 155.861 176.734 156.628 177.629 157.491C179.308 159.109 180.844 160.879 182.447 162.576C184.936 165.209 187.61 167.594 191.05 168.958C197.284 171.425 202.579 168.775 204.232 162.331C205.683 156.677 204.966 151.111 203.211 145.687C201.447 140.247 199.227 134.949 197.492 129.499C196.667 126.904 196.41 124.111 196.096 121.384C195.971 120.294 196.249 119.069 197.495 118.471C199.11 120.308 199.718 120.629 200.947 119.821C201.704 119.323 202.433 118.506 202.755 117.673C204.247 113.827 201.257 109.756 197.129 109.911C194.192 110.021 192.051 111.447 190.734 114.048C189.585 116.32 189.38 118.81 190.094 121.151C191.278 125.032 192.68 128.866 194.248 132.61C196.553 138.115 199.241 143.471 200.517 149.35C201.304 152.968 201.485 156.581 199.864 160.057C198.232 163.553 195.28 165.013 191.504 164.314C187.508 163.573 184.702 161.08 182.298 158.062C180.329 155.592 178.565 152.957 176.543 150.531C175.54 149.326 174.291 148.198 172.925 147.457C170.698 146.247 168.952 147.405 168.853 149.927C168.829 150.551 168.858 151.201 169.008 151.805C169.461 153.639 169.938 155.47 170.494 157.275C171.07 159.144 171.749 160.981 172.381 162.832C168.873 158.438 165.872 153.785 164.751 148.242C164.356 146.279 164.248 144.189 164.45 142.2C164.687 139.876 166.465 138.894 168.718 139.658C169.938 140.072 171.07 140.792 172.17 141.489C173.317 142.218 174.282 143.299 175.499 143.839C176.918 144.466 178.538 145.037 180.048 144.985C183.438 144.862 185.319 142.457 186.545 139.634C189.456 132.928 189.316 126.029 187.478 119.09C187.335 118.544 186.905 118.072 186.61 117.568C186.463 117.576 186.317 117.585 186.168 117.594C185.849 118.372 185.48 119.136 185.223 119.935C184.181 123.169 183.359 126.484 182.119 129.636C179.934 135.188 177.304 136.745 171.322 136.482C170.836 136.462 170.35 136.409 169.868 136.339C168.191 136.1 166.58 136.202 165.026 136.995C164.634 137.194 164.061 137.042 163.572 137.048C163.569 136.564 163.514 136.071 163.575 135.596C163.777 134.039 164.116 132.496 164.222 130.936C164.321 129.441 164.102 127.924 164.192 126.426C164.365 123.565 165.679 121.326 168.212 119.891C169.183 119.34 170.175 118.783 171.228 118.436C174.551 117.334 177.912 116.343 181.247 115.276C181.891 115.069 182.488 114.722 183.108 114.439C183.102 114.261 183.096 114.08 183.09 113.902C182.268 113.567 181.473 113.136 180.621 112.914C176.76 111.914 172.814 111.724 168.864 112.086C165.445 112.398 162.113 113.165 159.187 115.077C155.042 117.789 154.296 121.819 157.151 125.857C158.02 127.088 159.009 128.236 159.837 129.493C160.866 131.059 161.832 132.768 160.755 134.64C159.664 136.535 157.643 136.514 155.802 136.386C148.764 135.89 143.019 132.409 137.557 128.312C137.855 128.274 138.107 128.356 138.361 128.438C141.416 129.42 144.446 130.493 147.538 131.339C148.811 131.686 150.244 131.732 151.561 131.572C153.176 131.374 153.804 130.167 153.451 128.581C152.982 126.487 151.485 125.163 149.89 123.939C147.456 122.072 144.865 120.396 142.568 118.378C140.725 116.763 138.888 114.964 137.633 112.894C133.903 106.741 136.536 101.204 143.598 99.8541C143.931 99.79 144.274 99.7725 144.613 99.7375C149.007 99.2826 153.158 100.388 157.157 101.968C162.493 104.073 167.72 106.453 173.018 108.66C176.268 110.013 179.597 111.08 183.207 110.867C186.905 110.648 189.848 108.368 190.644 104.948C191.191 102.595 190.717 100.484 188.719 98.9385C186.788 97.4457 184.647 97.1133 182.417 98.2038C180.101 99.338 179.925 101.353 181.941 102.866C182.046 102.945 182.093 103.105 182.312 103.47C181.745 103.793 181.224 104.304 180.642 104.382C179.305 104.563 177.877 104.814 176.602 104.528C173.478 103.831 170.394 102.933 167.343 101.962C161.697 100.166 156.095 98.23 150.452 96.4193C149.223 96.0257 147.898 95.9236 146.62 95.6845C144.961 95.6845 143.305 95.6845 141.647 95.6845C140.386 95.9848 139.116 96.2473 137.867 96.5913C131.841 98.2562 129.261 103.28 131.373 109.155C132.414 112.054 134.193 114.471 136.352 116.611C138.391 118.632 140.567 120.513 142.594 122.542C143.545 123.495 144.388 124.598 145.072 125.755C145.385 126.286 145.482 127.324 145.163 127.741C144.853 128.143 143.852 128.234 143.215 128.123C142.273 127.959 141.375 127.522 140.474 127.161C138.174 126.236 135.878 125.303 133.596 124.338C133.122 124.137 132.61 123.866 132.3 123.478C127.874 117.944 125.683 111.66 126.116 104.551C126.163 103.788 126.484 103.041 126.698 102.207C127.087 102.397 127.213 102.455 127.339 102.516C127.935 102.822 128.532 103.129 129.129 103.435C129.392 102.688 129.852 101.948 129.872 101.198C129.901 100.067 129.31 99.1222 128.129 98.7782C126.9 98.4195 125.914 98.9444 125.18 99.8803C123.814 101.624 123.626 103.741 123.568 105.826C123.407 111.555 124.782 116.891 127.962 121.72C128.225 122.116 128.465 122.527 128.635 122.804C124.911 122.804 121.187 122.804 117.527 122.804C118.34 121.317 119.364 119.722 120.116 118.008C122.313 113.001 123.234 107.779 121.979 102.382C121.704 101.207 120.865 100.017 119.97 99.1689C118.998 98.2475 117.673 98.5537 116.845 99.4896C116.073 100.364 115.848 102.265 116.579 103.006C116.854 103.283 117.574 103.309 118.018 103.184C118.425 103.07 118.732 102.601 119.379 102.026C119.63 103.155 119.955 104.009 119.99 104.875C120.286 111.815 118.141 117.97 113.838 123.399C113.551 123.761 113.136 124.084 112.712 124.262C109.982 125.417 107.247 126.569 104.48 127.633C103.307 128.085 101.821 129.059 100.87 127.715C99.9865 126.467 101.116 125.187 101.961 124.227C103.242 122.772 104.752 121.518 106.074 120.096C108.514 117.468 111.088 114.929 113.235 112.077C115.187 109.485 115.898 106.359 115.128 103.085C114.11 98.7636 110.775 97.1657 106.885 96.2618C105.983 96.0402 105.085 95.8624 104.19 95.6729C102.631 95.6729 101.069 95.6729 99.5097 95.6729C97.7076 96.0198 95.8442 96.1831 94.1124 96.7429C88.7034 98.4953 83.3616 100.452 77.9585 102.219C75.1911 103.123 72.374 103.913 69.5246 104.514C68.2404 104.785 66.8187 104.549 65.4818 104.376C64.885 104.298 64.3409 103.808 63.6856 103.455C63.9401 103.099 64.0162 102.907 64.1595 102.805C66.1078 101.446 65.9879 99.5567 63.8582 98.2971C61.9421 97.1628 59.321 97.3932 57.4078 98.8598C55.5034 100.324 54.7866 102.63 55.4624 105.138C56.3546 108.453 59.2332 110.648 62.9162 110.852C67.3072 111.097 71.195 109.395 75.1209 107.788C80.878 105.432 86.6059 102.989 92.439 100.831C95.7915 99.5888 99.3575 99.1864 102.941 99.9736C109.33 101.379 111.808 106.199 108.859 112.013C107.812 114.077 106.179 115.967 104.448 117.533C101.967 119.775 99.0855 121.568 96.4995 123.705C95.1743 124.802 93.8637 126.076 93.0153 127.54C91.617 129.954 92.9949 131.942 95.8325 131.738C97.4678 131.622 99.106 131.234 100.683 130.767C103.289 130.001 105.846 129.07 108.575 128.417C107.089 129.412 105.63 130.447 104.111 131.388C100.016 133.919 95.6979 135.899 90.8184 136.307C89.7623 136.395 88.6683 136.354 87.6268 136.173C85.4503 135.794 84.3475 134.065 85.0642 131.974C85.4942 130.715 86.2548 129.549 86.9774 128.411C87.6531 127.347 88.5337 126.417 89.2182 125.359C91.5965 121.667 90.8418 117.83 87.2231 115.305C84.3504 113.299 81.0389 112.474 77.6221 112.115C73.5266 111.686 69.4398 111.87 65.4321 112.894C64.5808 113.109 63.788 113.544 62.966 113.876C62.9601 114.054 62.9543 114.229 62.9484 114.407C63.5657 114.69 64.1595 115.042 64.8002 115.249C68.1819 116.331 71.6514 117.18 74.9454 118.474C80.8546 120.795 82.5835 123.869 81.8492 130.173C81.621 132.144 81.5684 134.03 82.5689 135.838C82.7298 136.127 82.6683 136.762 82.4489 136.972C82.2207 137.188 81.5918 137.252 81.2963 137.089C79.4299 136.068 77.4787 136.127 75.4602 136.389C74.451 136.52 73.4154 136.494 72.3944 136.456C68.7933 136.319 66.0581 134.663 64.727 131.339C63.2673 127.7 62.1703 123.921 60.8977 120.209C60.5877 119.302 60.2074 118.416 59.8622 117.521C59.6983 117.541 59.5316 117.559 59.3678 117.579C59.0986 118.066 58.7183 118.527 58.5809 119.049C56.7203 126.038 56.615 132.975 59.5374 139.731C60.5438 142.06 62.0942 144.002 64.6715 144.801C67.237 145.597 69.4603 144.757 71.5168 143.259C72.6577 142.428 73.7489 141.527 74.9278 140.751C75.6474 140.276 76.4578 139.882 77.2798 139.623C79.5587 138.902 81.4806 139.938 81.6181 142.293C81.7527 144.579 81.5889 146.968 81.0506 149.186C79.7985 154.362 76.958 158.782 73.6055 162.937C73.8981 162.08 74.1877 161.226 74.4831 160.371C74.7845 159.5 75.1443 158.645 75.3871 157.762C76.0014 155.52 76.645 153.28 77.1218 151.009C77.4056 149.653 77.3178 148.198 75.9751 147.352C74.6265 146.504 73.1931 147.005 72.1838 147.921C70.6158 149.344 69.2321 150.988 67.8747 152.621C65.7948 155.123 63.8816 157.768 61.7461 160.22C60.0933 162.118 57.9519 163.392 55.4887 164.072C50.8784 165.346 47.2363 163.448 45.7063 158.919C44.4601 155.225 44.6444 151.446 45.9169 147.892C48.0554 141.92 50.6326 136.103 52.8998 130.173C54.108 127.012 55.2196 123.796 56.0533 120.521C56.6589 118.139 56.3166 115.684 55.0295 113.474C52.8003 109.654 47.4645 108.616 44.6649 111.476C43.2549 112.923 42.661 114.663 43.0033 116.681C43.2724 118.27 44.0067 119.501 45.6185 120.066C47.1807 120.615 47.7804 119.451 48.4181 118.378C49.8282 118.996 50.0417 120.256 49.9627 121.338C49.793 123.641 49.6292 126.018 48.9359 128.199C47.3942 133.05 45.3904 137.754 43.8429 142.603C42.7546 146.005 42.1081 149.551 41.2627 153.032C41.1837 153.353 41.0901 153.668 41.0023 153.989C41.0023 155.543 41.0023 157.1 41.0023 158.654C41.289 159.925 41.526 161.208 41.8712 162.462C43.5971 168.778 48.7545 171.349 54.8861 168.979C57.712 167.885 60.0786 166.104 62.182 163.981C64.1332 162.013 65.944 159.899 67.9215 157.96C68.9483 156.951 70.1536 156.085 71.3969 155.35C71.8708 155.071 72.8245 155.117 73.2691 155.429C73.6202 155.674 73.746 156.622 73.588 157.138C73.117 158.66 72.4617 160.126 71.862 161.608C71.3325 162.911 70.5953 164.162 70.2765 165.512C69.8347 167.384 68.6646 168.509 67.1668 169.518C62.1205 172.906 56.5887 174.621 50.4951 174.414C49.5356 174.382 48.5849 174.073 47.4147 173.851C47.7541 173.358 47.8769 173.215 47.9588 173.055C48.2397 172.495 48.503 171.93 48.775 171.367C48.1285 171.107 47.4966 170.693 46.8267 170.626C45.6098 170.501 44.6298 171.026 44.1646 172.227C43.6878 173.452 44.1354 174.6 45.1242 175.169C45.7034 175.501 46.3236 175.808 46.9613 176.061C46.3236 176.315 45.7034 176.621 45.1242 176.954C44.1354 177.519 43.6878 178.671 44.1646 179.896C44.6327 181.097 45.6127 181.622 46.8267 181.496C47.4937 181.426 48.1256 181.012 48.775 180.756C48.503 180.193 48.2397 179.624 47.9588 179.067C47.8769 178.904 47.7541 178.764 47.4147 178.271C48.5819 178.05 49.5356 177.741 50.4951 177.709C56.5857 177.502 62.1205 179.213 67.1668 182.604C68.6646 183.61 69.8347 184.739 70.2765 186.611C70.5953 187.961 71.3325 189.212 71.862 190.515C72.4646 191.996 73.117 193.463 73.588 194.985C73.7489 195.501 73.6202 196.446 73.2691 196.693C72.8245 197.005 71.8679 197.052 71.3969 196.772C70.1565 196.037 68.9513 195.171 67.9215 194.163C65.9411 192.224 64.1332 190.11 62.182 188.141C60.0786 186.019 57.712 184.237 54.8861 183.144C48.7545 180.773 43.5971 183.348 41.8712 189.661C41.5289 190.914 41.289 192.197 41.0023 193.469C41.0023 195.023 41.0023 196.58 41.0023 198.134C41.0901 198.455 41.1837 198.77 41.2627 199.093C42.1081 202.575 42.7546 206.117 43.8429 209.523C45.3904 214.372 47.3942 219.075 48.9359 223.924C49.6292 226.105 49.796 228.481 49.9627 230.785C50.0417 231.867 49.8252 233.126 48.4181 233.744C47.7804 232.671 47.1807 231.508 45.6185 232.056C44.0067 232.622 43.2724 233.852 43.0033 235.441C42.661 237.459 43.2549 239.2 44.6678 240.64C47.4645 243.501 52.8032 242.463 55.0324 238.643C56.3225 236.433 56.6618 233.978 56.0563 231.596C55.2225 228.321 54.1109 225.105 52.9027 221.944C50.6356 216.014 48.0583 210.199 45.9199 204.225C44.6473 200.668 44.463 196.889 45.7092 193.197C47.2363 188.669 50.8784 186.771 55.4917 188.045C57.9548 188.728 60.0962 189.999 61.749 191.897C63.8845 194.352 65.7977 196.994 67.8777 199.496C69.235 201.131 70.6187 202.773 72.1867 204.196C73.196 205.111 74.6294 205.613 75.978 204.764C77.3237 203.919 77.4085 202.461 77.1248 201.108C76.6479 198.837 76.0043 196.597 75.39 194.355C75.1472 193.469 74.7874 192.614 74.4861 191.745C74.1906 190.891 73.901 190.034 73.6085 189.179C76.9609 193.334 79.8015 197.758 81.0535 202.93C81.5918 205.152 81.7527 207.54 81.621 209.823C81.4836 212.179 79.5616 213.211 77.2827 212.494C76.4607 212.235 75.6504 211.841 74.9307 211.366C73.7547 210.59 72.6606 209.689 71.5197 208.858C69.4632 207.359 67.237 206.52 64.6744 207.316C62.0971 208.115 60.5467 210.059 59.5404 212.386C56.6179 219.142 56.7232 226.079 58.5838 233.068C58.7242 233.59 59.1045 234.051 59.3707 234.538C59.5345 234.558 59.7013 234.575 59.8651 234.596C60.2132 233.701 60.5906 232.817 60.9007 231.908C62.1732 228.196 63.2702 224.414 64.73 220.778C66.0639 217.454 68.7962 215.798 72.3974 215.661C73.4183 215.623 74.4539 215.597 75.4631 215.728C77.4816 215.99 79.4329 216.046 81.2993 215.028C81.5947 214.868 82.2237 214.929 82.4518 215.145C82.6683 215.352 82.7298 215.99 82.5718 216.279C81.5713 218.087 81.624 219.973 81.8521 221.944C82.5864 228.251 80.8546 231.324 74.9483 233.642C71.6543 234.937 68.1848 235.786 64.8031 236.867C64.1625 237.071 63.5657 237.424 62.9513 237.71C62.9572 237.888 62.963 238.063 62.9689 238.241C63.788 238.573 64.5837 239.005 65.435 239.223C69.4427 240.247 73.5295 240.43 77.625 240.002C81.0418 239.643 84.3533 238.818 87.226 236.812C90.8447 234.284 91.6024 230.45 89.2211 226.758C88.5395 225.7 87.6561 224.767 86.9803 223.705C86.2577 222.568 85.4972 221.402 85.0671 220.142C84.3533 218.052 85.4533 216.323 87.6297 215.944C88.6712 215.763 89.7682 215.722 90.8213 215.809C95.7038 216.218 100.019 218.197 104.114 220.728C105.632 221.667 107.092 222.705 108.578 223.7C105.852 223.046 103.292 222.116 100.686 221.349C99.1089 220.886 97.4678 220.498 95.8354 220.378C92.9978 220.174 91.6199 222.16 93.0183 224.577C93.8666 226.041 95.1801 227.315 96.5024 228.411C99.0855 230.549 101.97 232.342 104.451 234.584C106.182 236.15 107.815 238.039 108.862 240.104C111.811 245.918 109.333 250.741 102.944 252.143C99.3634 252.93 95.7944 252.528 92.442 251.286C86.6088 249.128 80.8809 246.685 75.1238 244.329C71.198 242.722 67.3101 241.022 62.9192 241.264C59.2361 241.468 56.3546 243.664 55.4653 246.979C54.7925 249.487 55.5063 251.793 57.4107 253.257C59.321 254.724 61.945 254.954 63.8611 253.82C65.9908 252.56 66.1107 250.671 64.1624 249.309C64.0191 249.21 63.943 249.014 63.6885 248.659C64.3438 248.309 64.8879 247.816 65.4847 247.737C66.8216 247.562 68.2433 247.329 69.5276 247.6C72.374 248.201 75.194 248.991 77.9614 249.895C83.3646 251.662 88.7063 253.619 94.1153 255.371C95.8471 255.934 97.7106 256.097 99.5126 256.441C101.072 256.441 102.634 256.441 104.193 256.441C105.088 256.251 105.986 256.074 106.879 255.867C110.766 254.963 114.104 253.365 115.122 249.044C115.892 245.769 115.181 242.643 113.23 240.051C111.082 237.2 108.508 234.66 106.068 232.033C104.746 230.61 103.237 229.356 101.955 227.901C101.11 226.942 99.9806 225.662 100.864 224.414C101.815 223.07 103.301 224.047 104.474 224.496C107.241 225.56 109.977 226.712 112.706 227.866C113.13 228.044 113.546 228.368 113.832 228.729C118.135 234.156 120.28 240.314 119.984 247.253C119.946 248.119 119.624 248.974 119.373 250.102C118.726 249.525 118.419 249.058 118.013 248.945C117.568 248.822 116.848 248.845 116.573 249.122C115.842 249.863 116.067 251.767 116.84 252.639C117.667 253.578 118.993 253.884 119.964 252.96C120.859 252.111 121.699 250.921 121.974 249.746C123.229 244.349 122.307 239.127 120.11 234.121C119.358 232.406 118.331 230.811 117.521 229.324C121.181 229.324 124.905 229.324 128.629 229.324C128.459 229.598 128.219 230.009 127.956 230.409C124.776 235.237 123.401 240.573 123.562 246.303C123.621 248.385 123.805 250.504 125.174 252.248C125.908 253.184 126.894 253.709 128.123 253.35C129.305 253.006 129.895 252.064 129.866 250.93C129.846 250.178 129.386 249.437 129.123 248.694C128.526 249 127.93 249.306 127.333 249.612C127.21 249.676 127.084 249.735 126.692 249.921C126.479 249.087 126.157 248.341 126.11 247.577C125.674 240.465 127.865 234.185 132.294 228.651C132.604 228.263 133.119 227.992 133.59 227.79C135.872 226.825 138.168 225.892 140.468 224.968C141.369 224.606 142.267 224.169 143.209 224.006C143.847 223.895 144.847 223.985 145.157 224.388C145.476 224.805 145.379 225.843 145.066 226.373C144.382 227.531 143.539 228.633 142.589 229.587C140.561 231.619 138.385 233.497 136.346 235.517C134.187 237.657 132.411 240.075 131.367 242.973C129.252 248.848 131.835 253.872 137.861 255.537C139.11 255.881 140.38 256.144 141.641 256.444C143.299 256.444 144.955 256.444 146.614 256.444C147.895 256.208 149.217 256.106 150.446 255.709C156.089 253.901 161.691 251.965 167.337 250.166C170.388 249.195 173.475 248.297 176.596 247.6C177.871 247.315 179.302 247.568 180.636 247.746C181.218 247.825 181.739 248.335 182.306 248.659C182.087 249.023 182.04 249.184 181.935 249.262C179.916 250.776 180.092 252.79 182.412 253.925C184.641 255.015 186.779 254.683 188.713 253.19C190.714 251.645 191.188 249.533 190.638 247.18C189.842 243.763 186.899 241.48 183.201 241.261C179.595 241.049 176.265 242.116 173.012 243.469C167.715 245.673 162.487 248.052 157.151 250.16C153.152 251.738 149.004 252.846 144.607 252.391C144.268 252.356 143.926 252.338 143.592 252.274C136.53 250.924 133.897 245.387 137.627 239.235C138.882 237.165 140.722 235.366 142.562 233.75C144.859 231.735 147.454 230.056 149.884 228.19C151.479 226.968 152.977 225.641 153.445 223.548C153.799 221.959 153.17 220.755 151.555 220.556C150.238 220.393 148.805 220.443 147.532 220.79C144.44 221.635 141.41 222.708 138.356 223.691C138.104 223.772 137.85 223.854 137.551 223.816C143.013 219.72 148.758 216.238 155.797 215.742C157.637 215.614 159.658 215.594 160.749 217.489C161.826 219.361 160.86 221.07 159.831 222.635C159.003 223.892 158.017 225.041 157.145 226.271C154.293 230.31 155.036 234.339 159.181 237.051C162.107 238.964 165.442 239.731 168.858 240.043C172.811 240.404 176.754 240.215 180.615 239.215C181.467 238.993 182.262 238.561 183.084 238.226C183.09 238.048 183.096 237.867 183.102 237.69C182.482 237.407 181.885 237.06 181.241 236.853C177.907 235.786 174.545 234.794 171.222 233.692C170.172 233.342 169.177 232.785 168.206 232.237C165.673 230.802 164.362 228.56 164.187 225.703C164.096 224.204 164.318 222.688 164.216 221.192C164.111 219.632 163.771 218.087 163.569 216.533C163.508 216.057 163.563 215.564 163.566 215.08C164.058 215.089 164.631 214.935 165.02 215.133C166.574 215.926 168.186 216.028 169.862 215.789C170.344 215.719 170.83 215.669 171.316 215.646C177.298 215.384 179.928 216.938 182.113 222.492C183.354 225.644 184.179 228.96 185.217 232.193C185.475 232.992 185.843 233.756 186.162 234.535C186.308 234.543 186.454 234.552 186.604 234.561C186.899 234.054 187.329 233.584 187.473 233.039C189.31 226.099 189.45 219.2 186.539 212.494C185.314 209.672 183.433 207.263 180.042 207.144C178.533 207.088 176.912 207.663 175.493 208.29C174.276 208.829 173.314 209.911 172.164 210.64C171.067 211.337 169.932 212.06 168.712 212.471C166.46 213.235 164.678 212.252 164.444 209.928C164.242 207.94 164.35 205.846 164.745 203.887C165.866 198.341 168.864 193.69 172.375 189.296C171.743 191.148 171.064 192.985 170.488 194.854C169.932 196.658 169.455 198.49 169.002 200.324C168.853 200.927 168.823 201.577 168.847 202.201C168.946 204.724 170.693 205.881 172.919 204.671C174.285 203.928 175.534 202.799 176.537 201.598C178.559 199.172 180.323 196.536 182.292 194.066C184.699 191.046 187.502 188.555 191.498 187.815C195.274 187.115 198.226 188.576 199.859 192.072C201.482 195.548 201.298 199.16 200.511 202.779C199.233 208.657 196.547 214.013 194.242 219.518C192.674 223.265 191.27 227.096 190.088 230.977C189.374 233.319 189.582 235.812 190.728 238.08C192.045 240.681 194.186 242.107 197.123 242.218C201.251 242.372 204.241 238.302 202.749 234.456C202.424 233.622 201.699 232.806 200.941 232.307C199.712 231.499 199.104 231.82 197.489 233.657C196.243 233.059 195.965 231.835 196.091 230.744C196.404 228.018 196.661 225.225 197.486 222.629C199.221 217.18 201.441 211.882 203.205 206.441C204.963 201.021 205.68 195.451 204.226 189.798C202.579 183.336 197.287 180.686 191.05 183.153ZM177.842 171.845C178.457 172.224 179.068 172.612 179.688 172.985C182.002 174.379 184.404 175.402 186.885 176.053C184.404 176.703 182.002 177.726 179.688 179.12C179.068 179.493 178.457 179.881 177.842 180.26C177.842 179.292 177.842 178.327 177.842 177.359C177.842 176.49 177.842 175.615 177.842 174.746C177.842 173.778 177.842 172.813 177.842 171.845ZM68.1117 180.208C67.7343 179.986 67.3657 179.747 66.9971 179.514C64.4842 177.922 61.8602 176.764 59.1396 176.05C61.8631 175.338 64.4842 174.181 66.9971 172.586C67.3657 172.352 67.7343 172.113 68.1117 171.892C68.1819 171.851 68.2931 171.886 68.1995 171.886C68.1995 172.828 68.1995 173.775 68.1995 174.72C68.1995 175.606 68.1995 176.493 68.1995 177.382C68.1995 178.327 68.1995 179.272 68.1995 180.216C68.2931 180.213 68.179 180.248 68.1117 180.208ZM168.662 190.18C166.723 193.369 164.991 196.696 163.379 200.067C160.167 206.782 155.247 211.716 148.501 214.876C146.784 215.681 145.093 216.547 143.408 217.422C139.426 219.492 135.538 221.688 132.309 224.889C131.709 225.484 130.761 226.015 129.945 226.056C125.964 226.254 121.974 226.333 117.986 226.335C115.953 226.338 114.136 225.776 112.726 224.047C111.858 222.979 110.647 222.108 109.435 221.414C105.469 219.145 101.508 216.845 97.4034 214.847C93.2903 212.844 89.581 210.304 86.9247 206.66C84.5406 203.391 82.6888 199.723 80.7464 196.151C78.5172 192.049 76.4636 187.838 73.0936 184.505C72.0288 183.45 71.3793 182.368 71.3208 180.855C71.2535 179.152 71.0897 177.461 70.9698 176.053C71.0926 174.647 71.2535 172.953 71.3208 171.25C71.3793 169.737 72.0288 168.655 73.0936 167.6C76.4607 164.267 78.5172 160.054 80.7464 155.954C82.6859 152.382 84.5406 148.714 86.9247 145.445C89.581 141.801 93.2903 139.261 97.4034 137.258C101.508 135.258 105.469 132.96 109.435 130.692C110.647 129.998 111.855 129.126 112.726 128.059C114.139 126.327 115.953 125.767 117.986 125.77C121.974 125.773 125.964 125.851 129.945 126.05C130.758 126.09 131.709 126.624 132.309 127.216C135.538 130.417 139.426 132.613 143.408 134.683C145.093 135.558 146.781 136.424 148.501 137.229C155.247 140.389 160.164 145.326 163.379 152.038C164.991 155.406 166.726 158.736 168.662 161.926C169.988 164.107 171.804 165.987 173.32 168.063C173.89 168.848 174.58 169.789 174.607 170.679C174.659 172.469 174.683 174.262 174.695 176.053C174.683 177.846 174.659 179.636 174.607 181.426C174.58 182.316 173.89 183.257 173.32 184.042C171.804 186.115 169.988 187.996 168.662 190.18Z" fill="#EDEBDF"/>
<path d="M181.114 118.727C179.663 118.292 178.401 118.43 177.17 118.841C173.45 120.082 170.895 122.686 169.013 126.009C167.815 128.124 167.166 130.422 167.118 132.867C167.093 134.109 167.165 134.144 168.366 133.674C171.687 132.374 174.341 130.175 176.69 127.551C178.324 125.725 179.629 123.695 180.444 121.382C180.74 120.537 180.887 119.641 181.114 118.727Z" fill="#8D0000"/>
<path d="M181.466 234.99C182.123 233.625 182.184 232.356 181.971 231.076C181.328 227.208 179.156 224.276 176.168 221.897C174.268 220.383 172.1 219.382 169.692 218.951C168.47 218.732 168.424 218.798 168.7 220.058C169.464 223.541 171.22 226.507 173.444 229.238C174.991 231.138 176.791 232.744 178.948 233.912C179.736 234.337 180.599 234.623 181.466 234.99Z" fill="#8D0000"/>
<path d="M163.947 176.091C163.95 198.923 145.45 217.339 122.545 217.299C99.8395 217.26 81.4473 198.694 81.4924 175.859C81.5376 153.315 100.093 134.845 122.703 134.84C145.467 134.834 163.944 153.312 163.947 176.091ZM122.849 137.094C101.402 137.049 83.8591 154.475 83.7576 175.924C83.656 197.362 101.095 214.946 122.542 215.031C144.158 215.116 161.71 197.622 161.682 176.017C161.656 154.625 144.212 137.139 122.849 137.094Z" fill="#EDEBDF"/>
<path d="M122.646 210.857C103.075 210.535 87.6672 194.895 87.9549 175.647C88.2427 156.429 104.119 140.976 123.236 141.303C142.285 141.63 157.775 157.425 157.495 176.236C157.208 195.567 141.504 211.167 122.646 210.857ZM155.261 176.239C155.558 158.692 141.019 143.854 123.236 143.56C105.439 143.264 90.5248 157.626 90.2088 175.37C89.8844 193.558 104.175 208.278 122.5 208.631C140.22 208.969 154.957 194.399 155.261 176.239Z" fill="#EDEBDF"/>
<path d="M63.8762 118.959C65.1968 118.467 66.3777 118.519 67.546 118.826C71.077 119.754 73.6108 122.019 75.5625 124.992C76.8052 126.883 77.549 128.978 77.7445 131.246C77.8444 132.398 77.7789 132.435 76.6349 132.071C73.471 131.064 70.8707 129.182 68.528 126.887C66.8976 125.29 65.5614 123.483 64.6615 121.384C64.3347 120.617 64.1429 119.794 63.8762 118.959Z" fill="#8D0000"/>
<path d="M65.5857 233.834C65.0465 232.532 65.056 231.35 65.3215 230.172C66.1218 226.61 68.2938 223.996 71.1944 221.939C73.0401 220.629 75.1065 219.81 77.3664 219.533C78.5137 219.392 78.5529 219.456 78.2306 220.612C77.3377 223.81 75.5504 226.477 73.3412 228.9C71.8039 230.587 70.0467 231.988 67.9814 232.962C67.2269 233.317 66.4107 233.538 65.5857 233.834Z" fill="#8D0000"/>
<path d="M178.434 57.0477C177.512 56.892 176.663 56.8722 175.841 56.1856C174.246 54.8532 172.268 54.7276 170.322 55.2093C165.913 56.3024 163.647 59.9744 164.412 64.619C164.564 65.5427 164.358 65.7874 163.41 65.8082C162.47 65.8281 161.784 65.36 161.29 64.6135C159.813 62.3828 159.723 60.0113 160.832 57.6368C162.776 53.4784 166.617 52.2677 170.981 52.7723C173.726 53.0895 176.09 54.3195 177.998 56.3547C178.143 56.5087 178.279 56.6721 178.41 56.8366C178.437 56.8704 178.423 56.9326 178.434 57.0477Z" fill="#8D0000"/>
<path d="M177.767 36.437C179.137 35.571 180.864 35.8449 181.834 37.1758C182.684 38.3422 183.371 39.6591 183.947 40.9881C185.581 44.7548 187.419 48.4048 189.851 51.7222C192.423 55.2312 195.527 58.2115 199.332 60.331C200.861 61.1821 202.606 61.7154 204.317 62.1314C205.206 62.3475 206.295 62.1683 207.188 61.8607C209.037 61.225 209.682 59.555 208.974 57.7258C208.919 57.583 208.853 57.4452 208.703 57.0985C209.18 57.3022 209.495 57.3954 209.767 57.5597C211.179 58.4139 211.95 59.6779 211.852 61.3303C211.755 63.0064 210.774 64.1433 209.245 64.7422C207.078 65.5908 204.918 65.3105 202.906 64.3005C195.809 60.7361 190.403 55.388 186.656 48.4052C185.314 45.9033 184.244 43.256 183.032 40.6832C182.681 39.9402 182.302 39.2048 181.872 38.5043C180.989 37.0647 179.771 36.1899 177.767 36.437Z" fill="#EDEBDF"/>
<path d="M182.764 59.9679C188.156 62.0566 191.585 68.7672 188.561 74.5697C187.34 76.9132 185.324 78.3506 182.636 78.6658C181.669 78.7793 180.712 78.6844 179.917 78.028C178.825 77.1264 179.01 75.5685 180.285 74.9417C180.882 74.6494 181.502 74.4057 182.115 74.1474C187.146 72.0313 188.002 66.0218 184.064 62.0872C183.486 61.5103 183.051 60.7937 182.548 60.1419C182.619 60.0853 182.691 60.0273 182.764 59.9679Z" fill="#8D0000"/>
<path d="M189.116 53.2119C190.438 54.7943 191.725 56.4082 193.09 57.9531C196.881 62.2454 201.296 65.7868 206.151 68.8147C207.813 69.8519 209.36 71.0791 210.916 72.2746C211.388 72.6377 211.761 73.1573 212.097 73.6611C213.333 75.5096 212.755 77.5636 210.758 78.5326C208.746 79.5093 205.684 78.9814 203.936 77.2749C204.288 77.3194 204.53 77.3739 204.775 77.377C205.381 77.3859 206.009 77.4712 206.592 77.3507C208.066 77.0448 208.735 75.8865 207.971 74.615C207.206 73.3449 206.181 72.1903 205.109 71.1524C201.66 67.8146 197.901 64.7953 194.802 61.0968C192.828 58.7391 190.749 56.4575 189.289 53.7139C189.204 53.5565 189.108 53.4069 189.016 53.254C189.05 53.2402 189.084 53.2265 189.116 53.2119Z" fill="#EDEBDF"/>
<path d="M178.895 57.9426C172.125 61.1174 167.437 65.723 167.907 73.95C166.756 73.4242 166.032 72.5723 165.561 71.5144C164.647 69.4611 164.771 67.3664 165.483 65.2882C166.97 60.9494 171.346 57.6485 175.914 57.4596C176.892 57.419 177.877 57.6058 178.86 57.6879C178.872 57.7723 178.883 57.8582 178.895 57.9426Z" fill="#8D0000"/>
<path d="M173.054 33.5813C172.96 34.7631 172.276 35.2555 171.432 35.5875C170.963 35.7707 170.455 35.8521 169.984 36.0302C169.075 36.3761 168.654 36.9487 168.895 37.887C169.141 38.8428 169.485 39.8474 170.052 40.6362C172.592 44.1619 175.962 46.7351 179.889 48.5204C182.177 49.5591 184.604 50.289 186.931 51.2484C187.543 51.5003 188.016 52.0924 188.551 52.5272C188.5 52.6158 188.448 52.7035 188.396 52.7935C187.201 52.4433 186.002 52.1106 184.815 51.7408C178.531 49.7865 173.005 46.587 168.544 41.6901C167.765 40.8343 167.104 39.8509 166.504 38.8555C166.144 38.2565 165.912 37.5355 165.799 36.841C165.604 35.6528 165.841 34.5168 166.92 33.8038C168.001 33.0902 169.174 33.1049 170.336 33.6614C170.504 33.7415 170.661 33.8418 170.821 33.938C171.722 34.4747 172.167 34.4253 173.054 33.5813Z" fill="#EDEBDF"/>
<path d="M181.337 59.043C182.75 61.1619 183.247 63.4466 182.878 65.9074C182.285 69.8736 180.718 73.2622 176.981 75.2176C176.105 75.6751 175.1 75.9358 174.122 76.1295C173.571 76.2378 172.957 76.0251 172.15 75.9306C177.397 71.3153 181.246 66.2325 181.337 59.043Z" fill="#8D0000"/>
<path d="M173.132 46.4675C172.406 46.0486 171.665 45.6559 170.96 45.2082C167.777 43.1822 164.62 41.1106 161.419 39.1129C159.092 37.6625 156.51 37.1531 153.785 37.3073C153.414 37.3274 153.041 37.3388 152.671 37.3168C151.255 37.2318 150.301 36.4264 149.975 35.0336C149.848 34.49 149.77 33.9357 149.661 33.3888C149.513 32.6521 149.229 32.0104 148.414 31.7616C148.444 31.6753 148.474 31.5912 148.504 31.5049C149.034 31.6524 149.609 31.7131 150.085 31.9641C151.443 32.6819 152.687 33.6727 154.107 34.2031C157.066 35.3082 159.907 36.6275 162.481 38.4325C165.63 40.6418 168.669 43.0092 171.753 45.3119C172.234 45.6705 172.699 46.0495 173.17 46.4197C173.159 46.4369 173.145 46.4511 173.132 46.4675Z" fill="#EDEBDF"/>
<path d="M190.857 51.9884C192.125 51.9737 193.398 52.0223 194.662 51.9308C196.339 51.8101 196.528 51.3712 195.578 49.987C194.211 47.9969 192.799 46.0391 191.445 44.042C190.216 42.2267 189.242 40.2865 188.819 38.1085C188.556 36.7574 188.635 35.5998 189.034 34.7783C189.596 39.7565 192.735 43.3601 195.548 47.1339C196.499 48.4101 197.487 49.6577 198.406 50.9555C199.137 51.9903 198.88 52.6521 197.659 53.0374C195.757 53.6371 193.814 53.4705 191.897 53.2054C191.45 53.1431 191.081 52.5163 190.675 52.1493C190.733 52.0963 190.795 52.0412 190.857 51.9884Z" fill="#EDEBDF"/>
<path d="M195.888 40.3334C194.513 40.3123 193.523 39.5212 193.285 38.168C193.151 37.4042 193.215 36.5814 193.324 35.805C193.512 34.4778 193.347 33.8661 192.552 33.564C191.816 33.2847 190.625 33.8071 190.118 34.6715C189.921 35.0062 189.813 35.392 189.672 35.7372C189.298 34.6943 189.71 33.1758 190.666 32.2608C191.617 31.3505 192.705 30.9214 194.012 31.4357C195.276 31.9333 195.866 32.9532 195.901 34.2278C195.924 35.1417 195.792 36.0914 195.545 36.9728C195.221 38.1251 195.111 39.2035 195.888 40.3334Z" fill="#EDEBDF"/>
<path d="M183.923 53.746C184.225 54.6786 184.479 55.4581 184.73 56.2396C185.124 57.4654 184.386 58.5065 183.09 58.5203C181.717 58.5337 180.628 57.9364 179.815 56.856C179.175 56.007 179.553 54.7291 180.591 54.0436C181.704 53.3062 182.886 53.6528 183.923 53.746Z" fill="#EDEBDF"/>
<path d="M180.42 73.7757C182.719 70.5065 184.649 67.2076 183.76 63.0279C185.173 63.9859 185.991 66.9174 185.443 69.0054C184.753 71.6403 182.765 73.561 180.42 73.7757Z" fill="#8D0000"/>
<path d="M165.249 63.7401C164.766 61.3302 166.253 58.2918 168.451 56.8689C170.418 55.5946 173.157 55.455 174.737 56.5882C170.404 57.3251 167.142 59.4748 165.249 63.7401Z" fill="#8D0000"/>
<path d="M178.844 55.4277C177.658 54.6658 176.488 53.9477 175.366 53.1617C175.179 53.0318 175.061 52.5595 175.144 52.3268C175.47 51.4008 176.867 50.5228 177.868 50.5287C177.97 50.5283 178.119 50.52 178.166 50.5786C178.565 51.0676 178.936 51.5771 179.335 52.0674C179.808 52.6489 179.533 53.2129 179.338 53.7925C179.155 54.3384 179.003 54.8962 178.844 55.4277Z" fill="#EDEBDF"/>
<path d="M184.069 49.5686C182.686 49.2107 182.684 49.2113 182.724 48.0078C182.797 45.8414 182.542 43.7106 181.934 41.6325C181.772 41.0797 181.533 40.5265 181.219 40.0462C180.688 39.2337 180.081 39.2413 179.411 40.0316C178.967 39.5965 178.774 39.127 179.155 38.5814C179.567 37.9926 180.161 38.0938 180.637 38.4184C181.061 38.7091 181.466 39.1183 181.707 39.5678C183.364 42.6574 183.725 46.0469 184.069 49.5686Z" fill="#EDEBDF"/>
<path d="M174.164 52.9138C172.7 52.3214 171.221 51.7624 169.784 51.11C169.445 50.9567 169.163 50.5227 169.009 50.1535C168.649 49.2833 169.158 48.5914 170.094 48.6486C171.685 48.7461 172.715 49.6656 173.404 51.0356C173.687 51.5979 173.963 52.1646 174.242 52.728C174.215 52.7901 174.191 52.8517 174.164 52.9138Z" fill="#EDEBDF"/>
<path d="M184.15 59.4966C184.669 58.8884 185.1 58.3587 185.557 57.8534C186.181 57.1656 186.911 57.0594 187.701 57.523C187.954 57.6704 188.19 57.8441 188.437 58.0012C189.199 58.4875 189.221 58.7858 188.614 59.4947C188.126 60.0654 187.684 60.6753 187.219 61.2689C186.296 60.7359 185.232 60.1214 184.15 59.4966Z" fill="#EDEBDF"/>
<path d="M192.572 66.4275C191.796 66.5917 191.273 66.1662 190.782 65.6654C190.689 65.5711 190.599 65.4749 190.518 65.3705C189.603 64.2168 188.689 63.0616 187.784 61.9191C190.108 61.5694 192.532 62.9447 192.572 66.4275Z" fill="#EDEBDF"/>
<path d="M161.007 65.7694C162.024 66.1334 162.991 66.4816 164.053 66.8618C164.047 67.8313 164.04 69.034 164.034 70.2366C162.169 70.2044 160.423 67.5619 161.007 65.7694Z" fill="#8D0000"/>
<path d="M179.182 42.1607C177.779 42.113 176.837 41.4693 176.435 40.3239C176.079 39.3087 176.432 37.7651 177.162 37.1494C177.797 36.614 178.684 36.5279 179.471 36.9476C179.191 37.0627 178.921 37.1468 178.677 37.2768C177.54 37.8826 177.387 38.9549 178.3 39.8567C179.08 40.6281 179.196 40.9256 179.182 42.1607Z" fill="#EDEBDF"/>
<path d="M174.591 77.2801C175.968 76.6879 177.343 76.0977 178.831 75.457C178.23 76.5492 177.964 77.5854 179.083 78.4529C177.294 79.1508 174.983 78.5159 174.591 77.2801Z" fill="#8D0000"/>
<path d="M169.006 74.1281C169.222 74.5611 169.375 74.8357 169.5 75.1237C169.755 75.7122 170.093 75.9348 170.796 75.747C171.731 75.497 171.452 76.4595 171.803 76.8726C171.062 77.3838 170.338 77.2685 169.647 76.9947C169.238 76.8344 168.82 76.5841 168.531 76.262C168.176 75.8673 167.953 75.3544 167.672 74.8932C168.095 74.6522 168.514 74.4109 169.006 74.1281Z" fill="#8D0000"/>
<path d="M169.311 51.31C167.986 51.5232 167.136 50.9952 166.505 49.9814C166.163 49.4336 165.78 48.912 165.401 48.3569C167.554 48.1094 168.059 50.1462 169.311 51.31Z" fill="#EDEBDF"/>
<path d="M194.32 69.877C192.917 68.9876 191.125 68.6154 190.629 66.6091C193.58 67.8261 194.149 68.328 194.32 69.877Z" fill="#EDEBDF"/>
<path d="M182.075 53.0331C182.233 52.5007 182.372 52.0309 182.534 51.4823C183.032 51.7495 183.837 51.4596 183.766 52.3858C183.701 53.2136 183.62 53.2331 182.075 53.0331Z" fill="#EDEBDF"/>
<path d="M122.682 206.314C139.037 206.314 152.295 192.911 152.295 176.376C152.295 159.841 139.037 146.438 122.682 146.438C106.327 146.438 93.0691 159.841 93.0691 176.376C93.0691 192.911 106.327 206.314 122.682 206.314Z" fill="#8D0000"/>
</svg>
