<svg width="668" height="682" viewBox="0 0 668 682" fill="none" xmlns="http://www.w3.org/2000/svg">
<path d="M363.52 58.4716C369.171 72.7607 379.07 83.8447 390.008 94.1761C397.051 100.829 404.384 107.203 411.112 114.171C414.694 117.886 417.876 122.305 420.127 126.943C423.067 133.013 419.667 137.225 413.084 135.829C408.22 134.785 403.573 132.636 398.902 130.779C389.936 127.198 380.981 123.58 372.124 119.731C369.837 118.736 367.489 117.158 365.977 115.215C348.54 92.9135 339.828 67.6253 340.892 39.1806C341.038 35.3807 342.308 31.6294 343.252 26.919C345.152 28.2787 345.72 28.7885 346.386 29.1285C348.697 30.3182 351.045 31.4595 353.38 32.6128C354.505 29.9541 356.296 27.3803 356.599 24.6366C357.143 19.6105 355.026 15.4221 350.04 13.5282C344.765 11.5251 339.852 13.4919 337.383 17.8866C336.149 20.084 335.011 22.4271 334.068 24.8551C333.112 22.4392 331.986 20.0962 330.752 17.8866C328.271 13.4919 323.371 11.5251 318.095 13.5282C313.109 15.4221 310.992 19.5984 311.536 24.6366C311.839 27.3803 313.63 29.9662 314.755 32.6128C317.091 31.4595 319.426 30.3182 321.749 29.1285C322.403 28.7885 322.971 28.2787 324.883 26.919C325.827 31.6294 327.098 35.3807 327.243 39.1806C328.32 67.6253 319.595 92.9135 302.158 115.215C300.646 117.158 298.298 118.736 296.011 119.731C287.166 123.592 278.199 127.198 269.233 130.779C264.574 132.636 259.915 134.797 255.051 135.829C248.468 137.238 245.068 133.013 248.009 126.943C250.259 122.305 253.442 117.886 257.023 114.171C263.739 107.203 271.084 100.829 278.127 94.1761C289.054 83.8447 298.952 72.7485 304.615 58.4716C314.852 32.6006 303.853 10.6267 277.11 3.76749C253.647 -2.25409 230.547 0.720269 208.04 8.00443C185.461 15.325 163.474 24.5395 140.858 31.7387C130.089 35.1622 118.496 36.2306 107.182 37.5296C102.657 38.0516 97.5745 36.8983 95.0939 31.7265C102.717 25.0251 104.048 22.4999 100.696 17.401C98.6273 14.2567 95.2391 11.2337 91.7784 9.89831C75.8177 3.70677 58.9254 16.1141 59.5667 33.244C60.0265 45.4329 65.9437 54.3196 76.7374 59.7827C86.1637 64.5538 96.4976 65.4036 106.214 62.4414C122.32 57.5246 138.232 51.7094 153.769 45.2022C176.615 35.6357 198.844 24.4787 223.239 19.1856C238.255 15.9198 253.248 15.1672 267.672 21.8929C282.18 28.6672 288.243 40.9167 285.339 56.5898C282.265 73.1734 271.919 84.8159 259.395 94.7952C249.146 102.966 238.207 110.286 228.139 118.675C223.142 122.839 218.459 128.023 215.385 133.693C210.364 142.931 215.168 150.179 225.635 150.592C228.224 150.689 230.923 150.568 233.427 149.948C241.039 148.067 248.638 146.088 256.128 143.781C263.884 141.39 271.508 138.573 279.192 135.951C260.956 150.507 241.644 162.963 218.641 167.613C210.497 169.252 201.821 169.701 193.568 168.863C183.924 167.88 179.846 160.498 183.017 151.15C184.735 146.088 187.724 141.39 190.616 136.825C193.641 132.066 198.13 128.06 200.369 123.009C202.97 117.121 205.342 110.395 205.124 104.131C204.616 90.0605 194.633 82.2543 182.92 77.1676C155.088 65.088 126.459 65.6707 97.6592 73.2948C95.3964 73.8897 93.4361 75.6743 91.3427 76.9005C91.379 77.5075 91.4154 78.1145 91.4517 78.7336C94.6825 80.0569 97.8528 81.5866 101.168 82.655C114.588 86.9769 128.346 90.3883 141.427 95.5358C164.466 104.605 170.928 115.519 169.839 140.346C169.754 142.361 169.536 144.376 169.246 146.379C168.254 153.336 168.677 160.025 171.969 166.471C172.792 168.098 172.162 170.478 172.186 172.505C170.178 172.517 168.133 172.748 166.16 172.493C159.699 171.655 153.298 170.247 146.824 169.81C140.616 169.397 134.324 170.308 128.104 169.931C116.234 169.215 106.94 163.764 100.987 153.251C98.6999 149.22 96.3887 145.105 94.9487 140.734C90.3747 126.943 86.2605 112.993 81.8317 99.1536C80.9726 96.4827 79.5326 94.0061 78.3589 91.4324C77.6207 91.4567 76.8705 91.4809 76.1324 91.5052C74.7408 94.9166 72.9499 98.2188 72.0303 101.752C67.8798 117.777 67.0933 134.154 68.5937 150.543C69.8885 164.735 73.0709 178.563 81.0089 190.703C92.2624 207.906 108.985 211.002 125.745 199.153C130.851 195.547 135.619 191.444 140.834 188.008C147.332 183.735 154.423 179.729 162.191 184.196C170.057 188.725 169.972 197.113 169.44 204.75C167.383 233.959 152.935 257.803 135.933 280.469C135.776 279.23 136.115 278.186 136.454 277.13C140.531 264.456 144.984 251.878 148.494 239.046C149.934 233.765 150.127 227.816 149.462 222.353C148.639 215.652 143.629 213.041 137.047 214.51C128.358 216.453 122.865 222.669 117.782 229.285C110.038 239.386 103.08 250.142 94.7067 259.672C88.003 267.321 80.537 274.945 71.9456 280.153C46.4134 295.632 23.4345 284.706 17.8319 255.399C17.5657 254.015 17.4931 252.595 17.3479 251.186C15.4602 232.952 20.0463 215.724 26.6048 199.129C35.3414 176.985 45.2155 155.29 54.3756 133.304C59.9902 119.816 64.419 106.001 63.5357 91.0196C62.6281 75.6743 53.1655 63.4612 38.9716 60.159C29.2064 57.8888 20.4456 59.8555 14.0323 68.1473C7.83687 76.1599 6.45741 85.0466 10.983 94.2975C15.6901 103.913 24.0516 104.641 30.3318 96.2763C30.6585 95.8393 31.324 95.6451 32.8366 94.7345C34.1798 97.0898 36.2974 99.2507 36.6241 101.667C37.3743 107.215 38.415 113.139 37.2291 118.432C34.3371 131.398 30.6101 144.194 26.5806 156.856C19.1267 180.287 11.0919 203.536 3.57748 226.954C1.9439 232.053 1.52038 237.553 0.528139 242.858C0.528139 249.742 0.528139 256.613 0.528139 263.496C1.77449 268.729 2.86354 273.998 4.29141 279.182C11.2008 304.191 32.0501 314.898 56.4327 306.133C68.4606 301.811 78.492 294.43 87.3738 285.47C95.7594 277.009 103.564 267.976 111.986 259.563C115.943 255.617 120.517 252.121 125.321 249.28C127.523 247.981 131.831 247.581 133.562 248.904C135.231 250.191 135.607 254.343 135.147 256.989C134.469 260.898 132.654 264.626 131.154 268.365C127.318 277.907 123.445 287.437 119.44 296.907C118.605 298.873 117.48 300.998 115.871 302.285C92.9037 320.653 66.827 329.746 37.3259 327.949C34.1556 327.755 31.0578 326.419 27.5971 325.533C28.3836 323.919 28.6256 323.397 28.8797 322.875C30.1503 320.398 31.4208 317.921 32.6914 315.445C29.5937 314.352 26.5201 312.446 23.4103 312.361C18.7153 312.24 14.7947 314.692 13.3668 319.597C11.8785 324.696 14.0566 328.787 17.9408 331.834C25.177 337.504 33.962 338.281 42.6138 338.523C66.3914 339.191 88.5354 333.485 108.574 320.289C110.22 319.196 111.926 318.201 113.075 317.496C113.075 332.951 113.075 348.406 113.075 363.593C106.904 360.218 100.285 355.969 93.1699 352.849C72.3933 343.732 50.7212 339.907 28.3231 345.116C23.4466 346.257 18.5096 349.741 14.9883 353.456C11.1645 357.486 12.4351 362.986 16.3194 366.422C19.9495 369.627 27.8391 370.562 30.9126 367.526C32.0622 366.385 32.1711 363.399 31.6507 361.553C31.1788 359.866 29.2306 358.591 26.8468 355.908C31.5297 354.864 35.0752 353.517 38.6691 353.371C67.4684 352.145 93.0126 361.044 115.544 378.902C117.044 380.092 118.387 381.816 119.126 383.576C123.917 394.903 128.697 406.254 133.114 417.739C134.989 422.607 139.031 428.774 133.453 432.72C128.274 436.386 122.961 431.7 118.98 428.191C112.942 422.874 107.739 416.61 101.834 411.122C90.9313 400.997 80.3918 390.314 68.5574 381.403C57.8 373.305 44.8282 370.355 31.2393 373.548C13.3063 377.773 6.67522 391.613 2.92405 407.759C2.00441 411.499 1.26627 415.226 0.479736 418.941C0.479736 425.411 0.479736 431.894 0.479736 438.365C1.9197 445.843 2.59733 453.577 4.92064 460.764C12.1931 483.211 20.3125 505.379 27.6455 527.802C31.3966 539.287 34.6759 550.978 37.1686 562.803C38.2939 568.132 37.3138 574.033 36.5999 579.581C36.2732 582.057 34.2403 584.315 32.7761 587.035C31.2998 585.979 30.5012 585.663 30.0777 585.068C24.4388 576.983 16.5977 577.48 11.3702 586.318C6.66312 594.27 7.61906 605.148 13.7056 613.088C19.7801 620.991 29.3516 623.965 39.7581 621.161C53.5164 617.458 62.6282 605.512 63.4752 590.228C64.4916 572.005 57.4249 555.871 50.7575 539.578C40.9803 515.686 30.84 491.916 21.8856 467.708C16.7308 453.795 15.0609 438.996 18.328 424.124C24.1605 397.61 44.1627 387.327 68.2912 399.565C76.8584 403.911 84.6995 410.685 91.1975 417.872C100.503 428.167 107.945 440.125 116.814 450.857C121.364 456.357 126.652 461.796 132.727 465.316C142.746 471.119 150.998 465.401 150.151 453.625C149.667 446.839 148.058 440.04 146.122 433.497C142.939 422.68 139.079 412.069 136.369 400.742C140.495 406.909 144.791 412.968 148.699 419.268C159.203 436.265 167.419 454.184 169.113 474.434C169.476 478.816 169.307 483.357 168.556 487.679C166.983 496.711 159.808 501.288 151.132 498.314C145.904 496.529 141.064 493.373 136.345 490.374C131.928 487.569 128.068 483.915 123.675 481.074C108.356 471.204 92.4318 474.337 81.9527 489.354C73.6275 501.276 70.2031 515.019 68.7147 529.198C66.9359 546.195 67.6983 563.155 71.9456 579.787C72.841 583.32 74.644 586.61 76.0235 590.021C76.7616 590.046 77.4876 590.07 78.2258 590.094C79.3995 587.532 80.8637 585.068 81.7228 582.409C86.2121 568.375 89.7334 553.977 95.106 540.307C104.738 515.783 117.492 508.609 143.653 511.656C151.833 512.603 159.662 512.821 167.165 508.669C168.363 508.002 171.001 508.257 171.872 509.167C172.767 510.114 173.034 512.724 172.356 513.95C168.121 521.696 168.363 529.793 169.452 538.17C169.996 542.359 169.887 546.656 169.73 550.893C169.161 565.838 162.288 577.189 148.494 582.713C133.392 588.771 117.71 593.323 102.306 598.604C98.5426 599.891 94.864 601.47 91.1491 602.902C91.2338 603.582 91.3064 604.274 91.3911 604.954C93.4119 606.071 95.3238 607.649 97.4898 608.22C126.495 615.941 155.282 616.378 183.319 604.25C192.987 600.073 201.046 593.639 204.362 582.943C207.665 572.296 204.18 563.07 197.961 554.535C194.512 549.801 190.773 545.272 187.554 540.38C185.582 537.393 183.948 534.03 182.871 530.619C179.882 521.162 184.178 513.185 193.955 512.615C203.442 512.056 213.353 512.736 222.561 514.97C244.04 520.166 262.384 531.954 279.627 545.867C276.07 544.653 272.524 543.451 268.979 542.225C265.361 540.975 261.815 539.481 258.149 538.474C248.843 535.924 239.55 533.253 230.124 531.274C224.497 530.097 218.459 530.461 214.95 536.033C211.429 541.63 213.51 547.579 217.309 551.767C223.215 558.274 230.039 564.017 236.816 569.65C247.198 578.282 258.173 586.221 268.35 595.084C276.227 601.943 281.515 610.83 284.334 621.052C289.622 640.185 281.745 655.299 262.953 661.649C247.621 666.821 231.939 666.056 217.188 660.775C192.407 651.9 168.266 641.205 143.653 631.796C130.536 626.782 117.19 622.169 103.601 618.709C93.7145 616.196 83.5258 617.616 74.3536 622.958C58.5019 632.209 54.1941 654.353 66.0647 665.971C72.0666 671.822 79.2906 674.287 87.6642 672.866C94.259 671.75 99.3654 668.702 101.713 662.013C103.988 655.53 99.1597 653.041 94.7067 650.395C97.272 644.543 102.499 643.657 106.989 643.985C116.548 644.689 126.41 645.369 135.461 648.246C155.597 654.644 175.115 662.96 195.238 669.382C209.359 673.898 224.074 676.581 238.522 680.09C239.853 680.418 241.16 680.806 242.491 681.17C248.94 681.17 255.402 681.17 261.852 681.17C267.127 679.981 272.452 678.997 277.655 677.565C303.865 670.402 314.537 648.999 304.7 623.553C300.162 611.825 292.768 602.004 283.959 593.275C275.791 585.177 267.018 577.662 258.972 569.456C254.785 565.194 251.191 560.193 248.142 555.033C246.98 553.066 247.174 549.109 248.468 547.263C249.485 545.806 253.417 545.284 255.559 545.94C261.876 547.894 267.962 550.614 274.109 553.103C279.518 555.3 284.71 558.359 290.312 559.683C298.081 561.516 302.751 566.372 306.938 572.588C320.999 593.53 328.114 616.487 327.255 641.775C327.122 645.757 325.839 649.703 324.92 654.559C322.875 653.151 322.282 652.641 321.616 652.301C319.293 651.135 316.945 650.043 314.61 648.914C313.533 651.597 311.815 654.219 311.536 656.999C311.016 662.049 313.194 666.116 318.18 668.047C323.262 670.026 328.029 668.168 330.389 664.065C331.769 661.661 333.039 659.087 334.092 656.441C335.145 659.087 336.415 661.661 337.795 664.065C340.142 668.168 344.922 670.026 350.004 668.047C354.989 666.104 357.168 662.037 356.647 656.999C356.357 654.231 354.639 651.609 353.574 648.914C351.238 650.043 348.879 651.135 346.568 652.301C345.89 652.641 345.309 653.151 343.264 654.559C342.344 649.715 341.062 645.757 340.929 641.775C340.07 616.499 347.173 593.53 361.245 572.588C365.42 566.372 370.103 561.516 377.872 559.683C383.474 558.359 388.665 555.3 394.074 553.103C400.221 550.602 406.308 547.894 412.624 545.94C414.766 545.272 418.687 545.806 419.715 547.263C421.01 549.109 421.204 553.078 420.042 555.033C416.993 560.18 413.399 565.182 409.212 569.456C401.165 577.675 392.392 585.177 384.224 593.275C375.415 602.004 368.022 611.825 363.484 623.553C353.646 648.999 364.331 670.402 390.529 677.565C395.732 678.985 401.056 679.981 406.332 681.17C412.782 681.17 419.243 681.17 425.693 681.17C427.024 680.806 428.331 680.418 429.674 680.09C444.122 676.581 458.824 673.898 472.958 669.382C493.081 662.96 512.599 654.644 532.722 648.246C541.774 645.369 551.635 644.677 561.195 643.985C565.684 643.657 570.912 644.555 573.477 650.395C569.024 653.041 564.196 655.53 566.471 662.013C568.818 668.702 573.925 671.75 580.519 672.866C588.893 674.287 596.117 671.822 602.095 665.959C613.965 654.353 609.658 632.197 593.806 622.946C584.634 617.592 574.445 616.184 564.559 618.697C550.97 622.157 537.623 626.77 524.506 631.784C499.894 641.192 475.765 651.888 450.971 660.763C436.208 666.044 420.526 666.808 405.207 661.637C386.415 655.299 378.537 640.185 383.825 621.04C386.657 610.818 391.932 601.931 399.81 595.072C409.999 586.209 420.962 578.269 431.344 569.638C438.132 564.005 444.945 558.262 450.85 551.755C454.65 547.567 456.731 541.618 453.21 536.021C449.7 530.437 443.65 530.085 438.036 531.262C428.609 533.241 419.316 535.912 410.011 538.461C406.332 539.469 402.787 540.962 399.181 542.213C395.635 543.439 392.078 544.641 388.532 545.855C405.775 531.942 424.132 520.154 445.598 514.958C454.819 512.724 464.729 512.056 474.204 512.603C483.981 513.173 488.265 521.149 485.288 530.607C484.211 534.018 482.578 537.381 480.605 540.368C477.387 545.248 473.647 549.788 470.199 554.523C463.979 563.058 460.494 572.296 463.798 582.931C467.113 593.627 475.184 600.061 484.84 604.238C512.877 616.366 541.665 615.929 570.67 608.207C572.836 607.625 574.748 606.046 576.768 604.942C576.853 604.262 576.926 603.57 577.01 602.89C573.295 601.445 569.629 599.879 565.854 598.592C550.45 593.311 534.755 588.759 519.666 582.701C505.871 577.165 498.998 565.826 498.429 550.881C498.272 546.644 498.163 542.346 498.708 538.158C499.797 529.781 500.027 521.684 495.804 513.938C495.138 512.712 495.392 510.102 496.288 509.155C497.147 508.257 499.797 508.002 500.995 508.657C508.497 512.809 516.326 512.591 524.506 511.644C550.68 508.596 563.434 515.783 573.053 540.295C578.426 553.965 581.947 568.363 586.437 582.397C587.284 585.056 588.748 587.532 589.934 590.082C590.672 590.058 591.398 590.033 592.136 590.009C593.515 586.61 595.306 583.308 596.214 579.775C600.461 563.143 601.224 546.183 599.445 529.186C597.956 515.006 594.532 501.264 586.207 489.342C575.716 474.324 559.803 471.18 544.484 481.062C540.092 483.891 536.219 487.557 531.815 490.362C527.096 493.36 522.255 496.517 517.028 498.301C508.352 501.264 501.176 496.699 499.603 487.667C498.853 483.345 498.683 478.792 499.046 474.422C500.741 454.159 508.957 436.253 519.46 419.256C523.357 412.955 527.664 406.897 531.791 400.73C529.08 412.045 525.22 422.668 522.038 433.485C520.114 440.028 518.504 446.839 518.008 453.613C517.161 465.389 525.401 471.107 535.433 465.304C541.507 461.784 546.795 456.333 551.345 450.845C560.215 440.125 567.657 428.155 576.962 417.86C583.46 410.673 591.301 403.899 599.868 399.552C623.997 387.315 644.011 397.598 649.831 424.112C653.099 438.972 651.429 453.783 646.274 467.696C637.319 491.904 627.179 515.674 617.402 539.566C610.735 555.859 603.68 571.993 604.684 590.215C605.531 605.5 614.643 617.458 628.401 621.149C638.808 623.941 648.379 620.979 654.454 613.076C660.54 605.148 661.496 594.258 656.789 586.306C651.562 577.468 643.721 576.97 638.07 585.056C637.658 585.651 636.848 585.966 635.371 587.023C633.919 584.303 631.874 582.045 631.548 579.568C630.821 574.02 629.853 568.12 630.979 562.791C633.471 550.978 636.751 539.275 640.502 527.79C647.835 505.367 655.954 483.199 663.227 460.752C665.562 453.565 666.24 445.831 667.668 438.353C667.668 431.882 667.668 425.399 667.668 418.928C666.881 415.213 666.143 411.486 665.284 407.784C661.533 391.649 654.902 377.797 636.969 373.572C623.38 370.379 610.408 373.33 599.65 381.427C587.816 390.338 577.277 401.021 566.374 411.146C560.469 416.634 555.266 422.898 549.227 428.216C545.246 431.724 539.934 436.41 534.755 432.744C529.177 428.798 533.231 422.631 535.094 417.763C539.511 406.278 544.29 394.927 549.082 383.6C549.82 381.84 551.164 380.116 552.664 378.926C575.183 361.068 600.739 352.169 629.539 353.395C633.133 353.553 636.678 354.888 641.361 355.933C638.965 358.616 637.029 359.89 636.557 361.578C636.049 363.423 636.146 366.41 637.295 367.551C640.369 370.586 648.27 369.651 651.889 366.446C655.785 363.01 657.055 357.511 653.22 353.48C649.698 349.765 644.761 346.281 639.885 345.14C617.487 339.932 595.815 343.756 575.038 352.873C567.923 355.993 561.304 360.254 555.133 363.617C555.133 348.43 555.133 332.975 555.133 317.521C556.27 318.225 557.976 319.22 559.634 320.313C579.672 333.509 601.816 339.215 625.594 338.548C634.234 338.305 643.031 337.54 650.267 331.858C654.151 328.811 656.329 324.72 654.841 319.621C653.413 314.716 649.505 312.264 644.798 312.385C641.676 312.47 638.602 314.376 635.516 315.469C636.787 317.946 638.058 320.422 639.328 322.899C639.594 323.409 639.836 323.931 640.611 325.558C637.15 326.444 634.052 327.779 630.882 327.973C601.369 329.782 575.304 320.689 552.337 302.309C550.728 301.022 549.603 298.885 548.768 296.931C544.762 287.461 540.89 277.931 537.054 268.389C535.554 264.65 533.739 260.923 533.061 257.014C532.601 254.367 532.976 250.215 534.646 248.928C536.377 247.605 540.684 248.005 542.887 249.304C547.691 252.145 552.265 255.642 556.222 259.587C564.656 268 572.448 277.033 580.834 285.495C589.716 294.454 599.747 301.823 611.775 306.157C636.158 314.935 657.007 304.215 663.916 279.206C665.344 274.022 666.433 268.753 667.68 263.521C667.68 256.637 667.68 249.766 667.68 242.882C666.7 237.565 666.276 232.077 664.63 226.979C657.128 203.56 649.093 180.311 641.627 156.881C637.598 144.218 633.871 131.41 630.979 118.457C629.793 113.163 630.846 107.227 631.584 101.691C631.91 99.275 634.028 97.114 635.371 94.7588C636.884 95.6693 637.549 95.8636 637.876 96.3006C644.156 104.677 652.518 103.949 657.225 94.3217C661.75 85.0709 660.371 76.1963 654.175 68.1716C647.762 59.8677 639.001 57.9009 629.236 60.1833C615.054 63.4855 605.58 75.6986 604.672 91.0439C603.789 106.013 608.218 119.828 613.832 133.328C622.98 155.314 632.854 177.009 641.603 199.153C648.149 215.749 652.748 232.964 650.86 251.211C650.715 252.619 650.642 254.039 650.376 255.423C644.773 284.73 621.794 295.656 596.262 280.177C587.671 274.969 580.205 267.333 573.501 259.697C565.14 250.166 558.17 239.398 550.425 229.309C545.355 222.693 539.85 216.477 531.161 214.535C524.567 213.066 519.569 215.676 518.746 222.377C518.069 227.84 518.274 233.789 519.714 239.07C523.223 251.902 527.676 264.48 531.754 277.154C532.093 278.198 532.432 279.255 532.275 280.493C515.273 257.827 500.825 233.983 498.768 204.774C498.236 197.138 498.151 188.749 506.016 184.22C513.785 179.753 520.876 183.759 527.374 188.033C532.589 191.468 537.357 195.56 542.463 199.177C559.223 211.014 575.945 207.93 587.199 190.728C595.137 178.587 598.319 164.747 599.614 150.568C601.115 134.166 600.328 117.801 596.178 101.776C595.258 98.2431 593.467 94.9409 592.075 91.5295C591.337 91.5052 590.587 91.4809 589.849 91.4567C588.675 94.0304 587.235 96.507 586.376 99.1779C581.947 113.018 577.833 126.967 573.259 140.758C571.807 145.117 569.496 149.244 567.221 153.275C561.267 163.788 551.962 169.227 540.104 169.956C533.884 170.332 527.592 169.409 521.384 169.834C514.91 170.271 508.497 171.68 502.047 172.517C500.075 172.772 498.03 172.542 496.021 172.529C496.058 170.49 495.416 168.11 496.239 166.496C499.531 160.049 499.954 153.36 498.962 146.404C498.671 144.4 498.466 142.385 498.369 140.37C497.28 115.543 503.729 104.629 526.781 95.5601C539.862 90.4126 553.62 86.989 567.039 82.6792C570.355 81.6109 573.525 80.0812 576.756 78.7579C576.793 78.1509 576.829 77.5439 576.865 76.9247C574.76 75.6986 572.811 73.914 570.549 73.3191C541.749 65.695 513.119 65.1123 485.288 77.1918C473.575 82.2786 463.58 90.0848 463.084 104.155C462.854 110.42 465.238 117.145 467.839 123.034C470.078 128.084 474.567 132.078 477.592 136.849C480.484 141.402 483.485 146.112 485.191 151.175C488.362 160.523 484.284 167.916 474.64 168.887C466.387 169.725 457.699 169.276 449.567 167.637C426.552 162.987 407.252 150.543 389.016 135.975C396.7 138.597 404.323 141.414 412.08 143.806C419.57 146.112 427.169 148.091 434.78 149.973C437.285 150.592 439.984 150.713 442.573 150.616C453.04 150.203 457.844 142.956 452.822 133.717C449.737 128.047 445.054 122.864 440.068 118.699C430.001 110.311 419.062 102.99 408.813 94.8195C396.277 84.8281 385.943 73.1977 382.869 56.6141C379.965 40.941 386.027 28.6914 400.536 21.9171C414.96 15.1793 429.952 15.9441 444.969 19.2099C469.364 24.5152 491.593 35.6599 514.438 45.2265C529.988 51.7337 545.888 57.561 561.994 62.4657C571.71 65.4279 582.056 64.5659 591.47 59.807C602.264 54.3438 608.181 45.4572 608.641 33.2683C609.282 16.1384 592.39 3.73108 576.429 9.92262C572.969 11.2702 569.581 14.281 567.511 17.4253C564.16 22.5242 565.491 25.0494 573.114 31.7508C570.633 36.9226 565.551 38.0758 561.025 37.5538C549.711 36.2548 538.119 35.1865 527.35 31.763C504.734 24.5638 482.747 15.3493 460.167 8.02874C437.673 0.732432 414.56 -2.242 391.098 3.79172C364.283 10.6267 353.283 32.5885 363.52 58.4716ZM316.594 113.285C318.167 110.735 319.777 108.198 321.326 105.624C327.11 96.0214 331.357 86.0542 334.056 75.7593C336.754 86.0542 341.001 96.0214 346.785 105.624C348.334 108.198 349.944 110.735 351.517 113.285C347.499 113.285 343.494 113.285 339.477 113.285C335.871 113.285 332.24 113.285 328.634 113.285C324.617 113.285 320.612 113.285 316.594 113.285ZM351.299 568.667C350.379 570.233 349.387 571.762 348.419 573.292C341.812 583.72 337.008 594.61 334.043 605.901C331.091 594.598 326.287 583.72 319.668 573.292C318.7 571.762 317.708 570.233 316.788 568.667C316.619 568.375 316.764 567.914 316.764 568.302C320.672 568.302 324.605 568.302 328.526 568.302C332.204 568.302 335.883 568.302 339.573 568.302C343.494 568.302 347.415 568.302 351.335 568.302C351.323 567.914 351.468 568.387 351.299 568.667ZM392.683 151.381C405.921 159.43 419.727 166.617 433.716 173.306C461.583 186.636 482.057 207.056 495.174 235.052C498.514 242.178 502.108 249.195 505.738 256.188C514.329 272.711 523.441 288.845 536.728 302.248C539.196 304.737 541.398 308.67 541.568 312.058C542.391 328.58 542.717 345.14 542.729 361.687C542.742 370.124 540.406 377.664 533.231 383.515C528.802 387.121 525.184 392.147 522.304 397.173C512.89 413.635 503.342 430.073 495.053 447.106C486.74 464.175 476.201 479.569 461.075 490.592C447.51 500.487 432.288 508.172 417.465 516.233C400.439 525.484 382.966 534.006 369.135 547.992C364.755 552.411 360.265 555.106 353.985 555.349C346.918 555.628 339.9 556.308 334.056 556.805C328.223 556.296 321.193 555.628 314.126 555.349C307.846 555.106 303.356 552.411 298.976 547.992C285.145 534.018 267.66 525.484 250.646 516.233C235.823 508.184 220.601 500.487 207.036 490.592C191.91 479.569 181.371 464.175 173.058 447.106C164.757 430.073 155.222 413.635 145.807 397.173C142.927 392.147 139.309 387.133 134.881 383.515C127.693 377.651 125.369 370.124 125.382 361.687C125.394 345.14 125.72 328.58 126.543 312.058C126.713 308.683 128.927 304.737 131.383 302.248C144.67 288.845 153.782 272.711 162.373 256.188C166.003 249.195 169.597 242.19 172.937 235.052C186.054 207.056 206.54 186.649 234.395 173.306C248.372 166.617 262.19 159.418 275.428 151.381C284.48 145.881 292.284 138.342 300.9 132.054C304.155 129.686 308.064 126.821 311.754 126.712C319.184 126.493 326.626 126.396 334.056 126.348C341.497 126.396 348.927 126.493 356.357 126.712C360.048 126.821 363.956 129.686 367.211 132.054C375.815 138.342 383.619 145.881 392.683 151.381Z" fill="#EDEBDF"/>
<path d="M96.1562 99.7063C94.3492 105.727 94.9222 110.966 96.629 116.074C101.779 131.511 112.588 142.117 126.379 149.925C135.154 154.897 144.689 157.589 154.838 157.791C159.991 157.896 160.136 157.593 158.187 152.611C152.79 138.83 143.664 127.815 132.776 118.068C125.199 111.284 116.775 105.871 107.175 102.486C103.669 101.258 99.9489 100.647 96.1562 99.7063Z" fill="#8D0000"/>
<path d="M578.644 98.2485C572.981 95.5208 567.717 95.266 562.405 96.1518C546.352 98.8202 534.183 107.834 524.312 120.232C518.027 128.121 513.874 137.116 512.086 147.108C511.175 152.181 511.451 152.372 516.677 151.227C531.133 148.055 543.442 140.767 554.774 131.54C562.661 125.119 569.326 117.647 574.173 108.696C575.935 105.426 577.121 101.847 578.644 98.2485Z" fill="#8D0000"/>
<path d="M334.215 170.951C428.968 170.939 505.395 247.712 505.231 342.77C505.067 436.997 428.019 513.325 333.255 513.137C239.697 512.95 163.047 435.943 163.023 342.114C163 247.641 239.685 170.962 334.215 170.951ZM172.379 341.506C172.192 430.512 244.509 503.315 333.524 503.737C422.492 504.158 495.465 431.788 495.817 342.782C496.168 253.073 423.57 180.234 333.911 180.351C245.13 180.457 172.567 252.851 172.379 341.506Z" fill="#EDEBDF"/>
<path d="M478.496 342.349C477.161 423.57 412.256 487.512 332.374 486.318C252.622 485.123 188.489 419.238 189.848 339.902C191.206 260.847 256.755 196.565 334.822 197.724C415.043 198.918 479.784 264.089 478.496 342.349ZM334.833 206.996C262.013 205.767 200.433 266.103 199.215 339.902C197.986 413.759 257.586 475.653 331.227 476.964C406.706 478.31 467.794 419.004 469.257 342.957C470.663 269.416 410.195 208.26 334.833 206.996Z" fill="#EDEBDF"/>
<path d="M97.1175 586.243C95.0759 580.763 95.2918 575.862 96.5687 571.014C100.42 556.36 109.818 545.845 122.155 537.745C130.005 532.588 138.698 529.501 148.112 528.69C152.891 528.275 153.044 528.547 151.534 533.295C147.354 546.425 139.543 557.216 130.019 566.938C123.391 573.705 115.895 579.25 107.183 582.984C104.001 584.34 100.583 585.137 97.1175 586.243Z" fill="#8D0000"/>
<path d="M573.85 579.149C568.447 581.387 563.541 581.347 558.65 580.246C543.868 576.925 533.021 567.911 524.483 555.873C519.046 548.214 515.648 539.638 514.499 530.26C513.913 525.498 514.179 525.335 518.978 526.673C532.25 530.379 543.315 537.796 553.374 546.964C560.374 553.344 566.186 560.636 570.231 569.207C571.701 572.338 572.62 575.726 573.85 579.149Z" fill="#8D0000"/>
</svg>
