<svg width="247" height="247" viewBox="0 0 247 247" fill="none" xmlns="http://www.w3.org/2000/svg">
<g clip-path="url(#clip0)">
<path d="M140.205 72.3804C142.232 72.2442 143.95 71.7642 145.488 72.1045C148.899 72.8626 150.225 75.6187 150.584 78.7888C151.318 85.2793 149.017 91.057 145.155 95.9296C140.535 101.762 135.268 107.085 130.138 112.498C129.563 113.103 128.083 112.988 127.022 112.975C124.772 112.947 122.265 112.08 120.337 112.809C117.453 113.901 115.926 112.966 114.245 110.959C109.304 105.06 103.799 99.5592 99.4845 93.2405C97.1093 89.7621 95.9789 85.0259 95.5424 80.7305C94.8834 74.2422 98.2513 71.6049 104.692 72.41C105.006 72.4488 105.345 72.2772 105.674 72.2023C104.569 67.9171 100.218 64.5792 95.326 64.1854C88.7819 63.6594 86.0193 65.713 81.8687 73.7875C81.941 72.7137 82.0478 71.64 82.0836 70.5641C82.2438 65.7192 79.459 63.1705 74.6053 62.9656C71.066 62.8173 67.5627 61.9067 64.0296 61.4214C63.1684 61.3027 62.1225 61.2741 61.4312 61.6732C61.0941 61.8684 61.2796 63.1527 61.3961 63.9174C61.9179 67.3281 62.8821 70.7219 62.9744 74.1409C63.137 79.9867 65.4793 82.3892 71.4838 82.0321C72.2247 81.9874 72.9721 82.0738 74.3466 82.1219C65.7028 86.038 63.5441 88.9617 64.1451 95.3576C64.6142 100.33 68.008 104.719 72.1363 105.692C72.2006 105.589 72.323 105.484 72.3186 105.385C71.8606 97.4928 75.2025 94.4388 83.2588 95.6229C89.6678 96.5632 95.1031 99.6763 99.7553 104.028C104.408 108.38 108.802 113.011 112.565 116.773C112.823 120.779 113.098 124.252 113.229 127.731C113.26 128.542 113.067 129.663 112.532 130.146C106.368 135.683 100.335 141.407 93.7856 146.461C91.0659 148.561 87.2997 149.667 83.8361 150.376C75.3112 152.119 71.7915 148.981 72.2524 140.677C68.4622 141.089 64.9105 145.345 64.2457 150.269C63.3521 156.879 65.8304 160.383 73.708 164.265C72.6492 164.189 71.5883 164.072 70.5252 164.044C65.7725 163.923 63.3108 166.547 63.0066 171.227C62.762 175 61.8902 178.73 61.259 182.473C60.8995 184.599 61.5529 185.351 63.8076 184.893C67.415 184.16 71.059 183.344 74.7184 183.162C79.9583 182.903 82.3837 180.598 82.1119 175.244C82.0684 174.351 81.7994 173.468 82.196 172.353C83.8477 179.542 88.4109 182.324 95.1541 182.041C99.9281 181.84 104.395 178.52 105.9 174.075C105.312 174.006 104.708 173.75 104.253 173.909C99.2779 175.669 96.0606 172.001 95.6026 167.491C94.8744 160.311 97.9525 154.371 102.017 148.832C103.581 146.701 105.293 144.657 107.115 142.745C110.356 139.35 113.732 136.085 116.128 133.69C120.803 133.338 124.477 133.029 128.158 132.817C128.774 132.781 129.644 132.99 130.009 133.415C135.889 140.244 142.225 146.768 147.308 154.152C149.698 157.624 150.449 162.757 150.525 167.16C150.623 172.915 147.892 174.357 140.629 173.97C141.19 178.051 145.755 181.595 151.028 182.047C157.559 182.608 160.994 179.985 164.187 172.43C164.153 173.474 164.128 174.517 164.088 175.559C163.904 180.573 166.468 182.987 171.446 183.226C175.114 183.404 178.748 184.287 182.406 184.798C183.16 184.904 184.24 185.044 184.637 184.643C185.056 184.22 184.986 183.142 184.868 182.393C184.337 179.106 183.305 175.846 183.208 172.556C183.019 166.181 180.756 163.781 174.456 164.25C173.758 164.303 173.09 164.713 172.151 164.285C179.602 162.447 182.638 157.782 181.955 150.72C181.491 145.894 178.958 142.293 174.084 139.999C173.952 140.871 173.718 141.358 173.845 141.713C176.039 147.736 171.061 150.75 166.009 150.794C158.319 150.865 152.121 147.152 146.53 142.406C142.215 138.744 138.163 134.76 134.181 130.735C133.418 129.964 133.286 128.347 133.257 127.112C133.204 124.87 134.089 122.407 133.42 120.429C132.465 117.593 133.315 116.013 135.3 114.315C140.778 109.629 145.892 104.454 151.718 100.261C154.996 97.9029 159.282 96.4409 163.315 95.7347C171.157 94.3608 174.567 97.8184 173.915 105.485C177.372 105.341 180.952 101.366 181.802 96.7255C183.06 89.8711 180.683 86.2059 172.565 82.5049C172.706 82.3417 172.846 82.039 172.979 82.0434C181.799 82.2185 182.838 81.0938 183.075 72.3039C183.149 69.5958 184.105 66.9205 184.573 64.217C184.725 63.3473 184.617 62.4324 184.63 61.539C183.738 61.5535 182.828 61.467 181.952 61.5996C178.771 62.0851 175.609 63.056 172.432 63.0906C166.017 63.1575 163.693 65.3874 164.152 71.8261C164.198 72.464 164.069 73.1125 163.703 73.9863C162.283 66.8877 157.904 63.874 151.077 64.2328C146.162 64.4939 141.838 67.6524 140.205 72.3804ZM118.482 128.086C115.676 125.443 115.493 121.203 118.064 118.413C120.56 115.707 125.08 115.531 127.805 118.033C130.556 120.56 130.7 124.975 128.12 127.753C125.5 130.571 121.276 130.717 118.482 128.086Z" fill="#144C80"/>
<path d="M108.259 100.338C114.612 97.1527 116.307 101.402 118.543 105.346C119.463 106.97 121.468 108.795 123.117 108.938C124.496 109.059 126.608 107.161 127.457 105.633C129.697 101.601 131.451 97.3243 137.513 99.9782C136.518 94.8405 133.807 93.6619 128.641 95.2651C126.518 93.142 124.558 91.1822 122.596 89.2202C121.068 91.0877 119.54 92.9551 118.143 94.6659C115.811 94.9694 113.148 95.0021 110.726 95.778C109.637 96.1274 109.033 97.9739 108.209 99.1417C108.224 99.5433 108.239 99.9406 108.259 100.338Z" fill="#EDEBDF"/>
<path d="M128.708 151.035C134.063 152.549 136.223 151.674 137.632 146.396C131.167 148.864 129.502 144.181 127.193 140.022C126.447 138.675 124.509 137.235 123.103 137.219C121.734 137.203 120.305 138.903 118.994 139.965C118.571 140.306 118.457 141.021 118.183 141.554C115.461 146.799 114.735 147.198 108.994 146.642C109.118 151.26 112.271 152.709 117.321 151.063C119.481 153.222 121.383 155.124 123.284 157.026C124.954 155.184 126.62 153.343 128.708 151.035Z" fill="#EDEBDF"/>
<path d="M100.226 108.517C94.6169 109.94 93.6648 112.237 95.1219 117.33C92.9413 119.511 91.059 121.393 89.1767 123.275C91.0419 124.943 92.907 126.615 94.7292 128.244C94.9367 130.348 94.8631 132.932 95.5711 135.28C95.9068 136.392 97.7434 137.053 99.651 137.943C97.1835 131.153 101.912 129.61 105.924 127.304C107.347 126.486 108.968 124.531 108.952 123.111C108.936 121.653 107.092 120.157 105.917 118.793C105.48 118.288 104.673 118.094 104.022 117.782C100.282 115.999 97.613 113.666 100.226 108.517Z" fill="#EDEBDF"/>
<path d="M146.118 137.577C151.57 136.543 152.505 134.34 150.99 128.609C153.164 126.667 155.092 124.941 157.023 123.216C155.186 121.379 153.349 119.541 151.135 117.328C152.393 112.108 151.584 110.119 146.373 108.582C148.86 115.297 143.872 116.902 139.651 119.193C135.959 121.201 135.978 124.921 139.542 127.107C139.85 127.294 140.18 127.449 140.507 127.604C144.662 129.578 149.093 131.374 146.118 137.577Z" fill="#EDEBDF"/>
<path d="M119.787 84.4883C121.94 86.2378 124.185 86.4776 126.252 84.5224C128.351 82.535 128.143 80.1812 126.46 78.0647C124.885 76.0858 121.356 76.0686 119.704 77.9789C117.873 80.0932 118.017 82.3225 119.787 84.4883Z" fill="#EDEBDF"/>
<path d="M119.938 168.377C121.99 170.086 124.251 170.3 126.305 168.357C128.383 166.391 128.236 164.025 126.527 161.891C124.939 159.912 121.369 159.858 119.779 161.788C118.052 163.881 117.924 166.132 119.938 168.377Z" fill="#EDEBDF"/>
<path d="M167.181 119.51C165.56 119.906 163.221 119.808 162.509 120.839C161.728 121.964 162.444 124.131 162.508 125.847C164.228 125.777 166.47 126.328 167.518 125.453C168.481 124.648 168.16 122.305 168.406 120.64C167.995 120.264 167.587 119.886 167.181 119.51Z" fill="#EDEBDF"/>
<path d="M83.4056 119.47C81.793 119.849 79.8516 119.796 78.6516 120.712C76.9043 122.043 76.9337 124.493 78.7384 125.594C79.9716 126.346 82.5873 126.288 83.6541 125.432C84.6308 124.648 84.3588 122.312 84.6391 120.656C84.2286 120.263 83.8182 119.865 83.4056 119.47Z" fill="#EDEBDF"/>
</g>
<defs>
<clipPath id="clip0">
<rect width="174.085" height="174.085" fill="white" transform="matrix(0.707107 -0.707107 -0.707107 -0.707107 123.096 246.199)"/>
</clipPath>
</defs>
</svg>
