<svg width="160" height="61" viewBox="0 0 160 61" fill="none" xmlns="http://www.w3.org/2000/svg">
<path d="M95.547 14.0963C99.309 13.8475 102.383 13.6425 105.457 13.4376C104.037 17.2581 102.617 21.0786 100.992 25.4699C106.364 25.1625 109.014 20.5662 111.561 15.8382C113.961 11.359 122.276 5.31356 128.029 3.86441C130.971 11.5054 137.367 19.6148 123.505 25.0454C124.31 25.5724 125.13 26.0994 125.935 26.641C133.342 22.2057 140.749 17.785 150.029 12.2226C146.721 22.1471 162.413 19.5855 158.402 30.7835C154.289 22.1764 148.024 23.1718 141.7 25.0747C132.42 27.8852 123.403 32.0131 113.932 33.6525C100.919 35.9068 88.5647 33.6964 80.5432 21.5909C79.7234 21.7226 79.0355 21.6202 78.8452 21.8837C68.4962 35.936 54.6634 35.8336 40.1133 30.8274C31.4184 27.8266 23.0162 23.8744 14.6434 20.01C8.51008 17.1703 3.37217 16.4969 0.503147 24.6649C-1.57543 17.5655 3.00623 10.9638 10.1934 11.7835C15.668 12.4129 20.9669 15.4576 26.0756 17.99C28.9885 19.4391 31.3306 22.0008 35.2096 22.879C32.648 19.7465 30.0863 16.614 28.7397 14.9746C31.7258 9.7342 34.0532 5.65023 37.2589 0C39.0886 3.23498 40.6549 6.01618 42.3529 8.98767C46.2612 4.87442 47.6811 7.9191 49.3352 11.9884C51.1064 16.3213 53.5948 20.3613 55.7612 24.5331C56.3467 24.1818 56.9322 23.8305 57.5178 23.4792C57.752 20.6248 57.1518 17.2288 58.5131 15.1063C59.3182 13.8621 63.2558 14.6525 66.3591 14.4915C71.0285 7.55316 72.7558 7.39214 77.7327 14.7111C80.2211 18.3706 81.8752 17.9168 84.1441 14.5354C89.3552 6.79199 91.3459 6.98228 95.547 14.0963Z" fill="#144C80"/>
<path d="M90.9504 60.1617C67.5152 60.1617 44.0652 60.3813 20.63 59.9861C15.9898 59.9129 10.9543 58.2003 6.91426 55.8582C4.54292 54.4822 2.36187 50.2372 2.65463 47.5731C2.93275 45.0115 6.16772 41.3374 8.72936 40.708C28.5637 35.8335 48.2663 37.1949 67.6323 43.577C67.9397 43.6795 68.0714 44.3382 68.2031 44.5724C56.2733 43.3135 44.2848 41.6009 32.2525 40.9568C25.5483 40.6055 18.6246 41.4838 12.0522 42.9622C9.35879 43.5624 7.35339 47.2072 5.02597 49.4761C7.52905 51.4522 9.97358 55.0238 12.5498 55.1263C26.7925 55.6972 41.3133 56.9999 55.2193 54.8043C62.3626 53.6771 68.7008 46.124 74.8341 40.8104C76.5321 39.3466 76.2686 35.5554 76.7809 32.8035C77.2494 30.3443 77.5568 27.8559 78.0837 24.3721C85.2709 28.822 84.8757 33.8282 81.6554 37.7657C76.1076 44.5724 69.5645 50.5593 63.5483 56.7804C65.5537 56.3852 68.5252 55.5947 71.5406 55.2727C75.1415 54.8921 78.8449 54.4237 82.3726 54.9214C85.5051 55.3751 88.4474 57.1024 91.4774 58.2734C91.3164 58.9322 91.1261 59.5469 90.9504 60.1617Z" fill="#144C80"/>
<path d="M80.1036 45.861C88.5496 47.8078 96.9518 50.0182 105.471 51.6283C117.181 53.8387 128.921 56.0343 140.748 57.3225C144.686 57.7616 149.107 55.8001 152.956 54.1168C154.215 53.5605 155.094 50.2817 154.757 48.5251C154.508 47.2662 151.844 45.4951 150.409 45.6268C145.652 46.0659 140.851 46.9003 136.255 48.247C130.458 49.945 124.969 51.1746 119.231 45.8025C126.579 43.841 133.225 42.0112 139.899 40.2986C141.29 39.9473 142.798 39.8887 144.247 39.9034C152.839 39.9766 158.197 43.636 158.358 49.5058C158.533 55.4781 152.678 60.3232 144.203 60.0451C122.041 59.3279 100.845 53.2678 79.4302 48.5837C79.6644 47.6907 79.884 46.7832 80.1036 45.861Z" fill="#144C80"/>
</svg>
