<svg width="1657" height="1021" viewBox="0 0 1657 1021" fill="none" xmlns="http://www.w3.org/2000/svg">
<path d="M85.0118 83.209C91.6254 87.722 97.7042 91.8755 104.761 96.6902C114.991 83.8041 125.314 70.3312 136.083 57.3583C148.244 42.7075 160.422 28.0194 173.37 14.3481C178.712 8.70682 186.066 5.64028 192.538 1.47027C193.381 0.924739 194.398 0.672637 195.361 0.461864C201.784 -0.963956 206.913 0.961933 209.014 5.54109C211.355 10.6492 209.75 17.2659 205.145 22.6592C200.03 28.6518 194.957 34.7063 190.15 41.0295C189.045 42.4802 189.098 45.1252 188.62 47.2246C190.618 47.0758 193.023 47.7082 194.539 46.6336C198.889 43.5506 202.868 39.7608 207.012 36.2851C209.548 34.1567 211.95 31.6853 214.72 30.0983C218.5 27.9368 222.616 28.4575 224.82 32.8094C226.563 36.2479 228.635 36.3347 231.331 36.3181C240.754 36.2479 250.176 36.4091 259.596 36.2107C262.132 36.157 264.636 34.7973 267.18 34.665C268.933 34.5741 271.268 34.9626 272.338 36.2603C273.255 37.3761 273.461 40.703 272.678 41.9346C271.742 43.4059 269.16 44.7904 267.754 44.3193C255.079 40.079 242.195 43.4018 229.446 42.6248C228.444 42.5628 226.988 44.5342 226.343 45.9352C223.435 52.2543 216.927 53.7669 212.96 48.5058C214.062 48.3074 215.333 48.5306 215.836 47.9065C217.129 46.2947 218.082 44.3151 219.17 42.4843C217.391 41.3023 215.503 38.9838 213.863 39.2028C211.398 39.5335 208.971 41.3932 206.768 43.0381C200.097 48.0223 193.611 53.3329 186.916 58.2675C184.433 60.0942 181.673 61.6068 178.868 62.5987C173.554 64.4708 169.849 61.3506 170.89 55.1224C171.666 50.4895 174.319 46.2369 176.349 41.9553C177.692 39.1243 179.594 36.6405 180.873 33.7806C181.355 32.7061 181.227 30.4909 180.572 29.7098C179.899 28.9039 178.085 28.7055 177.054 29.1436C174.914 30.0528 172.658 31.1645 170.975 32.8879C158.839 45.3194 146.54 57.5732 134.878 70.5957C125.955 80.5681 117.889 91.5862 109.447 102.129C112.051 107.15 115.143 111.936 117.17 117.268C122.799 132.067 117.379 145.131 104.13 149.884C92.1603 154.178 80.5235 152.07 69.2481 146.92C49.6161 137.952 33.6929 123.62 23.2783 101.794C17.0507 106.53 15.988 113.87 22.0136 120.524C28.769 127.988 36.5623 134.245 44.2351 140.477C48.8119 144.197 54.0299 146.846 58.9503 149.995C68.4191 156.054 71.9226 163.712 68.8619 175.867C65.8048 187.992 61.2954 199.614 57.5121 211.496C50.7319 232.796 44.2883 254.221 43.8561 277.298C43.7853 281.096 44.1182 284.985 44.809 288.692C45.1597 290.577 46.4916 292.466 47.813 293.755C48.5356 294.458 50.5335 294.466 51.2633 293.78C52.0709 293.028 52.0851 291.122 52.4464 289.721C51.3731 289.395 50.3033 289.073 48.9465 288.663C48.525 284.626 50.5654 281.121 53.7111 281.096C55.6806 281.08 58.7732 284.684 59.4746 287.345C62.8363 300.053 54.7986 312.754 42.9811 313.56C42.9811 315.609 42.9811 317.696 42.9811 319.779C42.9811 364.294 42.9599 408.804 43.0307 453.319C43.0343 455.906 44.1005 458.485 44.1395 461.08C44.1749 463.312 43.9836 466.077 42.8819 467.627C42.1239 468.697 38.9144 468.974 38.0926 468.048C36.8173 466.614 36.0451 463.82 36.1195 461.655C36.2683 457.365 37.625 453.116 37.6392 448.843C37.7632 404.717 37.7809 360.587 37.5967 316.461C37.5825 312.716 36.3745 308.712 34.9151 305.294C30.8555 295.784 31.5604 285.832 32.2476 275.852C32.4566 272.81 32.9313 269.673 33.8736 266.846C37.8659 254.849 37.5825 242.364 37.4196 229.858C37.2283 215.236 37.455 200.593 36.8032 186.004C36.4844 178.855 35.0532 171.519 28.9249 167.175C28.5742 167.791 28.2943 168.068 28.2624 168.378C28.0393 170.626 27.9649 172.908 27.554 175.102C27.4973 175.404 25.1593 175.664 25.0176 175.317C24.1603 173.197 23.0268 170.862 23.1118 168.659C23.335 162.898 29.2331 159.112 32.8711 162.989C37.7703 168.209 41.4791 174.953 45.6556 181.078C45.9178 181.462 46.0736 182.376 45.8717 182.694C40.4164 191.41 43.7215 201.354 43.0803 210.702C42.5596 218.315 42.974 226.018 43.8101 233.995C47.5119 224.75 51.3199 215.558 54.8801 206.239C57.0268 200.622 58.9007 194.853 60.6861 189.063C63.2968 180.603 62.0782 174.028 55.3795 169.523C47.7315 164.377 39.4139 160.476 31.1743 156.661C23.0693 152.909 14.4435 150.619 7.78735 143.37C-1.1218 133.667 -2.58481 123.706 4.42561 112.085C7.9751 106.2 13.0514 101.583 17.2243 96.1736C18.4535 94.5825 20.0086 91.8962 19.6296 90.2761C13.4552 63.8179 27.724 33.3466 47.8803 19.7869C67.9161 6.30566 89.709 2.37535 112.363 4.69386C120.138 5.48736 128.112 7.43392 135.349 10.765C147.606 16.4062 149.236 30.5859 138.53 39.5872C129.214 47.4189 118.835 53.5561 108.838 60.2595C99.7623 66.343 91.4058 73.3647 85.0118 83.209ZM36.1974 92.1648C37.1645 95.219 37.5471 97.1035 38.3087 98.7484C49.5239 122.909 69.1028 139.977 95.5433 139.097C109.734 138.622 115.243 127.281 108.183 112.912C107.226 110.961 105.993 109.192 104.718 107.051C102.288 109.142 100.329 111.234 98.0726 112.692C92.6315 116.218 87.3285 120.528 81.4729 122.586C66.3291 127.909 53.0522 113.841 55.8684 96.0868C56.3608 92.9748 57.3845 89.9785 58.511 85.5606C50.6929 87.8749 43.7853 89.9207 36.1974 92.1648ZM35.117 83.7545C43.725 82.3287 51.8442 81.0021 59.9563 79.6093C60.8844 79.4481 62.1137 79.2167 62.6131 78.4769C68.823 69.298 76.0176 60.7472 78.3272 48.8282C80.0205 40.0997 75.6456 34.1029 67.9763 34.1071C55.8117 34.1195 41.9963 48.8819 39.6229 64.1981C38.918 68.7442 39.6619 71.914 44.1643 72.5835C43.1051 79.0473 39.8213 80.407 34.8797 78.4521C34.9788 80.7045 35.0532 82.3824 35.117 83.7545ZM44.182 45.0756C50.0341 38.0333 56.3643 31.7472 64.6784 28.9411C70.1124 27.1061 75.6988 26.9201 80.0949 31.6357C84.2112 36.0536 83.5062 42.1537 82.447 47.8983C81.9582 50.5433 80.9663 53.0643 80.2012 55.639C80.6015 55.9283 81.0017 56.2135 81.3985 56.5028C85.4368 50.316 90.0986 44.5424 93.3683 37.8431C97.9238 28.503 94.7498 21.1962 85.7804 19.1339C82.316 18.3363 78.5327 18.1379 75.0682 18.8322C61.1962 21.6219 51.5998 31.6522 44.182 45.0756ZM94.5904 46.7576C102.841 40.5543 110.22 35.4378 117.127 29.5775C119.529 27.54 120.779 23.6469 122.554 20.6011C119.958 18.5553 117.538 15.2367 114.733 14.7159C108.271 13.5174 101.629 13.5918 95.0545 13.3356C92.7342 13.2446 90.3962 13.6951 88.0688 13.9018C90.2474 15.2615 92.38 15.2739 94.4346 15.7533C102.589 17.6502 105.582 24.0602 102.044 32.7433C100.226 37.1984 97.5837 41.2031 94.5904 46.7576ZM99.1318 101.902C99.1459 101.17 99.1566 100.443 99.1707 99.7113C93.3895 96.0042 87.6083 92.3012 80.4173 87.689C78.8373 94.785 76.9174 100.302 76.5454 105.96C76.1664 111.701 79.9851 114.511 84.4733 112.023C89.5814 109.192 94.2645 105.32 99.1318 101.902ZM198.829 9.66563C199.141 15.9392 199.364 20.4523 199.601 25.1967C201.008 23.3452 202.914 21.6219 203.863 19.3571C204.766 17.208 205.624 13.7406 204.752 12.2197C203.792 10.5459 200.831 10.4261 198.829 9.66563Z" fill="#144C80"/>
<path d="M85.0118 937.485C91.6254 932.972 97.7042 928.819 104.761 924.004C114.991 936.89 125.314 950.363 136.083 963.336C148.244 977.987 160.422 992.675 173.37 1006.35C178.712 1011.99 186.066 1015.05 192.538 1019.22C193.381 1019.77 194.398 1020.02 195.361 1020.23C201.784 1021.66 206.913 1019.73 209.014 1015.15C211.355 1010.04 209.75 1003.43 205.145 998.035C200.03 992.042 194.957 985.988 190.15 979.665C189.045 978.214 189.098 975.569 188.62 973.469C190.618 973.618 193.023 972.986 194.539 974.06C198.889 977.143 202.868 980.933 207.012 984.409C209.548 986.537 211.95 989.009 214.72 990.596C218.5 992.757 222.616 992.237 224.82 987.885C226.563 984.446 228.635 984.36 231.331 984.376C240.754 984.446 250.176 984.285 259.596 984.483C262.132 984.537 264.636 985.897 267.18 986.029C268.933 986.12 271.268 985.732 272.338 984.434C273.255 983.318 273.461 979.991 272.678 978.76C271.743 977.288 269.16 975.904 267.754 976.375C255.079 980.615 242.195 977.292 229.446 978.069C228.444 978.131 226.988 976.16 226.343 974.759C223.435 968.44 216.927 966.927 212.96 972.188C214.062 972.387 215.333 972.164 215.836 972.788C217.129 974.399 218.082 976.379 219.17 978.214C217.391 979.396 215.503 981.715 213.863 981.495C211.398 981.165 208.971 979.305 206.768 977.66C200.097 972.676 193.611 967.365 186.916 962.431C184.433 960.604 181.673 959.091 178.868 958.1C173.554 956.227 169.849 959.348 170.89 965.576C171.666 970.209 174.319 974.461 176.349 978.743C177.692 981.574 179.594 984.054 180.873 986.918C181.355 987.992 181.227 990.207 180.572 990.989C179.899 991.794 178.085 991.993 177.054 991.555C174.914 990.645 172.658 989.534 170.975 987.81C158.839 975.379 146.54 963.125 134.878 950.103C125.955 940.13 117.889 929.112 109.447 918.569C112.051 913.544 115.143 908.762 117.17 903.431C122.799 888.631 117.379 875.567 104.13 870.815C92.1603 866.521 80.5235 868.628 69.2481 873.778C49.6161 882.746 33.693 897.079 23.2783 918.904C17.0507 914.168 15.988 906.828 22.0136 900.174C28.769 892.71 36.5623 886.453 44.2351 880.221C48.8119 876.501 54.0299 873.852 58.9503 870.703C68.4191 864.644 71.9226 856.986 68.8619 844.832C65.8048 832.706 61.2954 821.085 57.5121 809.203C50.7319 787.898 44.2883 766.478 43.8561 743.4C43.7853 739.602 44.1182 735.713 44.809 732.006C45.1597 730.121 46.4917 728.233 47.813 726.943C48.5356 726.241 50.5335 726.232 51.2633 726.918C52.0709 727.671 52.0851 729.576 52.4464 730.977C51.3731 731.303 50.3033 731.626 48.9465 732.035C48.525 736.073 50.5654 739.577 53.7111 739.602C55.6807 739.619 58.7732 736.015 59.4746 733.353C62.8363 720.645 54.7986 707.945 42.9811 707.139C42.9811 705.089 42.9811 703.002 42.9811 700.919C42.9811 656.404 42.9599 611.894 43.0307 567.38C43.0343 564.792 44.1005 562.214 44.1395 559.618C44.1749 557.386 43.9836 554.622 42.8819 553.072C42.1239 552.001 38.9145 551.725 38.0926 552.65C36.8173 554.084 36.0451 556.878 36.1195 559.044C36.2683 563.334 37.625 567.582 37.6392 571.855C37.7632 615.981 37.7809 660.112 37.5967 704.238C37.5825 707.982 36.3745 711.987 34.9151 715.404C30.8555 724.914 31.5604 734.866 32.2476 744.847C32.4567 747.888 32.9313 751.025 33.8736 753.852C37.8659 765.85 37.5825 778.335 37.4196 790.841C37.2283 805.463 37.455 820.105 36.8032 834.694C36.4844 841.844 35.0532 849.179 28.9249 853.523C28.5742 852.907 28.2943 852.63 28.2624 852.32C28.0393 850.072 27.9649 847.791 27.554 845.596C27.4973 845.295 25.1593 845.034 25.0176 845.381C24.1603 847.501 23.0268 849.836 23.1118 852.039C23.335 857.8 29.2331 861.586 32.8711 857.71C37.7703 852.49 41.4792 845.745 45.6556 839.62C45.9178 839.236 46.0736 838.322 45.8717 838.004C40.4164 829.288 43.7215 819.345 43.0803 809.996C42.5596 802.384 42.974 794.68 43.8101 786.704C47.5119 795.949 51.3199 805.14 54.8801 814.46C57.0268 820.076 58.9007 825.846 60.6861 831.636C63.2968 840.095 62.0782 846.671 55.3795 851.176C47.7315 856.321 39.4139 860.222 31.1743 864.037C23.0693 867.789 14.4435 870.079 7.78735 877.328C-1.1218 887.032 -2.58481 896.992 4.42561 908.613C7.9751 914.498 13.0514 919.115 17.2243 924.525C18.4535 926.116 20.0086 928.802 19.6296 930.422C13.4552 956.88 27.724 987.352 47.8803 1000.91C67.9161 1014.39 89.709 1018.32 112.363 1016C120.138 1015.21 128.112 1013.26 135.349 1009.93C147.606 1004.29 149.236 990.112 138.53 981.111C129.214 973.279 118.835 967.142 108.838 960.439C99.7623 954.351 91.4058 947.329 85.0118 937.485ZM36.1974 928.529C37.1645 925.475 37.5471 923.591 38.3087 921.946C49.524 897.785 69.1028 880.717 95.5433 881.597C109.734 882.072 115.243 893.413 108.183 907.783C107.226 909.733 105.993 911.502 104.718 913.643C102.288 911.552 100.329 909.461 98.0726 908.002C92.6315 904.476 87.3285 900.166 81.4729 898.108C66.3291 892.785 53.0522 906.853 55.8684 924.607C56.3608 927.719 57.3845 930.716 58.511 935.134C50.6929 932.815 43.7853 930.773 36.1974 928.529ZM35.117 936.935C43.725 938.361 51.8442 939.688 59.9563 941.081C60.8844 941.242 62.1137 941.473 62.6131 942.213C68.823 951.392 76.0176 959.943 78.3272 971.862C80.0205 980.59 75.6456 986.587 67.9763 986.583C55.8117 986.57 41.9963 971.808 39.6229 956.492C38.918 951.946 39.6619 948.776 44.1643 948.106C43.1051 941.643 39.8213 940.283 34.8797 942.238C34.9788 939.985 35.0532 938.312 35.117 936.935ZM44.182 975.619C50.0341 982.661 56.3643 988.947 64.6784 991.753C70.1124 993.588 75.6988 993.774 80.0949 989.058C84.2112 984.64 83.5062 978.54 82.447 972.796C81.9582 970.151 80.9663 967.63 80.2012 965.055C80.6015 964.766 81.0018 964.481 81.3985 964.191C85.4368 970.378 90.0987 976.152 93.3683 982.851C97.9238 992.191 94.7498 999.498 85.7805 1001.56C82.316 1002.36 78.5327 1002.56 75.0682 1001.86C61.1962 999.072 51.5998 989.042 44.182 975.619ZM94.5904 973.937C102.841 980.14 110.22 985.256 117.127 991.117C119.529 993.154 120.779 997.047 122.554 1000.09C119.958 1002.14 117.538 1005.46 114.733 1005.98C108.271 1007.18 101.629 1007.1 95.0545 1007.36C92.7342 1007.45 90.3962 1007 88.0689 1006.79C90.2474 1005.43 92.38 1005.42 94.4346 1004.94C102.589 1003.04 105.582 996.634 102.044 987.951C100.226 983.492 97.5837 979.491 94.5904 973.937ZM99.1318 918.792C99.1459 919.524 99.1566 920.251 99.1707 920.983C93.3895 924.69 87.6083 928.397 80.4173 933.005C78.8373 925.909 76.9174 920.392 76.5454 914.734C76.1664 908.994 79.9851 906.183 84.4733 908.671C89.5814 911.502 94.2645 915.37 99.1318 918.792ZM198.829 1011.03C199.141 1004.75 199.364 1000.24 199.601 995.497C201.008 997.349 202.914 999.072 203.863 1001.34C204.766 1003.49 205.624 1006.95 204.752 1008.47C203.792 1010.15 200.831 1010.26 198.829 1011.03Z" fill="#144C80"/>
<path d="M1571.79 937.485C1565.17 932.972 1559.1 928.819 1552.04 924.004C1541.81 936.89 1531.49 950.363 1520.72 963.336C1508.56 977.987 1496.38 992.675 1483.43 1006.35C1478.09 1011.99 1470.73 1015.05 1464.26 1019.22C1463.42 1019.77 1462.4 1020.02 1461.44 1020.23C1455.02 1021.66 1449.89 1019.73 1447.79 1015.15C1445.44 1010.04 1447.05 1003.43 1451.65 998.035C1456.77 992.042 1461.84 985.988 1466.65 979.665C1467.75 978.214 1467.7 975.569 1468.18 973.469C1466.18 973.618 1463.78 972.986 1462.26 974.06C1457.91 977.144 1453.93 980.933 1449.79 984.409C1447.25 986.537 1444.85 989.009 1442.08 990.596C1438.3 992.757 1434.18 992.237 1431.98 987.885C1430.24 984.446 1428.16 984.359 1425.47 984.376C1416.05 984.446 1406.62 984.285 1397.2 984.483C1394.67 984.537 1392.16 985.897 1389.62 986.029C1387.87 986.12 1385.53 985.732 1384.46 984.434C1383.54 983.318 1383.34 979.991 1384.12 978.76C1385.06 977.288 1387.64 975.904 1389.05 976.375C1401.72 980.615 1414.6 977.292 1427.35 978.069C1428.36 978.131 1429.81 976.16 1430.46 974.759C1433.36 968.44 1439.87 966.927 1443.84 972.188C1442.74 972.387 1441.47 972.164 1440.96 972.788C1439.67 974.399 1438.72 976.379 1437.63 978.214C1439.41 979.396 1441.3 981.715 1442.94 981.495C1445.4 981.165 1447.83 979.305 1450.03 977.66C1456.7 972.676 1463.19 967.365 1469.88 962.431C1472.37 960.604 1475.13 959.091 1477.93 958.1C1483.25 956.227 1486.95 959.348 1485.91 965.576C1485.13 970.209 1482.48 974.461 1480.45 978.743C1479.11 981.574 1477.21 984.054 1475.93 986.918C1475.45 987.992 1475.57 990.207 1476.23 990.989C1476.9 991.794 1478.71 991.993 1479.75 991.555C1481.89 990.645 1484.14 989.534 1485.82 987.81C1497.96 975.379 1510.26 963.125 1521.92 950.103C1530.84 940.13 1538.91 929.112 1547.35 918.569C1544.75 913.544 1541.66 908.762 1539.63 903.431C1534 888.631 1539.42 875.567 1552.67 870.815C1564.64 866.521 1576.28 868.628 1587.55 873.778C1607.18 882.746 1623.11 897.079 1633.52 918.904C1639.75 914.168 1640.81 906.828 1634.79 900.174C1628.03 892.71 1620.24 886.453 1612.56 880.221C1607.99 876.501 1602.77 873.852 1597.85 870.703C1588.38 864.644 1584.88 856.986 1587.94 844.832C1590.99 832.706 1595.5 821.085 1599.29 809.203C1606.07 787.898 1612.51 766.478 1612.94 743.4C1613.01 739.602 1612.68 735.713 1611.99 732.006C1611.64 730.121 1610.31 728.233 1608.99 726.943C1608.26 726.241 1606.27 726.232 1605.54 726.918C1604.73 727.671 1604.71 729.576 1604.35 730.977C1605.43 731.303 1606.5 731.626 1607.85 732.035C1608.27 736.073 1606.23 739.577 1603.09 739.602C1601.12 739.619 1598.03 736.015 1597.33 733.353C1593.96 720.645 1602 707.945 1613.82 707.139C1613.82 705.089 1613.82 703.002 1613.82 700.919C1613.82 656.404 1613.84 611.894 1613.77 567.38C1613.77 564.792 1612.7 562.214 1612.66 559.618C1612.62 557.386 1612.82 554.622 1613.92 553.072C1614.68 552.001 1617.88 551.725 1618.71 552.65C1619.98 554.084 1620.75 556.878 1620.68 559.044C1620.53 563.334 1619.17 567.582 1619.16 571.855C1619.04 615.981 1619.02 660.112 1619.2 704.238C1619.22 707.982 1620.43 711.987 1621.88 715.404C1625.94 724.914 1625.24 734.866 1624.55 744.847C1624.34 747.888 1623.87 751.025 1622.93 753.852C1618.93 765.85 1619.22 778.335 1619.38 790.841C1619.57 805.463 1619.34 820.105 1620 834.694C1620.32 841.844 1621.75 849.179 1627.87 853.523C1628.23 852.907 1628.51 852.63 1628.54 852.32C1628.76 850.072 1628.83 847.791 1629.25 845.596C1629.3 845.295 1631.64 845.034 1631.78 845.381C1632.64 847.501 1633.77 849.836 1633.69 852.039C1633.46 857.8 1627.57 861.586 1623.93 857.71C1619.03 852.49 1615.32 845.745 1611.14 839.62C1610.88 839.236 1610.73 838.322 1610.93 838.004C1616.38 829.288 1613.08 819.345 1613.72 809.996C1614.24 802.384 1613.83 794.68 1612.99 786.704C1609.29 795.949 1605.48 805.14 1601.92 814.46C1599.77 820.076 1597.9 825.846 1596.11 831.636C1593.5 840.095 1594.72 846.671 1601.42 851.176C1609.07 856.321 1617.39 860.222 1625.63 864.037C1633.73 867.789 1642.36 870.079 1649.01 877.328C1657.92 887.032 1659.38 896.992 1652.37 908.613C1648.82 914.498 1643.75 919.115 1639.58 924.525C1638.35 926.116 1636.79 928.802 1637.17 930.422C1643.34 956.88 1629.08 987.352 1608.92 1000.91C1588.88 1014.39 1567.09 1018.32 1544.44 1016C1536.66 1015.21 1528.69 1013.26 1521.45 1009.93C1509.19 1004.29 1507.56 990.112 1518.27 981.111C1527.59 973.279 1537.96 967.142 1547.96 960.439C1557.03 954.351 1565.39 947.329 1571.79 937.485ZM1620.6 928.529C1619.63 925.475 1619.25 923.591 1618.49 921.946C1607.27 897.785 1587.69 880.717 1561.25 881.597C1547.06 882.072 1541.55 893.413 1548.61 907.783C1549.57 909.733 1550.8 911.502 1552.08 913.643C1554.51 911.552 1556.47 909.461 1558.72 908.002C1564.16 904.476 1569.47 900.166 1575.32 898.108C1590.47 892.785 1603.74 906.853 1600.93 924.607C1600.44 927.719 1599.41 930.716 1598.29 935.134C1606.1 932.815 1613.01 930.773 1620.6 928.529ZM1621.68 936.935C1613.07 938.361 1604.96 939.688 1596.85 941.081C1595.92 941.242 1594.69 941.473 1594.19 942.213C1587.98 951.392 1580.79 959.943 1578.48 971.862C1576.78 980.59 1581.16 986.587 1588.83 986.583C1600.99 986.57 1614.81 971.808 1617.18 956.492C1617.89 951.946 1617.14 948.776 1612.64 948.106C1613.7 941.643 1616.98 940.283 1621.92 942.238C1621.82 939.985 1621.74 938.312 1621.68 936.935ZM1612.61 975.619C1606.76 982.661 1600.43 988.947 1592.12 991.753C1586.69 993.588 1581.1 993.774 1576.7 989.058C1572.58 984.64 1573.29 978.54 1574.35 972.796C1574.84 970.151 1575.83 967.63 1576.59 965.055C1576.19 964.766 1575.79 964.481 1575.4 964.191C1571.36 970.378 1566.7 976.152 1563.43 982.851C1558.87 992.191 1562.05 999.498 1571.02 1001.56C1574.48 1002.36 1578.26 1002.56 1581.73 1001.86C1595.6 999.072 1605.2 989.042 1612.61 975.619ZM1562.21 973.937C1553.96 980.14 1546.58 985.256 1539.67 991.117C1537.27 993.154 1536.02 997.047 1534.24 1000.09C1536.84 1002.14 1539.26 1005.46 1542.06 1005.98C1548.52 1007.18 1555.17 1007.1 1561.74 1007.36C1564.06 1007.45 1566.4 1007 1568.73 1006.79C1566.55 1005.43 1564.42 1005.42 1562.36 1004.94C1554.21 1003.04 1551.22 996.634 1554.76 987.951C1556.57 983.492 1559.21 979.491 1562.21 973.937ZM1557.66 918.792C1557.65 919.524 1557.64 920.251 1557.63 920.983C1563.41 924.69 1569.19 928.397 1576.38 933.005C1577.96 925.909 1579.88 920.392 1580.25 914.734C1580.63 908.994 1576.81 906.183 1572.32 908.671C1567.22 911.502 1562.53 915.37 1557.66 918.792ZM1457.97 1011.03C1457.66 1004.75 1457.44 1000.24 1457.2 995.497C1455.79 997.349 1453.89 999.072 1452.94 1001.34C1452.03 1003.49 1451.18 1006.95 1452.05 1008.47C1453.01 1010.15 1455.97 1010.26 1457.97 1011.03Z" fill="#144C80"/>
<path d="M1571.79 83.209C1565.17 87.722 1559.1 91.8755 1552.04 96.6902C1541.81 83.8041 1531.49 70.3312 1520.72 57.3583C1508.56 42.7075 1496.38 28.0194 1483.43 14.3481C1478.09 8.70682 1470.73 5.64028 1464.26 1.47027C1463.42 0.924739 1462.4 0.672637 1461.44 0.461864C1455.02 -0.963956 1449.89 0.961933 1447.79 5.54109C1445.44 10.6492 1447.05 17.2659 1451.65 22.6592C1456.77 28.6518 1461.84 34.7063 1466.65 41.0295C1467.75 42.4802 1467.7 45.1252 1468.18 47.2246C1466.18 47.0758 1463.78 47.7082 1462.26 46.6336C1457.91 43.5506 1453.93 39.7608 1449.79 36.2851C1447.25 34.1567 1444.85 31.6853 1442.08 30.0983C1438.3 27.9368 1434.18 28.4575 1431.98 32.8094C1430.24 36.2479 1428.16 36.3347 1425.47 36.3181C1416.05 36.2479 1406.62 36.4091 1397.2 36.2107C1394.67 36.157 1392.16 34.7973 1389.62 34.665C1387.87 34.5741 1385.53 34.9626 1384.46 36.2603C1383.54 37.3761 1383.34 40.703 1384.12 41.9346C1385.06 43.4059 1387.64 44.7904 1389.05 44.3193C1401.72 40.079 1414.6 43.4018 1427.35 42.6248C1428.36 42.5628 1429.81 44.5342 1430.46 45.9352C1433.36 52.2543 1439.87 53.7669 1443.84 48.5058C1442.74 48.3074 1441.47 48.5306 1440.96 47.9065C1439.67 46.2947 1438.72 44.3151 1437.63 42.4843C1439.41 41.3023 1441.3 38.9838 1442.94 39.2028C1445.4 39.5335 1447.83 41.3932 1450.03 43.0381C1456.7 48.0223 1463.19 53.3329 1469.88 58.2675C1472.37 60.0942 1475.13 61.6068 1477.93 62.5987C1483.25 64.4708 1486.95 61.3506 1485.91 55.1224C1485.13 50.4895 1482.48 46.2369 1480.45 41.9553C1479.11 39.1243 1477.21 36.6405 1475.93 33.7806C1475.45 32.7061 1475.57 30.4909 1476.23 29.7098C1476.9 28.9039 1478.71 28.7055 1479.75 29.1436C1481.89 30.0528 1484.14 31.1645 1485.82 32.8879C1497.96 45.3194 1510.26 57.5732 1521.92 70.5957C1530.84 80.5681 1538.91 91.5862 1547.35 102.129C1544.75 107.15 1541.66 111.936 1539.63 117.268C1534 132.067 1539.42 145.131 1552.67 149.884C1564.64 154.178 1576.28 152.07 1587.55 146.92C1607.18 137.952 1623.11 123.62 1633.52 101.794C1639.75 106.53 1640.81 113.87 1634.79 120.524C1628.03 127.988 1620.24 134.245 1612.56 140.477C1607.99 144.197 1602.77 146.846 1597.85 149.995C1588.38 156.054 1584.88 163.712 1587.94 175.867C1590.99 187.992 1595.5 199.614 1599.29 211.496C1606.07 232.796 1612.51 254.221 1612.94 277.298C1613.01 281.096 1612.68 284.985 1611.99 288.692C1611.64 290.577 1610.31 292.466 1608.99 293.755C1608.26 294.458 1606.27 294.466 1605.54 293.78C1604.73 293.028 1604.71 291.123 1604.35 289.721C1605.43 289.395 1606.5 289.073 1607.85 288.663C1608.27 284.626 1606.23 281.121 1603.09 281.096C1601.12 281.08 1598.03 284.684 1597.33 287.345C1593.96 300.054 1602 312.754 1613.82 313.56C1613.82 315.609 1613.82 317.696 1613.82 319.779C1613.82 364.294 1613.84 408.804 1613.77 453.319C1613.77 455.906 1612.7 458.485 1612.66 461.08C1612.62 463.312 1612.82 466.077 1613.92 467.627C1614.68 468.697 1617.88 468.974 1618.71 468.048C1619.98 466.614 1620.75 463.82 1620.68 461.655C1620.53 457.365 1619.17 453.116 1619.16 448.843C1619.04 404.717 1619.02 360.587 1619.2 316.461C1619.22 312.716 1620.43 308.712 1621.88 305.294C1625.94 295.784 1625.24 285.832 1624.55 275.852C1624.34 272.81 1623.87 269.673 1622.93 266.846C1618.93 254.849 1619.22 242.364 1619.38 229.858C1619.57 215.236 1619.34 200.593 1620 186.004C1620.32 178.855 1621.75 171.519 1627.87 167.175C1628.23 167.791 1628.51 168.068 1628.54 168.378C1628.76 170.626 1628.83 172.908 1629.25 175.102C1629.3 175.404 1631.64 175.664 1631.78 175.317C1632.64 173.197 1633.77 170.862 1633.69 168.659C1633.46 162.898 1627.57 159.112 1623.93 162.989C1619.03 168.209 1615.32 174.953 1611.14 181.078C1610.88 181.462 1610.73 182.376 1610.93 182.694C1616.38 191.41 1613.08 201.354 1613.72 210.702C1614.24 218.315 1613.83 226.018 1612.99 233.995C1609.29 224.75 1605.48 215.558 1601.92 206.239C1599.77 200.622 1597.9 194.853 1596.11 189.063C1593.5 180.603 1594.72 174.028 1601.42 169.523C1609.07 164.377 1617.39 160.476 1625.63 156.661C1633.73 152.909 1642.36 150.619 1649.01 143.37C1657.92 133.667 1659.38 123.706 1652.37 112.085C1648.82 106.2 1643.75 101.583 1639.58 96.1736C1638.35 94.5825 1636.79 91.8962 1637.17 90.2761C1643.34 63.8179 1629.08 33.3466 1608.92 19.7869C1588.88 6.30566 1567.09 2.37536 1544.44 4.69386C1536.66 5.48736 1528.69 7.43392 1521.45 10.765C1509.19 16.4062 1507.56 30.5859 1518.27 39.5872C1527.59 47.4189 1537.97 53.5561 1547.96 60.2595C1557.03 66.343 1565.39 73.3647 1571.79 83.209ZM1620.6 92.1648C1619.63 95.219 1619.25 97.1035 1618.49 98.7484C1607.27 122.909 1587.69 139.977 1561.25 139.097C1547.06 138.622 1541.55 127.281 1548.61 112.912C1549.57 110.961 1550.8 109.192 1552.08 107.051C1554.51 109.142 1556.47 111.234 1558.72 112.692C1564.16 116.218 1569.47 120.528 1575.32 122.586C1590.47 127.91 1603.74 113.841 1600.93 96.0869C1600.44 92.9748 1599.41 89.9786 1598.29 85.5606C1606.1 87.8749 1613.01 89.9207 1620.6 92.1648ZM1621.68 83.7545C1613.07 82.3287 1604.96 81.0021 1596.85 79.6093C1595.92 79.4481 1594.69 79.2167 1594.19 78.4769C1587.98 69.298 1580.79 60.7472 1578.48 48.8282C1576.78 40.0997 1581.16 34.1029 1588.83 34.1071C1600.99 34.1195 1614.81 48.8819 1617.18 64.1981C1617.89 68.7442 1617.14 71.914 1612.64 72.5836C1613.7 79.0473 1616.98 80.407 1621.92 78.4521C1621.82 80.7045 1621.74 82.3825 1621.68 83.7545ZM1612.61 45.0756C1606.76 38.0333 1600.43 31.7472 1592.12 28.9411C1586.69 27.1061 1581.1 26.9201 1576.7 31.6357C1572.58 36.0536 1573.29 42.1537 1574.35 47.8983C1574.84 50.5433 1575.83 53.0643 1576.59 55.639C1576.19 55.9283 1575.79 56.2135 1575.4 56.5028C1571.36 50.316 1566.7 44.5424 1563.43 37.8431C1558.87 28.503 1562.05 21.1962 1571.02 19.1339C1574.48 18.3363 1578.26 18.1379 1581.73 18.8322C1595.6 21.6219 1605.2 31.6522 1612.61 45.0756ZM1562.21 46.7576C1553.96 40.5543 1546.58 35.4378 1539.67 29.5775C1537.27 27.54 1536.02 23.6469 1534.24 20.6011C1536.84 18.5553 1539.26 15.2367 1542.06 14.7159C1548.52 13.5174 1555.17 13.5918 1561.74 13.3356C1564.06 13.2446 1566.4 13.6951 1568.73 13.9018C1566.55 15.2615 1564.42 15.2739 1562.36 15.7533C1554.21 17.6502 1551.22 24.0602 1554.76 32.7433C1556.57 37.1984 1559.21 41.2031 1562.21 46.7576ZM1557.66 101.902C1557.65 101.17 1557.64 100.443 1557.63 99.7113C1563.41 96.0042 1569.19 92.3012 1576.38 87.689C1577.96 94.785 1579.88 100.302 1580.25 105.96C1580.63 111.701 1576.81 114.511 1572.32 112.023C1567.22 109.192 1562.54 105.32 1557.66 101.902ZM1457.97 9.66563C1457.66 15.9392 1457.44 20.4523 1457.2 25.1967C1455.79 23.3452 1453.89 21.6219 1452.94 19.3571C1452.03 17.208 1451.18 13.7406 1452.05 12.2197C1453.01 10.5459 1455.97 10.4261 1457.97 9.66563Z" fill="#144C80"/>
</svg>
