<svg width="714" height="1050" viewBox="0 0 714 1050" fill="none" xmlns="http://www.w3.org/2000/svg">
<path d="M74.4633 72.347C80.2563 76.2708 85.5808 79.882 91.7617 84.0681C100.723 72.8644 109.764 61.1504 119.197 49.8712C129.849 37.1332 140.517 24.3628 151.857 12.4763C156.536 7.57155 162.978 4.90537 168.647 1.27978C169.385 0.805473 170.276 0.586285 171.12 0.403029C176.745 -0.83664 181.238 0.837811 183.078 4.81913C185.129 9.26038 183.723 15.0132 179.69 19.7023C175.209 24.9126 170.766 30.1767 166.555 35.6743C165.587 36.9355 165.634 39.2352 165.215 41.0606C166.965 40.9312 169.072 41.481 170.4 40.5468C174.21 37.8662 177.695 34.5712 181.325 31.5493C183.547 29.6988 185.65 27.55 188.077 26.1702C191.387 24.2909 194.993 24.7437 196.923 28.5274C198.45 31.5169 200.265 31.5924 202.626 31.578C210.88 31.5169 219.133 31.6571 227.383 31.4846C229.605 31.4379 231.799 30.2557 234.027 30.1407C235.563 30.0617 237.607 30.3994 238.544 31.5277C239.348 32.4979 239.528 35.3905 238.842 36.4612C238.023 37.7404 235.761 38.9442 234.529 38.5345C223.427 34.8479 212.142 37.7368 200.975 37.0613C200.097 37.0074 198.822 38.7214 198.257 39.9395C195.71 45.4336 190.01 46.7487 186.535 42.1745C187.5 42.002 188.614 42.1961 189.054 41.6535C190.187 40.2521 191.021 38.531 191.974 36.9391C190.416 35.9115 188.762 33.8957 187.326 34.0861C185.166 34.3736 183.041 35.9905 181.111 37.4206C175.268 41.7541 169.587 46.3714 163.723 50.6617C161.548 52.25 159.13 53.5651 156.673 54.4275C152.019 56.0552 148.773 53.3423 149.685 47.9273C150.365 43.8993 152.689 40.2018 154.467 36.4792C155.643 34.0178 157.309 31.8583 158.429 29.3718C158.851 28.4375 158.739 26.5115 158.165 25.8324C157.576 25.1317 155.987 24.9593 155.084 25.3401C153.21 26.1307 151.234 27.0972 149.76 28.5956C139.13 39.4041 128.356 50.0581 118.142 61.3804C110.326 70.0509 103.261 79.6305 95.8667 88.7969C98.1473 93.1626 100.856 97.3236 102.631 101.959C107.561 114.826 102.814 126.185 91.2094 130.317C80.7249 134.05 70.532 132.218 60.6557 127.74C43.4598 119.943 29.5126 107.482 20.3902 88.5058C14.9354 92.6237 14.0046 99.0053 19.2825 104.79C25.1996 111.28 32.0259 116.72 38.7466 122.139C42.7555 125.372 47.3259 127.676 51.6358 130.414C59.9297 135.682 62.9984 142.34 60.3175 152.908C57.6398 163.45 53.6899 173.554 50.376 183.885C44.4372 202.404 38.7931 221.032 38.4146 241.097C38.3525 244.399 38.6442 247.78 39.2493 251.003C39.5564 252.642 40.7231 254.284 41.8805 255.405C42.5134 256.016 44.2634 256.023 44.9026 255.426C45.6101 254.772 45.6225 253.116 45.939 251.898C44.9988 251.614 44.0618 251.334 42.8734 250.978C42.5041 247.467 44.2914 244.42 47.0467 244.399C48.7719 244.384 51.4806 247.518 52.095 249.832C55.0396 260.881 47.9993 271.923 37.6482 272.624C37.6482 274.406 37.6482 276.221 37.6482 278.032C37.6482 316.734 37.6296 355.434 37.6916 394.136C37.6947 396.386 38.6287 398.628 38.6628 400.885C38.6939 402.825 38.5263 405.229 37.5613 406.576C36.8973 407.507 34.0861 407.748 33.3663 406.943C32.2493 405.696 31.5728 403.267 31.638 401.384C31.7683 397.654 32.9567 393.96 32.9691 390.245C33.0777 351.88 33.0932 313.511 32.9319 275.146C32.9195 271.891 31.8614 268.409 30.583 265.437C27.0272 257.169 27.6447 248.517 28.2466 239.839C28.4297 237.194 28.8455 234.467 29.6708 232.009C33.1677 221.578 32.9195 210.723 32.7767 199.85C32.6092 187.137 32.8078 174.406 32.2368 161.722C31.9576 155.505 30.704 149.127 25.3361 145.351C25.029 145.886 24.7838 146.127 24.7559 146.397C24.5604 148.351 24.4953 150.335 24.1353 152.243C24.0857 152.505 22.0378 152.731 21.9137 152.43C21.1628 150.586 20.1699 148.556 20.2444 146.641C20.4399 141.632 25.6061 138.341 28.7927 141.711C33.0839 146.249 36.3326 152.113 39.9908 157.439C40.2204 157.773 40.357 158.567 40.1801 158.844C35.4017 166.422 38.2967 175.067 37.7351 183.195C37.279 189.814 37.642 196.512 38.3743 203.447C41.6167 195.408 44.9523 187.417 48.0706 179.314C49.9509 174.431 51.5923 169.415 53.1562 164.381C55.443 157.025 54.3756 151.309 48.5081 147.392C41.8091 142.918 34.5236 139.526 27.3064 136.21C20.2072 132.947 12.6518 130.956 6.82152 124.654C-0.982108 116.217 -2.26358 107.557 3.87693 97.453C6.98597 92.3362 11.4323 88.3225 15.0875 83.619C16.1642 82.2356 17.5263 79.9 17.1943 78.4914C11.7861 55.4875 24.2843 28.9945 41.9394 17.205C59.4891 5.48388 78.5777 2.0667 98.4203 4.08251C105.231 4.77241 112.216 6.46483 118.555 9.36099C129.29 14.2658 130.718 26.5942 121.341 34.4203C113.181 41.2295 104.089 46.5654 95.333 52.3937C87.3835 57.6829 80.064 63.7879 74.4633 72.347ZM31.7063 80.1335C32.5533 82.7889 32.8884 84.4275 33.5556 85.8576C43.3791 106.864 60.5285 121.704 83.6881 120.938C96.118 120.525 100.943 110.665 94.759 98.1716C93.9212 96.4756 92.8414 94.9377 91.7244 93.0764C89.5959 94.8946 87.88 96.7128 85.9035 97.9812C81.1375 101.046 76.4926 104.794 71.3636 106.583C58.099 111.212 46.4696 98.9801 48.9363 83.5435C49.3676 80.8378 50.2643 78.2327 51.251 74.3915C44.4031 76.4037 38.3525 78.1824 31.7063 80.1335ZM30.7599 72.8213C38.2998 71.5816 45.4115 70.4282 52.517 69.2173C53.3299 69.0771 54.4066 68.8759 54.8441 68.2327C60.2834 60.2521 66.5852 52.8177 68.6083 42.4548C70.0914 34.8658 66.2594 29.652 59.5418 29.6556C48.8867 29.6664 36.7856 42.5015 34.7067 55.8181C34.0892 59.7706 34.7408 62.5266 38.6845 63.1087C37.7568 68.7286 34.8805 69.9108 30.552 68.2111C30.6389 70.1695 30.7041 71.6283 30.7599 72.8213ZM38.7001 39.1921C43.8259 33.0692 49.3707 27.6039 56.6531 25.1641C61.4128 23.5687 66.306 23.407 70.1566 27.5069C73.7621 31.3481 73.1446 36.6517 72.2169 41.6463C71.7887 43.946 70.9199 46.1378 70.2497 48.3764C70.6003 48.628 70.9509 48.8759 71.2984 49.1274C74.8357 43.7483 78.919 38.7286 81.7829 32.9039C85.7732 24.7832 82.993 18.4303 75.1367 16.6373C72.1021 15.9438 68.7883 15.7713 65.7537 16.375C53.603 18.8004 45.1974 27.5212 38.7001 39.1921ZM82.8534 40.6546C90.0799 35.2611 96.5431 30.8127 102.594 25.7174C104.697 23.946 105.793 20.5611 107.347 17.9129C105.073 16.1343 102.954 13.2489 100.496 12.7961C94.8366 11.7541 89.0188 11.8188 83.2599 11.596C81.2275 11.5169 79.1797 11.9086 77.1411 12.0883C79.0493 13.2704 80.9172 13.2812 82.7169 13.698C89.8596 15.3473 92.4815 20.9205 89.3818 28.4699C87.79 32.3434 85.4753 35.8252 82.8534 40.6546ZM86.8312 88.5992C86.8437 87.9632 86.853 87.3308 86.8654 86.6948C81.8016 83.4717 76.7377 80.2521 70.439 76.2421C69.0551 82.4117 67.3734 87.2086 67.0476 92.1278C66.7156 97.1188 70.0604 99.5622 73.9917 97.3991C78.466 94.9377 82.5679 91.5708 86.8312 88.5992ZM174.157 8.40519C174.43 13.8597 174.626 17.7836 174.834 21.9086C176.066 20.2988 177.735 18.8004 178.567 16.8313C179.358 14.9629 180.109 11.9481 179.345 10.6258C178.505 9.17055 175.911 9.06634 174.157 8.40519Z" fill="#144C80"/>
<path d="M638.539 72.346C632.746 76.2698 627.421 79.881 621.24 84.0672C612.279 72.8634 603.238 61.1494 593.805 49.8703C583.153 37.1322 572.486 24.3618 561.145 12.4754C556.466 7.57057 550.024 4.90439 544.355 1.2788C543.617 0.804496 542.726 0.585308 541.882 0.402052C536.257 -0.837617 531.764 0.836835 529.924 4.81815C527.873 9.2594 529.278 15.0122 533.312 19.7014C537.793 24.9116 542.236 30.1757 546.447 35.6733C547.415 36.9346 547.368 39.2342 547.787 41.0596C546.037 40.9303 543.93 41.48 542.602 40.5458C538.792 37.8652 535.307 34.5702 531.677 31.5483C529.455 29.6978 527.352 27.549 524.925 26.1692C521.615 24.2899 518.009 24.7427 516.079 28.5264C514.552 31.516 512.737 31.5914 510.376 31.577C502.122 31.516 493.869 31.6561 485.618 31.4836C483.397 31.4369 481.203 30.2547 478.975 30.1397C477.439 30.0607 475.395 30.3985 474.458 31.5267C473.654 32.4969 473.474 35.3895 474.16 36.4603C474.979 37.7395 477.241 38.9432 478.473 38.5336C489.575 34.8469 500.86 37.7359 512.027 37.0603C512.905 37.0064 514.18 38.7204 514.745 39.9385C517.292 45.4326 522.992 46.7477 526.467 42.1735C525.502 42.0011 524.388 42.1951 523.948 41.6525C522.815 40.2511 521.981 38.53 521.028 36.9382C522.586 35.9105 524.24 33.8947 525.676 34.0851C527.836 34.3726 529.961 35.9895 531.891 37.4197C537.734 41.7531 543.415 46.3704 549.279 50.6608C551.454 52.249 553.872 53.5641 556.329 54.4265C560.983 56.0542 564.229 53.3413 563.317 47.9263C562.637 43.8983 560.313 40.2008 558.535 36.4782C557.359 34.0169 555.693 31.8573 554.573 29.3708C554.151 28.4366 554.263 26.5106 554.837 25.8314C555.426 25.1308 557.015 24.9583 557.918 25.3392C559.792 26.1297 561.768 27.0963 563.242 28.5947C573.872 39.4031 584.645 50.0571 594.86 61.3794C602.676 70.0499 609.741 79.6295 617.135 88.7959C614.855 93.1617 612.146 97.3226 610.371 101.958C605.441 114.825 610.188 126.184 621.793 130.316C632.277 134.049 642.47 132.217 652.346 127.739C669.542 119.942 683.489 107.481 692.612 88.5048C698.067 92.6227 698.998 99.0043 693.72 104.789C687.803 111.279 680.976 116.719 674.255 122.138C670.247 125.372 665.676 127.675 661.366 130.413C653.072 135.681 650.004 142.339 652.685 152.907C655.362 163.449 659.312 173.553 662.626 183.884C668.565 202.403 674.209 221.031 674.587 241.096C674.65 244.398 674.358 247.779 673.753 251.002C673.446 252.641 672.279 254.283 671.122 255.404C670.489 256.015 668.739 256.022 668.099 255.425C667.392 254.771 667.38 253.115 667.063 251.897C668.003 251.613 668.94 251.333 670.129 250.977C670.498 247.466 668.711 244.419 665.955 244.398C664.23 244.383 661.521 247.517 660.907 249.831C657.963 260.88 665.006 271.922 675.354 272.623C675.354 274.405 675.354 276.22 675.354 278.031C675.354 316.733 675.373 355.433 675.31 394.135C675.307 396.385 674.373 398.627 674.339 400.884C674.308 402.824 674.476 405.228 675.441 406.575C676.105 407.506 678.913 407.747 679.636 406.942C680.753 405.695 681.429 403.266 681.364 401.383C681.234 397.653 680.045 393.959 680.033 390.244C679.924 351.879 679.909 313.51 680.07 275.145C680.083 271.89 681.144 268.408 682.419 265.436C685.975 257.168 685.357 248.516 684.755 239.838C684.572 237.193 684.157 234.466 683.331 232.008C679.834 221.577 680.083 210.722 680.225 199.849C680.393 187.136 680.194 174.405 680.765 161.721C681.045 155.504 682.298 149.126 687.666 145.35C687.973 145.885 688.218 146.126 688.246 146.396C688.442 148.35 688.507 150.334 688.867 152.242C688.916 152.504 690.964 152.73 691.088 152.429C691.839 150.585 692.832 148.555 692.758 146.64C692.562 141.631 687.396 138.34 684.209 141.71C679.918 146.248 676.669 152.112 673.011 157.438C672.782 157.772 672.645 158.566 672.822 158.843C677.6 166.421 674.705 175.066 675.267 183.194C675.723 189.813 675.36 196.511 674.628 203.446C671.385 195.407 668.047 187.416 664.931 179.313C663.051 174.43 661.41 169.414 659.846 164.38C657.559 157.024 658.623 151.308 664.494 147.391C671.193 142.917 678.478 139.525 685.696 136.209C692.795 132.946 700.35 130.955 706.181 124.653C713.984 116.216 715.266 107.556 709.125 97.452C706.016 92.3352 701.57 88.3216 697.915 83.618C696.838 82.2346 695.476 79.899 695.808 78.4904C701.216 55.4865 688.718 28.9935 671.063 17.2041C653.513 5.4829 634.424 2.06572 614.582 4.08154C607.771 4.77144 600.786 6.46386 594.447 9.36001C583.711 14.2648 582.284 26.5932 591.661 34.4193C599.821 41.2285 608.913 46.5645 617.669 52.3927C625.615 57.682 632.938 63.7869 638.539 72.346ZM681.293 80.1326C680.446 82.788 680.111 84.4265 679.443 85.8566C669.62 106.863 652.47 121.703 629.311 120.937C616.881 120.524 612.056 110.664 618.24 98.1706C619.078 96.4746 620.157 94.9367 621.274 93.0754C623.403 94.8936 625.119 96.7118 627.095 97.9802C631.861 101.045 636.506 104.793 641.635 106.582C654.9 111.211 666.529 98.9791 664.063 83.5426C663.631 80.8368 662.735 78.2317 661.748 74.3906C668.596 76.4028 674.646 78.1814 681.293 80.1326ZM682.242 72.8203C674.702 71.5806 667.591 70.4272 660.488 69.2163C659.675 69.0761 658.599 68.8749 658.161 68.2317C652.722 60.2511 646.42 52.8167 644.397 42.4538C642.914 34.8649 646.746 29.6511 653.463 29.6547C664.118 29.6654 676.22 42.5005 678.298 55.8171C678.916 59.7696 678.264 62.5257 674.321 63.1078C675.248 68.7276 678.125 69.9098 682.453 68.2102C682.36 70.1685 682.295 71.6274 682.242 72.8203ZM674.299 39.1911C669.173 33.0682 663.628 27.6029 656.346 25.1631C651.589 23.5677 646.693 23.406 642.842 27.5059C639.237 31.3471 639.854 36.6507 640.782 41.6453C641.21 43.945 642.079 46.1369 642.749 48.3755C642.399 48.627 642.048 48.8749 641.7 49.1265C638.163 43.7474 634.08 38.7276 631.216 32.903C627.223 24.7822 630.006 18.4294 637.862 16.6363C640.897 15.9428 644.211 15.7704 647.245 16.374C659.399 18.7995 667.805 27.5203 674.299 39.1911ZM630.146 40.6536C622.919 35.2601 616.456 30.8117 610.405 25.7165C608.302 23.945 607.206 20.5602 605.652 17.9119C607.926 16.1333 610.045 13.2479 612.503 12.7952C618.162 11.7531 623.98 11.8178 629.739 11.595C631.771 11.516 633.819 11.9076 635.861 12.0873C633.953 13.2695 632.085 13.2802 630.285 13.6971C623.142 15.3464 620.52 20.9195 623.62 28.4689C625.209 32.3424 627.524 35.8243 630.146 40.6536ZM626.168 88.5982C626.155 87.9622 626.146 87.3298 626.134 86.6938C631.197 83.4707 636.261 80.2511 642.56 76.2411C643.944 82.4107 645.626 87.2077 645.951 92.1268C646.283 97.1178 642.939 99.5612 639.007 97.3981C634.536 94.9367 630.434 91.5699 626.168 88.5982ZM538.845 8.40421C538.572 13.8588 538.376 17.7826 538.168 21.9076C536.936 20.2978 535.267 18.7995 534.435 16.8304C533.644 14.9619 532.893 11.9471 533.657 10.6248C534.497 9.16957 537.088 9.06537 538.845 8.40421Z" fill="#144C80"/>
<path d="M74.4626 976.784C80.2556 972.861 85.58 969.249 91.7609 965.063C100.722 976.267 109.763 987.981 119.196 999.26C129.848 1012 140.516 1024.77 151.856 1036.66C156.535 1041.56 162.977 1044.23 168.646 1047.85C169.384 1048.33 170.275 1048.55 171.119 1048.73C176.744 1049.97 181.237 1048.29 183.077 1044.31C185.128 1039.87 183.722 1034.12 179.689 1029.43C175.208 1024.22 170.765 1018.95 166.554 1013.46C165.586 1012.2 165.633 1009.9 165.214 1008.07C166.964 1008.2 169.071 1007.65 170.399 1008.58C174.209 1011.27 177.694 1014.56 181.324 1017.58C183.546 1019.43 185.649 1021.58 188.076 1022.96C191.386 1024.84 194.992 1024.39 196.922 1020.6C198.448 1017.61 200.264 1017.54 202.625 1017.55C210.878 1017.61 219.132 1017.47 227.382 1017.65C229.604 1017.69 231.798 1018.88 234.025 1018.99C235.561 1019.07 237.606 1018.73 238.543 1017.6C239.347 1016.63 239.527 1013.74 238.841 1012.67C238.022 1011.39 235.76 1010.19 234.528 1010.6C223.426 1014.28 212.141 1011.39 200.974 1012.07C200.096 1012.12 198.821 1010.41 198.256 1009.19C195.709 1003.7 190.009 1002.38 186.534 1006.96C187.499 1007.13 188.612 1006.94 189.053 1007.48C190.186 1008.88 191.02 1010.6 191.973 1012.19C190.415 1013.22 188.761 1015.24 187.325 1015.05C185.165 1014.76 183.04 1013.14 181.11 1011.71C175.267 1007.38 169.586 1002.76 163.722 998.47C161.547 996.881 159.129 995.566 156.672 994.704C152.018 993.076 148.772 995.789 149.684 1001.2C150.364 1005.23 152.688 1008.93 154.466 1012.65C155.642 1015.11 157.308 1017.27 158.428 1019.76C158.85 1020.69 158.738 1022.62 158.164 1023.3C157.575 1024 155.986 1024.17 155.083 1023.79C153.209 1023 151.233 1022.03 149.759 1020.54C139.129 1009.73 128.356 999.073 118.141 987.751C110.325 979.08 103.26 969.501 95.8659 960.334C98.1465 955.969 100.855 951.808 102.63 947.172C107.56 934.305 102.813 922.947 91.2086 918.815C80.7241 915.081 70.5313 916.914 60.655 921.391C43.4592 929.188 29.512 941.65 20.3897 960.626C14.9349 956.508 14.0041 950.126 19.282 944.341C25.199 937.852 32.0253 932.411 38.746 926.993C42.7548 923.759 47.3253 921.456 51.6351 918.718C59.929 913.45 62.9977 906.792 60.3168 896.224C57.6391 885.681 53.6892 875.577 50.3754 865.246C44.4366 846.727 38.7925 828.099 38.414 808.035C38.3519 804.733 38.6436 801.351 39.2486 798.128C39.5558 796.49 40.7225 794.848 41.8798 793.726C42.5128 793.116 44.2628 793.108 44.902 793.705C45.6094 794.359 45.6218 796.015 45.9383 797.234C44.9982 797.517 44.0611 797.798 42.8727 798.153C42.5035 801.664 44.2907 804.711 47.046 804.733C48.7712 804.747 51.48 801.614 52.0943 799.3C55.0389 788.25 47.9986 777.208 37.6476 776.508C37.6476 774.725 37.6476 772.911 37.6476 771.1C37.6476 732.397 37.629 693.698 37.691 654.995C37.6941 652.746 38.6281 650.503 38.6622 648.247C38.6932 646.306 38.5257 643.903 37.5607 642.555C36.8967 641.624 34.0855 641.384 33.3657 642.189C32.2487 643.435 31.5723 645.864 31.6374 647.747C31.7677 651.477 32.9561 655.171 32.9685 658.886C33.0771 697.251 33.0926 735.62 32.9313 773.985C32.9189 777.241 31.8608 780.723 30.5824 783.694C27.0266 791.962 27.6441 800.615 28.246 809.292C28.4291 811.937 28.8449 814.664 29.6702 817.122C33.1671 827.553 32.9189 838.409 32.7761 849.282C32.6086 861.995 32.8072 874.725 32.2363 887.41C31.957 893.626 30.7035 900.004 25.3356 903.78C25.0284 903.245 24.7833 903.004 24.7553 902.735C24.5599 900.78 24.4947 898.797 24.1348 896.889C24.0851 896.626 22.0373 896.4 21.9132 896.702C21.1623 898.545 20.1694 900.575 20.2438 902.49C20.4393 907.499 25.6055 910.791 28.7921 907.42C33.0833 902.882 36.332 897.018 39.9902 891.693C40.2198 891.359 40.3564 890.564 40.1795 890.288C35.4011 882.71 38.2961 874.064 37.7345 865.936C37.2783 859.318 37.6414 852.62 38.3736 845.685C41.6161 853.723 44.9516 861.714 48.07 869.817C49.9503 874.7 51.5917 879.716 53.1555 884.751C55.4423 892.106 54.3749 897.823 48.5075 901.739C41.8085 906.213 34.523 909.605 27.3059 912.922C20.2066 916.184 12.6512 918.175 6.82101 924.478C-0.982593 932.914 -2.26406 941.574 3.87643 951.678C6.98546 956.795 11.4318 960.809 15.0869 965.512C16.1636 966.896 17.5258 969.231 17.1938 970.64C11.7855 993.644 24.2837 1020.14 41.9388 1031.93C59.4884 1043.65 78.577 1047.06 98.4195 1045.05C105.23 1044.36 112.215 1042.67 118.554 1039.77C129.29 1034.87 130.717 1022.54 121.34 1014.71C113.18 1007.9 104.088 1002.57 95.3322 996.738C87.3828 991.448 80.0632 985.343 74.4626 976.784ZM31.7057 968.998C32.5527 966.342 32.8878 964.704 33.555 963.274C43.3785 942.268 60.5278 927.428 83.6873 928.193C96.1172 928.606 100.942 938.466 94.7582 950.96C93.9204 952.656 92.8407 954.194 91.7236 956.055C89.5951 954.237 87.8792 952.419 85.9027 951.15C81.1368 948.085 76.4919 944.337 71.3629 942.548C58.0983 937.92 46.4689 950.151 48.9357 965.588C49.367 968.294 50.2637 970.899 51.2504 974.74C44.4024 972.728 38.3519 970.949 31.7057 968.998ZM30.7593 976.31C38.2992 977.55 45.4109 978.703 52.5163 979.914C53.3293 980.054 54.4059 980.255 54.8434 980.899C60.2827 988.879 66.5845 996.314 68.6076 1006.68C70.0907 1014.27 66.2587 1019.48 59.5411 1019.48C48.886 1019.46 36.785 1006.63 34.7061 993.313C34.0886 989.361 34.7402 986.605 38.6839 986.023C37.7562 980.403 34.8799 979.221 30.5514 980.92C30.6383 978.962 30.7035 977.503 30.7593 976.31ZM38.6994 1009.94C43.8253 1016.06 49.3701 1021.53 56.6524 1023.97C61.4121 1025.56 66.3053 1025.72 70.1559 1021.62C73.7614 1017.78 73.1439 1012.48 72.2162 1007.49C71.788 1005.19 70.9192 1002.99 70.249 1000.75C70.5996 1000.5 70.9502 1000.26 71.2977 1000C74.8349 1005.38 78.9183 1010.4 81.7822 1016.23C85.7724 1024.35 82.9923 1030.7 75.1359 1032.49C72.1014 1033.19 68.7875 1033.36 65.753 1032.76C53.6023 1030.33 45.1968 1021.61 38.6994 1009.94ZM82.8526 1008.48C90.0791 1013.87 96.5423 1018.32 102.593 1023.41C104.697 1025.19 105.792 1028.57 107.346 1031.22C105.072 1033 102.953 1035.88 100.495 1036.34C94.8358 1037.38 89.018 1037.31 83.2591 1037.54C81.2268 1037.61 79.1789 1037.22 77.1404 1037.04C79.0486 1035.86 80.9165 1035.85 82.7161 1035.43C89.8588 1033.78 92.4807 1028.21 89.381 1020.66C87.7892 1016.79 85.4745 1013.31 82.8526 1008.48ZM86.8305 960.532C86.8429 961.168 86.8522 961.801 86.8646 962.437C81.8008 965.66 76.737 968.879 70.4382 972.889C69.0544 966.72 67.3727 961.923 67.0469 957.004C66.7149 952.013 70.0597 949.569 73.991 951.732C78.4652 954.194 82.5672 957.561 86.8305 960.532ZM174.156 1040.73C174.429 1035.27 174.625 1031.35 174.833 1027.22C176.065 1028.83 177.734 1030.33 178.566 1032.3C179.357 1034.17 180.108 1037.18 179.344 1038.51C178.503 1039.96 175.909 1040.07 174.156 1040.73Z" fill="#144C80"/>
<path d="M638.538 976.784C632.745 972.861 627.421 969.249 621.24 965.063C612.279 976.267 603.237 987.981 593.805 999.26C583.153 1012 572.485 1024.77 561.144 1036.66C556.465 1041.56 550.024 1044.23 544.355 1047.85C543.616 1048.33 542.726 1048.55 541.882 1048.73C536.257 1049.97 531.764 1048.29 529.924 1044.31C527.873 1039.87 529.278 1034.12 533.312 1029.43C537.792 1024.22 542.236 1018.95 546.446 1013.46C547.414 1012.2 547.368 1009.9 547.787 1008.07C546.037 1008.2 543.93 1007.65 542.602 1008.58C538.792 1011.27 535.307 1014.56 531.677 1017.58C529.455 1019.43 527.352 1021.58 524.925 1022.96C521.614 1024.84 518.009 1024.39 516.079 1020.6C514.552 1017.61 512.737 1017.54 510.376 1017.55C502.122 1017.61 493.869 1017.47 485.618 1017.65C483.397 1017.69 481.203 1018.88 478.975 1018.99C477.439 1019.07 475.395 1018.73 474.458 1017.6C473.654 1016.63 473.474 1013.74 474.16 1012.67C474.979 1011.39 477.241 1010.19 478.473 1010.6C489.575 1014.28 500.859 1011.39 512.027 1012.07C512.905 1012.12 514.18 1010.41 514.745 1009.19C517.292 1003.7 522.992 1002.38 526.467 1006.96C525.502 1007.13 524.388 1006.94 523.948 1007.48C522.815 1008.88 521.98 1010.6 521.028 1012.19C522.585 1013.22 524.239 1015.24 525.676 1015.05C527.836 1014.76 529.961 1013.14 531.891 1011.71C537.733 1007.38 543.415 1002.76 549.279 998.47C551.454 996.881 553.871 995.566 556.329 994.704C560.983 993.076 564.229 995.789 563.316 1001.2C562.637 1005.23 560.313 1008.93 558.535 1012.65C557.359 1015.11 555.693 1017.27 554.573 1019.76C554.151 1020.69 554.262 1022.62 554.836 1023.3C555.426 1024 557.014 1024.17 557.917 1023.79C559.791 1023 561.768 1022.03 563.242 1020.54C573.872 1009.73 584.645 999.073 594.86 987.751C602.676 979.08 609.741 969.501 617.135 960.334C614.854 955.969 612.146 951.808 610.371 947.172C605.44 934.305 610.188 922.947 621.792 918.815C632.277 915.081 642.469 916.914 652.346 921.391C669.542 929.188 683.489 941.65 692.611 960.626C698.066 956.508 698.997 950.126 693.719 944.341C687.802 937.852 680.975 932.411 674.255 926.993C670.246 923.759 665.676 921.456 661.366 918.718C653.072 913.45 650.003 906.792 652.684 896.224C655.362 885.681 659.312 875.577 662.625 865.246C668.564 846.727 674.208 828.099 674.587 808.035C674.649 804.733 674.357 801.351 673.752 798.128C673.445 796.49 672.278 794.848 671.121 793.726C670.488 793.116 668.738 793.108 668.099 793.705C667.391 794.359 667.379 796.015 667.062 797.234C668.003 797.517 668.94 797.798 670.128 798.153C670.497 801.664 668.71 804.711 665.955 804.733C664.229 804.747 661.521 801.614 660.907 799.3C657.962 788.25 665.005 777.208 675.353 776.508C675.353 774.725 675.353 772.911 675.353 771.1C675.353 732.397 675.372 693.698 675.31 654.995C675.307 652.746 674.373 650.503 674.339 648.247C674.307 646.306 674.475 643.903 675.44 642.555C676.104 641.624 678.912 641.384 679.635 642.189C680.752 643.435 681.429 645.864 681.363 647.747C681.233 651.477 680.045 655.171 680.032 658.886C679.924 697.251 679.908 735.62 680.069 773.985C680.082 777.241 681.143 780.723 682.418 783.694C685.974 791.962 685.357 800.615 684.755 809.292C684.572 811.937 684.156 814.664 683.33 817.122C679.834 827.553 680.082 838.409 680.225 849.282C680.392 861.995 680.194 874.725 680.765 887.41C681.044 893.626 682.297 900.004 687.665 903.78C687.972 903.245 688.218 903.004 688.245 902.735C688.441 900.78 688.506 898.797 688.866 896.889C688.916 896.626 690.963 896.4 691.088 896.702C691.838 898.545 692.831 900.575 692.757 902.49C692.562 907.499 687.395 910.791 684.209 907.42C679.917 902.882 676.669 897.018 673.011 891.693C672.781 891.359 672.644 890.564 672.821 890.288C677.6 882.71 674.705 874.064 675.266 865.936C675.722 859.318 675.359 852.62 674.627 845.685C671.385 853.723 668.046 861.714 664.931 869.817C663.05 874.7 661.409 879.716 659.845 884.751C657.558 892.106 658.623 897.823 664.493 901.739C671.192 906.213 678.478 909.605 685.695 912.922C692.794 916.184 700.35 918.175 706.18 924.478C713.983 932.914 715.265 941.574 709.124 951.678C706.015 956.795 701.569 960.809 697.914 965.512C696.837 966.896 695.475 969.231 695.807 970.64C701.215 993.644 688.717 1020.14 671.062 1031.93C653.512 1043.65 634.424 1047.06 614.581 1045.05C607.771 1044.36 600.786 1042.67 594.447 1039.77C583.711 1034.87 582.284 1022.54 591.661 1014.71C599.821 1007.9 608.912 1002.57 617.669 996.738C625.615 991.448 632.938 985.343 638.538 976.784ZM681.292 968.998C680.445 966.342 680.11 964.704 679.443 963.274C669.619 942.268 652.47 927.428 629.31 928.193C616.88 928.606 612.056 938.466 618.239 950.96C619.077 952.656 620.157 954.194 621.274 956.055C623.402 954.237 625.118 952.419 627.095 951.15C631.861 948.085 636.506 944.337 641.635 942.548C654.899 937.92 666.529 950.151 664.062 965.588C663.631 968.294 662.734 970.899 661.747 974.74C668.595 972.728 674.646 970.949 681.292 968.998ZM682.241 976.31C674.702 977.55 667.59 978.703 660.488 979.914C659.675 980.054 658.598 980.255 658.16 980.899C652.721 988.879 646.419 996.314 644.396 1006.68C642.913 1014.27 646.745 1019.48 653.463 1019.48C664.118 1019.46 676.219 1006.63 678.298 993.313C678.915 989.361 678.264 986.605 674.32 986.023C675.248 980.403 678.124 979.221 682.453 980.92C682.359 978.962 682.294 977.503 682.241 976.31ZM674.298 1009.94C669.172 1016.06 663.628 1021.53 656.345 1023.97C651.589 1025.56 646.692 1025.72 642.842 1021.62C639.236 1017.78 639.854 1012.48 640.781 1007.49C641.21 1005.19 642.079 1002.99 642.749 1000.75C642.398 1000.5 642.047 1000.26 641.7 1000C638.163 1005.38 634.079 1010.4 631.215 1016.23C627.222 1024.35 630.005 1030.7 637.862 1032.49C640.896 1033.19 644.21 1033.36 647.245 1032.76C659.398 1030.33 667.804 1021.61 674.298 1009.94ZM630.145 1008.48C622.919 1013.87 616.455 1018.32 610.405 1023.41C608.301 1025.19 607.206 1028.57 605.651 1031.22C607.926 1033 610.045 1035.88 612.502 1036.34C618.162 1037.38 623.98 1037.31 629.739 1037.54C631.771 1037.61 633.819 1037.22 635.86 1037.04C633.952 1035.86 632.084 1035.85 630.285 1035.43C623.142 1033.78 620.52 1028.21 623.62 1020.66C625.208 1016.79 627.523 1013.31 630.145 1008.48ZM626.167 960.532C626.155 961.168 626.145 961.801 626.133 962.437C631.197 965.66 636.261 968.879 642.559 972.889C643.943 966.72 645.625 961.923 645.951 957.004C646.283 952.013 642.938 949.569 639.007 951.732C634.536 954.194 630.434 957.561 626.167 960.532ZM538.844 1040.73C538.571 1035.27 538.376 1031.35 538.168 1027.22C536.936 1028.83 535.267 1030.33 534.435 1032.3C533.644 1034.17 532.893 1037.18 533.656 1038.51C534.497 1039.96 537.088 1040.07 538.844 1040.73Z" fill="#144C80"/>
</svg>
