<svg width="839" height="205" viewBox="0 0 839 205" fill="none" xmlns="http://www.w3.org/2000/svg">
<path d="M90.9423 118.525C92.7716 120.103 78.9957 134.351 83.3515 142.931C83.4346 143.091 84.97 145.048 88.0456 148.962C91.685 153.599 92.4935 154.524 94.0664 155.227C95.7158 155.962 97.6029 155.87 101.385 155.696C106.04 155.478 108.39 155.337 109.387 153.822C110.429 152.242 109.899 149.82 108.997 148.275C106.97 144.801 103.092 145.765 101.674 142.978C99.9832 139.656 103.669 134.735 104.428 133.777C107.507 129.885 111.845 128.616 115.088 127.715C119.297 126.544 121.051 127.012 124.492 126.527C131.125 125.591 132.479 122.737 140.506 118.776C151.847 113.181 155.124 115.928 164.353 110.168C165.592 109.392 170.182 106.442 173.851 102.195C187.548 86.339 184.983 56.47 175.512 52.3651C173.558 51.5182 169.424 52.8666 161.236 55.6018C152.951 58.3681 150.357 59.9205 145.649 61.617C139.283 63.915 128.076 65.9246 116.978 65.9484C98.5344 65.9815 98.5769 61.4912 84.5797 62.9026C74.2927 63.9439 74.9025 66.2979 62.6634 67.5264C49.5578 68.8437 40.4614 66.9983 39.4754 70.0129C38.8777 71.84 41.6069 74.3745 43.5879 76.2166C49.0206 81.2665 53.3456 80.5073 54.1755 83.0112C55.3357 86.5203 47.5771 90.138 38.2615 100.201C33.698 105.136 30.6775 109.792 24.7719 119.186C16.1319 132.929 16.7102 135.132 17.428 135.969C18.996 137.796 23.757 136.017 24.3052 135.815C29.7174 133.798 32.0297 129.292 34.9646 125.095C42.8879 113.771 52.6804 108.488 52.6882 108.499C52.6959 108.51 47.3163 111.822 43.5431 118.389C41.9314 121.197 40.8977 125.551 38.825 134.264C36.6381 143.458 36.7021 145.59 36.8442 147.06C37.1707 150.499 38.0168 151.513 38.0509 155.761C38.0786 159.607 37.4001 161.371 38.5205 162.419C39.9491 163.748 43.4411 163.108 45.8063 161.51C50.6122 158.27 49.0132 152.288 52.4855 140.107C54.9813 131.354 58.3339 125.582 58.6974 125.714C59.043 125.838 56.1657 131.079 56.8244 138.201C57.0326 140.474 57.306 139.691 59.4232 148.026C60.9674 154.101 61.136 155.749 62.8 156.84C64.5294 157.971 65.4635 156.923 70.1184 157.309C75.8119 157.781 77.5638 159.607 79.2509 158.373C80.9389 157.135 81.2117 153.806 80.2015 151.42C78.5886 147.599 74.6077 148.38 72.0992 144.513C69.2226 140.073 71.3747 134.283 71.4877 133.998C72.2478 132.045 73.3561 130.777 80.3989 125.434C86.9837 120.44 90.2886 117.955 90.9423 118.525Z" fill="#EDEBDF"/>
<path d="M37.3526 69.6327C42.8915 72.682 46.995 74.9612 50.96 73.4476C52.2199 72.9644 54.4856 71.7117 54.501 70.3085C54.5275 67.9653 48.2798 64.6317 20.3562 60.336C28.4855 64.7599 33.7044 67.6223 37.3526 69.6327Z" fill="#8D0000"/>
<path d="M23.4836 121.269C22.7759 121.033 21.1613 121.197 17.1209 126.867C13.4596 132.004 8.02637 141.351 3.117 158.09C10.2706 147.897 15.6775 141.632 19.9025 137.493C21.0359 136.384 24.2816 133.275 25.0441 128.539C25.5075 125.664 25.1136 121.812 23.4836 121.269Z" fill="#8D0000"/>
<path d="M38.4372 169.761C35.8135 163.284 33.8375 152.722 37.462 150.617C38.7006 149.898 40.3703 150.299 41.3919 150.866C44.9082 152.829 44.4963 158.921 44.9432 164.913C45.3092 169.828 46.3961 176.522 49.5146 184.497C42.7578 178.924 39.7816 173.075 38.4372 169.761Z" fill="#8D0000"/>
<path d="M69.3302 152.508C70.8645 151.208 76.3318 157.076 85.8901 161.182C90.1816 163.025 93.9699 163.94 96.5521 164.429C94.7171 164.637 75.1503 166.655 70.1278 157.306C69.3268 155.816 68.4663 153.239 69.3302 152.508Z" fill="#8D0000"/>
<path d="M104.084 151.238C105.854 149.942 108.351 151.247 113.8 152.913C116.126 153.622 119.33 154.506 123.263 155.282C108.101 158.72 103.72 157.551 102.764 155.624C102.119 154.322 102.806 152.177 104.084 151.238Z" fill="#8D0000"/>
<path d="M741.597 163.726C742.241 163.949 744.157 164.051 751.828 152.945C758.837 142.794 762.344 137.718 763.194 133.511C766.081 119.2 754.195 108.216 757.909 104.9C759.511 103.469 762.086 105.197 773.402 107.77C784.011 110.185 783.065 108.931 785.982 110.169C796.051 114.446 794.852 123.458 805.949 130.087C811.305 133.286 818.432 135.279 819.898 133.305C820.387 132.646 820.663 130.984 808.762 115.571C801.79 106.538 798.235 101.983 794.954 99.7612C792.284 97.9576 790.534 97.3198 774.281 92.3294C759.262 87.7195 754.998 86.4962 755.045 84.7409C755.069 83.7317 756.555 83.307 765.326 80.0657C779.565 74.7978 782.687 74.4482 785.67 74.5397C788.901 74.6386 792.22 74.7478 795.744 76.7103C799.891 79.0252 800.574 81.8264 805.891 85.0514C808.277 86.4948 811.999 88.751 813.495 87.5659C815.57 85.92 812.836 78.071 808.833 72.6721C803.352 65.2799 795.551 62.6785 794.353 62.2971C784.055 58.9882 779.419 63.8228 759.225 65.5918C746.521 66.7025 737.868 65.7105 737.677 64.2122C737.471 62.6037 747.284 62.0574 752.331 54.2673C752.504 54.003 756.343 47.9703 754.427 45.7337C751.93 42.8243 742.423 49.6759 721.772 56.0578C711.847 59.1212 706.886 60.6584 702.658 60.6421C697.34 60.6258 696.359 59.5127 673.818 53.6393C668.384 52.226 662.725 50.8209 655.711 52.1967C652.181 52.8898 648.572 53.5997 646.794 56.3327C643.629 61.1873 648.354 69.2085 654.014 78.5908C661.784 91.463 665.663 97.9011 672.816 101.428C679.804 104.874 686.293 104.476 697.663 108.828C702.149 110.544 705.084 112.117 706.246 112.755C709.93 114.788 709.913 115.263 712.876 116.814C719.387 120.226 721.512 118.983 723.392 121.41C724.853 123.287 724.426 126.639 723.769 133.289C723.089 140.148 721.89 141.798 722.527 146.104C723.01 149.363 724.602 154.511 726.494 154.53C729.559 154.561 732.966 141.073 734.093 130.214C735.208 119.421 733.718 114.571 736.015 113.619C739.099 112.338 746.54 119.096 747.974 126.937C748.832 131.632 747.35 135.764 745.81 140.076C743.317 147.046 740.671 148.589 739.952 154.499C739.566 157.591 739.582 163.032 741.597 163.726Z" fill="#EDEBDF"/>
<path d="M728.093 144.011C728.208 143.841 730.83 140.032 732.402 140.601C735.452 141.699 731.83 158.248 731.591 159.341C730.051 166.257 727.935 171.657 726.44 175.049C726.638 167.707 726.428 161.867 726.195 157.847C725.865 152.318 725.378 148.019 728.093 144.011Z" fill="#8D0000"/>
<path d="M750.162 149.35C750.363 149.314 752.71 148.936 753.709 150.219C756.51 153.811 745.664 166.316 744.056 168.17C739.848 173.019 735.5 176.761 731.575 179.629C733.236 177.164 735.712 173.274 738.283 168.197C739.315 166.156 739.886 164.869 741.868 160.896C746.347 151.934 747.803 149.764 750.162 149.35Z" fill="#8D0000"/>
<path d="M807.376 121.608C806.928 127.255 813.285 130.699 820.189 138.384C822.913 141.413 826.551 146.029 829.979 152.571C828.933 148.352 827.095 142.226 823.773 135.268C822.69 132.997 814.456 115.756 809.868 117.005C808.299 117.436 807.508 119.92 807.376 121.608Z" fill="#8D0000"/>
<path d="M807.743 78.1309C808.401 83.1004 812.172 86.3637 813.494 87.5596C817.38 91.0736 822.383 96.865 827.745 107.039C826.575 96.8153 823.279 89.6768 820.78 85.3654C817.509 79.7245 811.348 71.5734 808.83 72.6605C807.444 73.2747 807.53 76.5372 807.743 78.1309Z" fill="#8D0000"/>
<path d="M739.436 49.9885C739.756 51.1711 743.777 51.3058 746.877 50.7265C751.846 49.8021 754.7 47.0006 757.85 44.6586C761.105 42.2356 766.084 39.2523 773.394 37.159C768.826 37.6203 762.094 38.6978 754.404 41.5276C748.53 43.6837 738.91 48.039 739.436 49.9885Z" fill="#8D0000"/>
</svg>
