<svg width="1601" height="946" viewBox="0 0 1601 946" fill="none" xmlns="http://www.w3.org/2000/svg">
<path d="M1330.82 53.9336C1345.51 67.0509 1363.56 64.7553 1383.6 61.8404C1381.83 53.2049 1379.61 45.2252 1378.64 37.0998C1375.5 9.88153 1399.17 -6.04141 1431.2 2.15688C1442.35 4.99895 1453.1 9.15278 1463.45 13.6345C1473.18 17.8247 1482.12 23.181 1489.51 27.0433C1512.2 18.4442 1532.68 8.35114 1554.8 2.95849C1583.38 -4.03738 1602.76 8.20541 1600.02 32.6909C1597.72 53.2778 1589.93 74.1561 1579.98 93.249C1570.82 110.848 1567.99 126.334 1573.56 145.426C1581.26 171.661 1586.66 199.061 1586.83 225.952C1588.03 389.808 1588.07 553.665 1586.79 717.484C1586.57 746.233 1580.51 775.346 1572.72 803.475C1568.08 820.2 1571 833.463 1578.16 848.73C1587.81 869.353 1597.14 890.924 1599.89 912.64C1602.98 937.162 1583.87 948.895 1554.76 942.518C1537.37 938.729 1520.7 931.259 1505.26 923.316C1494.68 917.887 1488.09 917.778 1478.18 923.863C1467.12 930.676 1454.6 937.053 1441.51 940.113C1428.99 943.065 1414.87 941.498 1401.47 941.899C1397.04 936.798 1392.67 931.66 1388.24 926.559C1384.83 913.442 1381.43 900.361 1377.14 883.891C1367.58 883.891 1351.57 883.891 1335.55 883.891C1341.04 901.308 1337.45 906.774 1314.45 909.324C1293.35 911.656 1271.93 913.041 1250.65 913.077C950.442 913.369 650.142 913.332 349.797 913.15C329.269 913.15 308.609 911.729 288.214 909.616C278.836 908.632 269.943 904.369 260.83 901.6C259.016 898.758 257.202 895.952 255.388 893.11C261.405 890.851 267.422 888.592 273.438 886.333C276.402 883.782 279.366 881.232 282.286 878.681C303.345 868.588 315.157 883.126 330.198 890.268C341.037 895.442 353.336 901.855 365.015 901.891C655.45 902.547 945.841 902.438 1236.28 902.183C1244.64 902.183 1255.96 901.308 1260.83 896.972C1289.9 871.066 1327.68 868.296 1365.86 870.556C1387.4 871.831 1397.93 865.126 1410.27 852.191C1426.86 834.811 1446.42 818.67 1467.7 805.224C1483.49 795.241 1497.78 803.075 1498.44 819.872C1498.75 827.597 1497.78 836.013 1494.24 843.046C1486.45 858.495 1476.63 873.252 1465.75 891.507C1478.53 893.474 1492.96 899.741 1502.29 896.353C1526.58 887.644 1551.31 836.633 1547.68 814.406C1543.66 789.848 1539.41 765.035 1539.32 740.33C1538.61 561.863 1538.83 383.359 1539.1 204.891C1539.14 188.568 1538.3 171.552 1543.35 156.066C1555.07 120.139 1545.2 89.751 1517.47 61.5125C1497.87 41.5451 1492.16 40.707 1470.75 56.3749C1480.48 78.5649 1490.75 99.1153 1497.96 120.358C1499.99 126.334 1495.26 137.41 1489.24 140.69C1483.62 143.75 1469.86 142.074 1463.76 138.176C1447.66 127.9 1430 117.152 1419.78 103.196C1402.44 79.4394 1380.63 70.9132 1347.98 74.9213C1337.81 76.1601 1326.39 70.5124 1315.51 68.0347C1320.64 63.2979 1325.73 58.634 1330.82 53.9336ZM1565.25 146.775C1561.57 146.957 1557.9 147.139 1554.19 147.321C1552.06 364.339 1551.49 581.357 1554.5 798.374C1558.03 798.556 1561.62 798.739 1565.16 798.957C1568.21 778.953 1573.83 758.95 1573.87 738.946C1574.58 561.025 1574.58 383.104 1573.87 205.146C1573.87 185.689 1568.25 166.232 1565.25 146.775ZM1556 95.2165C1570.38 71.3869 1569.49 44.1321 1553.39 35.3873C1537.77 26.8611 1523.22 31.7436 1510.26 39.5775C1525.69 58.3789 1540.47 76.3423 1556 95.2165ZM1509.72 906.519C1524.94 913.624 1539.85 919.089 1554.8 908.96C1569.98 898.685 1569.76 871.284 1555.65 850.588C1540.69 868.77 1525.74 886.952 1509.72 906.519ZM1411.02 876.495C1428.32 869.827 1447.21 898.903 1461.9 873.798C1465 868.515 1459.51 855.361 1453.05 851.645C1439.47 843.847 1420.98 854.268 1411.02 876.495ZM1406.47 67.0145C1422.17 91.6822 1441.06 101.557 1453.76 93.3947C1460.04 89.3502 1464.91 75.9415 1461.5 70.9132C1445.93 47.9944 1428.15 73.3545 1406.47 67.0145ZM1417.17 24.7477C1448.98 50.7636 1457.17 51.7838 1478.45 32.5816C1459.73 21.7235 1440.4 16.1122 1417.17 24.7477ZM1416.78 919.454C1441.2 928.417 1459.03 925.612 1477.92 910.527C1453.89 895.296 1453.89 895.296 1416.78 919.454ZM1444.6 894.276C1427.08 890.705 1415.4 888.337 1398.99 884.985C1403.02 896.79 1405.58 904.26 1409.08 914.498C1421.51 907.43 1430.67 902.219 1444.6 894.276ZM1401.42 60.966C1416.82 57.2494 1428.1 54.5531 1444.96 50.4721C1430.05 42.784 1420.18 37.7193 1406.73 30.7963C1404.7 42.5654 1403.33 50.3628 1401.42 60.966Z" fill="#EDEBDF"/>
<path d="M282.202 878.758C279.241 881.309 276.28 883.86 273.364 886.411C254.98 884.516 236.553 882.657 215.473 880.507C218.125 892.68 220.732 900.771 221.528 909.008C224.047 934.447 199.079 951.576 169.868 943.303C152.722 938.456 136.151 931.312 120.905 923.221C111.139 918.046 105.35 918.629 95.7159 923.112C78.6582 931.057 60.7608 939.112 41.9796 942.938C15.8628 948.223 -1.68106 937.18 0.616874 915.24C2.82642 894.028 9.85279 872.343 20.1493 852.809C29.7829 834.513 32.1251 818.477 26.4686 798.906C19.0445 773.211 13.7416 746.424 13.5648 720.11C12.4601 556.871 12.3275 393.594 13.609 230.355C13.83 201.016 19.6632 171.277 27.5292 142.594C32.3018 125.209 29.4294 111.36 21.696 95.6156C12.1949 76.2265 3.04738 55.817 0.395919 35.2617C-3.13936 7.96401 17.3211 -4.8285 48.9618 3.37176C69.6432 8.72925 88.6453 18.6061 110.255 27.2072C144.68 10.9161 179.856 -18.6777 224.268 16.4558L223.781 15.9456C221.66 30.7425 219.583 45.5394 216.976 63.7986C232.531 57.3477 252.859 76.3359 263.067 52.9014C265.851 54.2499 268.591 55.5619 271.375 56.9104C273.099 58.186 274.866 59.4615 276.59 60.7371C280.081 63.835 283.528 66.9329 287.019 70.0308C286.312 71.5615 285.649 73.0922 284.942 74.6594C259.488 74.6594 230.145 68.1356 209.684 76.4452C188.075 85.2286 175.923 108.918 157.848 124.699C145.696 135.305 130.052 150.831 111.58 140.99C91.2968 130.13 101.858 111.178 108.973 96.2351C115.513 82.4587 125.015 69.6663 135.355 53.0107C120.684 51.48 105.703 45.8309 97.0858 49.7671C69.4664 62.3772 48.6967 110.048 53.5577 135.706C57.7558 157.755 60.9818 180.242 61.026 202.51C61.6446 382.77 61.5563 563.03 61.2027 743.29C61.1585 762.642 62.3075 783.052 55.5463 801.092C43.6147 832.763 59.6119 856.453 79.5862 880.106C99.9582 904.197 102.742 904.306 134.162 887.578C132.262 885.136 129.92 882.876 128.594 880.252C119.491 861.993 109.238 843.952 102.433 825.11C100.312 819.279 105.305 808.163 111.36 804.883C117.06 801.821 130.671 803.461 136.902 807.324C152.015 816.655 168.675 826.677 177.867 839.725C196.471 866.075 220.821 875.842 256.792 870.776C264.437 869.501 273.673 875.842 282.202 878.758ZM34.6439 146.603C31.7715 168.871 26.5128 191.139 26.4244 213.408C25.7174 385.722 25.7174 558 26.336 730.315C26.4244 750.141 31.3296 769.968 34.4672 789.758C34.9975 793.074 37.7815 796.136 41.0516 802.076C51.7017 756.337 50.0224 171.641 34.6439 146.603ZM89.8385 39.8903C70.2177 28.9202 53.6903 28.1184 43.217 37.9222C30.0923 50.2044 31.5948 79.0328 45.6475 93.6111C60.2747 75.8256 75.0345 57.8579 89.8385 39.8903ZM93.418 909.919C74.7694 887.213 59.7886 868.954 41.4494 846.613C38.6653 861.41 33.8043 872.671 35.3068 883.386C36.6767 893.3 41.9355 907.222 50.7295 910.903C61.2469 915.349 77.2882 910.757 93.418 909.919ZM191.124 877.154C180.43 855.141 163.019 845.629 147.331 850.913C132.483 855.943 132.306 867.022 138.581 875.15C155.197 896.616 172.255 872.489 191.124 877.154ZM190.108 72.9829C166.112 60.7371 146.182 58.1131 140.26 67.1151C133.985 76.6639 131.157 87.0509 145.74 93.7569C160.235 100.354 177.69 91.8981 190.108 72.9829ZM183.7 24.8018C158.776 16.2371 139.465 21.704 121.082 33.3301C145.784 51.1884 147.287 51.0062 183.7 24.8018ZM119.358 912.105C140.305 922.784 159.484 930 182.993 920.597C151.441 895.158 148.789 894.721 119.358 912.105ZM199.83 884.006C182.861 888.416 171.901 891.259 155.462 895.523C170.531 903.14 180.121 907.987 192.804 914.402C195.278 903.614 197.09 895.924 199.83 884.006ZM192.759 29.8313C178.618 37.8493 169.515 43.0246 156.169 50.6053C172.52 54.5414 183.833 57.2384 199.432 60.9923C197.046 49.8764 195.411 42.1499 192.759 29.8313Z" fill="#EDEBDF"/>
<path d="M276.75 60.5293C275.025 59.2501 273.255 57.9708 271.53 56.6916C269.23 52.4154 266.929 48.1391 262.417 39.8059C283.386 37.0647 301.567 33.556 320.014 32.4961C342.752 31.1803 365.667 31.7651 388.493 31.7285C673.559 31.692 958.624 31.5457 1243.69 31.8747C1269.35 31.9112 1295.09 34.287 1320.57 36.8088C1331.23 37.8688 1341.94 42.0354 1330.79 53.6215C1325.7 58.3363 1320.62 63.0146 1315.53 67.7295C1296.46 72.7733 1284.03 63.0512 1269.92 55.0103C1259.79 49.2356 1247.01 43.1319 1235.37 43.0953C945.264 42.4374 655.2 42.4374 365.092 43.0953C353.413 43.1319 339.965 48.6508 330.543 54.9373C313.202 66.6696 297.188 74.6738 276.75 60.5293Z" fill="#EDEBDF"/>
<path d="M1389.05 926.568C1393.48 931.663 1397.86 936.795 1402.29 941.89C1379.93 928.715 1356.58 937.486 1333.33 939.488C1315.79 940.98 1297.99 941.053 1280.32 941.053C954.257 941.162 628.196 941.38 302.135 940.943C274.852 940.907 247.526 936.321 220.243 933.847C220.376 931.517 220.509 929.188 220.686 926.895C225.779 926.641 230.917 925.913 235.922 926.277C261.565 927.987 287.165 931.59 312.764 931.627C636.611 931.991 960.457 932.027 1284.3 931.59C1312.07 931.554 1339.84 927.441 1367.66 925.622C1374.7 925.112 1381.92 926.204 1389.05 926.568Z" fill="#EDEBDF"/>
<path d="M224.244 15.7397C236.453 12.3225 248.352 7.2868 260.915 5.88398C279.803 3.76176 299.089 3.61787 318.243 3.61787C639.566 3.50996 960.844 3.40208 1282.17 3.76178C1308.53 3.79775 1334.85 7.03495 1361.17 9.19314C1365.73 9.55284 1370.06 12.0348 1374.18 16.4951C1369.66 16.8907 1365.15 17.754 1360.68 17.5382C1329.9 16.0634 1299.11 13.006 1268.28 12.97C952.13 12.6103 635.983 12.6822 319.836 12.934C294.887 12.97 269.983 15.5958 245.034 16.6389C238.001 16.9267 230.879 15.7397 223.757 15.2361C223.757 15.2361 224.244 15.7397 224.244 15.7397Z" fill="#EDEBDF"/>
<path d="M1319.88 640.842C1318.92 647.055 1320.21 652.165 1322.6 656.988C1329.83 671.568 1342 680.583 1356.73 686.416C1366.11 690.131 1375.92 691.483 1386 690.283C1391.12 689.677 1391.22 689.358 1388.61 684.691C1381.36 671.786 1370.8 662.134 1358.68 653.981C1350.24 648.306 1341.15 644.106 1331.17 642.076C1327.53 641.343 1323.76 641.251 1319.88 640.842Z" fill="#8D0000"/>
<path d="M1386.29 699.044C1382.85 701.413 1379.46 703.095 1377.43 707.42C1373.49 715.815 1365.73 720.056 1356.96 721.782C1337.09 725.685 1321.02 715.123 1315.37 694.911C1314.25 690.891 1312.96 690.291 1309.09 691.996C1305.25 693.69 1303.36 696.877 1302.76 700.826C1300.99 712.626 1305.09 722.379 1314.04 729.881C1329.72 743.017 1347.52 740.66 1364.21 730.386C1374.71 723.924 1381.95 714.493 1385.83 702.668C1386.12 701.772 1386.37 700.855 1386.59 699.942C1386.63 699.761 1386.46 699.535 1386.29 699.044Z" fill="#8D0000"/>
<path d="M1422.38 783.589C1429.54 784.503 1436.01 780.137 1437.42 772.93C1438.66 766.611 1438.96 759.994 1438.79 753.537C1438.3 735.231 1438.86 717.013 1442.45 699.018C1446.24 679.985 1453.18 662.085 1464.57 646.338C1469.14 640.015 1475.19 634.567 1481.33 629.656C1484.51 627.106 1489.25 625.774 1493.44 625.332C1502.1 624.412 1507.85 629.943 1508.44 638.67C1508.48 639.352 1508.47 640.033 1508.52 641.718C1510.07 639.993 1511.16 639.022 1511.95 637.845C1516.05 631.728 1516.79 625.167 1513.29 618.673C1509.74 612.085 1503.63 609.342 1496.33 609.807C1485.97 610.467 1477.77 615.676 1471.54 623.554C1449.57 651.351 1437.78 683.164 1435.78 718.452C1435.06 731.094 1435.72 743.811 1435.66 756.496C1435.64 760.159 1435.5 763.846 1435.07 767.489C1434.22 774.972 1430.94 780.805 1422.38 783.589Z" fill="#EDEBDF"/>
<path d="M1398.29 679.066C1416.15 660.451 1417.38 626.864 1394.24 609.123C1384.9 601.956 1374.05 599.953 1362.59 603.753C1358.47 605.119 1354.78 607.308 1352.8 611.46C1350.09 617.164 1353.76 623.112 1360.1 623.237C1363.06 623.293 1366.02 623.107 1368.99 622.994C1393.3 622.05 1408.07 644.718 1399.56 668.05C1398.31 671.471 1397.9 675.189 1397.09 678.772C1397.49 678.866 1397.89 678.964 1398.29 679.066Z" fill="#8D0000"/>
<path d="M1436.67 694.383C1439.04 685.494 1441.2 676.544 1443.81 667.724C1451.06 643.225 1462.24 620.584 1476.16 599.186C1480.93 591.858 1484.87 583.979 1488.91 576.212C1490.13 573.853 1490.66 571.05 1491.07 568.381C1492.59 558.578 1486.39 551.369 1476.5 551.221C1466.52 551.072 1455.14 558.984 1451.29 569.178C1452.63 568.334 1453.5 567.658 1454.49 567.183C1456.92 566.002 1459.3 564.474 1461.88 563.86C1468.41 562.314 1473.3 565.733 1472.6 572.313C1471.9 578.888 1469.93 585.489 1467.55 591.706C1459.89 611.702 1450.38 630.997 1444.82 651.79C1441.28 665.043 1437.17 678.186 1436.43 692.028C1436.38 692.824 1436.28 693.609 1436.19 694.401C1436.35 694.393 1436.51 694.391 1436.67 694.383Z" fill="#EDEBDF"/>
<path d="M1386.46 694.557C1353.13 694.504 1325.52 684.74 1311.93 650.611C1308.27 654.906 1306.95 659.716 1307.04 664.879C1307.21 674.901 1311.65 683.131 1318.44 690.186C1332.61 704.911 1356.51 709.993 1375.33 702.135C1379.35 700.453 1382.98 697.839 1386.8 695.653C1386.69 695.283 1386.58 694.915 1386.46 694.557Z" fill="#8D0000"/>
<path d="M1408.7 804.019C1406.1 799.422 1402.41 798.723 1398.37 798.974C1396.13 799.119 1393.93 799.748 1391.69 799.918C1387.36 800.236 1384.58 798.716 1383.79 794.469C1382.99 790.142 1382.49 785.435 1383.29 781.177C1386.93 762.136 1395.7 745.378 1408.21 730.754C1415.51 722.239 1423.94 714.708 1431.54 706.441C1433.54 704.268 1434.33 700.983 1435.68 698.215C1435.31 697.954 1434.93 697.698 1434.55 697.433C1430.38 701.102 1426.16 704.71 1422.06 708.444C1400.34 728.2 1384.03 751.557 1375.22 779.764C1373.68 784.693 1372.86 789.915 1372.31 795.068C1371.98 798.168 1372.4 801.519 1373.25 804.54C1374.69 809.709 1377.79 813.851 1383.49 814.696C1389.2 815.54 1393.92 813.267 1397.57 808.825C1398.09 808.185 1398.54 807.483 1399.01 806.792C1401.63 802.929 1403.53 802.283 1408.7 804.019Z" fill="#EDEBDF"/>
<path d="M1394.26 685.503C1395.99 674.273 1393.7 664.105 1387.58 654.856C1377.72 639.948 1365.01 629.213 1346.23 628.363C1341.83 628.167 1337.27 629.011 1332.95 630.074C1330.52 630.676 1328.44 632.695 1325.36 634.598C1355.25 643.347 1380.36 656.629 1394.26 685.503Z" fill="#8D0000"/>
<path d="M1384.76 751.809C1382.62 754.871 1380.36 757.856 1378.36 760.996C1369.3 775.19 1360.44 789.518 1351.27 803.632C1344.59 813.884 1335.11 820.816 1323.81 825.334C1322.28 825.953 1320.75 826.611 1319.29 827.4C1313.73 830.415 1311.39 835.47 1312.69 841.713C1313.2 844.148 1313.93 846.535 1314.52 848.953C1315.31 852.209 1315.37 855.337 1312.54 857.88C1312.82 858.173 1313.1 858.456 1313.39 858.749C1315.25 857.152 1317.46 855.822 1318.91 853.909C1323.05 848.445 1326.21 842.095 1330.95 837.271C1340.83 827.221 1349.83 816.528 1356.84 804.378C1365.41 789.507 1373.24 774.205 1381.37 759.08C1382.63 756.724 1383.8 754.315 1385.01 751.929C1384.93 751.882 1384.85 751.844 1384.76 751.809Z" fill="#EDEBDF"/>
<path d="M1446.01 696.046C1451.16 693.711 1456.22 691.112 1461.5 689.097C1468.5 686.421 1470.09 687.838 1468.85 695.224C1467.08 705.844 1465.05 716.422 1463.34 727.046C1461.79 736.701 1461.5 746.378 1463.89 755.978C1465.37 761.934 1467.87 766.464 1471.03 769.031C1463.93 747.852 1469.83 727.368 1474.1 706.809C1475.55 699.857 1477.19 692.951 1478.46 685.973C1479.47 680.412 1477.19 678.222 1471.53 678.97C1462.71 680.135 1455.17 684.477 1447.92 689.164C1446.24 690.26 1445.92 693.49 1444.97 695.738C1445.31 695.837 1445.66 695.944 1446.01 696.046Z" fill="#EDEBDF"/>
<path d="M1488.27 733.647C1482.75 736.328 1480.24 741.392 1481.82 747.31C1482.72 750.649 1484.53 753.853 1486.43 756.784C1489.69 761.793 1490.17 764.576 1487.53 767.297C1485.08 769.815 1479.28 769.953 1475.6 767.415C1474.18 766.434 1473.01 765.08 1471.8 763.95C1472.25 768.871 1476.77 774.229 1482.35 776.123C1487.91 778.006 1493.12 777.687 1497.43 773.143C1501.6 768.746 1502.07 763.51 1499.81 758.295C1498.19 754.558 1495.87 750.969 1493.21 747.874C1489.73 743.824 1487.26 739.674 1488.27 733.647Z" fill="#EDEBDF"/>
<path d="M1414.68 702.027C1414.15 697.688 1413.71 694.059 1413.25 690.428C1412.54 684.73 1407.6 681.915 1402.33 684.305C1396.76 686.843 1393.48 691.311 1392.23 697.213C1391.24 701.85 1395.17 706.3 1400.66 707.112C1406.54 707.992 1410.67 704.36 1414.68 702.027Z" fill="#EDEBDF"/>
<path d="M1362.83 627.701C1378.27 636.573 1392.28 646.261 1396.55 664.829C1400.46 658.291 1398.25 644.902 1392.11 637.498C1384.36 628.147 1372.72 624.138 1362.83 627.701Z" fill="#8D0000"/>
<path d="M1320.41 696.879C1322.99 707.528 1334.72 717 1346.28 718.602C1356.62 720.039 1367.96 715.433 1372.21 707.873C1353.31 713.077 1336.08 710.542 1320.41 696.879Z" fill="#8D0000"/>
<path d="M1390.99 704.815C1387.63 710.131 1384.25 715.241 1381.2 720.534C1380.69 721.411 1381.1 723.542 1381.87 724.327C1384.94 727.453 1392.23 728.364 1396.27 726.451C1396.68 726.261 1397.3 726.015 1397.38 725.689C1398.07 722.959 1398.61 720.199 1399.3 717.465C1400.12 714.223 1397.94 712.464 1396.07 710.489C1394.3 708.628 1392.64 706.662 1390.99 704.815Z" fill="#EDEBDF"/>
<path d="M1423.14 718.629C1418.22 722.686 1418.21 722.688 1420.64 727.475C1425.01 736.091 1427.99 745.183 1429.44 754.727C1429.83 757.267 1429.9 759.953 1429.54 762.487C1428.92 766.773 1426.45 767.888 1422.26 765.959C1421.28 768.554 1421.38 770.816 1423.95 772.301C1426.72 773.904 1428.93 772.374 1430.25 770.164C1431.41 768.189 1432.28 765.771 1432.41 763.499C1433.29 747.893 1428.37 733.509 1423.14 718.629Z" fill="#EDEBDF"/>
<path d="M1376.81 723.803C1372.01 728.959 1367.08 734.01 1362.5 739.358C1361.42 740.617 1361.1 742.903 1361.17 744.684C1361.35 748.88 1364.71 750.717 1368.39 748.719C1374.63 745.322 1377.06 739.663 1377.27 732.827C1377.36 730.02 1377.4 727.21 1377.47 724.406C1377.25 724.206 1377.03 724.009 1376.81 723.803Z" fill="#EDEBDF"/>
<path d="M1404.78 678.356C1408.02 679.835 1410.76 681.162 1413.56 682.34C1417.37 683.942 1420.53 682.993 1422.85 679.629C1423.59 678.557 1424.22 677.408 1424.92 676.308C1427.09 672.905 1426.61 671.659 1422.82 669.939C1419.78 668.554 1416.84 666.924 1413.85 665.402C1411.12 669.304 1407.97 673.795 1404.78 678.356Z" fill="#EDEBDF"/>
<path d="M1425.77 634.459C1422.32 635.261 1421.01 637.967 1419.97 640.916C1419.77 641.473 1419.59 642.032 1419.46 642.607C1417.93 648.996 1416.41 655.39 1414.9 661.714C1424.96 658.734 1432.16 648.603 1425.77 634.459Z" fill="#EDEBDF"/>
<path d="M1299.45 696.686C1302.87 693.296 1306.13 690.063 1309.7 686.524C1307.86 682.616 1305.57 677.769 1303.27 672.923C1295.8 676.572 1293.72 690.544 1299.45 696.686Z" fill="#8D0000"/>
<path d="M1417.32 757.785C1411.74 760.625 1409.14 765.004 1409.67 770.391C1410.15 775.165 1414.48 780.736 1418.59 781.847C1422.16 782.812 1425.91 781.487 1428.3 778.304C1426.95 778.368 1425.7 778.537 1424.47 778.473C1418.74 778.17 1416.1 774.126 1418.09 768.759C1419.79 764.175 1419.7 762.749 1417.32 757.785Z" fill="#EDEBDF"/>
<path d="M1332.68 624.544C1339.36 624.337 1346.03 624.128 1353.25 623.908C1348.76 620.629 1345.74 616.945 1348.63 611.328C1340.09 611.877 1331.94 618.81 1332.68 624.544Z" fill="#8D0000"/>
<path d="M1316.05 647.817C1316.11 645.659 1316.21 644.261 1316.17 642.861C1316.1 640.001 1317.04 638.464 1320.24 637.895C1324.49 637.141 1321.55 633.779 1322.19 631.447C1318.23 630.78 1315.52 632.612 1313.24 635.023C1311.89 636.442 1310.68 638.242 1310.11 640.09C1309.42 642.353 1309.49 644.848 1309.22 647.242C1311.38 647.418 1313.53 647.601 1316.05 647.817Z" fill="#8D0000"/>
<path d="M1360.21 739.449C1354.45 741.088 1352.01 744.827 1351.37 750.114C1351.02 752.972 1350.45 755.802 1349.96 758.762C1359.14 755.692 1357.34 746.509 1360.21 739.449Z" fill="#EDEBDF"/>
<path d="M1426.35 617.225C1422.35 623.466 1415.81 628.352 1417.58 637.396C1427.22 626.902 1428.58 623.8 1426.35 617.225Z" fill="#EDEBDF"/>
<path d="M1408.55 708.399C1410.19 710.252 1411.64 711.889 1413.32 713.8C1414.83 711.78 1418.63 711.432 1416.6 707.822C1414.79 704.595 1414.42 704.669 1408.55 708.399Z" fill="#EDEBDF"/>
<path d="M285.295 655.943C280.07 652.447 274.893 651.456 269.51 651.588C253.241 651.978 239.928 659.195 228.415 670.085C221.085 677.014 215.711 685.337 212.539 694.98C210.925 699.875 211.171 700.103 216.507 699.703C231.265 698.59 244.474 693.102 256.989 685.555C265.699 680.305 273.347 673.842 279.402 665.66C281.605 662.669 283.282 659.292 285.295 655.943Z" fill="#8D0000"/>
<path d="M204.48 691.536C203.783 687.424 203.693 683.636 200.631 679.969C194.688 672.852 194.123 664.027 196.266 655.348C201.128 635.686 217.49 625.59 238.195 629.011C242.313 629.692 243.403 628.775 243.494 624.546C243.58 620.352 241.492 617.29 238.163 615.085C228.216 608.494 217.645 608.086 207.063 613.027C188.532 621.688 183.145 638.817 185.404 658.281C186.825 670.526 192.313 681.072 201.39 689.587C202.076 690.235 202.805 690.842 203.539 691.429C203.686 691.542 203.963 691.48 204.48 691.536Z" fill="#8D0000"/>
<path d="M112.608 688.513C108.75 694.621 109.975 702.325 115.91 706.652C121.112 710.449 126.983 713.513 132.909 716.086C149.703 723.385 165.977 731.593 180.771 742.448C196.418 753.928 209.71 767.779 219.167 784.757C222.964 791.576 225.346 799.361 227.204 806.995C228.17 810.959 227.374 815.818 226.005 819.799C223.175 828.043 215.733 830.917 207.578 827.757C206.941 827.508 206.326 827.213 204.78 826.544C205.69 828.674 206.106 830.078 206.839 831.291C210.65 837.593 216.286 841.032 223.652 840.602C231.123 840.17 236.188 835.798 238.854 828.981C242.632 819.317 241.377 809.682 236.87 800.707C220.964 769.043 197.112 744.918 165.977 728.189C154.822 722.197 143.019 717.419 131.547 712.004C128.235 710.439 124.956 708.747 121.832 706.826C115.413 702.886 111.511 697.451 112.608 688.513Z" fill="#EDEBDF"/>
<path d="M217.51 710.857C226.834 734.91 256.754 750.219 282.612 736.746C293.055 731.308 299.458 722.317 300.856 710.327C301.36 706.016 300.935 701.747 298.007 698.2C293.985 693.328 287.041 694.147 284.25 699.836C282.949 702.495 281.864 705.259 280.714 707.995C271.294 730.429 244.508 734.235 226.96 716.658C224.387 714.081 221.192 712.136 218.285 709.892C218.033 710.21 217.775 710.532 217.51 710.857Z" fill="#8D0000"/>
<path d="M187.413 739.169C194.47 745.068 201.667 750.812 208.556 756.906C227.698 773.826 243.495 793.525 257.004 815.185C261.631 822.602 267.105 829.506 272.438 836.449C274.057 838.557 276.374 840.22 278.621 841.718C286.863 847.237 296.018 844.665 300.332 835.761C304.681 826.788 302.32 813.129 294.71 805.329C294.909 806.9 295.152 807.976 295.167 809.07C295.208 811.775 295.59 814.573 295.054 817.176C293.694 823.75 288.532 826.73 282.863 823.318C277.2 819.903 272.05 815.328 267.421 810.544C252.535 795.155 239.067 778.379 222.573 764.551C212.059 755.739 201.884 746.46 189.651 739.94C188.949 739.564 188.282 739.136 187.6 738.723C187.539 738.874 187.474 739.018 187.413 739.169Z" fill="#EDEBDF"/>
<path d="M208.471 693.591C222.607 663.402 243.125 642.504 279.798 644.616C277.451 639.483 273.652 636.25 268.936 634.147C259.781 630.067 250.444 630.615 241.182 633.784C221.845 640.409 207.142 659.916 206.311 680.293C206.132 684.655 206.967 689.049 207.335 693.432C207.716 693.492 208.098 693.543 208.471 693.591Z" fill="#8D0000"/>
<path d="M99.8647 667.487C105.132 667.068 107.326 664.018 108.803 660.254C109.619 658.163 109.981 655.899 110.773 653.797C112.313 649.742 114.864 647.867 119.047 648.946C123.309 650.046 127.787 651.579 131.305 654.112C147.027 665.45 158.505 680.489 166.472 698.006C171.108 708.214 174.367 719.043 178.649 729.422C179.773 732.152 182.414 734.262 184.353 736.653C184.748 736.425 185.139 736.191 185.54 735.96C183.976 730.63 182.491 725.28 180.839 719.985C172.113 691.954 157.837 667.299 135.999 647.389C132.182 643.911 127.797 640.959 123.359 638.284C120.688 636.677 117.474 635.639 114.377 635.132C109.08 634.26 104.017 635.317 100.842 640.127C97.6632 644.947 97.7315 650.177 100.215 655.362C100.573 656.11 101.02 656.813 101.449 657.528C103.84 661.541 103.625 663.532 99.8647 667.487Z" fill="#EDEBDF"/>
<path d="M213.38 704.485C222.829 710.796 233.014 713.015 243.982 711.377C261.66 708.743 276.761 701.759 285.469 685.098C287.506 681.192 288.666 676.707 289.527 672.346C290.008 669.889 289.059 667.148 288.635 663.553C268.075 686.943 245.424 704.09 213.38 704.485Z" fill="#8D0000"/>
<path d="M157.303 667.854C155.434 664.617 153.682 661.312 151.684 658.165C142.646 643.963 133.404 629.878 124.492 615.595C118.021 605.213 115.744 593.693 116.425 581.542C116.514 579.888 116.564 578.223 116.464 576.57C116.082 570.254 112.49 565.997 106.281 564.542C103.857 563.976 101.386 563.626 98.9481 563.135C95.6641 562.474 92.803 561.207 91.6917 557.573C91.3072 557.704 90.9324 557.838 90.5479 557.97C91.2067 560.336 91.4787 562.9 92.5984 565.025C95.8014 571.085 100.221 576.632 102.589 582.969C107.522 596.171 113.409 608.846 121.461 620.329C131.317 634.38 141.877 647.942 152.149 661.704C153.748 663.847 155.439 665.921 157.09 668.027C157.167 667.974 157.234 667.919 157.303 667.854Z" fill="#EDEBDF"/>
<path d="M181.957 746.926C181.895 752.586 182.114 758.264 181.709 763.899C181.176 771.377 179.22 772.219 173.047 767.98C164.173 761.88 155.443 755.574 146.537 749.534C138.443 744.044 129.792 739.699 120.082 737.806C114.059 736.63 108.899 736.978 105.238 738.754C127.43 741.276 143.501 755.283 160.33 767.84C166.02 772.086 171.584 776.496 177.371 780.595C181.985 783.86 184.935 782.716 186.649 777.27C189.318 768.789 188.571 760.119 187.385 751.57C187.106 749.577 184.311 747.927 182.674 746.117C182.441 746.383 182.196 746.656 181.957 746.926Z" fill="#EDEBDF"/>
<path d="M130.017 769.34C129.92 763.205 126.391 758.788 120.358 757.724C116.954 757.124 113.286 757.408 109.825 757.893C103.91 758.727 101.183 757.991 99.834 754.445C98.5873 751.16 100.913 745.846 104.765 743.589C106.257 742.712 107.976 742.229 109.514 741.604C104.865 739.931 98.0968 741.766 94.0204 746.027C89.965 750.268 88.0551 755.12 90.3509 760.948C92.5716 766.588 97.1195 769.225 102.801 769.382C106.875 769.488 111.108 768.902 115.036 767.802C120.175 766.364 124.982 765.874 130.017 769.34Z" fill="#EDEBDF"/>
<path d="M189.775 716.01C193.933 717.359 197.408 718.493 200.892 719.614C206.357 721.376 210.996 718.089 211.054 712.308C211.111 706.183 208.446 701.325 203.628 697.693C199.842 694.839 194.146 696.524 191.093 701.148C187.809 706.111 189.357 711.384 189.775 716.01Z" fill="#EDEBDF"/>
<path d="M279.053 700.428C264.486 710.672 249.785 719.274 231.152 715.298C235.426 721.604 248.495 725.257 257.801 722.819C269.548 719.753 278.105 710.891 279.053 700.428Z" fill="#8D0000"/>
<path d="M234.282 632.741C223.538 630.581 209.998 637.207 203.661 647.008C197.986 655.777 197.37 667.997 202.425 675.043C205.696 655.716 215.274 641.174 234.282 632.741Z" fill="#8D0000"/>
<path d="M197.263 693.359C193.863 688.07 190.66 682.848 187.153 677.843C186.574 677.01 184.468 676.482 183.431 676.851C179.305 678.304 175.394 684.533 175.423 688.998C175.421 689.451 175.384 690.114 175.646 690.324C177.827 692.108 180.098 693.764 182.285 695.544C184.878 697.656 187.391 696.427 189.975 695.561C192.408 694.748 194.894 694.069 197.263 693.359Z" fill="#EDEBDF"/>
<path d="M171.155 716.654C169.556 710.481 169.559 710.471 164.194 710.65C154.537 710.971 145.039 709.828 135.774 707.111C133.31 706.388 130.843 705.32 128.701 703.918C125.079 701.545 125.111 698.838 128.632 695.851C126.692 693.871 124.598 693.008 122.167 694.708C119.543 696.543 119.996 699.193 121.444 701.316C122.741 703.207 124.566 705.015 126.57 706.094C140.342 713.485 155.456 715.111 171.155 716.654Z" fill="#EDEBDF"/>
<path d="M186.048 672.48C183.403 665.949 180.908 659.348 177.997 652.938C177.313 651.426 175.377 650.167 173.731 649.481C169.851 647.873 166.768 650.138 167.026 654.315C167.464 661.412 171.565 666.008 177.674 669.084C180.181 670.35 182.708 671.58 185.22 672.826C185.497 672.707 185.767 672.592 186.048 672.48Z" fill="#EDEBDF"/>
<path d="M215.415 717.033C212.705 719.346 210.345 721.268 208.094 723.307C205.029 726.088 204.558 729.345 206.626 732.87C207.284 733.995 208.059 735.052 208.76 736.152C210.929 739.554 212.259 739.649 215.417 736.946C217.96 734.771 220.678 732.799 223.322 730.729C220.941 726.604 218.199 721.855 215.415 717.033Z" fill="#EDEBDF"/>
<path d="M246.326 754.612C247.056 751.149 245.158 748.816 242.925 746.627C242.504 746.212 242.075 745.811 241.61 745.446C236.464 741.362 231.313 737.282 226.218 733.243C224.669 743.617 230.805 754.431 246.326 754.612Z" fill="#EDEBDF"/>
<path d="M243.317 613.828C244.942 618.365 246.496 622.681 248.193 627.415C252.515 627.395 257.876 627.367 263.237 627.339C263.088 619.021 251.305 611.23 243.317 613.828Z" fill="#8D0000"/>
<path d="M138.127 694.834C137.911 688.579 135.039 684.374 129.933 682.578C125.406 680.99 118.527 682.561 115.784 685.814C113.399 688.646 113.017 692.6 114.89 696.114C115.402 694.865 115.777 693.662 116.356 692.571C119.053 687.503 123.833 686.824 127.854 690.899C131.291 694.374 132.621 694.897 138.127 694.834Z" fill="#EDEBDF"/>
<path d="M294.655 674.433C292.019 680.576 289.391 686.706 286.539 693.343C291.406 690.665 296.024 689.479 299.894 694.472C303.004 686.501 300.165 676.186 294.655 674.433Z" fill="#8D0000"/>
<path d="M280.593 649.524C282.523 650.489 283.748 651.172 285.032 651.729C287.656 652.87 288.649 654.377 287.813 657.515C286.701 661.685 290.991 660.441 292.833 662.009C295.11 658.704 294.594 655.475 293.372 652.39C292.657 650.567 291.54 648.704 290.104 647.412C288.343 645.83 286.057 644.832 284 643.577C282.927 645.463 281.852 647.333 280.593 649.524Z" fill="#8D0000"/>
<path d="M178.881 650.824C179.828 644.916 177.472 641.121 172.952 638.304C170.509 636.779 168.183 635.072 165.708 633.377C164.613 642.987 173.693 645.243 178.881 650.824Z" fill="#EDEBDF"/>
<path d="M261.703 762.419C257.735 756.159 256.072 748.165 247.128 745.946C252.563 759.12 254.802 761.659 261.703 762.419Z" fill="#EDEBDF"/>
<path d="M186.591 707.757C184.218 708.461 182.124 709.078 179.679 709.799C180.872 712.021 179.582 715.611 183.71 715.3C187.403 715.017 187.49 714.655 186.591 707.757Z" fill="#EDEBDF"/>
<path d="M1325.98 294.407C1325.09 288.627 1326.29 283.871 1328.52 279.381C1335.26 265.81 1346.59 257.415 1360.31 251.979C1369.04 248.518 1378.18 247.254 1387.57 248.365C1392.33 248.926 1392.42 249.223 1389.99 253.567C1383.23 265.579 1373.4 274.567 1362.11 282.16C1354.25 287.445 1345.78 291.358 1336.5 293.252C1333.11 293.937 1329.6 294.024 1325.98 294.407Z" fill="#8D0000"/>
<path d="M1387.83 240.213C1384.64 238.01 1381.48 236.447 1379.59 232.423C1375.93 224.614 1368.71 220.672 1360.54 219.071C1342.04 215.449 1327.08 225.287 1321.81 244.097C1320.76 247.838 1319.56 248.397 1315.96 246.813C1312.39 245.239 1310.63 242.274 1310.08 238.6C1308.44 227.621 1312.26 218.543 1320.59 211.557C1335.2 199.326 1351.77 201.509 1367.3 211.06C1377.06 217.068 1383.8 225.84 1387.4 236.841C1387.68 237.674 1387.91 238.528 1388.11 239.377C1388.15 239.551 1387.99 239.761 1387.83 240.213Z" fill="#8D0000"/>
<path d="M1421.47 161.522C1428.15 160.667 1434.16 164.726 1435.47 171.432C1436.63 177.311 1436.9 183.468 1436.73 189.477C1436.27 206.51 1436.79 223.462 1440.12 240.205C1443.63 257.914 1450.08 274.567 1460.68 289.213C1464.93 295.095 1470.56 300.161 1476.27 304.727C1479.23 307.099 1483.64 308.335 1487.54 308.744C1495.61 309.595 1500.96 304.446 1501.51 296.325C1501.55 295.69 1501.55 295.056 1501.59 293.489C1503.03 295.093 1504.05 295.996 1504.78 297.091C1508.6 302.78 1509.28 308.885 1506.01 314.93C1502.71 321.063 1497.02 323.618 1490.22 323.19C1480.58 322.581 1472.95 317.738 1467.16 310.411C1446.71 284.557 1435.76 254.961 1433.92 222.125C1433.26 210.362 1433.88 198.528 1433.83 186.725C1433.81 183.316 1433.68 179.885 1433.29 176.496C1432.49 169.533 1429.44 164.107 1421.47 161.522Z" fill="#EDEBDF"/>
<path d="M1399 258.795C1415.61 276.106 1416.74 307.36 1395.19 323.88C1386.49 330.555 1376.38 332.424 1365.72 328.894C1361.88 327.626 1358.45 325.591 1356.61 321.728C1354.09 316.421 1357.51 310.886 1363.41 310.766C1366.17 310.712 1368.92 310.883 1371.68 310.987C1394.32 311.852 1408.08 290.751 1400.17 269.044C1399.01 265.862 1398.62 262.402 1397.88 259.069C1398.24 258.981 1398.62 258.89 1399 258.795Z" fill="#8D0000"/>
<path d="M1434.74 244.523C1436.93 252.793 1438.94 261.12 1441.37 269.326C1448.1 292.119 1458.49 313.181 1471.44 333.084C1475.87 339.901 1479.54 347.23 1483.3 354.456C1484.44 356.649 1484.93 359.257 1485.31 361.741C1486.71 370.862 1480.94 377.574 1471.73 377.716C1462.45 377.86 1451.86 370.504 1448.28 361.021C1449.52 361.806 1450.33 362.434 1451.25 362.876C1453.52 363.973 1455.73 365.394 1458.13 365.964C1464.21 367.399 1468.76 364.215 1468.12 358.093C1467.47 351.974 1465.64 345.833 1463.42 340.049C1456.31 321.447 1447.46 303.497 1442.3 284.152C1439 271.822 1435.19 259.594 1434.51 246.714C1434.47 245.974 1434.37 245.243 1434.29 244.506C1434.44 244.513 1434.59 244.521 1434.74 244.523Z" fill="#EDEBDF"/>
<path d="M1388 244.391C1356.96 244.459 1331.25 253.559 1318.59 285.325C1315.18 281.329 1313.95 276.855 1314.04 272.05C1314.2 262.725 1318.34 255.064 1324.66 248.495C1337.87 234.785 1360.11 230.044 1377.63 237.346C1381.38 238.909 1384.76 241.339 1388.31 243.371C1388.21 243.71 1388.1 244.052 1388 244.391Z" fill="#8D0000"/>
<path d="M1408.76 142.519C1406.33 146.798 1402.89 147.45 1399.13 147.218C1397.05 147.085 1395 146.501 1392.91 146.344C1388.88 146.051 1386.3 147.466 1385.56 151.419C1384.81 155.445 1384.34 159.825 1385.09 163.787C1388.46 181.503 1396.62 197.092 1408.26 210.694C1415.04 218.613 1422.89 225.617 1429.96 233.305C1431.82 235.326 1432.56 238.382 1433.81 240.957C1433.47 241.201 1433.11 241.439 1432.76 241.686C1428.88 238.273 1424.95 234.919 1421.14 231.446C1400.93 213.075 1385.76 191.349 1377.57 165.107C1376.14 160.521 1375.38 155.663 1374.87 150.868C1374.57 147.984 1374.96 144.864 1375.75 142.054C1377.1 137.243 1379.98 133.387 1385.29 132.597C1390.61 131.809 1395 133.921 1398.39 138.052C1398.88 138.648 1399.3 139.301 1399.73 139.944C1402.18 143.542 1403.94 144.137 1408.76 142.519Z" fill="#EDEBDF"/>
<path d="M1395.25 252.808C1396.85 263.257 1394.71 272.72 1389.01 281.329C1379.82 295.207 1367.98 305.203 1350.5 306.004C1346.4 306.189 1342.16 305.406 1338.15 304.419C1335.88 303.86 1333.95 301.983 1331.08 300.214C1358.91 292.056 1382.3 279.689 1395.25 252.808Z" fill="#8D0000"/>
<path d="M1386.44 191.119C1384.45 188.271 1382.35 185.495 1380.48 182.573C1372.07 169.371 1363.83 156.043 1355.29 142.914C1349.08 133.378 1340.26 126.933 1329.75 122.735C1328.31 122.16 1326.89 121.548 1325.54 120.815C1320.36 118.012 1318.18 113.31 1319.4 107.5C1319.88 105.234 1320.56 103.012 1321.1 100.762C1321.84 97.7323 1321.9 94.8212 1319.27 92.4564C1319.53 92.1837 1319.79 91.9203 1320.06 91.6476C1321.79 93.1326 1323.85 94.3692 1325.2 96.1481C1329.05 101.23 1331.99 107.137 1336.4 111.624C1345.59 120.97 1353.96 130.915 1360.48 142.217C1368.45 156.05 1375.73 170.285 1383.29 184.355C1384.46 186.546 1385.55 188.787 1386.67 191.007C1386.6 191.051 1386.52 191.08 1386.44 191.119Z" fill="#EDEBDF"/>
<path d="M1443.43 242.973C1448.23 245.144 1452.93 247.559 1457.84 249.431C1464.36 251.918 1465.84 250.598 1464.7 243.726C1463.05 233.845 1461.17 224.003 1459.58 214.118C1458.14 205.134 1457.88 196.13 1460.11 187.196C1461.49 181.652 1463.82 177.436 1466.76 175.046C1460.14 194.757 1465.62 213.815 1469.59 232.943C1470.93 239.412 1472.46 245.837 1473.63 252.329C1474.57 257.503 1472.44 259.542 1467.17 258.85C1458.97 257.77 1451.95 253.734 1445.21 249.376C1443.64 248.358 1443.34 245.352 1442.46 243.261C1442.78 243.163 1443.1 243.064 1443.43 242.973Z" fill="#EDEBDF"/>
<path d="M1482.79 207.962C1477.66 205.471 1475.32 200.759 1476.8 195.252C1477.64 192.145 1479.32 189.162 1481.09 186.433C1484.13 181.771 1484.58 179.181 1482.12 176.651C1479.84 174.309 1474.44 174.184 1471.02 176.547C1469.69 177.46 1468.61 178.721 1467.48 179.773C1467.9 175.194 1472.11 170.205 1477.31 168.44C1482.48 166.685 1487.33 166.979 1491.34 171.205C1495.22 175.294 1495.65 180.166 1493.55 185.02C1492.03 188.498 1489.87 191.839 1487.4 194.721C1484.16 198.486 1481.85 202.349 1482.79 207.962Z" fill="#EDEBDF"/>
<path d="M1414.27 237.421C1413.77 241.458 1413.35 244.835 1412.93 248.214C1412.26 253.516 1407.66 256.139 1402.76 253.917C1397.57 251.559 1394.52 247.403 1393.36 241.912C1392.44 237.598 1396.11 233.455 1401.21 232.696C1406.69 231.874 1410.53 235.251 1414.27 237.421Z" fill="#EDEBDF"/>
<path d="M1365.96 306.617C1380.34 298.353 1393.39 289.33 1397.37 272.05C1401.01 278.132 1398.94 290.592 1393.22 297.484C1386 306.184 1375.16 309.922 1365.96 306.617Z" fill="#8D0000"/>
<path d="M1326.5 242.26C1328.91 232.349 1339.83 223.53 1350.6 222.033C1360.23 220.689 1370.78 224.97 1374.73 232.001C1357.14 227.175 1341.1 229.538 1326.5 242.26Z" fill="#8D0000"/>
<path d="M1392.21 234.842C1389.09 229.897 1385.95 225.144 1383.11 220.22C1382.64 219.404 1383.02 217.42 1383.74 216.69C1386.59 213.78 1393.39 212.928 1397.14 214.705C1397.52 214.882 1398.1 215.111 1398.17 215.415C1398.82 217.955 1399.32 220.522 1399.96 223.065C1400.72 226.082 1398.69 227.72 1396.94 229.558C1395.3 231.292 1393.75 233.122 1392.21 234.842Z" fill="#EDEBDF"/>
<path d="M1422.15 221.966C1417.57 218.193 1417.56 218.191 1419.82 213.736C1423.9 205.716 1426.68 197.254 1428.03 188.372C1428.39 186.009 1428.47 183.509 1428.13 181.151C1427.55 177.163 1425.26 176.127 1421.35 177.924C1420.44 175.51 1420.54 173.405 1422.93 172.022C1425.51 170.529 1427.57 171.951 1428.79 174.007C1429.87 175.844 1430.68 178.093 1430.8 180.208C1431.61 194.734 1427.03 208.117 1422.15 221.966Z" fill="#EDEBDF"/>
<path d="M1379.02 217.18C1374.55 212.384 1369.97 207.687 1365.71 202.713C1364.7 201.542 1364.4 199.415 1364.47 197.757C1364.65 193.852 1367.77 192.141 1371.19 193.999C1377.01 197.156 1379.27 202.421 1379.46 208.782C1379.54 211.394 1379.58 214.009 1379.64 216.617C1379.43 216.804 1379.23 216.993 1379.02 217.18Z" fill="#EDEBDF"/>
<path d="M1405.03 259.451C1408.05 258.073 1410.6 256.837 1413.21 255.739C1416.76 254.246 1419.7 255.128 1421.85 258.257C1422.54 259.254 1423.13 260.323 1423.78 261.346C1425.8 264.512 1425.35 265.671 1421.83 267.274C1418.99 268.564 1416.26 270.082 1413.47 271.501C1410.93 267.877 1408.01 263.699 1405.03 259.451Z" fill="#EDEBDF"/>
<path d="M1424.56 300.291C1421.35 299.547 1420.13 297.029 1419.16 294.286C1418.98 293.768 1418.81 293.248 1418.68 292.712C1417.27 286.768 1415.85 280.82 1414.45 274.936C1423.81 277.698 1430.51 287.121 1424.56 300.291Z" fill="#EDEBDF"/>
<path d="M1306.99 242.454C1310.18 245.608 1313.2 248.614 1316.53 251.905C1314.81 255.543 1312.67 260.054 1310.54 264.565C1303.58 261.173 1301.65 248.173 1306.99 242.454Z" fill="#8D0000"/>
<path d="M1416.75 185.535C1411.56 182.896 1409.15 178.822 1409.64 173.809C1410.09 169.367 1414.12 164.181 1417.94 163.145C1421.27 162.245 1424.76 163.476 1426.99 166.436C1425.73 166.377 1424.57 166.221 1423.42 166.281C1418.08 166.566 1415.63 170.331 1417.48 175.324C1419.06 179.594 1418.97 180.915 1416.75 185.535Z" fill="#EDEBDF"/>
<path d="M1337.89 309.57C1344.11 309.758 1350.32 309.949 1357.04 310.15C1352.86 313.204 1350.04 316.634 1352.73 321.859C1344.78 321.347 1337.2 314.905 1337.89 309.57Z" fill="#8D0000"/>
<path d="M1322.41 287.919C1322.47 289.926 1322.56 291.227 1322.53 292.53C1322.46 295.191 1323.33 296.621 1326.31 297.148C1330.27 297.848 1327.53 300.978 1328.12 303.148C1324.44 303.771 1321.92 302.067 1319.8 299.825C1318.54 298.505 1317.41 296.831 1316.89 295.112C1316.25 293.006 1316.3 290.685 1316.06 288.457C1318.07 288.293 1320.07 288.121 1322.41 287.919Z" fill="#8D0000"/>
<path d="M1363.58 202.633C1358.23 201.112 1355.95 197.634 1355.36 192.714C1355.03 190.055 1354.51 187.422 1354.06 184.668C1362.59 187.514 1360.92 196.06 1363.58 202.633Z" fill="#EDEBDF"/>
<path d="M1425.08 316.328C1421.37 310.522 1415.28 305.979 1416.93 297.562C1425.9 307.317 1427.16 310.202 1425.08 316.328Z" fill="#EDEBDF"/>
<path d="M1408.57 231.499C1410.1 229.774 1411.44 228.25 1413.01 226.471C1414.42 228.35 1417.95 228.671 1416.06 232.031C1414.37 235.031 1414.03 234.961 1408.57 231.499Z" fill="#EDEBDF"/>
<path d="M269.134 285.306C264.271 288.556 259.452 289.475 254.44 289.35C239.294 288.979 226.896 282.257 216.171 272.119C209.343 265.669 204.336 257.922 201.378 248.948C199.873 244.393 200.102 244.181 205.07 244.556C218.81 245.598 231.111 250.712 242.766 257.74C250.878 262.629 258.001 268.646 263.643 276.263C265.696 279.046 267.258 282.189 269.134 285.306Z" fill="#8D0000"/>
<path d="M193.879 252.15C193.233 255.975 193.151 259.499 190.301 262.909C184.772 269.529 184.25 277.74 186.25 285.815C190.786 304.112 206.025 313.514 225.3 310.341C229.133 309.71 230.149 310.564 230.235 314.499C230.318 318.401 228.375 321.248 225.277 323.299C216.02 329.426 206.178 329.801 196.324 325.197C179.066 317.13 174.042 301.19 176.136 283.081C177.452 271.689 182.557 261.879 191.003 253.961C191.642 253.359 192.32 252.794 193.003 252.248C193.143 252.138 193.401 252.195 193.879 252.15Z" fill="#8D0000"/>
<path d="M108.342 254.917C104.748 249.232 105.884 242.065 111.408 238.042C116.248 234.512 121.714 231.664 127.229 229.273C142.861 222.49 158.008 214.862 171.775 204.769C186.338 194.096 198.706 181.215 207.502 165.422C211.034 159.08 213.247 151.838 214.974 144.736C215.87 141.047 215.127 136.526 213.85 132.822C211.212 125.15 204.282 122.472 196.69 125.408C196.097 125.639 195.526 125.913 194.087 126.536C194.932 124.554 195.319 123.247 196.001 122.119C199.546 116.258 204.791 113.061 211.649 113.464C218.605 113.87 223.323 117.94 225.808 124.285C229.33 133.278 228.167 142.243 223.975 150.59C209.183 180.044 186.988 202.478 158.01 218.029C147.627 223.598 136.641 228.038 125.963 233.07C122.88 234.524 119.828 236.097 116.921 237.883C110.947 241.546 107.316 246.601 108.342 254.917Z" fill="#EDEBDF"/>
<path d="M206 234.179C214.668 211.804 242.516 197.575 266.597 210.124C276.323 215.188 282.287 223.557 283.596 234.714C284.067 238.725 283.673 242.697 280.949 245.995C277.207 250.527 270.742 249.762 268.141 244.466C266.927 241.992 265.916 239.42 264.844 236.873C256.063 215.995 231.123 212.441 214.794 228.787C212.4 231.182 209.427 232.991 206.721 235.077C206.487 234.781 206.246 234.481 206 234.179Z" fill="#8D0000"/>
<path d="M177.964 207.819C184.53 202.334 191.228 196.993 197.639 191.326C215.452 175.593 230.149 157.273 242.715 137.126C247.019 130.227 252.112 123.807 257.074 117.349C258.58 115.389 260.737 113.842 262.827 112.449C270.499 107.319 279.023 109.716 283.044 118.003C287.098 126.354 284.907 139.062 277.825 146.315C278.01 144.854 278.236 143.852 278.249 142.835C278.286 140.317 278.64 137.715 278.139 135.292C276.87 129.176 272.063 126.4 266.786 129.571C261.515 132.746 256.724 137 252.417 141.45C238.564 155.761 226.034 171.363 210.685 184.221C200.901 192.414 191.433 201.042 180.047 207.102C179.393 207.452 178.773 207.85 178.138 208.234C178.081 208.094 178.024 207.954 177.964 207.819Z" fill="#EDEBDF"/>
<path d="M197.596 250.236C210.772 278.331 229.885 297.786 264.027 295.84C261.845 300.614 258.31 303.621 253.919 305.575C245.398 309.366 236.705 308.852 228.08 305.899C210.075 299.725 196.376 281.568 195.592 262.608C195.423 258.549 196.198 254.461 196.539 250.383C196.89 250.333 197.246 250.286 197.596 250.236Z" fill="#8D0000"/>
<path d="M96.4914 274.475C101.396 274.867 103.439 277.707 104.817 281.209C105.577 283.155 105.915 285.262 106.654 287.218C108.09 290.991 110.466 292.738 114.36 291.736C118.327 290.715 122.495 289.29 125.769 286.935C140.401 276.394 151.079 262.407 158.489 246.113C162.799 236.617 165.828 226.543 169.81 216.888C170.855 214.348 173.312 212.387 175.117 210.163C175.484 210.375 175.849 210.593 176.222 210.809C174.768 215.766 173.388 220.744 171.853 225.67C163.743 251.746 150.465 274.679 130.143 293.193C126.591 296.427 122.51 299.172 118.379 301.658C115.893 303.152 112.901 304.117 110.019 304.586C105.088 305.395 100.374 304.409 97.4146 299.932C94.4531 295.446 94.5141 290.579 96.8238 285.757C97.1563 285.061 97.5724 284.407 97.9714 283.742C100.199 280.004 99.9938 278.157 96.4914 274.475Z" fill="#EDEBDF"/>
<path d="M202.157 240.104C210.95 234.237 220.431 232.178 230.644 233.707C247.104 236.167 261.166 242.672 269.281 258.179C271.18 261.814 272.262 265.987 273.066 270.046C273.515 272.332 272.632 274.882 272.24 278.227C253.087 256.454 231.993 240.482 202.157 240.104Z" fill="#8D0000"/>
<path d="M149.971 274.155C148.232 277.167 146.603 280.241 144.745 283.168C136.337 296.378 127.74 309.478 119.449 322.763C113.43 332.419 111.316 343.137 111.956 354.442C112.04 355.982 112.087 357.531 111.995 359.069C111.643 364.945 108.3 368.904 102.52 370.255C100.264 370.781 97.9639 371.104 95.6943 371.561C92.6371 372.174 89.9741 373.352 88.9413 376.732C88.5832 376.609 88.2342 376.484 87.8762 376.362C88.4884 374.161 88.7403 371.775 89.7816 369.799C92.7606 364.162 96.8725 359.003 99.0738 353.108C103.66 340.827 109.135 329.037 116.626 318.357C125.794 305.288 135.619 292.675 145.175 279.876C146.663 277.882 148.236 275.953 149.773 273.995C149.844 274.044 149.903 274.101 149.971 274.155Z" fill="#EDEBDF"/>
<path d="M172.883 200.596C172.822 195.33 173.024 190.047 172.644 184.803C172.143 177.845 170.322 177.061 164.577 181.002C156.318 186.673 148.194 192.536 139.905 198.152C132.372 203.255 124.32 207.294 115.282 209.05C109.674 210.142 104.87 209.815 101.461 208.16C122.121 205.825 137.075 192.801 152.737 181.126C158.033 177.178 163.211 173.078 168.597 169.266C172.891 166.231 175.637 167.297 177.236 172.365C179.725 180.257 179.034 188.324 177.934 196.277C177.675 198.131 175.074 199.666 173.551 201.348C173.331 201.107 173.102 200.852 172.883 200.596Z" fill="#EDEBDF"/>
<path d="M124.514 179.714C124.427 185.423 121.144 189.531 115.528 190.518C112.358 191.074 108.944 190.808 105.721 190.354C100.213 189.576 97.6749 190.259 96.4211 193.558C95.2621 196.613 97.43 201.559 101.018 203.661C102.406 204.478 104.007 204.928 105.44 205.51C101.112 207.065 94.8101 205.354 91.0128 201.387C87.2351 197.439 85.4545 192.924 87.589 187.503C89.6537 182.256 93.8865 179.805 99.1759 179.662C102.969 179.565 106.91 180.112 110.568 181.138C115.35 182.484 119.825 182.942 124.514 179.714Z" fill="#EDEBDF"/>
<path d="M180.177 229.371C184.047 228.119 187.282 227.065 190.525 226.023C195.612 224.387 199.933 227.448 199.99 232.826C200.046 238.525 197.567 243.044 193.083 246.421C189.56 249.075 184.256 247.504 181.412 243.2C178.351 238.581 179.79 233.676 180.177 229.371Z" fill="#EDEBDF"/>
<path d="M263.303 243.906C249.736 234.367 236.045 226.356 218.699 230.046C222.675 224.181 234.841 220.789 243.506 223.061C254.441 225.926 262.412 234.176 263.303 243.906Z" fill="#8D0000"/>
<path d="M221.653 306.869C211.652 308.873 199.042 302.702 193.137 293.58C187.849 285.418 187.27 274.048 191.972 267.494C195.031 285.473 203.952 299.013 221.653 306.869Z" fill="#8D0000"/>
<path d="M187.159 250.45C183.997 255.37 181.017 260.226 177.755 264.882C177.216 265.657 175.256 266.146 174.29 265.803C170.447 264.449 166.803 258.651 166.828 254.497C166.826 254.075 166.792 253.459 167.035 253.263C169.064 251.605 171.179 250.065 173.214 248.41C175.627 246.446 177.967 247.591 180.373 248.398C182.638 249.156 184.953 249.788 187.159 250.45Z" fill="#EDEBDF"/>
<path d="M162.84 228.762C161.355 234.505 161.357 234.514 156.363 234.345C147.372 234.041 138.53 235.1 129.906 237.623C127.611 238.295 125.316 239.287 123.322 240.591C119.951 242.797 119.982 245.316 123.262 248.097C121.456 249.937 119.508 250.739 117.243 249.157C114.8 247.448 115.22 244.983 116.567 243.008C117.774 241.249 119.472 239.568 121.337 238.565C134.159 231.689 148.225 230.19 162.84 228.762Z" fill="#EDEBDF"/>
<path d="M176.727 269.872C174.268 275.947 171.948 282.087 169.241 288.049C168.605 289.456 166.804 290.627 165.272 291.264C161.66 292.758 158.789 290.649 159.026 286.763C159.431 280.16 163.247 275.885 168.933 273.027C171.266 271.85 173.618 270.707 175.956 269.549C176.214 269.66 176.469 269.761 176.727 269.872Z" fill="#EDEBDF"/>
<path d="M204.042 228.43C201.518 226.276 199.32 224.487 197.223 222.588C194.368 219.999 193.928 216.969 195.852 213.69C196.463 212.644 197.184 211.66 197.836 210.637C199.854 207.474 201.092 207.385 204.034 209.902C206.402 211.927 208.934 213.763 211.397 215.69C209.185 219.522 206.635 223.939 204.042 228.43Z" fill="#EDEBDF"/>
<path d="M232.806 193.475C233.488 196.699 231.722 198.868 229.644 200.903C229.252 201.289 228.853 201.663 228.42 202.002C223.632 205.799 218.838 209.593 214.097 213.348C212.645 203.7 218.353 193.642 232.806 193.475Z" fill="#EDEBDF"/>
<path d="M230.074 324.472C231.584 320.251 233.029 316.237 234.607 311.832C238.63 311.853 243.621 311.882 248.613 311.911C248.479 319.65 237.512 326.893 230.074 324.472Z" fill="#8D0000"/>
<path d="M132.101 249.046C131.903 254.866 129.231 258.777 124.478 260.445C120.265 261.921 113.859 260.456 111.304 257.428C109.082 254.791 108.724 251.113 110.466 247.844C110.944 249.006 111.293 250.126 111.832 251.141C114.347 255.858 118.797 256.492 122.539 252.703C125.74 249.465 126.975 248.985 132.101 249.046Z" fill="#EDEBDF"/>
<path d="M277.844 268.101C275.386 262.385 272.937 256.68 270.278 250.503C274.81 252.997 279.111 254.103 282.711 249.46C285.607 256.883 282.972 266.474 277.844 268.101Z" fill="#8D0000"/>
<path d="M264.761 291.279C266.558 290.381 267.698 289.747 268.893 289.228C271.335 288.168 272.259 286.767 271.479 283.846C270.442 279.967 274.436 281.126 276.151 279.668C278.272 282.744 277.794 285.748 276.657 288.618C275.992 290.314 274.953 292.047 273.617 293.248C271.979 294.719 269.85 295.647 267.936 296.813C266.936 295.058 265.935 293.318 264.761 291.279Z" fill="#8D0000"/>
<path d="M170.067 290.011C170.951 295.508 168.76 299.038 164.553 301.656C162.28 303.074 160.115 304.661 157.811 306.238C156.784 297.301 165.237 295.206 170.067 290.011Z" fill="#EDEBDF"/>
<path d="M247.119 186.221C243.428 192.044 241.883 199.48 233.557 201.541C238.608 189.291 240.691 186.93 247.119 186.221Z" fill="#EDEBDF"/>
<path d="M177.219 237.039C175.01 236.383 173.06 235.808 170.783 235.136C171.892 233.069 170.689 229.729 174.533 230.021C177.968 230.291 178.049 230.628 177.219 237.039Z" fill="#EDEBDF"/>
<path d="M116.767 429.969C120.295 432.325 123.863 434.681 127.404 437.106C132.874 440.84 133.714 446.765 129.843 453.474C128.107 456.478 126.467 459.55 124.593 461.314C120.419 463.229 115.569 464.414 112.359 467.376C110.815 468.795 111.105 474.885 112.813 476.539C115.624 479.253 120.267 480.066 124.125 481.692C124.621 481.072 125.117 480.438 125.613 479.818C127.748 486.335 132.584 493.472 131.248 499.176C129.898 504.921 122.43 509.247 117.305 514.552C112 509.771 106.489 506.189 102.921 501.229C98.0709 494.477 106.944 490.496 107.398 484.075C106.406 484.971 105.318 485.77 104.45 486.776C98.6909 493.361 92.2704 492.769 87.9855 485.053C86.773 482.876 86.2219 480.355 85.1748 478.068C84.2379 476.015 83.0392 474.086 82.0059 472.171C83.797 468.038 85.5054 463.863 87.4068 459.771C91.8019 450.237 98.2775 449.465 105.07 457.539C105.676 458.269 106.641 458.696 107.44 459.261C107.894 458.889 108.349 458.503 108.804 458.131C107.674 456.547 106.682 454.838 105.401 453.392C100.262 447.646 100.551 442.369 106.544 437.575C109.906 434.874 113.433 432.436 116.767 429.969Z" fill="#EDEBDF"/>
<path d="M137.628 529.101C135.162 534.268 131.276 537.244 125.572 534.612C120.006 532.049 120.102 526.772 122.293 522.157C125.117 516.219 129.196 510.886 132.103 504.976C134.762 499.561 138.206 493.788 138.427 488.07C138.799 478.136 132.571 474.733 123.023 477.255C120.626 477.888 116.851 477.103 115.17 475.464C113.847 474.168 113.696 469.622 114.949 468.23C116.492 466.508 120.268 465.475 122.637 466.053C134.156 468.823 141.582 461.768 138.082 450.209C136.539 445.083 133.136 440.509 130.477 435.742C127.708 430.768 124.456 426.015 122.114 420.862C119.882 415.971 120.64 410.9 125.985 408.558C131.8 405.995 135.478 409.33 137.917 415.089C131.331 419.456 133.77 424.651 136.76 429.928C139.24 434.309 142.464 438.484 143.869 443.196C147.079 453.901 146.735 464.152 136.098 471.234C147.341 482.78 148.498 494.959 139.86 508.448C138.138 511.148 135.768 513.821 135.217 516.783C134.528 520.49 135.423 524.499 135.63 528.371C136.291 528.632 136.966 528.867 137.628 529.101Z" fill="#7F000F"/>
<path d="M1479.2 513.302C1475.67 510.946 1472.11 508.59 1468.57 506.165C1463.1 502.431 1462.26 496.507 1466.13 489.797C1467.86 486.793 1469.5 483.721 1471.38 481.957C1475.55 480.042 1480.4 478.857 1483.61 475.895C1485.15 474.476 1484.86 468.386 1483.16 466.733C1480.35 464.019 1475.7 463.206 1471.84 461.58C1471.35 462.2 1470.85 462.834 1470.36 463.454C1468.22 456.937 1463.38 449.8 1464.72 444.096C1466.07 438.35 1473.54 434.024 1478.66 428.72C1483.97 433.501 1489.48 437.083 1493.05 442.043C1497.9 448.794 1489.03 452.776 1488.57 459.196C1489.56 458.301 1490.65 457.502 1491.52 456.496C1497.28 449.91 1503.7 450.503 1507.98 458.218C1509.2 460.395 1509.75 462.916 1510.79 465.204C1511.73 467.256 1512.93 469.185 1513.96 471.1C1512.17 475.234 1510.46 479.409 1508.56 483.501C1504.17 493.035 1497.69 493.806 1490.9 485.733C1490.29 485.002 1489.33 484.575 1488.53 484.01C1488.07 484.382 1487.62 484.768 1487.17 485.14C1488.3 486.725 1489.29 488.433 1490.57 489.88C1495.71 495.625 1495.42 500.902 1489.42 505.697C1486.06 508.397 1482.54 510.836 1479.2 513.302Z" fill="#EDEBDF"/>
<path d="M1458.34 414.171C1460.81 409.004 1464.69 406.028 1470.4 408.66C1475.96 411.222 1475.87 416.499 1473.68 421.115C1470.85 427.053 1466.77 432.385 1463.87 438.296C1461.21 443.71 1457.76 449.483 1457.54 455.201C1457.17 465.135 1463.4 468.538 1472.95 466.017C1475.34 465.383 1479.12 466.168 1480.8 467.808C1482.12 469.103 1482.27 473.65 1481.02 475.041C1479.48 476.764 1475.7 477.797 1473.33 477.218C1461.81 474.449 1454.39 481.503 1457.89 493.063C1459.43 498.188 1462.83 502.762 1465.49 507.53C1468.26 512.503 1471.51 517.257 1473.86 522.41C1476.09 527.301 1475.33 532.371 1469.98 534.713C1464.17 537.276 1460.49 533.942 1458.05 528.183C1464.64 523.815 1462.2 518.621 1459.21 513.344C1456.73 508.962 1453.51 504.788 1452.1 500.076C1448.89 489.37 1449.24 479.12 1459.87 472.038C1448.63 460.492 1447.47 448.312 1456.11 434.824C1457.83 432.123 1460.2 429.45 1460.75 426.488C1461.44 422.782 1460.55 418.772 1460.34 414.901C1459.68 414.639 1459 414.405 1458.34 414.171Z" fill="#7F000F"/>
</svg>
