<svg width="9078" height="210" viewBox="0 0 9078 210" fill="none" xmlns="http://www.w3.org/2000/svg">
<path d="M1247.75 78.8517C1251.72 74.7389 1264.9 81.6466 1266.79 82.6622C1271.49 85.1886 1274.33 87.7738 1279.64 92.6587C1289.01 101.304 1293.7 105.626 1293.43 109.789C1293.17 113.944 1287.86 117.377 1277.25 124.067C1260.58 134.583 1255.29 133.585 1253.46 133.106C1249.86 132.158 1245.32 129.447 1244.9 125.972C1244.54 122.992 1247.52 122.128 1247.87 118.586C1248.45 112.853 1241.04 111.191 1240.61 105.03C1240.25 99.7007 1245.65 98.7942 1247.27 90.7534C1248.62 84.0471 1245.58 81.0927 1247.75 78.8517Z" fill="#8D0000"/>
<path d="M1223.41 102.286C1226.88 102.571 1231.45 103.537 1235.86 106.457C1236.73 107.037 1245.51 112.862 1244.42 118.351C1243.65 122.195 1238.65 122.866 1238.71 125.964C1238.78 129.573 1245.58 130.941 1245.37 132.628C1245.01 135.465 1224.79 138.906 1203.98 132.149C1183.73 125.586 1167.82 110.965 1169.72 106.927C1171.39 103.385 1184.64 112.475 1203.03 106.927C1209.85 104.863 1214.75 101.581 1223.41 102.286Z" fill="#EDEBDF"/>
<path d="M1242.04 78.382C1245.32 82.4528 1244.61 87.8917 1244.42 89.3269C1243.66 95.0847 1239.68 101.808 1234.9 102.177C1231.77 102.412 1230.85 99.7263 1226.34 98.3665C1220.94 96.7382 1216.07 98.7107 1213.02 99.7934C1200.34 104.292 1178.66 107.826 1176.38 103.604C1174.48 100.079 1185.82 90.7118 1188.24 88.7142C1203.89 75.7717 1219.48 74.3532 1223.49 74.1014C1229.96 73.6901 1237.85 73.1865 1242.04 78.382Z" fill="#EDEBDF"/>
<path d="M2543.11 78.5138C2547.08 74.401 2560.25 81.3087 2562.14 82.3243C2566.85 84.8507 2569.69 87.4359 2574.99 92.3208C2584.37 100.966 2589.06 105.288 2588.79 109.452C2588.52 113.606 2583.22 117.039 2572.61 123.729C2555.94 134.245 2550.64 133.247 2548.81 132.768C2545.21 131.82 2540.67 129.109 2540.25 125.634C2539.89 122.654 2542.87 121.79 2543.22 118.248C2543.8 112.515 2536.39 110.853 2535.96 104.693C2535.6 99.3628 2541.01 98.4563 2542.63 90.4155C2543.98 83.7176 2540.94 80.7632 2543.11 78.5138Z" fill="#8D0000"/>
<path d="M2519.03 102.241C2522.5 102.526 2527.07 103.492 2531.48 106.413C2532.35 106.992 2541.13 112.817 2540.04 118.306C2539.27 122.15 2534.27 122.821 2534.33 125.919C2534.4 129.536 2541.26 130.946 2541 132.583C2540.54 135.336 2519.76 139.155 2499.6 132.105C2491.88 129.402 2485.83 125.667 2477.88 127.824C2473.7 128.957 2470.16 131.408 2467.88 129.729C2465.98 128.328 2466.19 124.97 2466.45 120.69C2466.83 114.638 2467.02 111.549 2468.83 109.266C2473.39 103.525 2482.28 110.408 2498.63 106.891C2507.85 104.902 2510.53 101.544 2519.03 102.241Z" fill="#EDEBDF"/>
<path d="M2537.66 78.3374C2540.95 82.4082 2540.23 87.8471 2540.04 89.2823C2539.28 95.0401 2535.3 101.763 2530.52 102.133C2527.39 102.368 2526.48 99.6817 2521.96 98.3219C2516.56 96.6936 2511.69 98.6661 2508.64 99.7488C2496.18 104.172 2474.84 108.411 2472 103.559C2471.05 101.939 2473.09 100.899 2474.08 94.5198C2475.19 87.2511 2473.17 84.5988 2475.02 82.148C2477.27 79.1851 2481.97 80.7967 2489.3 80.7211C2502.92 80.5868 2504.16 74.871 2519.11 74.0568C2526.12 73.6707 2533.64 73.3518 2537.66 78.3374Z" fill="#EDEBDF"/>
<path d="M3840.72 78.8409C3844.69 74.7282 3857.87 81.6359 3859.76 82.6515C3864.47 85.1779 3867.31 87.763 3872.61 92.6479C3881.99 101.293 3886.68 105.616 3886.41 109.779C3886.14 113.933 3880.84 117.366 3870.23 124.056C3853.56 134.573 3848.26 133.574 3846.43 133.095C3842.83 132.147 3838.29 129.436 3837.87 125.961C3837.51 122.981 3840.49 122.117 3840.84 118.575C3841.42 112.842 3834.01 111.18 3833.58 105.02C3833.22 99.6899 3838.63 98.7835 3840.25 90.7427C3841.6 84.0364 3838.56 81.0819 3840.72 78.8409Z" fill="#8D0000"/>
<path d="M3816.38 102.267C3818.83 102.519 3823.79 103.09 3828.83 106.439C3829.7 107.018 3838.48 112.843 3837.39 118.332C3836.63 122.176 3831.63 122.847 3831.68 125.945C3831.74 129.285 3838.21 129.923 3838.35 132.609C3838.52 135.958 3828.85 140.264 3818.84 141.623C3806.97 143.235 3804.35 139.382 3797.43 142.572C3789.96 146.013 3789.72 152.031 3783.63 152.568C3778.32 153.038 3772.18 149.001 3771.74 144.956C3771.26 140.658 3777.46 138.593 3776.98 133.532C3776.61 129.654 3772.76 128.748 3773.17 125.919C3773.6 122.864 3778.29 122.503 3784.11 118.785C3791.35 114.16 3789.55 111.231 3796 106.917C3804.08 101.512 3813.14 101.931 3816.38 102.267Z" fill="#EDEBDF"/>
<path d="M3835.01 78.3625C3838.29 82.4333 3837.58 87.8721 3837.38 89.3074C3836.63 95.0652 3832.65 101.788 3827.87 102.158C3824.73 102.393 3823.82 99.7067 3819.3 98.347C3814.91 97.0209 3811.1 98.1875 3805.98 99.7739C3796.54 102.695 3796.13 105.784 3787.9 107.84C3783.31 108.99 3778.35 110.224 3774.58 107.361C3771.68 105.162 3769.86 100.823 3770.77 97.365C3771.61 94.2175 3774.06 94.2511 3775.05 90.7007C3776.1 86.974 3773.79 85.5052 3775.05 82.6095C3776.54 79.1934 3781.11 78.1275 3782.45 77.8169C3786.42 76.8853 3789.5 77.8673 3791.71 78.3289C3800.92 80.2594 3803.04 74.8541 3816.45 74.0735C3822.85 73.7042 3830.85 73.209 3835.01 78.3625Z" fill="#EDEBDF"/>
<path d="M5138.72 78.7247C5142.69 74.612 5155.87 81.5197 5157.76 82.5353C5162.47 85.0617 5165.3 87.6468 5170.61 92.5317C5179.98 101.177 5184.68 105.499 5184.41 109.663C5184.14 113.817 5178.83 117.25 5168.23 123.94C5151.56 134.456 5146.26 133.458 5144.43 132.979C5140.83 132.031 5136.29 129.32 5135.87 125.845C5135.51 122.865 5138.49 122.001 5138.84 118.459C5139.42 112.726 5132.01 111.064 5131.58 104.904C5131.22 99.5737 5136.62 98.6673 5138.24 90.6265C5139.6 83.9202 5136.56 80.9657 5138.72 78.7247Z" fill="#8D0000"/>
<path d="M5114.38 102.151C5119.49 101.379 5123.94 104.4 5126.83 106.322C5127.7 106.902 5136.48 112.727 5135.39 118.216C5134.63 122.06 5129.62 122.731 5129.68 125.829C5129.74 128.984 5135.53 129.236 5136.35 132.493C5137.51 137.176 5127.69 144.495 5118.82 147.827C5116.08 148.86 5108.16 151.831 5098.36 150.681C5092.75 150.027 5090.63 148.499 5086.47 149.733C5080.37 151.529 5079.1 156.506 5075.52 155.919C5071.3 155.23 5069.34 147.727 5068.86 145.922C5068.2 143.429 5067.26 139.862 5068.86 136.404C5070.9 131.956 5074.91 132.577 5075.99 129.27C5077.68 124.133 5068.97 119.936 5070.28 114.523C5071.25 110.553 5077.21 107.607 5082.18 107.858C5089.69 108.236 5091.12 115.698 5096.92 115.471C5104.16 115.194 5105.35 103.519 5114.38 102.151Z" fill="#EDEBDF"/>
<path d="M5133.02 78.2464C5136.23 82.5941 5135.57 87.8903 5135.39 89.1913C5134.64 94.9491 5130.66 101.672 5125.87 102.041C5122.74 102.276 5121.83 99.5906 5117.31 98.2309C5111.13 96.3676 5109.09 100.707 5103.99 99.6578C5096.09 98.0378 5096.08 87.328 5088.37 85.9682C5083.34 85.0785 5081.36 89.2752 5076.76 87.6805C5072.31 86.1361 5068.86 80.3615 5069.81 75.9802C5070.68 72.0101 5074.46 72.4802 5077.43 66.9406C5079.97 62.1983 5078.01 60.3434 5080.84 56.5412C5081.08 56.2223 5084.52 51.7318 5089.8 51.2366C5092.05 51.0268 5092.4 51.7486 5096.46 52.1851C5101.96 52.781 5102.82 51.6059 5105.02 52.1851C5111.14 53.7966 5108.72 63.9357 5115.97 70.2643C5122.2 75.7116 5128.52 72.1696 5133.02 78.2464Z" fill="#EDEBDF"/>
<path d="M5062.19 88.3436C5063.83 87.3532 5065.35 88.6122 5071.23 90.2489C5075.96 91.5582 5078.37 92.2045 5080.75 91.6757C5084.51 90.8448 5085.06 88.4611 5087.41 88.822C5089.98 89.2165 5090.02 92.1709 5093.6 95.9563C5098.12 100.732 5101.68 99.876 5102.64 103.091C5103.7 106.641 5100.58 111.778 5097.4 112.13C5094.52 112.449 5093.96 108.571 5089.79 106.423C5081.23 102.008 5070.38 111.509 5066.47 107.371C5064.96 105.777 5066.43 104.19 5064.1 100.237C5062.35 97.2825 5060.79 96.9216 5060.29 94.5295C5059.85 92.406 5060.39 89.4347 5062.19 88.3436Z" fill="#EDEBDF"/>
<path d="M6436.7 78.0079C6440.67 73.8952 6453.85 80.8029 6455.74 81.8185C6460.45 84.3449 6463.28 86.93 6468.59 91.8149C6477.96 100.46 6482.66 104.783 6482.39 108.946C6482.12 113.1 6476.81 116.533 6466.21 123.223C6449.54 133.74 6444.24 132.741 6442.41 132.262C6438.81 131.314 6434.27 128.603 6433.85 125.128C6433.49 122.148 6436.47 121.284 6436.82 117.742C6437.4 112.009 6429.99 110.347 6429.56 104.187C6429.2 98.8569 6434.6 97.9505 6436.22 89.9096C6437.58 83.2034 6434.54 80.2489 6436.7 78.0079Z" fill="#8D0000"/>
<path d="M6412.36 101.434C6416.69 100.091 6421.23 103.23 6424.81 105.605C6425.68 106.184 6434.46 112.009 6433.37 117.498C6432.61 121.343 6427.6 122.014 6427.66 125.111C6427.72 128.435 6434.23 129.09 6434.33 131.775C6434.46 135.435 6422.64 135.301 6416.98 143.845C6414.49 147.605 6416.16 148.554 6412.7 155.738C6410.29 160.741 6407.27 167.011 6403.18 167.162C6399.7 167.288 6399.04 162.831 6392.71 160.976C6389.76 160.111 6389.49 160.967 6385.58 160.027C6382.22 159.222 6377.15 158.005 6376.06 154.79C6375.05 151.819 6378.58 150.451 6378.44 145.75C6378.3 141.327 6375.11 140.446 6375.58 136.711C6375.85 134.528 6377 134.344 6380.34 129.576C6384.45 123.718 6383.86 122.383 6386.05 121.015C6390.14 118.455 6393.25 122.442 6397.94 121.015C6406.18 118.506 6404.45 103.893 6412.36 101.434Z" fill="#EDEBDF"/>
<path d="M6431 77.5297C6431.98 79.4602 6434.03 83.4638 6433.37 88.4746C6432.62 94.2324 6428.64 100.955 6423.85 101.325C6423.12 101.384 6421.5 101.451 6415.29 97.5142C6410.96 94.778 6407.62 92.6629 6404.61 89.5993C6395.66 80.5177 6400.2 73.845 6393.18 68.1879C6386.35 62.6735 6379.98 67.3318 6373.68 60.5752C6371.08 57.797 6368.47 53.0632 6369.75 49.0763C6370.48 46.7766 6371.95 46.4912 6374.03 43.9984C6378.78 38.3329 6376.27 33.8005 6379.38 29.1673C6383.69 22.7716 6395.79 20.5977 6401.27 24.8867C6404.99 27.7908 6402.66 31.2909 6406.98 37.7369C6411.71 44.7789 6416.21 43.159 6419.35 49.1603C6422.92 55.9924 6417.94 59.6351 6421.73 66.7695C6424.42 71.8306 6427.78 71.2515 6431 77.5297Z" fill="#EDEBDF"/>
<path d="M6372.24 66.2832C6378.5 71.3192 6382.94 66.8707 6388.89 71.5206C6395.3 76.5146 6391.59 82.7761 6398.89 89.5998C6403.78 94.1742 6408.5 94.2162 6408.89 97.691C6409.09 99.504 6407.91 100.461 6403.18 106.252C6396.56 114.36 6396.19 115.77 6394.62 115.77C6390.43 115.77 6391.2 105.749 6383.67 98.6395C6374.05 89.5411 6360.43 94.2749 6357.5 86.7461C6355.92 82.667 6359.43 80.065 6357.02 74.8528C6355.03 70.5218 6351.82 70.6225 6350.36 66.2916C6349.36 63.3203 6349.33 58.7208 6352.27 55.8251C6354.89 53.2399 6359.12 52.7699 6362.26 53.9198C6367.73 55.9258 6366.53 61.6752 6372.24 66.2832Z" fill="#EDEBDF"/>
<path d="M6371.77 96.7345C6374.87 96.7597 6377.01 98.8077 6381.29 102.92C6383.13 104.683 6391.27 112.506 6389.38 115.771C6388.4 117.466 6385.79 116.056 6382.72 118.146C6378.71 120.882 6379.95 125.498 6377.48 126.707C6373.12 128.847 6359.02 119.38 6360.35 108.628C6361.07 102.778 6366.35 96.7009 6371.77 96.7345Z" fill="#EDEBDF"/>
<path d="M7734.67 78.1944C7738.64 74.0817 7751.82 80.9894 7753.71 82.005C7758.42 84.5314 7761.25 87.1165 7766.56 92.0015C7775.93 100.647 7780.63 104.969 7780.36 109.132C7780.09 113.287 7774.78 116.72 7764.17 123.409C7747.51 133.926 7742.21 132.927 7740.38 132.449C7736.78 131.5 7732.24 128.789 7731.82 125.315C7731.46 122.335 7734.44 121.47 7734.79 117.928C7735.37 112.196 7727.96 110.534 7727.53 104.373C7727.17 99.0435 7732.57 98.137 7734.19 90.0962C7735.54 83.3899 7732.51 80.4355 7734.67 78.1944Z" fill="#8D0000"/>
<path d="M7707.8 114.504C7709.21 112.59 7715.48 104.088 7722.78 105.792C7728.12 107.034 7732.2 113.329 7731.34 117.685C7730.57 121.529 7725.57 122.201 7725.63 125.298C7725.68 128.084 7729.35 129.075 7732.3 131.962C7739.51 139.021 7732.45 148.161 7737.78 162.086C7741.34 171.411 7746.77 173.224 7745.87 180.165C7745.31 184.395 7742.6 189.028 7739.68 189.205C7736.39 189.406 7734.41 183.85 7732.55 184.446C7730.24 185.184 7733.45 193.603 7729.22 198.723C7725.72 202.944 7718 203.901 7714.94 201.098C7713.16 199.47 7714.42 197.917 7712.56 194.434C7709.85 189.372 7705.66 189.775 7704.47 185.872C7703.39 182.288 7706.54 180.744 7705.9 177.311C7704.82 171.495 7695.18 172.703 7691.62 166.845C7687.59 160.197 7697.17 153.995 7702.09 132.105C7703.84 124.291 7703.77 119.951 7707.8 114.504Z" fill="#EDEBDF"/>
<path d="M7728.95 77.7158C7729.96 82.2986 7731.94 84.0444 7731.33 88.6607C7730.57 94.4186 7726.6 101.142 7721.81 101.511C7717.97 101.805 7714.79 99.0936 7713.25 97.7003C7707.91 92.8826 7708.71 88.5013 7705.41 82.1475C7698.97 69.7422 7688.5 72.1762 7684.6 60.627C7682.85 55.4483 7684.67 54.1306 7682.09 47.8859C7679.24 40.9866 7675.44 38.7792 7676.39 35.0357C7677.24 31.6784 7681.28 29.5549 7684 28.8498C7689.06 27.5405 7691.45 30.6376 7694.95 28.8498C7697.79 27.3978 7697.01 24.9469 7700.18 21.2371C7703.36 17.5105 7709.38 13.8426 7713.03 15.5296C7715.84 16.8222 7714.75 20.1376 7718.74 27.9014C7719.61 29.5885 7721.57 33.3319 7724.93 36.941C7730.31 42.7324 7732.89 41.3139 7734.92 44.5538C7739.84 52.4435 7725.64 62.5827 7728.95 77.7158Z" fill="#EDEBDF"/>
<path d="M7671.63 38.8464C7676.42 41.9939 7678.28 46.9711 7680.67 53.5935C7683.94 62.6919 7681.92 62.7086 7684.24 66.855C7689.31 75.903 7697.8 73.8802 7702.04 82.8862C7704.12 87.3095 7702.48 88.6944 7705.23 93.3191C7709.01 99.6981 7714.44 101.007 7713.98 103.081C7713.41 105.624 7704.59 106.287 7697.33 105.456C7692.16 104.868 7679.74 103.441 7670.68 94.0326C7664.78 87.9054 7665.43 83.692 7659.26 80.7123C7653.49 77.9258 7649.39 79.8814 7646.89 76.4318C7644.94 73.7459 7646.89 71.807 7645.94 64.06C7645.09 57.2026 7643.17 55.482 7644.51 53.5935C7647.01 50.0683 7654.77 54.4916 7658.31 50.7398C7661.82 47.0215 7656.87 39.82 7660.21 36.9411C7662.8 34.7169 7668.42 36.7481 7671.63 38.8464Z" fill="#EDEBDF"/>
<path d="M7680.67 118.314C7685.67 113.438 7686.12 108.251 7690.67 107.369C7692.13 107.084 7691.91 107.655 7697.33 108.318C7703.33 109.056 7705.24 108.553 7705.89 109.745C7706.73 111.289 7704.19 113.412 7702.11 117.374C7699.65 122.1 7699.82 125.658 7699.23 130.199C7697.98 139.742 7695.15 139.474 7691.61 152.089C7687.77 165.82 7688.94 173.937 7684.48 175.406C7681.74 176.304 7680.23 173.609 7676.39 174.457C7670.6 175.733 7669.57 182.851 7666.87 182.548C7663.81 182.204 7660.85 172.627 7662.11 163.042C7663.4 153.222 7668.83 145.576 7667.82 144.963C7667 144.468 7664.19 149.932 7660.21 149.722C7657.79 149.596 7655.31 147.414 7654.5 144.963C7652.4 138.676 7660.89 129.561 7668.17 124.886C7674.62 120.74 7676.39 122.486 7680.67 118.314Z" fill="#EDEBDF"/>
<path d="M7652.59 97.3733C7653.32 93.0507 7648.02 90.0879 7649.26 87.8552C7650.37 85.866 7655.82 85.9919 7660.21 87.8552C7667.26 90.8517 7666.49 96.2066 7674 100.705C7679.92 104.247 7684.12 103.148 7684.95 105.943C7686.1 109.787 7679.13 115.058 7677.34 116.409C7670.84 121.328 7668.2 119.523 7662.11 124.022C7655.49 128.915 7654.78 133.859 7651.17 133.54C7648.41 133.297 7648.35 130.393 7642.6 126.876C7638.85 124.584 7636.44 124.324 7636.42 123.065C7636.39 120.95 7643.3 121.034 7644.98 116.879C7646.35 113.497 7642.6 111.424 7643.55 107.361C7644.78 102.157 7651.79 102.132 7652.59 97.3733Z" fill="#EDEBDF"/>
<path d="M7830.7 78.087C7826.73 73.9743 7813.55 80.882 7811.66 81.8976C7806.95 84.424 7804.11 87.0091 7798.81 91.894C7789.43 100.539 7784.74 104.862 7785.01 109.025C7785.28 113.18 7790.58 116.612 7801.19 123.302C7817.86 133.819 7823.16 132.82 7824.99 132.342C7828.59 131.393 7833.13 128.682 7833.55 125.207C7833.91 122.228 7830.93 121.363 7830.58 117.821C7830 112.088 7837.41 110.427 7837.84 104.266C7838.2 98.936 7832.79 98.0296 7831.17 89.9888C7829.82 83.2825 7832.86 80.328 7830.7 78.087Z" fill="#8D0000"/>
<path d="M7857.57 114.397C7856.16 112.483 7849.89 103.98 7842.59 105.684C7837.25 106.926 7833.16 113.221 7834.03 117.578C7834.79 121.422 7839.79 122.093 7839.74 125.19C7839.69 127.977 7836.02 128.967 7833.07 131.855C7825.86 138.913 7832.92 148.054 7827.59 161.978C7824.02 171.303 7818.59 173.116 7819.5 180.058C7820.05 184.288 7822.76 188.921 7825.69 189.097C7828.98 189.299 7830.96 183.742 7832.82 184.338C7835.13 185.077 7831.91 193.495 7836.15 198.615C7839.64 202.837 7847.37 203.794 7850.43 200.991C7852.21 199.362 7850.95 197.809 7852.8 194.326C7855.52 189.265 7859.7 189.668 7860.9 185.765C7861.98 182.181 7858.82 180.637 7859.47 177.204C7860.55 171.387 7870.19 172.596 7873.75 166.737C7877.77 160.09 7868.2 153.887 7863.28 131.997C7861.53 124.183 7861.59 119.844 7857.57 114.397Z" fill="#EDEBDF"/>
<path d="M7836.41 77.6084C7835.41 82.1912 7833.42 83.937 7834.04 88.5533C7834.79 94.3111 7838.77 101.034 7843.55 101.403C7847.4 101.697 7850.58 98.9862 7852.12 97.5929C7857.45 92.7752 7856.66 88.3938 7859.96 82.0401C7866.4 69.6347 7876.87 72.0688 7880.77 60.5196C7882.52 55.3409 7880.7 54.0231 7883.27 47.7785C7886.13 40.8792 7889.93 38.6717 7888.98 34.9283C7888.13 31.571 7884.09 29.4475 7881.37 28.7424C7876.31 27.4331 7873.92 30.5302 7870.42 28.7424C7867.58 27.2904 7868.36 24.8395 7865.18 21.1297C7862 17.403 7855.99 13.7352 7852.33 15.4222C7849.53 16.7148 7850.62 20.0302 7846.63 27.794C7845.75 29.481 7843.8 33.2245 7840.44 36.8336C7835.06 42.625 7832.48 41.2065 7830.44 44.4463C7825.53 52.3361 7839.73 62.4752 7836.41 77.6084Z" fill="#EDEBDF"/>
<path d="M7893.74 38.739C7888.95 41.8865 7887.08 46.8637 7884.7 53.4861C7881.43 62.5844 7883.45 62.6012 7881.12 66.7475C7876.06 75.7955 7867.57 73.7727 7863.33 82.7788C7861.25 87.2021 7862.88 88.587 7860.14 93.2117C7856.35 99.5906 7850.92 100.9 7851.39 102.973C7851.96 105.516 7860.78 106.179 7868.04 105.348C7873.21 104.761 7885.63 103.334 7894.69 93.9251C7900.59 87.798 7899.94 83.5846 7906.11 80.6049C7911.88 77.8183 7915.98 79.774 7918.48 76.3243C7920.43 73.6385 7918.48 71.6996 7919.43 63.9526C7920.28 57.0952 7922.2 55.3746 7920.86 53.4861C7918.36 49.9609 7910.59 54.3842 7907.06 50.6323C7903.55 46.9141 7908.49 39.7126 7905.15 36.8337C7902.57 34.6095 7896.94 36.6407 7893.74 38.739Z" fill="#EDEBDF"/>
<path d="M7884.7 118.207C7879.7 113.33 7879.24 108.143 7874.7 107.262C7873.24 106.976 7873.46 107.547 7868.04 108.21C7862.04 108.949 7860.12 108.445 7859.48 109.637C7858.64 111.182 7861.18 113.305 7863.25 117.267C7865.72 121.992 7865.54 125.551 7866.14 130.092C7867.39 139.635 7870.22 139.366 7873.75 151.982C7877.6 165.713 7876.43 173.829 7880.89 175.298C7883.62 176.196 7885.13 173.502 7888.98 174.35C7894.77 175.626 7895.79 182.743 7898.5 182.441C7901.55 182.097 7904.52 172.52 7903.26 162.935C7901.97 153.115 7896.54 145.468 7897.55 144.856C7898.36 144.36 7901.17 149.824 7905.16 149.615C7907.58 149.489 7910.05 147.306 7910.87 144.856C7912.97 138.569 7904.48 129.454 7897.2 124.779C7890.75 120.632 7888.98 122.378 7884.7 118.207Z" fill="#EDEBDF"/>
<path d="M7912.77 97.2659C7912.04 92.9433 7917.35 89.9804 7916.11 87.7478C7915 85.7586 7909.54 85.8845 7905.16 87.7478C7898.11 90.7442 7898.87 96.0992 7891.36 100.598C7885.45 104.14 7881.25 103.04 7880.42 105.835C7879.27 109.68 7886.23 114.951 7888.03 116.302C7894.53 121.22 7897.16 119.416 7903.26 123.915C7909.88 128.808 7910.58 133.752 7914.2 133.433C7916.95 133.189 7917.02 130.285 7922.76 126.768C7926.51 124.477 7928.92 124.217 7928.95 122.958C7928.98 120.843 7922.07 120.927 7920.39 116.772C7919.02 113.389 7922.77 111.316 7921.81 107.254C7920.59 102.05 7913.58 102.025 7912.77 97.2659Z" fill="#EDEBDF"/>
<path d="M46.1301 78.8517C42.16 74.7389 28.9825 81.6466 27.094 82.6622C22.3853 85.1886 19.5484 87.7738 14.2438 92.6587C4.86845 101.304 0.176571 105.626 0.44516 109.789C0.713745 113.944 6.01833 117.377 16.6275 124.067C33.2967 134.583 38.5929 133.585 40.4226 133.106C44.0233 132.158 48.5641 129.447 48.9838 125.972C49.3447 122.992 46.3651 122.128 46.0125 118.586C45.4334 112.853 52.8447 111.191 53.2728 105.03C53.6337 99.7007 48.2284 98.7942 46.6085 90.7534C45.2572 84.0471 48.2955 81.0927 46.1301 78.8517Z" fill="#8D0000"/>
<path d="M70.4707 102.286C67.0042 102.571 62.4299 103.537 58.0234 106.457C57.1505 107.037 48.3711 112.862 49.4622 118.351C50.226 122.195 55.2284 122.866 55.1697 125.964C55.1025 129.573 48.2955 130.941 48.5053 132.628C48.8662 135.465 69.0858 138.906 89.9013 132.149C110.154 125.586 126.06 110.965 124.163 106.927C122.493 103.385 109.239 112.475 90.8497 106.927C84.0259 104.863 79.1326 101.581 70.4707 102.286Z" fill="#EDEBDF"/>
<path d="M51.8374 78.382C48.5556 82.4528 49.269 87.8917 49.4621 89.3269C50.2175 95.0847 54.1959 101.808 58.9801 102.177C62.1108 102.412 63.0257 99.7263 67.5413 98.3665C72.9382 96.7382 77.8148 98.7107 80.8615 99.7934C93.5439 104.292 115.224 107.826 117.498 103.604C119.395 100.079 108.056 90.7118 105.639 88.7142C89.9851 75.7717 74.3987 74.3532 70.3867 74.1014C63.9154 73.6901 56.0257 73.1865 51.8374 78.382Z" fill="#EDEBDF"/>
<path d="M1341.69 78.5138C1337.72 74.401 1324.54 81.3087 1322.66 82.3243C1317.95 84.8507 1315.11 87.4359 1309.81 92.3208C1300.43 100.966 1295.74 105.288 1296.01 109.452C1296.28 113.606 1301.58 117.039 1312.19 123.729C1328.86 134.245 1334.16 133.247 1335.99 132.768C1339.59 131.82 1344.13 129.109 1344.55 125.634C1344.91 122.654 1341.93 121.79 1341.58 118.248C1341 112.515 1348.41 110.853 1348.84 104.693C1349.2 99.3628 1343.79 98.4563 1342.17 90.4155C1340.82 83.7176 1343.86 80.7632 1341.69 78.5138Z" fill="#8D0000"/>
<path d="M1365.77 102.241C1362.3 102.526 1357.73 103.492 1353.32 106.413C1352.45 106.992 1343.67 112.817 1344.76 118.306C1345.52 122.15 1350.53 122.821 1350.47 125.919C1350.4 129.536 1343.53 130.946 1343.8 132.583C1344.26 135.336 1365.04 139.155 1385.2 132.105C1392.92 129.402 1398.97 125.667 1406.92 127.824C1411.1 128.957 1414.63 131.408 1416.92 129.729C1418.82 128.328 1418.61 124.97 1418.34 120.69C1417.97 114.638 1417.77 111.549 1415.97 109.266C1411.41 103.525 1402.52 110.408 1386.16 106.891C1376.95 104.902 1374.27 101.544 1365.77 102.241Z" fill="#EDEBDF"/>
<path d="M1347.13 78.3374C1343.85 82.4082 1344.57 87.8471 1344.76 89.2823C1345.51 95.0401 1349.49 101.763 1354.28 102.133C1357.41 102.368 1358.32 99.6817 1362.84 98.3219C1368.24 96.6936 1373.11 98.6661 1376.16 99.7488C1388.62 104.172 1409.96 108.411 1412.8 103.559C1413.74 101.939 1411.7 100.899 1410.72 94.5198C1409.61 87.2511 1411.63 84.5988 1409.77 82.148C1407.52 79.1851 1402.83 80.7967 1395.5 80.7211C1381.88 80.5868 1380.64 74.871 1365.69 74.0568C1358.68 73.6707 1351.16 73.3518 1347.13 78.3374Z" fill="#EDEBDF"/>
<path d="M2639.15 78.8409C2635.18 74.7282 2622.01 81.6359 2620.12 82.6515C2615.41 85.1779 2612.57 87.763 2607.27 92.6479C2597.89 101.293 2593.2 105.616 2593.47 109.779C2593.74 113.933 2599.04 117.366 2609.65 124.056C2626.32 134.573 2631.62 133.574 2633.45 133.095C2637.05 132.147 2641.59 129.436 2642.01 125.961C2642.37 122.981 2639.39 122.117 2639.04 118.575C2638.46 112.842 2645.87 111.18 2646.3 105.02C2646.66 99.6899 2641.25 98.7835 2639.63 90.7427C2638.28 84.0364 2641.32 81.0819 2639.15 78.8409Z" fill="#8D0000"/>
<path d="M2663.5 102.267C2661.05 102.519 2656.09 103.09 2651.05 106.439C2650.18 107.018 2641.4 112.843 2642.49 118.332C2643.25 122.176 2648.25 122.847 2648.19 125.945C2648.14 129.285 2641.66 129.923 2641.53 132.609C2641.36 135.958 2651.03 140.264 2661.04 141.623C2672.91 143.235 2675.53 139.382 2682.45 142.572C2689.92 146.013 2690.16 152.031 2696.25 152.568C2701.56 153.038 2707.69 149.001 2708.14 144.956C2708.62 140.658 2702.42 138.593 2702.9 133.532C2703.27 129.654 2707.12 128.748 2706.71 125.919C2706.28 122.864 2701.58 122.503 2695.77 118.785C2688.53 114.16 2690.33 111.231 2683.87 106.917C2675.8 101.512 2666.74 101.931 2663.5 102.267Z" fill="#EDEBDF"/>
<path d="M2644.87 78.3625C2641.59 82.4333 2642.3 87.8721 2642.5 89.3074C2643.25 95.0652 2647.23 101.788 2652.01 102.158C2655.14 102.393 2656.06 99.7067 2660.57 98.347C2664.97 97.0209 2668.78 98.1875 2673.89 99.7739C2683.34 102.695 2683.75 105.784 2691.97 107.84C2696.57 108.99 2701.53 110.224 2705.29 107.361C2708.2 105.162 2710.02 100.823 2709.1 97.365C2708.27 94.2175 2705.81 94.2511 2704.82 90.7007C2703.78 86.974 2706.09 85.5052 2704.82 82.6095C2703.34 79.1934 2698.77 78.1275 2697.43 77.8169C2693.46 76.8853 2690.38 77.8673 2688.17 78.3289C2678.96 80.2594 2676.84 74.8541 2663.43 74.0735C2657.02 73.7042 2649.03 73.209 2644.87 78.3625Z" fill="#EDEBDF"/>
<path d="M3937.16 78.7247C3933.19 74.612 3920.01 81.5197 3918.12 82.5353C3913.41 85.0617 3910.58 87.6468 3905.27 92.5317C3895.9 101.177 3891.2 105.499 3891.47 109.663C3891.74 113.817 3897.05 117.25 3907.65 123.94C3924.32 134.456 3929.62 133.458 3931.45 132.979C3935.05 132.031 3939.59 129.32 3940.01 125.845C3940.37 122.865 3937.39 122.001 3937.04 118.459C3936.46 112.726 3943.87 111.064 3944.3 104.904C3944.66 99.5737 3939.26 98.6673 3937.64 90.6265C3936.28 83.9202 3939.32 80.9657 3937.16 78.7247Z" fill="#8D0000"/>
<path d="M3961.5 102.151C3956.39 101.379 3951.94 104.4 3949.05 106.322C3948.18 106.902 3939.4 112.727 3940.49 118.216C3941.25 122.06 3946.26 122.731 3946.2 125.829C3946.14 128.984 3940.35 129.236 3939.53 132.493C3938.37 137.176 3948.19 144.495 3957.06 147.827C3959.8 148.86 3967.72 151.831 3977.52 150.681C3983.13 150.027 3985.25 148.499 3989.41 149.733C3995.51 151.529 3996.77 156.506 4000.36 155.919C4004.58 155.23 4006.54 147.727 4007.02 145.922C4007.68 143.429 4008.62 139.862 4007.02 136.404C4004.97 131.956 4000.97 132.577 3999.89 129.27C3998.2 124.133 4006.91 119.936 4005.6 114.523C4004.63 110.553 3998.67 107.607 3993.7 107.858C3986.19 108.236 3984.76 115.698 3978.96 115.471C3971.72 115.194 3970.53 103.519 3961.5 102.151Z" fill="#EDEBDF"/>
<path d="M3942.86 78.2464C3939.65 82.5941 3940.31 87.8903 3940.49 89.1913C3941.24 94.9491 3945.22 101.672 3950.01 102.041C3953.14 102.276 3954.05 99.5906 3958.57 98.2309C3964.75 96.3676 3966.79 100.707 3971.89 99.6578C3979.79 98.0378 3979.79 87.328 3987.51 85.9682C3992.54 85.0785 3994.52 89.2752 3999.12 87.6805C4003.56 86.1361 4007.02 80.3615 4006.07 75.9802C4005.2 72.0101 4001.42 72.4802 3998.45 66.9406C3995.91 62.1983 3997.87 60.3434 3995.04 56.5412C3994.8 56.2223 3991.36 51.7318 3986.08 51.2366C3983.83 51.0268 3983.48 51.7486 3979.42 52.1851C3973.92 52.781 3973.05 51.6059 3970.86 52.1851C3964.74 53.7966 3967.16 63.9357 3959.91 70.2643C3953.67 75.7116 3947.36 72.1696 3942.86 78.2464Z" fill="#EDEBDF"/>
<path d="M4013.69 88.3436C4012.05 87.3532 4010.53 88.6122 4004.65 90.2489C3999.92 91.5582 3997.51 92.2045 3995.13 91.6757C3991.37 90.8448 3990.82 88.4611 3988.46 88.822C3985.9 89.2165 3985.86 92.1709 3982.28 95.9563C3977.76 100.732 3974.2 99.876 3973.24 103.091C3972.18 106.641 3975.3 111.778 3978.48 112.13C3981.36 112.449 3981.92 108.571 3986.09 106.423C3994.65 102.008 4005.5 111.509 4009.41 107.371C4010.92 105.777 4009.45 104.19 4011.78 100.237C4013.53 97.2825 4015.09 96.9216 4015.59 94.5295C4016.03 92.406 4015.49 89.4347 4013.69 88.3436Z" fill="#EDEBDF"/>
<path d="M5235.18 78.0079C5231.21 73.8952 5218.03 80.8029 5216.14 81.8185C5211.43 84.3449 5208.59 86.93 5203.29 91.8149C5193.91 100.46 5189.22 104.783 5189.49 108.946C5189.76 113.1 5195.06 116.533 5205.67 123.223C5222.34 133.74 5227.64 132.741 5229.47 132.262C5233.07 131.314 5237.61 128.603 5238.03 125.128C5238.39 122.148 5235.41 121.284 5235.06 117.742C5234.48 112.009 5241.89 110.347 5242.32 104.187C5242.68 98.8569 5237.27 97.9505 5235.65 89.9096C5234.3 83.2034 5237.34 80.2489 5235.18 78.0079Z" fill="#8D0000"/>
<path d="M5259.52 101.434C5255.19 100.091 5250.65 103.23 5247.07 105.605C5246.2 106.184 5237.42 112.009 5238.51 117.498C5239.27 121.343 5244.27 122.014 5244.22 125.111C5244.16 128.435 5237.65 129.09 5237.55 131.775C5237.42 135.435 5249.24 135.301 5254.9 143.845C5257.39 147.605 5255.72 148.554 5259.18 155.738C5261.59 160.741 5264.61 167.011 5268.7 167.162C5272.18 167.288 5272.84 162.831 5279.17 160.976C5282.12 160.111 5282.39 160.967 5286.3 160.027C5289.66 159.222 5294.73 158.005 5295.82 154.79C5296.83 151.819 5293.3 150.451 5293.44 145.75C5293.58 141.327 5296.77 140.446 5296.3 136.711C5296.03 134.528 5294.88 134.344 5291.54 129.576C5287.43 123.718 5288.02 122.383 5285.83 121.015C5281.74 118.455 5278.63 122.442 5273.94 121.015C5265.7 118.506 5267.43 103.893 5259.52 101.434Z" fill="#EDEBDF"/>
<path d="M5240.88 77.5297C5239.9 79.4602 5237.85 83.4638 5238.51 88.4746C5239.26 94.2324 5243.24 100.955 5248.03 101.325C5248.76 101.384 5250.38 101.451 5256.59 97.5142C5260.92 94.778 5264.26 92.6629 5267.27 89.5993C5276.22 80.5177 5271.68 73.845 5278.7 68.1879C5285.53 62.6735 5291.9 67.3318 5298.2 60.5752C5300.8 57.797 5303.41 53.0632 5302.13 49.0763C5301.4 46.7766 5299.93 46.4912 5297.85 43.9984C5293.1 38.3329 5295.61 33.8005 5292.49 29.1673C5288.19 22.7716 5276.09 20.5977 5270.61 24.8867C5266.89 27.7908 5269.22 31.2909 5264.9 37.7369C5260.17 44.7789 5255.66 43.159 5252.53 49.1603C5248.96 55.9924 5253.94 59.6351 5250.15 66.7695C5247.46 71.8306 5244.1 71.2515 5240.88 77.5297Z" fill="#EDEBDF"/>
<path d="M5299.64 66.2832C5293.38 71.3192 5288.94 66.8707 5282.98 71.5206C5276.58 76.5146 5280.29 82.7761 5272.99 89.5998C5268.1 94.1742 5263.38 94.2162 5262.99 97.691C5262.79 99.504 5263.97 100.461 5268.7 106.252C5275.32 114.36 5275.69 115.77 5277.26 115.77C5281.45 115.77 5280.68 105.749 5288.21 98.6395C5297.83 89.5411 5311.45 94.2749 5314.38 86.7461C5315.96 82.667 5312.45 80.065 5314.85 74.8528C5316.85 70.5218 5320.06 70.6225 5321.52 66.2916C5322.52 63.3203 5322.55 58.7208 5319.61 55.8251C5316.99 53.2399 5312.76 52.7699 5309.62 53.9198C5304.15 55.9258 5305.35 61.6752 5299.64 66.2832Z" fill="#EDEBDF"/>
<path d="M5300.11 96.7345C5297.01 96.7597 5294.87 98.8077 5290.59 102.92C5288.75 104.683 5280.61 112.506 5282.5 115.771C5283.48 117.466 5286.09 116.056 5289.16 118.146C5293.17 120.882 5291.93 125.498 5294.4 126.707C5298.76 128.847 5312.86 119.38 5311.53 108.628C5310.81 102.778 5305.53 96.7009 5300.11 96.7345Z" fill="#EDEBDF"/>
<path d="M6533.21 78.1944C6529.24 74.0817 6516.06 80.9894 6514.18 82.005C6509.47 84.5314 6506.63 87.1165 6501.32 92.0015C6491.95 100.647 6487.26 104.969 6487.53 109.132C6487.79 113.287 6493.1 116.72 6503.71 123.409C6520.38 133.926 6525.67 132.927 6527.5 132.449C6531.1 131.5 6535.65 128.789 6536.06 125.315C6536.43 122.335 6533.45 121.47 6533.09 117.928C6532.51 112.196 6539.93 110.534 6540.35 104.373C6540.71 99.0435 6535.31 98.137 6533.69 90.0962C6532.34 83.3899 6535.38 80.4355 6533.21 78.1944Z" fill="#8D0000"/>
<path d="M9032.16 78.087C9036.13 73.9743 9049.3 80.882 9051.19 81.8976C9055.9 84.424 9058.74 87.0091 9064.04 91.894C9073.42 100.539 9078.11 104.862 9077.84 109.025C9077.57 113.18 9072.27 116.612 9061.66 123.302C9044.99 133.819 9039.69 132.82 9037.86 132.342C9034.26 131.393 9029.72 128.682 9029.3 125.207C9028.94 122.228 9031.92 121.363 9032.27 117.821C9032.85 112.088 9025.44 110.427 9025.01 104.266C9024.65 98.936 9030.06 98.0296 9031.68 89.9888C9033.03 83.2825 9029.99 80.328 9032.16 78.087Z" fill="#8D0000"/>
<path d="M6560.09 114.504C6558.68 112.59 6552.41 104.088 6545.1 105.792C6539.77 107.034 6535.68 113.329 6536.54 117.685C6537.31 121.529 6542.31 122.201 6542.25 125.298C6542.2 128.084 6538.53 129.075 6535.59 131.962C6528.38 139.021 6535.44 148.161 6530.11 162.086C6526.54 171.411 6521.11 173.224 6522.01 180.165C6522.57 184.395 6525.28 189.028 6528.2 189.205C6531.49 189.406 6533.47 183.85 6535.33 184.446C6537.64 185.184 6534.43 193.603 6538.67 198.723C6542.16 202.944 6549.88 203.901 6552.94 201.098C6554.72 199.47 6553.46 197.917 6555.32 194.434C6558.03 189.372 6562.22 189.775 6563.41 185.872C6564.49 182.288 6561.34 180.744 6561.98 177.311C6563.07 171.495 6572.7 172.703 6576.26 166.845C6580.29 160.197 6570.71 153.995 6565.79 132.105C6564.04 124.291 6564.11 119.951 6560.09 114.504Z" fill="#EDEBDF"/>
<path d="M9005.28 114.397C9006.69 112.483 9012.96 103.98 9020.26 105.684C9025.6 106.926 9029.69 113.221 9028.82 117.578C9028.06 121.422 9023.06 122.093 9023.12 125.19C9023.17 127.977 9026.83 128.967 9029.78 131.855C9036.99 138.913 9029.93 148.054 9035.26 161.978C9038.83 171.303 9044.26 173.116 9043.35 180.058C9042.8 184.288 9040.09 188.921 9037.17 189.097C9033.88 189.299 9031.9 183.742 9030.03 184.338C9027.72 185.077 9030.94 193.495 9026.7 198.615C9023.21 202.837 9015.49 203.794 9012.42 200.991C9010.64 199.362 9011.9 197.809 9010.05 194.326C9007.34 189.265 9003.15 189.668 9001.96 185.765C9000.87 182.181 9004.03 180.637 9003.38 177.204C9002.3 171.387 8992.67 172.596 8989.11 166.737C8985.08 160.09 8994.65 153.887 8999.57 131.997C9001.33 124.183 9001.26 119.844 9005.28 114.397Z" fill="#EDEBDF"/>
<path d="M6538.93 77.7158C6537.92 82.2986 6535.94 84.0444 6536.55 88.6607C6537.31 94.4186 6541.29 101.142 6546.07 101.511C6549.91 101.805 6553.09 99.0936 6554.63 97.7003C6559.97 92.8826 6559.17 88.5013 6562.47 82.1475C6568.92 69.7422 6579.38 72.1762 6583.29 60.627C6585.03 55.4483 6583.21 54.1306 6585.79 47.8859C6588.64 40.9866 6592.44 38.7792 6591.49 35.0357C6590.65 31.6784 6586.6 29.5549 6583.88 28.8498C6578.82 27.5405 6576.44 30.6376 6572.94 28.8498C6570.09 27.3978 6570.87 24.9469 6567.7 21.2371C6564.52 17.5105 6558.5 13.8426 6554.85 15.5296C6552.05 16.8222 6553.14 20.1376 6549.14 27.9014C6548.27 29.5885 6546.31 33.3319 6542.96 36.941C6537.58 42.7324 6534.99 41.3139 6532.96 44.5538C6528.04 52.4435 6542.24 62.5827 6538.93 77.7158Z" fill="#EDEBDF"/>
<path d="M9026.44 77.6084C9027.45 82.1912 9029.43 83.937 9028.82 88.5533C9028.06 94.3111 9024.08 101.034 9019.3 101.403C9015.45 101.697 9012.27 98.9862 9010.74 97.5929C9005.4 92.7752 9006.2 88.3938 9002.9 82.0401C8996.45 69.6347 8985.98 72.0688 8982.08 60.5196C8980.34 55.3409 8982.16 54.0231 8979.58 47.7785C8976.73 40.8792 8972.92 38.6717 8973.87 34.9283C8974.72 31.571 8978.77 29.4475 8981.49 28.7424C8986.55 27.4331 8988.93 30.5302 8992.43 28.7424C8995.28 27.2904 8994.5 24.8395 8997.67 21.1297C9000.85 17.403 9006.87 13.7352 9010.52 15.4222C9013.32 16.7148 9012.23 20.0302 9016.23 27.794C9017.1 29.481 9019.05 33.2245 9022.41 36.8336C9027.79 42.625 9030.38 41.2065 9032.41 44.4463C9037.33 52.3361 9023.12 62.4752 9026.44 77.6084Z" fill="#EDEBDF"/>
<path d="M6596.25 38.8464C6591.46 41.9939 6589.6 46.9711 6587.21 53.5935C6583.94 62.6919 6585.96 62.7086 6583.64 66.855C6578.58 75.903 6570.08 73.8802 6565.84 82.8862C6563.76 87.3095 6565.4 88.6944 6562.66 93.3191C6558.87 99.6981 6553.44 101.007 6553.9 103.081C6554.47 105.624 6563.29 106.287 6570.55 105.456C6575.72 104.868 6588.15 103.441 6597.2 94.0326C6603.1 87.9054 6602.46 83.692 6608.63 80.7123C6614.39 77.9258 6618.5 79.8814 6621 76.4318C6622.94 73.7459 6621 71.807 6621.95 64.06C6622.79 57.2026 6624.72 55.482 6623.37 53.5935C6620.87 50.0683 6613.11 54.4916 6609.57 50.7398C6606.07 47.0215 6611.01 39.82 6607.67 36.9411C6605.08 34.7169 6599.46 36.7481 6596.25 38.8464Z" fill="#EDEBDF"/>
<path d="M8969.11 38.739C8973.91 41.8865 8975.77 46.8637 8978.15 53.4861C8981.43 62.5844 8979.4 62.6012 8981.73 66.7475C8986.79 75.7955 8995.28 73.7727 8999.52 82.7788C9001.6 87.2021 8999.97 88.587 9002.71 93.2117C9006.5 99.5906 9011.93 100.9 9011.47 102.973C9010.9 105.516 9002.07 106.179 8994.81 105.348C8989.64 104.761 8977.22 103.334 8968.17 93.9251C8962.27 87.798 8962.91 83.5846 8956.74 80.6049C8950.98 77.8183 8946.87 79.774 8944.37 76.3243C8942.42 73.6385 8944.37 71.6996 8943.42 63.9526C8942.57 57.0952 8940.65 55.3746 8942 53.4861C8944.5 49.9609 8952.26 54.3842 8955.79 50.6323C8959.3 46.9141 8954.36 39.7126 8957.7 36.8337C8960.28 34.6095 8965.91 36.6407 8969.11 38.739Z" fill="#EDEBDF"/>
<path d="M6587.21 118.314C6582.21 113.438 6581.76 108.251 6577.22 107.369C6575.76 107.084 6575.98 107.655 6570.55 108.318C6564.55 109.056 6562.64 108.553 6561.99 109.745C6561.15 111.289 6563.7 113.412 6565.77 117.374C6568.24 122.1 6568.06 125.658 6568.66 130.199C6569.91 139.742 6572.74 139.474 6576.27 152.089C6580.11 165.82 6578.95 173.937 6583.4 175.406C6586.14 176.304 6587.65 173.609 6591.49 174.457C6597.29 175.733 6598.31 182.851 6601.01 182.548C6604.07 182.204 6607.03 172.627 6605.77 163.042C6604.49 153.222 6599.06 145.576 6600.06 144.963C6600.88 144.468 6603.69 149.932 6607.68 149.722C6610.09 149.596 6612.57 147.414 6613.38 144.963C6615.48 138.676 6607 129.561 6599.71 124.886C6593.27 120.74 6591.49 122.486 6587.21 118.314Z" fill="#EDEBDF"/>
<path d="M8978.15 118.207C8983.16 113.33 8983.61 108.143 8988.15 107.262C8989.61 106.976 8989.39 107.547 8994.81 108.21C9000.82 108.949 9002.73 108.445 9003.38 109.637C9004.21 111.182 9001.67 113.305 8999.6 117.267C8997.13 121.992 8997.31 125.551 8996.71 130.092C8995.46 139.635 8992.63 139.366 8989.1 151.982C8985.25 165.713 8986.42 173.829 8981.96 175.298C8979.23 176.196 8977.72 173.502 8973.87 174.35C8968.08 175.626 8967.06 182.743 8964.35 182.441C8961.3 182.097 8958.34 172.52 8959.6 162.935C8960.88 153.115 8966.31 145.468 8965.3 144.856C8964.49 144.36 8961.68 149.824 8957.69 149.615C8955.27 149.489 8952.8 147.306 8951.98 144.856C8949.88 138.569 8958.37 129.454 8965.66 124.779C8972.1 120.632 8973.87 122.378 8978.15 118.207Z" fill="#EDEBDF"/>
<path d="M6615.29 97.3733C6614.56 93.0507 6619.86 90.0879 6618.62 87.8552C6617.51 85.866 6612.06 85.9919 6607.68 87.8552C6600.63 90.8517 6601.39 96.2066 6593.88 100.705C6587.96 104.247 6583.76 103.148 6582.93 105.943C6581.78 109.787 6588.75 115.058 6590.55 116.409C6597.04 121.328 6599.68 119.523 6605.77 124.022C6612.39 128.915 6613.1 133.859 6616.72 133.54C6619.47 133.297 6619.54 130.393 6625.28 126.876C6629.03 124.584 6631.44 124.324 6631.46 123.065C6631.5 120.95 6624.58 121.034 6622.9 116.879C6621.53 113.497 6625.29 111.424 6624.33 107.361C6623.1 102.157 6616.1 102.132 6615.29 97.3733Z" fill="#EDEBDF"/>
<path d="M8950.08 97.2659C8950.81 92.9433 8945.5 89.9804 8946.75 87.7478C8947.85 85.7586 8953.31 85.8845 8957.69 87.7478C8964.74 90.7442 8963.98 96.0992 8971.49 100.598C8977.41 104.14 8981.6 103.04 8982.43 105.835C8983.58 109.68 8976.62 114.951 8974.82 116.302C8968.33 121.22 8965.69 119.416 8959.6 123.915C8952.97 128.808 8952.27 133.752 8948.65 133.433C8945.9 133.189 8945.83 130.285 8940.09 126.768C8936.34 124.477 8933.93 124.217 8933.9 122.958C8933.87 120.843 8940.79 120.927 8942.47 116.772C8943.83 113.389 8940.08 111.316 8941.04 107.254C8942.26 102.05 8949.27 102.025 8950.08 97.2659Z" fill="#EDEBDF"/>
</svg>
