<svg width="3120" height="240" viewBox="0 0 3120 240" fill="none" xmlns="http://www.w3.org/2000/svg">
<path d="M2760 240C2826.27 240 2880 186.274 2880 120C2880 53.7258 2826.27 0 2760 0C2693.73 0 2640 53.7258 2640 120C2640 186.274 2693.73 240 2760 240Z" fill="#8D0000"/>
<path d="M3000 240C3066.27 240 3120 186.274 3120 120C3120 53.7258 3066.27 0 3000 0C2933.73 0 2880 53.7258 2880 120C2880 186.274 2933.73 240 3000 240Z" fill="#8D0000"/>
<path d="M2615.63 47.5188C2593.72 18.6477 2559.04 0 2520 0C2453.72 0 2400 53.7277 2400 120C2400 186.272 2453.72 240 2520 240C2559.04 240 2593.72 221.352 2615.64 192.481C2600.35 172.341 2591.27 147.234 2591.27 120C2591.27 92.7658 2600.35 67.6587 2615.63 47.5188Z" fill="#8D0000"/>
<path d="M2313.29 119.996C2313.29 82.8634 2330.16 49.6743 2356.64 27.6646C2335.85 10.3892 2309.14 0 2280 0C2213.73 0 2160 53.7241 2160 120C2160 186.276 2213.72 240 2280 240C2309.14 240 2335.85 229.607 2356.64 212.335C2330.16 190.315 2313.29 157.126 2313.29 119.996Z" fill="#8D0000"/>
<path d="M2040 120C2040 75.5856 2064.13 36.8085 2100 16.0583C2082.35 5.849 2061.86 0 2040 0C1973.73 0 1920 53.7242 1920 120C1920 186.276 1973.72 240 2040 240C2061.86 240 2082.35 234.155 2100 223.942C2064.13 203.191 2040 164.414 2040 120Z" fill="#8D0000"/>
<path d="M1773 120C1773 70.2164 1803.32 27.5129 1846.5 9.34501C1832.2 3.32667 1816.49 0 1800 0C1733.73 0 1680 53.7241 1680 120C1680 186.276 1733.72 240 1800 240C1816.49 240 1832.2 236.673 1846.5 230.655C1803.32 212.487 1773 169.787 1773 120Z" fill="#8D0000"/>
<path d="M1510.2 120C1510.2 65.9407 1545.95 20.2317 1595.1 5.22107C1584 1.8309 1572.21 0 1560 0C1493.73 0 1440 53.7241 1440 120C1440 186.276 1493.72 240 1560 240C1572.21 240 1584 238.169 1595.1 234.779C1545.96 219.768 1510.2 174.063 1510.2 120Z" fill="#8D0000"/>
<path d="M1254.6 120C1254.6 63.1185 1294.18 15.4798 1347.3 3.12207C1338.53 1.08303 1329.39 0 1320 0C1253.73 0 1200 53.7241 1200 120C1200 186.276 1253.72 240 1320 240C1329.39 240 1338.53 238.921 1347.3 236.878C1294.18 224.52 1254.6 176.885 1254.6 120Z" fill="#8D0000"/>
<path d="M995.401 120C995.401 59.739 1039.82 9.86007 1097.7 1.30174C1091.92 0.448025 1086.01 0 1080 0C1013.73 0 960 53.7242 960 120C960 186.276 1013.72 240 1080 240C1086.01 240 1091.92 239.552 1097.7 238.698C1039.82 230.14 995.401 180.261 995.401 120Z" fill="#8D0000"/>
<path d="M492.001 119.996C492.001 55.7349 542.515 3.27375 606.001 0.148166C604.015 0.0493885 602.014 0 600 0C533.728 0 480 53.7241 480 120C480 186.276 533.724 240 600 240C602.011 240 604.011 239.947 606.001 239.852C542.515 236.719 492.001 184.258 492.001 119.996Z" fill="#8D0000"/>
<path d="M745.474 120C745.474 58.028 792.453 7.03435 852.735 0.673813C848.551 0.232844 844.3 0 840 0C773.728 0 720 53.7241 720 120C720 186.276 773.724 240 840 240C844.304 240 848.551 239.767 852.735 239.326C792.449 232.966 745.474 181.972 745.474 120Z" fill="#8D0000"/>
<path d="M2706.15 147H2696.93C2697.55 146.06 2697.97 144.94 2698.21 143.637C2698.34 142.911 2698.4 141.854 2698.4 140.466V108.278C2698.4 106.292 2697.41 105.085 2695.42 104.658L2704.74 95.8505V140.466C2704.74 141.94 2704.79 142.954 2704.9 143.509C2705.14 144.769 2705.55 145.932 2706.15 147ZM2740.53 124.836C2740.53 140.103 2735.4 147.737 2725.13 147.737C2719.98 147.737 2716.17 145.132 2713.69 139.922C2711.84 135.972 2710.91 131.103 2710.91 125.317C2710.91 121.089 2711.37 116.968 2712.29 112.954C2713.4 108.192 2715 104.391 2717.09 101.552C2719.33 98.5196 2721.99 96.9929 2725.07 96.9715C2728.42 96.9502 2731.36 98.4342 2733.9 101.423C2736.06 103.964 2737.73 107.509 2738.9 112.057C2739.99 116.242 2740.53 120.502 2740.53 124.836ZM2734 123.972C2734 118.975 2733.25 114.427 2731.76 110.327C2730.05 105.63 2727.84 103.27 2725.13 103.249C2722.8 103.228 2720.88 105.705 2719.36 110.68C2718.06 114.993 2717.4 119.733 2717.38 124.9C2717.38 129.064 2717.93 132.673 2719.04 135.726C2720.43 139.527 2722.46 141.438 2725.13 141.459C2729.4 141.48 2732.13 138.47 2733.33 132.427C2733.78 130.164 2734 127.345 2734 123.972ZM2773.23 124.836C2773.23 140.103 2768.09 147.737 2757.82 147.737C2752.68 147.737 2748.87 145.132 2746.39 139.922C2744.53 135.972 2743.6 131.103 2743.6 125.317C2743.6 121.089 2744.06 116.968 2744.98 112.954C2746.09 108.192 2747.69 104.391 2749.79 101.552C2752.03 98.5196 2754.69 96.9929 2757.76 96.9715C2761.11 96.9502 2764.06 98.4342 2766.6 101.423C2768.76 103.964 2770.42 107.509 2771.6 112.057C2772.69 116.242 2773.23 120.502 2773.23 124.836ZM2766.7 123.972C2766.7 118.975 2765.95 114.427 2764.45 110.327C2762.75 105.63 2760.54 103.27 2757.82 103.249C2755.5 103.228 2753.58 105.705 2752.06 110.68C2750.76 114.993 2750.09 119.733 2750.07 124.9C2750.07 129.064 2750.63 132.673 2751.74 135.726C2753.13 139.527 2755.16 141.438 2757.82 141.459C2762.09 141.48 2764.83 138.47 2766.02 132.427C2766.47 130.164 2766.7 127.345 2766.7 123.972ZM2826.68 134.221C2826.68 143.189 2823.61 147.694 2817.46 147.737C2814.3 147.758 2811.99 146.242 2810.54 143.189C2809.45 140.925 2808.89 138.021 2808.87 134.477C2808.85 130.313 2809.51 126.577 2810.86 123.267C2812.42 119.445 2814.58 117.523 2817.36 117.502C2820.43 117.48 2822.83 119.327 2824.53 123.043C2825.94 126.139 2826.66 129.865 2826.68 134.221ZM2818.19 96.9715C2817.27 98.0819 2816.33 99.3416 2815.37 100.751C2814.69 101.754 2814.17 102.715 2813.8 103.633L2796.7 147H2788.15C2789.77 145.27 2791.18 142.911 2792.38 139.922L2809.54 96.9715H2818.19ZM2796.44 113.658C2796.44 118.014 2795.72 121.313 2794.27 123.555C2792.69 125.968 2790.34 127.185 2787.22 127.206C2784.08 127.228 2781.79 125.712 2780.33 122.658C2779.22 120.374 2778.66 117.47 2778.64 113.947C2778.59 109.804 2779.26 106.046 2780.62 102.673C2782.14 98.8932 2784.32 96.9929 2787.16 96.9715C2790.21 96.9502 2792.59 98.7972 2794.3 102.512C2795.73 105.587 2796.44 109.302 2796.44 113.658ZM2821.2 133.548C2821.22 131.669 2821 129.843 2820.53 128.071C2819.87 125.509 2818.86 124.228 2817.52 124.228C2816.54 124.228 2815.76 125.285 2815.18 127.399C2814.65 129.384 2814.37 131.584 2814.35 133.996C2814.33 136.601 2814.64 138.502 2815.28 139.698C2815.81 140.701 2816.56 141.214 2817.52 141.235C2818.99 141.278 2820.03 140.477 2820.63 138.833C2820.99 137.829 2821.18 136.068 2821.2 133.548ZM2790.97 112.986C2790.99 110.701 2790.7 108.673 2790.1 106.9C2789.38 104.765 2788.44 103.698 2787.28 103.698C2786.3 103.698 2785.52 104.754 2784.95 106.868C2784.41 108.854 2784.14 111.053 2784.11 113.466C2784.09 118.249 2785.15 120.651 2787.28 120.673C2788.78 120.694 2789.82 119.893 2790.39 118.27C2790.75 117.224 2790.95 115.463 2790.97 112.986Z" fill="#EDEBDF"/>
<path d="M2946.15 147H2936.93C2937.55 146.06 2937.97 144.94 2938.21 143.637C2938.34 142.911 2938.4 141.854 2938.4 140.466V108.278C2938.4 106.292 2937.41 105.085 2935.42 104.658L2944.74 95.8505V140.466C2944.74 141.94 2944.79 142.954 2944.9 143.509C2945.14 144.769 2945.55 145.932 2946.15 147ZM2980.53 124.836C2980.53 140.103 2975.4 147.737 2965.13 147.737C2959.98 147.737 2956.17 145.132 2953.69 139.922C2951.84 135.972 2950.91 131.103 2950.91 125.317C2950.91 121.089 2951.37 116.968 2952.29 112.954C2953.4 108.192 2955 104.391 2957.09 101.552C2959.33 98.5196 2961.99 96.9929 2965.07 96.9715C2968.42 96.9502 2971.36 98.4342 2973.9 101.423C2976.06 103.964 2977.73 107.509 2978.9 112.057C2979.99 116.242 2980.53 120.502 2980.53 124.836ZM2974 123.972C2974 118.975 2973.25 114.427 2971.76 110.327C2970.05 105.63 2967.84 103.27 2965.13 103.249C2962.8 103.228 2960.88 105.705 2959.36 110.68C2958.06 114.993 2957.4 119.733 2957.38 124.9C2957.38 129.064 2957.93 132.673 2959.04 135.726C2960.43 139.527 2962.46 141.438 2965.13 141.459C2969.4 141.48 2972.13 138.47 2973.33 132.427C2973.78 130.164 2974 127.345 2974 123.972ZM3013.23 124.836C3013.23 140.103 3008.09 147.737 2997.82 147.737C2992.68 147.737 2988.87 145.132 2986.39 139.922C2984.53 135.972 2983.6 131.103 2983.6 125.317C2983.6 121.089 2984.06 116.968 2984.98 112.954C2986.09 108.192 2987.69 104.391 2989.79 101.552C2992.03 98.5196 2994.69 96.9929 2997.76 96.9715C3001.11 96.9502 3004.06 98.4342 3006.6 101.423C3008.76 103.964 3010.42 107.509 3011.6 112.057C3012.69 116.242 3013.23 120.502 3013.23 124.836ZM3006.7 123.972C3006.7 118.975 3005.95 114.427 3004.45 110.327C3002.75 105.63 3000.54 103.27 2997.82 103.249C2995.5 103.228 2993.58 105.705 2992.06 110.68C2990.76 114.993 2990.09 119.733 2990.07 124.9C2990.07 129.064 2990.63 132.673 2991.74 135.726C2993.13 139.527 2995.16 141.438 2997.82 141.459C3002.09 141.48 3004.83 138.47 3006.02 132.427C3006.47 130.164 3006.7 127.345 3006.7 123.972ZM3066.68 134.221C3066.68 143.189 3063.61 147.694 3057.46 147.737C3054.3 147.758 3051.99 146.242 3050.54 143.189C3049.45 140.925 3048.89 138.021 3048.87 134.477C3048.85 130.313 3049.51 126.577 3050.86 123.267C3052.42 119.445 3054.58 117.523 3057.36 117.502C3060.43 117.48 3062.83 119.327 3064.53 123.043C3065.94 126.139 3066.66 129.865 3066.68 134.221ZM3058.19 96.9715C3057.27 98.0819 3056.33 99.3416 3055.37 100.751C3054.69 101.754 3054.17 102.715 3053.8 103.633L3036.7 147H3028.15C3029.77 145.27 3031.18 142.911 3032.38 139.922L3049.54 96.9715H3058.19ZM3036.44 113.658C3036.44 118.014 3035.72 121.313 3034.27 123.555C3032.69 125.968 3030.34 127.185 3027.22 127.206C3024.08 127.228 3021.79 125.712 3020.33 122.658C3019.22 120.374 3018.66 117.47 3018.64 113.947C3018.59 109.804 3019.26 106.046 3020.62 102.673C3022.14 98.8932 3024.32 96.9929 3027.16 96.9715C3030.21 96.9502 3032.59 98.7972 3034.3 102.512C3035.73 105.587 3036.44 109.302 3036.44 113.658ZM3061.2 133.548C3061.22 131.669 3061 129.843 3060.53 128.071C3059.87 125.509 3058.86 124.228 3057.52 124.228C3056.54 124.228 3055.76 125.285 3055.18 127.399C3054.65 129.384 3054.37 131.584 3054.35 133.996C3054.33 136.601 3054.64 138.502 3055.28 139.698C3055.81 140.701 3056.56 141.214 3057.52 141.235C3058.99 141.278 3060.03 140.477 3060.63 138.833C3060.99 137.829 3061.18 136.068 3061.2 133.548ZM3030.97 112.986C3030.99 110.701 3030.7 108.673 3030.1 106.9C3029.38 104.765 3028.44 103.698 3027.28 103.698C3026.3 103.698 3025.52 104.754 3024.95 106.868C3024.41 108.854 3024.14 111.053 3024.11 113.466C3024.09 118.249 3025.15 120.651 3027.28 120.673C3028.78 120.694 3029.82 119.893 3030.39 118.27C3030.75 117.224 3030.95 115.463 3030.97 112.986Z" fill="#EDEBDF"/>
<path d="M1772.58 128.007C1772.58 133.986 1770.85 138.758 1767.39 142.324C1763.93 145.89 1759.11 147.673 1752.92 147.673C1750.27 147.673 1748.07 147.406 1746.32 146.872C1744.57 146.317 1742.61 145.281 1740.46 143.765L1745.17 137.103C1746.6 138.384 1747.92 139.313 1749.14 139.89C1750.72 140.616 1752.37 140.989 1754.1 141.011C1757.52 141.032 1760.34 139.815 1762.56 137.359C1764.67 134.989 1765.75 132.075 1765.79 128.616C1765.81 125.819 1764.94 123.512 1763.17 121.698C1761.33 119.819 1758.9 118.868 1755.86 118.847C1752.79 118.826 1750.08 119.594 1747.73 121.153V97.2598H1770.37V105.907C1769.2 104.989 1768.19 104.359 1767.36 104.018C1766.64 103.719 1765.61 103.569 1764.29 103.569H1753.91V112.537C1754.91 112.345 1756.07 112.249 1757.37 112.249C1761.92 112.228 1765.61 113.722 1768.45 116.733C1771.21 119.68 1772.58 123.438 1772.58 128.007ZM1804.86 124.836C1804.86 140.103 1799.72 147.737 1789.45 147.737C1784.3 147.737 1780.49 145.132 1778.02 139.922C1776.16 135.972 1775.23 131.103 1775.23 125.317C1775.23 121.089 1775.69 116.968 1776.61 112.954C1777.72 108.192 1779.32 104.391 1781.41 101.552C1783.65 98.5196 1786.31 96.9929 1789.39 96.9715C1792.74 96.9502 1795.68 98.4342 1798.23 101.423C1800.38 103.964 1802.05 107.509 1803.22 112.057C1804.31 116.242 1804.86 120.502 1804.86 124.836ZM1798.32 123.972C1798.32 118.975 1797.57 114.427 1796.08 110.327C1794.37 105.63 1792.16 103.27 1789.45 103.249C1787.12 103.228 1785.2 105.705 1783.68 110.68C1782.38 114.993 1781.72 119.733 1781.7 124.9C1781.7 129.064 1782.25 132.673 1783.36 135.726C1784.75 139.527 1786.78 141.438 1789.45 141.459C1793.72 141.48 1796.45 138.47 1797.65 132.427C1798.1 130.164 1798.32 127.345 1798.32 123.972ZM1858.3 134.221C1858.3 143.189 1855.23 147.694 1849.08 147.737C1845.92 147.758 1843.61 146.242 1842.16 143.189C1841.07 140.925 1840.52 138.021 1840.5 134.477C1840.48 130.313 1841.14 126.577 1842.48 123.267C1844.04 119.445 1846.21 117.523 1848.98 117.502C1852.06 117.48 1854.45 119.327 1856.16 123.043C1857.57 126.139 1858.28 129.865 1858.3 134.221ZM1849.82 96.9715C1848.9 98.0819 1847.96 99.3416 1847 100.751C1846.32 101.754 1845.79 102.715 1845.43 103.633L1828.33 147H1819.77C1821.4 145.27 1822.81 142.911 1824 139.922L1841.17 96.9715H1849.82ZM1828.07 113.658C1828.07 118.014 1827.34 121.313 1825.89 123.555C1824.31 125.968 1821.96 127.185 1818.85 127.206C1815.71 127.228 1813.41 125.712 1811.96 122.658C1810.85 120.374 1810.28 117.47 1810.26 113.947C1810.22 109.804 1810.88 106.046 1812.25 102.673C1813.76 98.8932 1815.94 96.9929 1818.78 96.9715C1821.84 96.9502 1824.22 98.7972 1825.92 102.512C1827.35 105.587 1828.07 109.302 1828.07 113.658ZM1852.83 133.548C1852.85 131.669 1852.63 129.843 1852.16 128.071C1851.49 125.509 1850.49 124.228 1849.14 124.228C1848.16 124.228 1847.38 125.285 1846.81 127.399C1846.27 129.384 1846 131.584 1845.97 133.996C1845.95 136.601 1846.26 138.502 1846.9 139.698C1847.44 140.701 1848.18 141.214 1849.14 141.235C1850.62 141.278 1851.65 140.477 1852.25 138.833C1852.61 137.829 1852.81 136.068 1852.83 133.548ZM1822.59 112.986C1822.61 110.701 1822.33 108.673 1821.73 106.9C1821 104.765 1820.06 103.698 1818.91 103.698C1817.93 103.698 1817.15 104.754 1816.57 106.868C1816.04 108.854 1815.76 111.053 1815.74 113.466C1815.72 118.249 1816.77 120.651 1818.91 120.673C1820.4 120.694 1821.44 119.893 1822.02 118.27C1822.38 117.224 1822.57 115.463 1822.59 112.986Z" fill="#EDEBDF"/>
<path d="M2013.65 132.811C2013.65 137.06 2012.35 140.541 2009.77 143.253C2007.1 146.05 2003.67 147.448 1999.49 147.448C1994.64 147.448 1990.8 145.687 1987.96 142.164C1985.12 138.641 1983.69 133.943 1983.67 128.071C1983.67 122.989 1985.15 117.427 1988.12 111.384C1990.85 105.833 1994.24 101.146 1998.27 97.3238H2006.57C2000.5 103.388 1996.09 109.623 1993.34 116.028C1991.55 120.192 1990.64 124.206 1990.62 128.071C1990.6 131.381 1991.24 134.189 1992.54 136.495C1994.12 139.356 1996.44 140.786 1999.49 140.786C2001.69 140.786 2003.43 140.028 2004.71 138.512C2006.01 136.975 2006.67 134.872 2006.7 132.203C2006.72 130.58 2006.27 129.139 2005.35 127.879C2004.37 126.47 2003.1 125.754 2001.54 125.733C2000.6 125.712 1999.77 125.989 1999.04 126.566C1998.34 127.142 1997.96 127.89 1997.92 128.808C1997.9 129.534 1998.16 130.228 1998.69 130.89C1999.12 131.402 1999.82 131.925 2000.8 132.459C1999.63 133.655 1998.54 134.263 1997.54 134.285C1995.93 134.306 1994.62 133.58 1993.6 132.107C1992.7 130.783 1992.24 129.288 1992.22 127.623C1992.2 125.359 1993.07 123.395 1994.85 121.73C1996.64 120.064 1998.68 119.221 2000.96 119.199C2004.57 119.178 2007.6 120.459 2010.06 123.043C2012.45 125.541 2013.65 128.797 2013.65 132.811ZM2046.28 128.007C2046.28 133.986 2044.55 138.758 2041.09 142.324C2037.63 145.89 2032.8 147.673 2026.61 147.673C2023.96 147.673 2021.77 147.406 2020.01 146.872C2018.26 146.317 2016.31 145.281 2014.15 143.765L2018.86 137.103C2020.29 138.384 2021.62 139.313 2022.83 139.89C2024.41 140.616 2026.07 140.989 2027.8 141.011C2031.21 141.032 2034.03 139.815 2036.25 137.359C2038.37 134.989 2039.44 132.075 2039.49 128.616C2039.51 125.819 2038.63 123.512 2036.86 121.698C2035.03 119.819 2032.59 118.868 2029.56 118.847C2026.48 118.826 2023.77 119.594 2021.42 121.153V97.2598H2044.07V105.907C2042.89 104.989 2041.89 104.359 2041.06 104.018C2040.33 103.719 2039.31 103.569 2037.98 103.569H2027.61V112.537C2028.61 112.345 2029.76 112.249 2031.06 112.249C2035.61 112.228 2039.31 113.722 2042.15 116.733C2044.9 119.68 2046.28 123.438 2046.28 128.007ZM2099.3 134.221C2099.3 143.189 2096.23 147.694 2090.08 147.737C2086.92 147.758 2084.61 146.242 2083.16 143.189C2082.07 140.925 2081.52 138.021 2081.5 134.477C2081.48 130.313 2082.14 126.577 2083.48 123.267C2085.04 119.445 2087.21 117.523 2089.98 117.502C2093.06 117.48 2095.45 119.327 2097.16 123.043C2098.57 126.139 2099.28 129.865 2099.3 134.221ZM2090.82 96.9715C2089.9 98.0819 2088.96 99.3416 2088 100.751C2087.32 101.754 2086.79 102.715 2086.43 103.633L2069.33 147H2060.77C2062.4 145.27 2063.81 142.911 2065 139.922L2082.17 96.9715H2090.82ZM2069.07 113.658C2069.07 118.014 2068.34 121.313 2066.89 123.555C2065.31 125.968 2062.96 127.185 2059.85 127.206C2056.71 127.228 2054.41 125.712 2052.96 122.658C2051.85 120.374 2051.28 117.47 2051.26 113.947C2051.22 109.804 2051.88 106.046 2053.25 102.673C2054.76 98.8932 2056.94 96.9929 2059.78 96.9715C2062.84 96.9502 2065.22 98.7972 2066.92 102.512C2068.35 105.587 2069.07 109.302 2069.07 113.658ZM2093.83 133.548C2093.85 131.669 2093.63 129.843 2093.16 128.071C2092.49 125.509 2091.49 124.228 2090.14 124.228C2089.16 124.228 2088.38 125.285 2087.81 127.399C2087.27 129.384 2087 131.584 2086.97 133.996C2086.95 136.601 2087.26 138.502 2087.9 139.698C2088.44 140.701 2089.18 141.214 2090.14 141.235C2091.62 141.278 2092.65 140.477 2093.25 138.833C2093.61 137.829 2093.81 136.068 2093.83 133.548ZM2063.59 112.986C2063.61 110.701 2063.33 108.673 2062.73 106.9C2062 104.765 2061.06 103.698 2059.91 103.698C2058.93 103.698 2058.15 104.754 2057.57 106.868C2057.04 108.854 2056.76 111.053 2056.74 113.466C2056.72 118.249 2057.77 120.651 2059.91 120.673C2061.4 120.694 2062.44 119.893 2063.02 118.27C2063.38 117.224 2063.57 115.463 2063.59 112.986Z" fill="#EDEBDF"/>
<path d="M2251.28 129.288C2251.28 134.648 2250.11 139.004 2247.76 142.356C2245.26 145.943 2241.8 147.737 2237.38 147.737C2232.39 147.737 2228.64 145.996 2226.14 142.516C2223.9 139.441 2222.78 135.32 2222.78 130.153C2222.78 126.331 2223.37 123.171 2224.54 120.673C2225.74 118.153 2227.46 116.135 2229.7 114.619C2228.61 113.786 2227.69 112.655 2226.94 111.224C2226.26 109.9 2225.91 108.427 2225.89 106.804C2225.86 104.028 2226.89 101.669 2228.96 99.726C2230.97 97.847 2233.38 96.9075 2236.2 96.9075C2239.34 96.9075 2241.93 97.6655 2243.98 99.1815C2246.27 100.868 2247.42 103.302 2247.44 106.484C2247.46 108.256 2247.15 109.826 2246.51 111.192C2245.87 112.559 2244.92 113.68 2243.66 114.555C2245.88 115.708 2247.6 117.278 2248.82 119.263C2250.46 121.932 2251.28 125.274 2251.28 129.288ZM2241.39 106.932C2241.39 105.694 2240.9 104.701 2239.91 103.954C2239.02 103.313 2237.93 102.982 2236.65 102.961C2235.45 102.94 2234.44 103.324 2233.61 104.114C2232.79 104.904 2232.38 105.897 2232.36 107.093C2232.33 108.416 2232.74 109.484 2233.57 110.295C2234.41 111.085 2235.48 111.491 2236.81 111.512C2239.86 111.555 2241.39 110.028 2241.39 106.932ZM2244.46 128.968C2244.51 121.9 2241.95 118.356 2236.81 118.335C2232.03 118.313 2229.61 122.391 2229.57 130.569C2229.55 133.473 2230.15 135.918 2231.36 137.904C2232.77 140.21 2234.68 141.374 2237.1 141.395C2241.96 141.416 2244.42 137.274 2244.46 128.968ZM2284.68 124.836C2284.68 140.103 2279.54 147.737 2269.27 147.737C2264.13 147.737 2260.32 145.132 2257.84 139.922C2255.98 135.972 2255.05 131.103 2255.05 125.317C2255.05 121.089 2255.51 116.968 2256.43 112.954C2257.54 108.192 2259.14 104.391 2261.23 101.552C2263.48 98.5196 2266.13 96.9929 2269.21 96.9715C2272.56 96.9502 2275.51 98.4342 2278.05 101.423C2280.21 103.964 2281.87 107.509 2283.05 112.057C2284.13 116.242 2284.68 120.502 2284.68 124.836ZM2278.15 123.972C2278.15 118.975 2277.4 114.427 2275.9 110.327C2274.2 105.63 2271.99 103.27 2269.27 103.249C2266.95 103.228 2265.02 105.705 2263.51 110.68C2262.21 114.993 2261.54 119.733 2261.52 124.9C2261.52 129.064 2262.08 132.673 2263.19 135.726C2264.58 139.527 2266.6 141.438 2269.27 141.459C2273.54 141.48 2276.28 138.47 2277.47 132.427C2277.92 130.164 2278.15 127.345 2278.15 123.972ZM2338.13 134.221C2338.13 143.189 2335.05 147.694 2328.9 147.737C2325.74 147.758 2323.44 146.242 2321.99 143.189C2320.9 140.925 2320.34 138.021 2320.32 134.477C2320.3 130.313 2320.96 126.577 2322.31 123.267C2323.87 119.445 2326.03 117.523 2328.81 117.502C2331.88 117.48 2334.27 119.327 2335.98 123.043C2337.39 126.139 2338.11 129.865 2338.13 134.221ZM2329.64 96.9715C2328.72 98.0819 2327.78 99.3416 2326.82 100.751C2326.14 101.754 2325.62 102.715 2325.25 103.633L2308.15 147H2299.6C2301.22 145.27 2302.63 142.911 2303.83 139.922L2320.99 96.9715H2329.64ZM2307.89 113.658C2307.89 118.014 2307.17 121.313 2305.72 123.555C2304.14 125.968 2301.79 127.185 2298.67 127.206C2295.53 127.228 2293.24 125.712 2291.78 122.658C2290.67 120.374 2290.11 117.47 2290.09 113.947C2290.04 109.804 2290.71 106.046 2292.07 102.673C2293.59 98.8932 2295.77 96.9929 2298.61 96.9715C2301.66 96.9502 2304.04 98.7972 2305.75 102.512C2307.18 105.587 2307.89 109.302 2307.89 113.658ZM2332.65 133.548C2332.67 131.669 2332.45 129.843 2331.98 128.071C2331.32 125.509 2330.31 124.228 2328.97 124.228C2327.99 124.228 2327.21 125.285 2326.63 127.399C2326.1 129.384 2325.82 131.584 2325.8 133.996C2325.78 136.601 2326.09 138.502 2326.73 139.698C2327.26 140.701 2328.01 141.214 2328.97 141.235C2330.44 141.278 2331.48 140.477 2332.08 138.833C2332.44 137.829 2332.63 136.068 2332.65 133.548ZM2302.42 112.986C2302.44 110.701 2302.15 108.673 2301.55 106.9C2300.83 104.765 2299.89 103.698 2298.73 103.698C2297.75 103.698 2296.97 104.754 2296.4 106.868C2295.86 108.854 2295.58 111.053 2295.56 113.466C2295.54 118.249 2296.6 120.651 2298.73 120.673C2300.23 120.694 2301.26 119.893 2301.84 118.27C2302.2 117.224 2302.4 115.463 2302.42 112.986Z" fill="#EDEBDF"/>
<path d="M2492.7 118.911C2492.7 123.737 2491.99 128.253 2490.58 132.459C2489.07 136.964 2486.89 140.53 2484.05 143.157C2480.82 146.167 2477 147.673 2472.58 147.673C2470.28 147.673 2468.06 147.331 2465.92 146.648C2463.89 146.007 2462.05 145.11 2460.38 143.957L2465.76 138.192C2467.79 140.157 2470.21 141.139 2473.03 141.139C2478.2 141.139 2481.92 137.231 2484.21 129.416C2485.02 126.598 2485.45 123.683 2485.49 120.673C2483.21 122.893 2480.33 124.014 2476.87 124.036C2472.67 124.057 2469.38 122.776 2467.01 120.192C2464.77 117.737 2463.64 114.598 2463.61 110.776C2463.59 106.633 2464.72 103.324 2467.01 100.847C2469.36 98.2633 2472.58 96.9715 2476.68 96.9715C2482.11 96.9715 2486.23 99.2562 2489.05 103.826C2491.46 107.754 2492.68 112.783 2492.7 118.911ZM2484.56 112.73C2484.07 110.21 2483.31 108.117 2482.29 106.452C2480.88 104.167 2479.01 103.025 2476.68 103.025C2474.95 103.025 2473.45 103.719 2472.17 105.107C2470.91 106.473 2470.28 108.075 2470.28 109.911C2470.28 112.132 2470.88 113.947 2472.1 115.356C2473.34 116.744 2475.03 117.438 2477.16 117.438C2480.88 117.438 2483.34 115.868 2484.56 112.73ZM2526.16 128.007C2526.16 133.986 2524.43 138.758 2520.97 142.324C2517.51 145.89 2512.68 147.673 2506.49 147.673C2503.84 147.673 2501.64 147.406 2499.89 146.872C2498.14 146.317 2496.19 145.281 2494.03 143.765L2498.74 137.103C2500.17 138.384 2501.49 139.313 2502.71 139.89C2504.29 140.616 2505.95 140.989 2507.68 141.011C2511.09 141.032 2513.91 139.815 2516.13 137.359C2518.25 134.989 2519.32 132.075 2519.37 128.616C2519.39 125.819 2518.51 123.512 2516.74 121.698C2514.9 119.819 2512.47 118.868 2509.44 118.847C2506.36 118.826 2503.65 119.594 2501.3 121.153V97.2598H2523.95V105.907C2522.77 104.989 2521.77 104.359 2520.94 104.018C2520.21 103.719 2519.19 103.569 2517.86 103.569H2507.48V112.537C2508.49 112.345 2509.64 112.249 2510.94 112.249C2515.49 112.228 2519.19 113.722 2522.02 116.733C2524.78 119.68 2526.16 123.438 2526.16 128.007ZM2579.18 134.221C2579.18 143.189 2576.11 147.694 2569.96 147.737C2566.8 147.758 2564.49 146.242 2563.04 143.189C2561.95 140.925 2561.4 138.021 2561.38 134.477C2561.35 130.313 2562.02 126.577 2563.36 123.267C2564.92 119.445 2567.09 117.523 2569.86 117.502C2572.94 117.48 2575.33 119.327 2577.04 123.043C2578.45 126.139 2579.16 129.865 2579.18 134.221ZM2570.7 96.9715C2569.78 98.0819 2568.84 99.3416 2567.88 100.751C2567.19 101.754 2566.67 102.715 2566.31 103.633L2549.21 147H2540.65C2542.28 145.27 2543.69 142.911 2544.88 139.922L2562.05 96.9715H2570.7ZM2548.95 113.658C2548.95 118.014 2548.22 121.313 2546.77 123.555C2545.19 125.968 2542.84 127.185 2539.72 127.206C2536.59 127.228 2534.29 125.712 2532.84 122.658C2531.73 120.374 2531.16 117.47 2531.14 113.947C2531.1 109.804 2531.76 106.046 2533.13 102.673C2534.64 98.8932 2536.82 96.9929 2539.66 96.9715C2542.71 96.9502 2545.09 98.7972 2546.8 102.512C2548.23 105.587 2548.95 109.302 2548.95 113.658ZM2573.71 133.548C2573.73 131.669 2573.5 129.843 2573.03 128.071C2572.37 125.509 2571.37 124.228 2570.02 124.228C2569.04 124.228 2568.26 125.285 2567.69 127.399C2567.15 129.384 2566.87 131.584 2566.85 133.996C2566.83 136.601 2567.14 138.502 2567.78 139.698C2568.32 140.701 2569.06 141.214 2570.02 141.235C2571.5 141.278 2572.53 140.477 2573.13 138.833C2573.49 137.829 2573.69 136.068 2573.71 133.548ZM2543.47 112.986C2543.49 110.701 2543.21 108.673 2542.61 106.9C2541.88 104.765 2540.94 103.698 2539.79 103.698C2538.81 103.698 2538.03 104.754 2537.45 106.868C2536.92 108.854 2536.64 111.053 2536.62 113.466C2536.6 118.249 2537.65 120.651 2539.79 120.673C2541.28 120.694 2542.32 119.893 2542.9 118.27C2543.26 117.224 2543.45 115.463 2543.47 112.986Z" fill="#EDEBDF"/>
<path d="M348.543 124.836C348.543 140.103 343.407 147.737 333.137 147.737C327.991 147.737 324.18 145.132 321.703 139.922C319.845 135.972 318.916 131.103 318.916 125.317C318.916 121.089 319.375 116.968 320.293 112.954C321.404 108.192 323.005 104.391 325.098 101.552C327.34 98.5196 329.998 96.9929 333.073 96.9715C336.425 96.9502 339.372 98.4342 341.913 101.423C344.069 103.964 345.735 107.509 346.909 112.057C347.998 116.242 348.543 120.502 348.543 124.836ZM342.009 123.972C342.009 118.975 341.261 114.427 339.767 110.327C338.059 105.63 335.849 103.27 333.137 103.249C330.809 103.228 328.888 105.705 327.372 110.68C326.069 114.993 325.407 119.733 325.386 124.9C325.386 129.064 325.941 132.673 327.051 135.726C328.439 139.527 330.468 141.438 333.137 141.459C337.407 141.48 340.14 138.47 341.336 132.427C341.785 130.164 342.009 127.345 342.009 123.972ZM401.992 134.221C401.992 143.189 398.918 147.694 392.768 147.737C389.608 147.758 387.302 146.242 385.85 143.189C384.761 140.925 384.206 138.021 384.184 134.477C384.163 130.313 384.825 126.577 386.17 123.267C387.729 119.445 389.896 117.523 392.672 117.502C395.747 117.48 398.138 119.327 399.846 123.043C401.256 126.139 401.971 129.865 401.992 134.221ZM393.505 96.9715C392.587 98.0819 391.647 99.3416 390.686 100.751C390.003 101.754 389.48 102.715 389.117 103.633L372.014 147H363.462C365.085 145.27 366.494 142.911 367.69 139.922L384.857 96.9715H393.505ZM371.757 113.658C371.757 118.014 371.031 121.313 369.58 123.555C367.999 125.968 365.651 127.185 362.533 127.206C359.394 127.228 357.099 125.712 355.647 122.658C354.537 120.374 353.971 117.47 353.95 113.947C353.907 109.804 354.569 106.046 355.935 102.673C357.451 98.8932 359.629 96.9929 362.469 96.9715C365.523 96.9502 367.903 98.7972 369.612 102.512C371.042 105.587 371.757 109.302 371.757 113.658ZM396.515 133.548C396.537 131.669 396.313 129.843 395.843 128.071C395.181 125.509 394.177 124.228 392.832 124.228C391.85 124.228 391.071 125.285 390.494 127.399C389.96 129.384 389.683 131.584 389.661 133.996C389.64 136.601 389.95 138.502 390.59 139.698C391.124 140.701 391.871 141.214 392.832 141.235C394.305 141.278 395.341 140.477 395.939 138.833C396.302 137.829 396.494 136.068 396.515 133.548ZM366.281 112.986C366.302 110.701 366.014 108.673 365.416 106.9C364.69 104.765 363.75 103.698 362.597 103.698C361.615 103.698 360.836 104.754 360.259 106.868C359.725 108.854 359.448 111.053 359.426 113.466C359.405 118.249 360.462 120.651 362.597 120.673C364.092 120.694 365.128 119.893 365.704 118.27C366.067 117.224 366.259 115.463 366.281 112.986Z" fill="#EDEBDF"/>
<path d="M108.543 124.836C108.543 140.103 103.407 147.737 93.1369 147.737C87.991 147.737 84.1796 145.132 81.7027 139.922C79.8451 135.972 78.9162 131.103 78.9162 125.317C78.9162 121.089 79.3753 116.968 80.2935 112.954C81.4038 108.192 83.0052 104.391 85.0977 101.552C87.3397 98.5196 89.9981 96.9929 93.0728 96.9715C96.4251 96.9502 99.3717 98.4342 101.913 101.423C104.069 103.964 105.735 107.509 106.909 112.057C107.998 116.242 108.543 120.502 108.543 124.836ZM102.009 123.972C102.009 118.975 101.261 114.427 99.7668 110.327C98.0586 105.63 95.8486 103.27 93.1369 103.249C90.8095 103.228 88.8878 105.705 87.3717 110.68C86.0693 114.993 85.4073 119.733 85.386 124.9C85.386 129.064 85.9411 132.673 87.0515 135.726C88.4394 139.527 90.4678 141.438 93.1369 141.459C97.4073 141.48 100.14 138.47 101.336 132.427C101.785 130.164 102.009 127.345 102.009 123.972ZM161.992 134.221C161.992 143.189 158.918 147.694 152.768 147.737C149.608 147.758 147.302 146.242 145.85 143.189C144.761 140.925 144.206 138.021 144.184 134.477C144.163 130.313 144.825 126.577 146.17 123.267C147.729 119.445 149.896 117.523 152.672 117.502C155.747 117.48 158.138 119.327 159.846 123.043C161.256 126.139 161.971 129.865 161.992 134.221ZM153.505 96.9715C152.587 98.0819 151.647 99.3416 150.686 100.751C150.003 101.754 149.48 102.715 149.117 103.633L132.014 147H123.462C125.085 145.27 126.494 142.911 127.69 139.922L144.857 96.9715H153.505ZM131.757 113.658C131.757 118.014 131.031 121.313 129.58 123.555C127.999 125.968 125.651 127.185 122.533 127.206C119.394 127.228 117.099 125.712 115.647 122.658C114.537 120.374 113.971 117.47 113.95 113.947C113.907 109.804 114.569 106.046 115.935 102.673C117.451 98.8932 119.629 96.9929 122.469 96.9715C125.523 96.9502 127.903 98.7972 129.612 102.512C131.042 105.587 131.757 109.302 131.757 113.658ZM156.515 133.548C156.537 131.669 156.313 129.843 155.843 128.071C155.181 125.509 154.177 124.228 152.832 124.228C151.85 124.228 151.071 125.285 150.494 127.399C149.96 129.384 149.683 131.584 149.661 133.996C149.64 136.601 149.95 138.502 150.59 139.698C151.124 140.701 151.871 141.214 152.832 141.235C154.305 141.278 155.341 140.477 155.939 138.833C156.302 137.829 156.494 136.068 156.515 133.548ZM126.281 112.986C126.302 110.701 126.014 108.673 125.416 106.9C124.69 104.765 123.75 103.698 122.597 103.698C121.615 103.698 120.836 104.754 120.259 106.868C119.725 108.854 119.448 111.053 119.426 113.466C119.405 118.249 120.462 120.651 122.597 120.673C124.092 120.694 125.128 119.893 125.704 118.27C126.067 117.224 126.259 115.463 126.281 112.986Z" fill="#EDEBDF"/>
<path d="M594.93 128.007C594.93 133.986 593.2 138.758 589.741 142.324C586.282 145.89 581.457 147.673 575.265 147.673C572.617 147.673 570.418 147.406 568.667 146.872C566.916 146.317 564.962 145.281 562.805 143.765L567.514 137.103C568.944 138.384 570.268 139.313 571.485 139.89C573.065 140.616 574.72 140.989 576.45 141.011C579.866 141.032 582.684 139.815 584.905 137.359C587.019 134.989 588.097 132.075 588.14 128.616C588.161 125.819 587.286 123.512 585.514 121.698C583.677 119.819 581.243 118.868 578.211 118.847C575.136 118.826 572.425 119.594 570.076 121.153V97.2598H592.72V105.907C591.546 104.989 590.542 104.359 589.709 104.018C588.983 103.719 587.959 103.569 586.635 103.569H576.257V112.537C577.261 112.345 578.414 112.249 579.717 112.249C584.265 112.228 587.959 113.722 590.798 116.733C593.553 119.68 594.93 123.438 594.93 128.007ZM647.957 134.221C647.957 143.189 644.882 147.694 638.733 147.737C635.573 147.758 633.267 146.242 631.815 143.189C630.726 140.925 630.171 138.021 630.149 134.477C630.128 130.313 630.79 126.577 632.135 123.267C633.694 119.445 635.861 117.523 638.637 117.502C641.712 117.48 644.103 119.327 645.811 123.043C647.221 126.139 647.936 129.865 647.957 134.221ZM639.47 96.9715C638.551 98.0819 637.612 99.3416 636.651 100.751C635.968 101.754 635.445 102.715 635.082 103.633L617.979 147H609.427C611.05 145.27 612.459 142.911 613.655 139.922L630.822 96.9715H639.47ZM617.722 113.658C617.722 118.014 616.996 121.313 615.544 123.555C613.964 125.968 611.616 127.185 608.498 127.206C605.359 127.228 603.064 125.712 601.612 122.658C600.502 120.374 599.936 117.47 599.914 113.947C599.872 109.804 600.534 106.046 601.9 102.673C603.416 98.8932 605.594 96.9929 608.434 96.9715C611.487 96.9502 613.868 98.7972 615.576 102.512C617.007 105.587 617.722 109.302 617.722 113.658ZM642.48 133.548C642.502 131.669 642.277 129.843 641.808 128.071C641.146 125.509 640.142 124.228 638.797 124.228C637.815 124.228 637.035 125.285 636.459 127.399C635.925 129.384 635.648 131.584 635.626 133.996C635.605 136.601 635.914 138.502 636.555 139.698C637.089 140.701 637.836 141.214 638.797 141.235C640.27 141.278 641.306 140.477 641.904 138.833C642.267 137.829 642.459 136.068 642.48 133.548ZM612.245 112.986C612.267 110.701 611.979 108.673 611.381 106.9C610.655 104.765 609.715 103.698 608.562 103.698C607.58 103.698 606.801 104.754 606.224 106.868C605.69 108.854 605.413 111.053 605.391 113.466C605.37 118.249 606.427 120.651 608.562 120.673C610.057 120.694 611.092 119.893 611.669 118.27C612.032 117.224 612.224 115.463 612.245 112.986Z" fill="#EDEBDF"/>
<path d="M807.998 147H798.774C799.393 146.06 799.82 144.94 800.055 143.637C800.183 142.911 800.247 141.854 800.247 140.466V108.278C800.247 106.292 799.254 105.085 797.269 104.658L806.589 95.8505V140.466C806.589 141.94 806.642 142.954 806.749 143.509C806.984 144.769 807.4 145.932 807.998 147ZM842.382 124.836C842.382 140.103 837.247 147.737 826.977 147.737C821.831 147.737 818.019 145.132 815.543 139.922C813.685 135.972 812.756 131.103 812.756 125.317C812.756 121.089 813.215 116.968 814.133 112.954C815.244 108.192 816.845 104.391 818.938 101.552C821.18 98.5196 823.838 96.9929 826.913 96.9715C830.265 96.9502 833.212 98.4342 835.753 101.423C837.909 103.964 839.575 107.509 840.749 112.057C841.838 116.242 842.382 120.502 842.382 124.836ZM835.849 123.972C835.849 118.975 835.101 114.427 833.607 110.327C831.898 105.63 829.688 103.27 826.977 103.249C824.649 103.228 822.728 105.705 821.212 110.68C819.909 114.993 819.247 119.733 819.226 124.9C819.226 129.064 819.781 132.673 820.891 135.726C822.279 139.527 824.308 141.438 826.977 141.459C831.247 141.48 833.98 138.47 835.176 132.427C835.624 130.164 835.849 127.345 835.849 123.972ZM895.832 134.221C895.832 143.189 892.757 147.694 886.608 147.737C883.448 147.758 881.142 146.242 879.69 143.189C878.601 140.925 878.046 138.021 878.024 134.477C878.003 130.313 878.665 126.577 880.01 123.267C881.569 119.445 883.736 117.523 886.512 117.502C889.587 117.48 891.978 119.327 893.686 123.043C895.096 126.139 895.811 129.865 895.832 134.221ZM887.345 96.9715C886.426 98.0819 885.487 99.3416 884.526 100.751C883.843 101.754 883.32 102.715 882.957 103.633L865.854 147H857.302C858.925 145.27 860.334 142.911 861.53 139.922L878.697 96.9715H887.345ZM865.597 113.658C865.597 118.014 864.871 121.313 863.419 123.555C861.839 125.968 859.491 127.185 856.373 127.206C853.234 127.228 850.939 125.712 849.487 122.658C848.377 120.374 847.811 117.47 847.789 113.947C847.747 109.804 848.409 106.046 849.775 102.673C851.291 98.8932 853.469 96.9929 856.309 96.9715C859.362 96.9502 861.743 98.7972 863.451 102.512C864.882 105.587 865.597 109.302 865.597 113.658ZM890.355 133.548C890.377 131.669 890.152 129.843 889.683 128.071C889.021 125.509 888.017 124.228 886.672 124.228C885.69 124.228 884.91 125.285 884.334 127.399C883.8 129.384 883.523 131.584 883.501 133.996C883.48 136.601 883.789 138.502 884.43 139.698C884.964 140.701 885.711 141.214 886.672 141.235C888.145 141.278 889.181 140.477 889.779 138.833C890.142 137.829 890.334 136.068 890.355 133.548ZM860.12 112.986C860.142 110.701 859.854 108.673 859.256 106.9C858.53 104.765 857.59 103.698 856.437 103.698C855.455 103.698 854.676 104.754 854.099 106.868C853.565 108.854 853.288 111.053 853.266 113.466C853.245 118.249 854.302 120.651 856.437 120.673C857.932 120.694 858.967 119.893 859.544 118.27C859.907 117.224 860.099 115.463 860.12 112.986Z" fill="#EDEBDF"/>
<path d="M1042.03 147H1032.81C1033.43 146.06 1033.86 144.94 1034.09 143.637C1034.22 142.911 1034.28 141.854 1034.28 140.466V108.278C1034.28 106.292 1033.29 105.085 1031.3 104.658L1040.62 95.8505V140.466C1040.62 141.94 1040.68 142.954 1040.78 143.509C1041.02 144.769 1041.44 145.932 1042.03 147ZM1076.77 128.007C1076.77 133.986 1075.04 138.758 1071.58 142.324C1068.12 145.89 1063.3 147.673 1057.1 147.673C1054.46 147.673 1052.26 147.406 1050.51 146.872C1048.76 146.317 1046.8 145.281 1044.65 143.765L1049.35 137.103C1050.78 138.384 1052.11 139.313 1053.33 139.89C1054.91 140.616 1056.56 140.989 1058.29 141.011C1061.71 141.032 1064.52 139.815 1066.74 137.359C1068.86 134.989 1069.94 132.075 1069.98 128.616C1070 125.819 1069.13 123.512 1067.35 121.698C1065.52 119.819 1063.08 118.868 1060.05 118.847C1056.98 118.826 1054.26 119.594 1051.92 121.153V97.2598H1074.56V105.907C1073.39 104.989 1072.38 104.359 1071.55 104.018C1070.82 103.719 1069.8 103.569 1068.47 103.569H1058.1V112.537C1059.1 112.345 1060.25 112.249 1061.56 112.249C1066.1 112.228 1069.8 113.722 1072.64 116.733C1075.39 119.68 1076.77 123.438 1076.77 128.007ZM1129.8 134.221C1129.8 143.189 1126.72 147.694 1120.57 147.737C1117.41 147.758 1115.11 146.242 1113.65 143.189C1112.57 140.925 1112.01 138.021 1111.99 134.477C1111.97 130.313 1112.63 126.577 1113.97 123.267C1115.53 119.445 1117.7 117.523 1120.48 117.502C1123.55 117.48 1125.94 119.327 1127.65 123.043C1129.06 126.139 1129.78 129.865 1129.8 134.221ZM1121.31 96.9715C1120.39 98.0819 1119.45 99.3416 1118.49 100.751C1117.81 101.754 1117.28 102.715 1116.92 103.633L1099.82 147H1091.27C1092.89 145.27 1094.3 142.911 1095.49 139.922L1112.66 96.9715H1121.31ZM1099.56 113.658C1099.56 118.014 1098.84 121.313 1097.38 123.555C1095.8 125.968 1093.46 127.185 1090.34 127.206C1087.2 127.228 1084.9 125.712 1083.45 122.658C1082.34 120.374 1081.78 117.47 1081.75 113.947C1081.71 109.804 1082.37 106.046 1083.74 102.673C1085.26 98.8932 1087.43 96.9929 1090.27 96.9715C1093.33 96.9502 1095.71 98.7972 1097.42 102.512C1098.85 105.587 1099.56 109.302 1099.56 113.658ZM1124.32 133.548C1124.34 131.669 1124.12 129.843 1123.65 128.071C1122.99 125.509 1121.98 124.228 1120.64 124.228C1119.65 124.228 1118.88 125.285 1118.3 127.399C1117.76 129.384 1117.49 131.584 1117.47 133.996C1117.44 136.601 1117.75 138.502 1118.39 139.698C1118.93 140.701 1119.68 141.214 1120.64 141.235C1122.11 141.278 1123.15 140.477 1123.74 138.833C1124.11 137.829 1124.3 136.068 1124.32 133.548ZM1094.09 112.986C1094.11 110.701 1093.82 108.673 1093.22 106.9C1092.49 104.765 1091.56 103.698 1090.4 103.698C1089.42 103.698 1088.64 104.754 1088.06 106.868C1087.53 108.854 1087.25 111.053 1087.23 113.466C1087.21 118.249 1088.27 120.651 1090.4 120.673C1091.9 120.694 1092.93 119.893 1093.51 118.27C1093.87 117.224 1094.06 115.463 1094.09 112.986Z" fill="#EDEBDF"/>
<path d="M1290.75 147H1262.54V141.235L1266.89 136.206C1268.04 134.883 1269.41 133.238 1270.99 131.274C1272.44 129.502 1273.66 128.018 1274.64 126.822C1277.46 123.427 1279.61 120.448 1281.08 117.886C1282.81 114.875 1283.67 112.217 1283.67 109.911C1283.67 107.819 1283.01 106.153 1281.69 104.915C1280.36 103.655 1278.65 103.025 1276.53 103.025C1275.4 103.025 1274.26 103.324 1273.1 103.922C1272.08 104.456 1271.01 105.288 1269.9 106.42L1264.81 100.27C1266.73 99.1174 1268.35 98.3274 1269.68 97.9004C1271.56 97.3025 1274 96.9929 1277.01 96.9715C1281.22 96.9502 1284.58 98.1566 1287.1 100.591C1289.51 102.918 1290.73 105.779 1290.75 109.174C1290.77 111.224 1290.33 113.466 1289.41 115.9C1288.7 117.801 1287.55 119.989 1285.95 122.466C1284.86 124.174 1283.3 126.32 1281.27 128.904C1279.07 131.701 1277.25 133.943 1275.79 135.63C1274.24 137.423 1272.71 139.1 1271.21 140.658H1284.47C1286.1 140.658 1287.21 140.562 1287.81 140.37C1288.68 140.178 1289.66 139.623 1290.75 138.705V147ZM1324.61 128.007C1324.61 133.986 1322.88 138.758 1319.42 142.324C1315.96 145.89 1311.14 147.673 1304.94 147.673C1302.3 147.673 1300.1 147.406 1298.35 146.872C1296.6 146.317 1294.64 145.281 1292.49 143.765L1297.19 137.103C1298.62 138.384 1299.95 139.313 1301.16 139.89C1302.74 140.616 1304.4 140.989 1306.13 141.011C1309.55 141.032 1312.36 139.815 1314.58 137.359C1316.7 134.989 1317.78 132.075 1317.82 128.616C1317.84 125.819 1316.97 123.512 1315.19 121.698C1313.36 119.819 1310.92 118.868 1307.89 118.847C1304.82 118.826 1302.1 119.594 1299.76 121.153V97.2598H1322.4V105.907C1321.23 104.989 1320.22 104.359 1319.39 104.018C1318.66 103.719 1317.64 103.569 1316.31 103.569H1305.94V112.537C1306.94 112.345 1308.09 112.249 1309.4 112.249C1313.94 112.228 1317.64 113.722 1320.48 116.733C1323.23 119.68 1324.61 123.438 1324.61 128.007ZM1377.64 134.221C1377.64 143.189 1374.56 147.694 1368.41 147.737C1365.25 147.758 1362.95 146.242 1361.49 143.189C1360.41 140.925 1359.85 138.021 1359.83 134.477C1359.81 130.313 1360.47 126.577 1361.81 123.267C1363.37 119.445 1365.54 117.523 1368.32 117.502C1371.39 117.48 1373.78 119.327 1375.49 123.043C1376.9 126.139 1377.62 129.865 1377.64 134.221ZM1369.15 96.9715C1368.23 98.0819 1367.29 99.3416 1366.33 100.751C1365.65 101.754 1365.12 102.715 1364.76 103.633L1347.66 147H1339.11C1340.73 145.27 1342.14 142.911 1343.33 139.922L1360.5 96.9715H1369.15ZM1347.4 113.658C1347.4 118.014 1346.68 121.313 1345.22 123.555C1343.64 125.968 1341.3 127.185 1338.18 127.206C1335.04 127.228 1332.74 125.712 1331.29 122.658C1330.18 120.374 1329.62 117.47 1329.59 113.947C1329.55 109.804 1330.21 106.046 1331.58 102.673C1333.1 98.8932 1335.27 96.9929 1338.11 96.9715C1341.17 96.9502 1343.55 98.7972 1345.26 102.512C1346.69 105.587 1347.4 109.302 1347.4 113.658ZM1372.16 133.548C1372.18 131.669 1371.96 129.843 1371.49 128.071C1370.83 125.509 1369.82 124.228 1368.48 124.228C1367.49 124.228 1366.72 125.285 1366.14 127.399C1365.6 129.384 1365.33 131.584 1365.31 133.996C1365.28 136.601 1365.59 138.502 1366.23 139.698C1366.77 140.701 1367.52 141.214 1368.48 141.235C1369.95 141.278 1370.99 140.477 1371.58 138.833C1371.95 137.829 1372.14 136.068 1372.16 133.548ZM1341.93 112.986C1341.95 110.701 1341.66 108.673 1341.06 106.9C1340.33 104.765 1339.39 103.698 1338.24 103.698C1337.26 103.698 1336.48 104.754 1335.9 106.868C1335.37 108.854 1335.09 111.053 1335.07 113.466C1335.05 118.249 1336.11 120.651 1338.24 120.673C1339.74 120.694 1340.77 119.893 1341.35 118.27C1341.71 117.224 1341.9 115.463 1341.93 112.986Z" fill="#EDEBDF"/>
<path d="M1532.86 129.641C1532.86 134.936 1531.13 139.292 1527.67 142.708C1524.34 145.996 1520.16 147.651 1515.12 147.673C1512.28 147.694 1509.84 147.491 1507.81 147.064C1505.53 146.594 1503.18 145.676 1500.77 144.31L1505.51 137.391C1506.9 138.95 1508.35 140.007 1509.86 140.562C1511.15 141.032 1512.95 141.278 1515.28 141.299C1518.29 141.32 1520.87 140.167 1523.03 137.84C1525.14 135.577 1526.2 132.929 1526.2 129.897C1526.2 123.043 1522.11 119.584 1513.93 119.52V113.947C1516.52 113.541 1518.41 112.964 1519.6 112.217C1521.25 111.192 1522.07 109.655 1522.07 107.605C1522.07 106.473 1521.6 105.48 1520.66 104.626C1519.72 103.772 1518.65 103.335 1517.46 103.313C1515.49 103.292 1513.45 104.05 1511.34 105.587L1507.43 99.2456C1508.78 98.5836 1510.29 98.0178 1511.98 97.548C1513.39 97.1637 1514.97 96.9715 1516.72 96.9715C1520.2 96.9715 1523.2 97.847 1525.72 99.5979C1528.47 101.52 1529.87 104.039 1529.91 107.157C1529.94 108.822 1529.5 110.434 1528.6 111.993C1527.81 113.359 1526.58 114.534 1524.92 115.516C1527.01 116.456 1528.79 118.046 1530.27 120.288C1532 122.915 1532.86 126.032 1532.86 129.641ZM1565.38 128.007C1565.38 133.986 1563.65 138.758 1560.19 142.324C1556.74 145.89 1551.91 147.673 1545.72 147.673C1543.07 147.673 1540.87 147.406 1539.12 146.872C1537.37 146.317 1535.42 145.281 1533.26 143.765L1537.97 137.103C1539.4 138.384 1540.72 139.313 1541.94 139.89C1543.52 140.616 1545.17 140.989 1546.9 141.011C1550.32 141.032 1553.14 139.815 1555.36 137.359C1557.47 134.989 1558.55 132.075 1558.59 128.616C1558.61 125.819 1557.74 123.512 1555.97 121.698C1554.13 119.819 1551.7 118.868 1548.66 118.847C1545.59 118.826 1542.88 119.594 1540.53 121.153V97.2598H1563.17V105.907C1562 104.989 1561 104.359 1560.16 104.018C1559.44 103.719 1558.41 103.569 1557.09 103.569H1546.71V112.537C1547.71 112.345 1548.87 112.249 1550.17 112.249C1554.72 112.228 1558.41 113.722 1561.25 116.733C1564.01 119.68 1565.38 123.438 1565.38 128.007ZM1618.41 134.221C1618.41 143.189 1615.34 147.694 1609.19 147.737C1606.03 147.758 1603.72 146.242 1602.27 143.189C1601.18 140.925 1600.62 138.021 1600.6 134.477C1600.58 130.313 1601.24 126.577 1602.59 123.267C1604.15 119.445 1606.31 117.523 1609.09 117.502C1612.16 117.48 1614.56 119.327 1616.26 123.043C1617.67 126.139 1618.39 129.865 1618.41 134.221ZM1609.92 96.9715C1609 98.0819 1608.07 99.3416 1607.1 100.751C1606.42 101.754 1605.9 102.715 1605.53 103.633L1588.43 147H1579.88C1581.5 145.27 1582.91 142.911 1584.11 139.922L1601.28 96.9715H1609.92ZM1588.18 113.658C1588.18 118.014 1587.45 121.313 1586 123.555C1584.42 125.968 1582.07 127.185 1578.95 127.206C1575.81 127.228 1573.52 125.712 1572.07 122.658C1570.95 120.374 1570.39 117.47 1570.37 113.947C1570.32 109.804 1570.99 106.046 1572.35 102.673C1573.87 98.8932 1576.05 96.9929 1578.89 96.9715C1581.94 96.9502 1584.32 98.7972 1586.03 102.512C1587.46 105.587 1588.18 109.302 1588.18 113.658ZM1612.93 133.548C1612.95 131.669 1612.73 129.843 1612.26 128.071C1611.6 125.509 1610.6 124.228 1609.25 124.228C1608.27 124.228 1607.49 125.285 1606.91 127.399C1606.38 129.384 1606.1 131.584 1606.08 133.996C1606.06 136.601 1606.37 138.502 1607.01 139.698C1607.54 140.701 1608.29 141.214 1609.25 141.235C1610.72 141.278 1611.76 140.477 1612.36 138.833C1612.72 137.829 1612.91 136.068 1612.93 133.548ZM1582.7 112.986C1582.72 110.701 1582.43 108.673 1581.83 106.9C1581.11 104.765 1580.17 103.698 1579.02 103.698C1578.03 103.698 1577.25 104.754 1576.68 106.868C1576.14 108.854 1575.87 111.053 1575.84 113.466C1575.82 118.249 1576.88 120.651 1579.02 120.673C1580.51 120.694 1581.55 119.893 1582.12 118.27C1582.49 117.224 1582.68 115.463 1582.7 112.986Z" fill="#EDEBDF"/>
</svg>
